%TF.GenerationSoftware,KiCad,Pcbnew,8.0.0*%
%TF.CreationDate,2024-05-23T14:56:37-05:00*%
%TF.ProjectId,antenna_connector,616e7465-6e6e-4615-9f63-6f6e6e656374,rev?*%
%TF.SameCoordinates,Original*%
%TF.FileFunction,Soldermask,Bot*%
%TF.FilePolarity,Negative*%
%FSLAX46Y46*%
G04 Gerber Fmt 4.6, Leading zero omitted, Abs format (unit mm)*
G04 Created by KiCad (PCBNEW 8.0.0) date 2024-05-23 14:56:37*
%MOMM*%
%LPD*%
G01*
G04 APERTURE LIST*
%ADD10O,1.700000X1.700000*%
%ADD11R,1.700000X1.700000*%
%ADD12C,3.000000*%
%ADD13C,3.250000*%
%ADD14O,1.500000X1.500000*%
%ADD15C,1.500000*%
G04 APERTURE END LIST*
D10*
%TO.C,REF\u002A\u002A*%
X112640000Y-117520000D03*
X112640000Y-114980000D03*
X115180000Y-117520000D03*
X115180000Y-114980000D03*
X117720000Y-117520000D03*
X117720000Y-114980000D03*
X120260000Y-117520000D03*
X120260000Y-114980000D03*
X122800000Y-117520000D03*
X122800000Y-114980000D03*
X125340000Y-117520000D03*
X125340000Y-114980000D03*
X127880000Y-117520000D03*
X127880000Y-114980000D03*
X130420000Y-117520000D03*
X130420000Y-114980000D03*
X132960000Y-117520000D03*
X132960000Y-114980000D03*
X135500000Y-117520000D03*
X135500000Y-114980000D03*
X138040000Y-117520000D03*
X138040000Y-114980000D03*
X140580000Y-117520000D03*
X140580000Y-114980000D03*
X143120000Y-117520000D03*
X143120000Y-114980000D03*
X145660000Y-117520000D03*
X145660000Y-114980000D03*
X148200000Y-117520000D03*
X148200000Y-114980000D03*
X150740000Y-117520000D03*
X150740000Y-114980000D03*
X153280000Y-117520000D03*
X153280000Y-114980000D03*
X155820000Y-117520000D03*
X155820000Y-114980000D03*
X158360000Y-117520000D03*
X158360000Y-114980000D03*
X160900000Y-117520000D03*
X160900000Y-114980000D03*
%TD*%
%TO.C,REF\u002A\u002A*%
X113180000Y-82760000D03*
X113180000Y-80220000D03*
X115720000Y-82760000D03*
X115720000Y-80220000D03*
X118260000Y-82760000D03*
X118260000Y-80220000D03*
X120800000Y-82760000D03*
X120800000Y-80220000D03*
X123340000Y-82760000D03*
X123340000Y-80220000D03*
X125880000Y-82760000D03*
X125880000Y-80220000D03*
X128420000Y-82760000D03*
X128420000Y-80220000D03*
X130960000Y-82760000D03*
X130960000Y-80220000D03*
X133500000Y-82760000D03*
X133500000Y-80220000D03*
X136040000Y-82760000D03*
X136040000Y-80220000D03*
X138580000Y-82760000D03*
X138580000Y-80220000D03*
X141120000Y-82760000D03*
X141120000Y-80220000D03*
X143660000Y-82760000D03*
X143660000Y-80220000D03*
X146200000Y-82760000D03*
X146200000Y-80220000D03*
X148740000Y-82760000D03*
X148740000Y-80220000D03*
X151280000Y-82760000D03*
X151280000Y-80220000D03*
X153820000Y-82760000D03*
X153820000Y-80220000D03*
X156360000Y-82760000D03*
X156360000Y-80220000D03*
X158900000Y-82760000D03*
X158900000Y-80220000D03*
X161440000Y-82760000D03*
X161440000Y-80220000D03*
%TD*%
D11*
%TO.C,REF\u002A\u002A*%
X182728494Y-119510000D03*
D10*
X182728494Y-116970000D03*
X182728494Y-114430000D03*
%TD*%
D12*
%TO.C,REF\u002A\u002A*%
X193570000Y-81865000D03*
%TD*%
D11*
%TO.C,REF\u002A\u002A*%
X183268494Y-84750000D03*
D10*
X183268494Y-82210000D03*
X183268494Y-79670000D03*
%TD*%
D12*
%TO.C,REF\u002A\u002A*%
X193030000Y-116625000D03*
%TD*%
%TO.C,REF\u002A\u002A*%
X93130000Y-81840000D03*
%TD*%
%TO.C,REF\u002A\u002A*%
X92590000Y-116600000D03*
%TD*%
D13*
%TO.C,REF\u002A\u002A*%
X177390000Y-62040000D03*
X188820000Y-62040000D03*
D14*
X178660000Y-68390000D03*
D15*
X179930000Y-70930000D03*
X181200000Y-68390000D03*
X182470000Y-70930000D03*
X183740000Y-68390000D03*
X185010000Y-70930000D03*
X186280000Y-68390000D03*
X187550000Y-70930000D03*
%TD*%
D13*
%TO.C,REF\u002A\u002A*%
X188485000Y-136115000D03*
X177055000Y-136115000D03*
D14*
X187215000Y-129765000D03*
D15*
X185945000Y-127225000D03*
X184675000Y-129765000D03*
X183405000Y-127225000D03*
X182135000Y-129765000D03*
X180865000Y-127225000D03*
X179595000Y-129765000D03*
X178325000Y-127225000D03*
%TD*%
D13*
%TO.C,REF\u002A\u002A*%
X97945000Y-62065000D03*
X109375000Y-62065000D03*
D14*
X99215000Y-68415000D03*
D15*
X100485000Y-70955000D03*
X101755000Y-68415000D03*
X103025000Y-70955000D03*
X104295000Y-68415000D03*
X105565000Y-70955000D03*
X106835000Y-68415000D03*
X108105000Y-70955000D03*
%TD*%
D13*
%TO.C,REF\u002A\u002A*%
X161545000Y-62065000D03*
X172975000Y-62065000D03*
D14*
X162815000Y-68415000D03*
D15*
X164085000Y-70955000D03*
X165355000Y-68415000D03*
X166625000Y-70955000D03*
X167895000Y-68415000D03*
X169165000Y-70955000D03*
X170435000Y-68415000D03*
X171705000Y-70955000D03*
%TD*%
D13*
%TO.C,REF\u002A\u002A*%
X113790000Y-62040000D03*
X125220000Y-62040000D03*
D14*
X115060000Y-68390000D03*
D15*
X116330000Y-70930000D03*
X117600000Y-68390000D03*
X118870000Y-70930000D03*
X120140000Y-68390000D03*
X121410000Y-70930000D03*
X122680000Y-68390000D03*
X123950000Y-70930000D03*
%TD*%
D13*
%TO.C,REF\u002A\u002A*%
X172640000Y-136140000D03*
X161210000Y-136140000D03*
D14*
X171370000Y-129790000D03*
D15*
X170100000Y-127250000D03*
X168830000Y-129790000D03*
X167560000Y-127250000D03*
X166290000Y-129790000D03*
X165020000Y-127250000D03*
X163750000Y-129790000D03*
X162480000Y-127250000D03*
%TD*%
D13*
%TO.C,REF\u002A\u002A*%
X145545000Y-62040000D03*
X156975000Y-62040000D03*
D14*
X146815000Y-68390000D03*
D15*
X148085000Y-70930000D03*
X149355000Y-68390000D03*
X150625000Y-70930000D03*
X151895000Y-68390000D03*
X153165000Y-70930000D03*
X154435000Y-68390000D03*
X155705000Y-70930000D03*
%TD*%
D13*
%TO.C,REF\u002A\u002A*%
X124885000Y-136115000D03*
X113455000Y-136115000D03*
D14*
X123615000Y-129765000D03*
D15*
X122345000Y-127225000D03*
X121075000Y-129765000D03*
X119805000Y-127225000D03*
X118535000Y-129765000D03*
X117265000Y-127225000D03*
X115995000Y-129765000D03*
X114725000Y-127225000D03*
%TD*%
D13*
%TO.C,REF\u002A\u002A*%
X156730000Y-136115000D03*
X145300000Y-136115000D03*
D14*
X155460000Y-129765000D03*
D15*
X154190000Y-127225000D03*
X152920000Y-129765000D03*
X151650000Y-127225000D03*
X150380000Y-129765000D03*
X149110000Y-127225000D03*
X147840000Y-129765000D03*
X146570000Y-127225000D03*
%TD*%
D13*
%TO.C,REF\u002A\u002A*%
X109040000Y-136140000D03*
X97610000Y-136140000D03*
D14*
X107770000Y-129790000D03*
D15*
X106500000Y-127250000D03*
X105230000Y-129790000D03*
X103960000Y-127250000D03*
X102690000Y-129790000D03*
X101420000Y-127250000D03*
X100150000Y-129790000D03*
X98880000Y-127250000D03*
%TD*%
D13*
%TO.C,REF\u002A\u002A*%
X140885000Y-136140000D03*
X129455000Y-136140000D03*
D14*
X139615000Y-129790000D03*
D15*
X138345000Y-127250000D03*
X137075000Y-129790000D03*
X135805000Y-127250000D03*
X134535000Y-129790000D03*
X133265000Y-127250000D03*
X131995000Y-129790000D03*
X130725000Y-127250000D03*
%TD*%
D13*
%TO.C,REF\u002A\u002A*%
X129700000Y-62065000D03*
X141130000Y-62065000D03*
D14*
X130970000Y-68415000D03*
D15*
X132240000Y-70955000D03*
X133510000Y-68415000D03*
X134780000Y-70955000D03*
X136050000Y-68415000D03*
X137320000Y-70955000D03*
X138590000Y-68415000D03*
X139860000Y-70955000D03*
%TD*%
M02*
