M48
; DRILL file {KiCad 8.0.0} date 2024-05-23T14:56:34-0500
; FORMAT={-:-/ absolute / metric / decimal}
; #@! TF.CreationDate,2024-05-23T14:56:34-05:00
; #@! TF.GenerationSoftware,Kicad,Pcbnew,8.0.0
; #@! TF.FileFunction,Plated,1,4,PTH
FMAT,2
METRIC
; #@! TA.AperFunction,Plated,PTH,ComponentDrill
T1C0.900
; #@! TA.AperFunction,Plated,PTH,ComponentDrill
T2C1.000
%
G90
G05
T1
X98.88Y-127.25
X99.215Y-68.415
X100.15Y-129.79
X100.485Y-70.955
X101.42Y-127.25
X101.755Y-68.415
X102.69Y-129.79
X103.025Y-70.955
X103.96Y-127.25
X104.295Y-68.415
X105.23Y-129.79
X105.565Y-70.955
X106.5Y-127.25
X106.835Y-68.415
X107.77Y-129.79
X108.105Y-70.955
X114.725Y-127.225
X115.06Y-68.39
X115.995Y-129.765
X116.33Y-70.93
X117.265Y-127.225
X117.6Y-68.39
X118.535Y-129.765
X118.87Y-70.93
X119.805Y-127.225
X120.14Y-68.39
X121.075Y-129.765
X121.41Y-70.93
X122.345Y-127.225
X122.68Y-68.39
X123.615Y-129.765
X123.95Y-70.93
X130.725Y-127.25
X130.97Y-68.415
X131.995Y-129.79
X132.24Y-70.955
X133.265Y-127.25
X133.51Y-68.415
X134.535Y-129.79
X134.78Y-70.955
X135.805Y-127.25
X136.05Y-68.415
X137.075Y-129.79
X137.32Y-70.955
X138.345Y-127.25
X138.59Y-68.415
X139.615Y-129.79
X139.86Y-70.955
X146.57Y-127.225
X146.815Y-68.39
X147.84Y-129.765
X148.085Y-70.93
X149.11Y-127.225
X149.355Y-68.39
X150.38Y-129.765
X150.625Y-70.93
X151.65Y-127.225
X151.895Y-68.39
X152.92Y-129.765
X153.165Y-70.93
X154.19Y-127.225
X154.435Y-68.39
X155.46Y-129.765
X155.705Y-70.93
X162.48Y-127.25
X162.815Y-68.415
X163.75Y-129.79
X164.085Y-70.955
X165.02Y-127.25
X165.355Y-68.415
X166.29Y-129.79
X166.625Y-70.955
X167.56Y-127.25
X167.895Y-68.415
X168.83Y-129.79
X169.165Y-70.955
X170.1Y-127.25
X170.435Y-68.415
X171.37Y-129.79
X171.705Y-70.955
X178.325Y-127.225
X178.66Y-68.39
X179.595Y-129.765
X179.93Y-70.93
X180.865Y-127.225
X181.2Y-68.39
X182.135Y-129.765
X182.47Y-70.93
X183.405Y-127.225
X183.74Y-68.39
X184.675Y-129.765
X185.01Y-70.93
X185.945Y-127.225
X186.28Y-68.39
X187.215Y-129.765
X187.55Y-70.93
T2
X112.64Y-114.98
X112.64Y-117.52
X113.18Y-80.22
X113.18Y-82.76
X115.18Y-114.98
X115.18Y-117.52
X115.72Y-80.22
X115.72Y-82.76
X117.72Y-114.98
X117.72Y-117.52
X118.26Y-80.22
X118.26Y-82.76
X120.26Y-114.98
X120.26Y-117.52
X120.8Y-80.22
X120.8Y-82.76
X122.8Y-114.98
X122.8Y-117.52
X123.34Y-80.22
X123.34Y-82.76
X125.34Y-114.98
X125.34Y-117.52
X125.88Y-80.22
X125.88Y-82.76
X127.88Y-114.98
X127.88Y-117.52
X128.42Y-80.22
X128.42Y-82.76
X130.42Y-114.98
X130.42Y-117.52
X130.96Y-80.22
X130.96Y-82.76
X132.96Y-114.98
X132.96Y-117.52
X133.5Y-80.22
X133.5Y-82.76
X135.5Y-114.98
X135.5Y-117.52
X136.04Y-80.22
X136.04Y-82.76
X138.04Y-114.98
X138.04Y-117.52
X138.58Y-80.22
X138.58Y-82.76
X140.58Y-114.98
X140.58Y-117.52
X141.12Y-80.22
X141.12Y-82.76
X143.12Y-114.98
X143.12Y-117.52
X143.66Y-80.22
X143.66Y-82.76
X145.66Y-114.98
X145.66Y-117.52
X146.2Y-80.22
X146.2Y-82.76
X148.2Y-114.98
X148.2Y-117.52
X148.74Y-80.22
X148.74Y-82.76
X150.74Y-114.98
X150.74Y-117.52
X151.28Y-80.22
X151.28Y-82.76
X153.28Y-114.98
X153.28Y-117.52
X153.82Y-80.22
X153.82Y-82.76
X155.82Y-114.98
X155.82Y-117.52
X156.36Y-80.22
X156.36Y-82.76
X158.36Y-114.98
X158.36Y-117.52
X158.9Y-80.22
X158.9Y-82.76
X160.9Y-114.98
X160.9Y-117.52
X161.44Y-80.22
X161.44Y-82.76
X182.728Y-114.43
X182.728Y-116.97
X182.728Y-119.51
X183.268Y-79.67
X183.268Y-82.21
X183.268Y-84.75
M30
