%TF.GenerationSoftware,KiCad,Pcbnew,8.0.0*%
%TF.CreationDate,2024-05-23T14:19:23-05:00*%
%TF.ProjectId,mic_array_circuit,6d69635f-6172-4726-9179-5f6369726375,rev?*%
%TF.SameCoordinates,Original*%
%TF.FileFunction,Profile,NP*%
%FSLAX46Y46*%
G04 Gerber Fmt 4.6, Leading zero omitted, Abs format (unit mm)*
G04 Created by KiCad (PCBNEW 8.0.0) date 2024-05-23 14:19:23*
%MOMM*%
%LPD*%
G01*
G04 APERTURE LIST*
%TA.AperFunction,Profile*%
%ADD10C,0.050000*%
%TD*%
G04 APERTURE END LIST*
D10*
X-500000000Y7000000D02*
X-414000000Y7000000D01*
X-500000000Y-93000000D02*
G75*
G02*
X-500000000Y-79000000I0J7000000D01*
G01*
X-500000000Y-79000000D02*
X-464000000Y-79000000D01*
X-464000000Y-7000000D02*
X-464000000Y-79000000D01*
X-500000000Y-251000000D02*
X-464000000Y-251000000D01*
X-500000000Y-93000000D02*
X-464000000Y-93000000D01*
X-414000000Y-79000000D02*
G75*
G02*
X-414000000Y-93000000I0J-7000000D01*
G01*
X-414000000Y-7000000D02*
X-450000000Y-7000000D01*
X-500000000Y-7000000D02*
X-464000000Y-7000000D01*
X-450000000Y-7000000D02*
X-450000000Y-79000000D01*
X-414000000Y-179000000D02*
X-450000000Y-179000000D01*
X-464000000Y-93000000D02*
X-464000000Y-165000000D01*
X-500000000Y-179000000D02*
G75*
G02*
X-500000000Y-165000000I0J7000000D01*
G01*
X-414000000Y-251000000D02*
G75*
G02*
X-414000000Y-265000000I0J-7000000D01*
G01*
X-500000000Y-7000000D02*
G75*
G02*
X-500000000Y7000000I0J7000000D01*
G01*
X-500000000Y-179000000D02*
X-464000000Y-179000000D01*
X-500000000Y-165000000D02*
X-464000000Y-165000000D01*
X-414000000Y-93000000D02*
X-450000000Y-93000000D01*
X-414000000Y-79000000D02*
X-450000000Y-79000000D01*
X-414000000Y-251000000D02*
X-450000000Y-251000000D01*
X-450000000Y-251000000D02*
X-450000000Y-179000000D01*
X-450000000Y-165000000D02*
X-450000000Y-93000000D01*
X-500000000Y-265000000D02*
G75*
G02*
X-500000000Y-251000000I0J7000000D01*
G01*
X-414000000Y-165000000D02*
G75*
G02*
X-414000000Y-179000000I0J-7000000D01*
G01*
X-414000000Y-165000000D02*
X-450000000Y-165000000D01*
X-414000000Y7000000D02*
G75*
G02*
X-414000000Y-7000000I0J-7000000D01*
G01*
X-414000000Y-265000000D02*
X-500000000Y-265000000D01*
X-464000000Y-251000000D02*
X-464000000Y-179000000D01*
M02*
