%TF.GenerationSoftware,KiCad,Pcbnew,8.0.0*%
%TF.CreationDate,2024-05-23T14:19:23-05:00*%
%TF.ProjectId,mic_array_circuit,6d69635f-6172-4726-9179-5f6369726375,rev?*%
%TF.SameCoordinates,Original*%
%TF.FileFunction,Copper,L4,Bot*%
%TF.FilePolarity,Positive*%
%FSLAX46Y46*%
G04 Gerber Fmt 4.6, Leading zero omitted, Abs format (unit mm)*
G04 Created by KiCad (PCBNEW 8.0.0) date 2024-05-23 14:19:23*
%MOMM*%
%LPD*%
G01*
G04 APERTURE LIST*
%TA.AperFunction,ComponentPad*%
%ADD10R,1.700000X1.700000*%
%TD*%
%TA.AperFunction,ComponentPad*%
%ADD11C,1.700000*%
%TD*%
%TA.AperFunction,ComponentPad*%
%ADD12O,1.500000X1.500000*%
%TD*%
%TA.AperFunction,ComponentPad*%
%ADD13C,1.500000*%
%TD*%
%TA.AperFunction,Conductor*%
%ADD14C,0.200000*%
%TD*%
G04 APERTURE END LIST*
D10*
%TO.P,REF\u002A\u002A,1*%
%TO.N,gnd*%
X-497500000Y-89800000D03*
D11*
%TO.N,pwr*%
X-497420000Y-82200000D03*
%TO.P,REF\u002A\u002A,2*%
X-500040000Y-89800000D03*
%TO.N,ws*%
X-499960000Y-82200000D03*
%TO.P,REF\u002A\u002A,3*%
%TO.N,d1*%
X-502580000Y-89800000D03*
%TO.N,clk*%
X-502500000Y-82200000D03*
%TD*%
D10*
%TO.P,REF\u002A\u002A,1*%
%TO.N,gnd*%
X-497500000Y-3800000D03*
D11*
X-497420000Y3800000D03*
%TO.P,REF\u002A\u002A,2*%
%TO.N,pwr*%
X-500040000Y-3800000D03*
%TO.N,ws*%
X-499960000Y3800000D03*
%TO.P,REF\u002A\u002A,3*%
%TO.N,d1*%
X-502580000Y-3800000D03*
%TO.N,clk*%
X-502500000Y3800000D03*
%TD*%
D10*
%TO.P,REF\u002A\u002A,1*%
%TO.N,gnd*%
X-497500000Y-261800000D03*
D11*
%TO.N,pwr*%
X-497420000Y-254200000D03*
%TO.P,REF\u002A\u002A,2*%
X-500040000Y-261800000D03*
%TO.N,ws*%
X-499960000Y-254200000D03*
%TO.P,REF\u002A\u002A,3*%
%TO.N,d3*%
X-502580000Y-261800000D03*
%TO.N,clk*%
X-502500000Y-254200000D03*
%TD*%
D10*
%TO.P,REF\u002A\u002A,1*%
%TO.N,gnd*%
X-416500000Y-82200000D03*
D11*
%TO.N,pwr*%
X-416580000Y-89800000D03*
%TO.P,REF\u002A\u002A,2*%
X-413960000Y-82200000D03*
%TO.N,ws*%
X-414040000Y-89800000D03*
%TO.P,REF\u002A\u002A,3*%
%TO.N,d2*%
X-411420000Y-82200000D03*
%TO.N,clk*%
X-411500000Y-89800000D03*
%TD*%
D10*
%TO.P,REF\u002A\u002A,1*%
%TO.N,gnd*%
X-416500000Y-168200000D03*
D11*
X-416580000Y-175800000D03*
%TO.P,REF\u002A\u002A,2*%
%TO.N,pwr*%
X-413960000Y-168200000D03*
%TO.N,ws*%
X-414040000Y-175800000D03*
%TO.P,REF\u002A\u002A,3*%
%TO.N,d4*%
X-411420000Y-168200000D03*
%TO.N,clk*%
X-411500000Y-175800000D03*
%TD*%
D10*
%TO.P,REF\u002A\u002A,1*%
%TO.N,gnd*%
X-416500000Y-254200000D03*
D11*
%TO.N,pwr*%
X-416580000Y-261800000D03*
%TO.P,REF\u002A\u002A,2*%
X-413960000Y-254200000D03*
%TO.N,ws*%
X-414040000Y-261800000D03*
%TO.P,REF\u002A\u002A,3*%
%TO.N,d4*%
X-411420000Y-254200000D03*
%TO.N,clk*%
X-411500000Y-261800000D03*
%TD*%
D10*
%TO.P,REF\u002A\u002A,1*%
%TO.N,gnd*%
X-416500000Y3800000D03*
D11*
X-416580000Y-3800000D03*
%TO.P,REF\u002A\u002A,2*%
%TO.N,pwr*%
X-413960000Y3800000D03*
%TO.N,ws*%
X-414040000Y-3800000D03*
%TO.P,REF\u002A\u002A,3*%
%TO.N,d2*%
X-411420000Y3800000D03*
%TO.N,clk*%
X-411500000Y-3800000D03*
%TD*%
D10*
%TO.P,REF\u002A\u002A,1*%
%TO.N,gnd*%
X-497500000Y-175800000D03*
D11*
X-497420000Y-168200000D03*
%TO.P,REF\u002A\u002A,2*%
%TO.N,pwr*%
X-500040000Y-175800000D03*
%TO.N,ws*%
X-499960000Y-168200000D03*
%TO.P,REF\u002A\u002A,3*%
%TO.N,d3*%
X-502580000Y-175800000D03*
%TO.N,clk*%
X-502500000Y-168200000D03*
%TD*%
D12*
%TO.P,REF\u002A\u002A,1*%
%TO.N,d4*%
X-452670000Y-250850000D03*
D13*
%TO.P,REF\u002A\u002A,2*%
%TO.N,clk*%
X-453940000Y-248310000D03*
%TO.P,REF\u002A\u002A,3*%
%TO.N,gnd*%
X-455210000Y-250850000D03*
%TO.P,REF\u002A\u002A,4*%
%TO.N,d2*%
X-456480000Y-248310000D03*
%TO.P,REF\u002A\u002A,5*%
%TO.N,pwr*%
X-457750000Y-250850000D03*
%TO.P,REF\u002A\u002A,6*%
%TO.N,d1*%
X-459020000Y-248310000D03*
%TO.P,REF\u002A\u002A,7*%
%TO.N,d3*%
X-460290000Y-250850000D03*
%TO.P,REF\u002A\u002A,8*%
%TO.N,ws*%
X-461560000Y-248310000D03*
%TD*%
D14*
%TO.N,ws*%
X-453200000Y-82199999D02*
X-453200000Y-7000000D01*
X-453200000Y-7000000D02*
X-451400000Y-5200000D01*
X-451465685Y-177200000D02*
X-415440000Y-177200000D01*
X-463200001Y-90400000D02*
X-460000000Y-93600000D01*
X-490960000Y-263200000D02*
X-499960000Y-254200000D01*
X-414040000Y-89800000D02*
X-416840000Y-87000000D01*
X-460600000Y-253000000D02*
X-450565685Y-253000000D01*
X-415440000Y-5200000D02*
X-414040000Y-3800000D01*
X-417440000Y-172400000D02*
X-449000000Y-172400000D01*
X-449000000Y-172400000D02*
X-453600000Y-167799999D01*
X-498560000Y-80800000D02*
X-499960000Y-82200000D01*
X-451400000Y-5200000D02*
X-415440000Y-5200000D01*
X-462200000Y-166800000D02*
X-498560000Y-166800000D01*
X-416840000Y-87000000D02*
X-448400000Y-87000000D01*
X-498560000Y5200000D02*
X-499960000Y3800000D01*
X-461560000Y-248310000D02*
X-461560000Y-252040000D01*
X-461560000Y-246360000D02*
X-453350000Y-238150000D01*
X-460000000Y-93600000D02*
X-460000000Y-164600000D01*
X-443365685Y-260200000D02*
X-415640000Y-260200000D01*
X-414040000Y-3800000D02*
X-423040000Y5200000D01*
X-414040000Y-261800000D02*
X-415440000Y-263200000D01*
X-460000000Y-7000000D02*
X-460000000Y-78600000D01*
X-415440000Y-263200000D02*
X-490960000Y-263200000D01*
X-460000000Y-78600000D02*
X-462200000Y-80800000D01*
X-414040000Y-175800000D02*
X-417440000Y-172400000D01*
X-461560000Y-252040000D02*
X-460600000Y-253000000D01*
X-423040000Y5200000D02*
X-498560000Y5200000D01*
X-491560000Y-4600000D02*
X-462400000Y-4600000D01*
X-415440000Y-91200000D02*
X-414040000Y-89800000D01*
X-498560000Y-166800000D02*
X-499960000Y-168200000D01*
X-461560000Y-248310000D02*
X-461560000Y-246360000D01*
X-453600000Y-167799999D02*
X-453600000Y-92600000D01*
X-499960000Y3800000D02*
X-491560000Y-4600000D01*
X-450565685Y-253000000D02*
X-443365685Y-260200000D01*
X-453350000Y-179084314D02*
X-451465685Y-177200000D01*
X-453600000Y-92600000D02*
X-452200000Y-91200000D01*
X-453350000Y-238150000D02*
X-453350000Y-179084314D01*
X-462200000Y-80800000D02*
X-498560000Y-80800000D01*
X-415640000Y-260200000D02*
X-414040000Y-261800000D01*
X-452200000Y-91200000D02*
X-415440000Y-91200000D01*
X-491760000Y-90400000D02*
X-463200001Y-90400000D01*
X-499960000Y-82200000D02*
X-491760000Y-90400000D01*
X-462400000Y-4600000D02*
X-460000000Y-7000000D01*
X-448400000Y-87000000D02*
X-453200000Y-82199999D01*
X-415440000Y-177200000D02*
X-414040000Y-175800000D01*
X-460000000Y-164600000D02*
X-462200000Y-166800000D01*
%TO.N,clk*%
X-462365686Y-166400000D02*
X-500700000Y-166400000D01*
X-413300000Y-263600000D02*
X-493100000Y-263600000D01*
X-463365686Y-90800000D02*
X-460400000Y-93765686D01*
X-493100000Y-263600000D02*
X-502500000Y-254200000D01*
X-448834314Y-172000000D02*
X-453200000Y-167634314D01*
X-460400000Y-164434314D02*
X-462365686Y-166400000D01*
X-414700000Y-86600000D02*
X-411500000Y-89800000D01*
X-453940000Y-248310000D02*
X-453940000Y-245260000D01*
X-453940000Y-248310000D02*
X-452879340Y-248310000D01*
X-411500000Y-175800000D02*
X-415300000Y-172000000D01*
X-452800000Y-82034314D02*
X-448234314Y-86600000D01*
X-420900000Y5600000D02*
X-500700000Y5600000D01*
X-453200000Y-167634314D02*
X-453200000Y-92765686D01*
X-413300000Y-177600000D02*
X-411500000Y-175800000D01*
X-452879340Y-248310000D02*
X-451200000Y-249989340D01*
X-452950000Y-244270000D02*
X-452950000Y-179250000D01*
X-462365686Y-80400000D02*
X-500700000Y-80400000D01*
X-453200000Y-92765686D02*
X-452034314Y-91600000D01*
X-451200000Y-249989340D02*
X-451200000Y-251800000D01*
X-500700000Y-166400000D02*
X-502500000Y-168200000D01*
X-411500000Y-261800000D02*
X-413300000Y-263600000D01*
X-493900000Y-90800000D02*
X-463365686Y-90800000D01*
X-452950000Y-179250000D02*
X-451300000Y-177600000D01*
X-453940000Y-245260000D02*
X-452950000Y-244270000D01*
X-500700000Y-80400000D02*
X-502500000Y-82200000D01*
X-443200000Y-259800000D02*
X-413500000Y-259800000D01*
X-451200000Y-251800000D02*
X-443200000Y-259800000D01*
X-415300000Y-172000000D02*
X-448834314Y-172000000D01*
X-460400000Y-78434314D02*
X-462365686Y-80400000D01*
X-462565686Y-5000000D02*
X-460400000Y-7165686D01*
X-411500000Y-3800000D02*
X-413300000Y-5600000D01*
X-500700000Y5600000D02*
X-502500000Y3800000D01*
X-413500000Y-259800000D02*
X-411500000Y-261800000D01*
X-502500000Y-82200000D02*
X-493900000Y-90800000D01*
X-411500000Y-3800000D02*
X-420900000Y5600000D01*
X-448234314Y-86600000D02*
X-414700000Y-86600000D01*
X-452034314Y-91600000D02*
X-413300000Y-91600000D01*
X-460400000Y-93765686D02*
X-460400000Y-164434314D01*
X-413300000Y-5600000D02*
X-451234314Y-5600000D01*
X-502500000Y3800000D02*
X-493700000Y-5000000D01*
X-451300000Y-177600000D02*
X-413300000Y-177600000D01*
X-460400000Y-7165686D02*
X-460400000Y-78434314D01*
X-452800000Y-7165686D02*
X-452800000Y-82034314D01*
X-493700000Y-5000000D02*
X-462565686Y-5000000D01*
X-451234314Y-5600000D02*
X-452800000Y-7165686D01*
X-413300000Y-91600000D02*
X-411500000Y-89800000D01*
%TD*%
M02*
