M48
; DRILL file {KiCad 8.0.0} date 2024-05-23T14:19:21-0500
; FORMAT={-:-/ absolute / metric / decimal}
; #@! TF.CreationDate,2024-05-23T14:19:21-05:00
; #@! TF.GenerationSoftware,Kicad,Pcbnew,8.0.0
; #@! TF.FileFunction,Plated,1,4,PTH
FMAT,2
METRIC
; #@! TA.AperFunction,Plated,PTH,ComponentDrill
T1C0.900
; #@! TA.AperFunction,Plated,PTH,ComponentDrill
T2C1.000
%
G90
G05
T1
X-461.56Y-248.31
X-460.29Y-250.85
X-459.02Y-248.31
X-457.75Y-250.85
X-456.48Y-248.31
X-455.21Y-250.85
X-453.94Y-248.31
X-452.67Y-250.85
T2
X-502.58Y-3.8
X-502.58Y-89.8
X-502.58Y-175.8
X-502.58Y-261.8
X-502.5Y3.8
X-502.5Y-82.2
X-502.5Y-168.2
X-502.5Y-254.2
X-500.04Y-3.8
X-500.04Y-89.8
X-500.04Y-175.8
X-500.04Y-261.8
X-499.96Y3.8
X-499.96Y-82.2
X-499.96Y-168.2
X-499.96Y-254.2
X-497.5Y-3.8
X-497.5Y-89.8
X-497.5Y-175.8
X-497.5Y-261.8
X-497.42Y3.8
X-497.42Y-82.2
X-497.42Y-168.2
X-497.42Y-254.2
X-416.58Y-3.8
X-416.58Y-89.8
X-416.58Y-175.8
X-416.58Y-261.8
X-416.5Y3.8
X-416.5Y-82.2
X-416.5Y-168.2
X-416.5Y-254.2
X-414.04Y-3.8
X-414.04Y-89.8
X-414.04Y-175.8
X-414.04Y-261.8
X-413.96Y3.8
X-413.96Y-82.2
X-413.96Y-168.2
X-413.96Y-254.2
X-411.5Y-3.8
X-411.5Y-89.8
X-411.5Y-175.8
X-411.5Y-261.8
X-411.42Y3.8
X-411.42Y-82.2
X-411.42Y-168.2
X-411.42Y-254.2
M30
