%TF.GenerationSoftware,KiCad,Pcbnew,8.0.0*%
%TF.CreationDate,2024-05-23T14:19:23-05:00*%
%TF.ProjectId,mic_array_circuit,6d69635f-6172-4726-9179-5f6369726375,rev?*%
%TF.SameCoordinates,Original*%
%TF.FileFunction,Legend,Top*%
%TF.FilePolarity,Positive*%
%FSLAX46Y46*%
G04 Gerber Fmt 4.6, Leading zero omitted, Abs format (unit mm)*
G04 Created by KiCad (PCBNEW 8.0.0) date 2024-05-23 14:19:23*
%MOMM*%
%LPD*%
G01*
G04 APERTURE LIST*
%ADD10C,0.500000*%
%ADD11C,0.200000*%
%ADD12C,0.100000*%
%ADD13C,0.300000*%
G04 APERTURE END LIST*
D10*
G36*
X-473349078Y-173465000D02*
G01*
X-473349078Y-170924874D01*
X-472847769Y-170924874D01*
X-472251817Y-172707236D01*
X-472213387Y-172823977D01*
X-472173184Y-172947899D01*
X-472133937Y-173072448D01*
X-472131527Y-173080317D01*
X-472092687Y-172959159D01*
X-472049956Y-172830514D01*
X-472008988Y-172709481D01*
X-471997804Y-172676706D01*
X-471395135Y-170924874D01*
X-470946949Y-170924874D01*
X-470946949Y-173465000D01*
X-471268129Y-173465000D01*
X-471268129Y-171315662D01*
X-471999636Y-173465000D01*
X-472300055Y-173465000D01*
X-473028509Y-171315662D01*
X-473028509Y-173465000D01*
X-473349078Y-173465000D01*
G37*
G36*
X-470462738Y-171237505D02*
G01*
X-470462738Y-170924874D01*
X-470153771Y-170924874D01*
X-470153771Y-171237505D01*
X-470462738Y-171237505D01*
G37*
G36*
X-470462738Y-173465000D02*
G01*
X-470462738Y-171628293D01*
X-470153771Y-171628293D01*
X-470153771Y-173465000D01*
X-470462738Y-173465000D01*
G37*
G36*
X-468497804Y-172800659D02*
G01*
X-468193722Y-172839738D01*
X-468223049Y-172969760D01*
X-468267219Y-173086809D01*
X-468335874Y-173204695D01*
X-468423916Y-173305636D01*
X-468448956Y-173328224D01*
X-468557376Y-173405160D01*
X-468677475Y-173460115D01*
X-468809252Y-173493087D01*
X-468934136Y-173503907D01*
X-468952706Y-173504078D01*
X-469088125Y-173495449D01*
X-469213197Y-173469560D01*
X-469327922Y-173426412D01*
X-469448691Y-173354259D01*
X-469540997Y-173273716D01*
X-469555376Y-173258614D01*
X-469632570Y-173158844D01*
X-469693793Y-173044091D01*
X-469739044Y-172914354D01*
X-469764554Y-172794793D01*
X-469778972Y-172664827D01*
X-469782521Y-172553363D01*
X-469777847Y-172427097D01*
X-469761055Y-172291524D01*
X-469732051Y-172165261D01*
X-469690835Y-172048311D01*
X-469684824Y-172034347D01*
X-469621508Y-171917821D01*
X-469542157Y-171818972D01*
X-469446770Y-171737801D01*
X-469386848Y-171700345D01*
X-469271438Y-171646625D01*
X-469150522Y-171610486D01*
X-469024099Y-171591928D01*
X-468951485Y-171589214D01*
X-468826589Y-171596519D01*
X-468696587Y-171622756D01*
X-468580170Y-171668075D01*
X-468465442Y-171741866D01*
X-468369738Y-171837876D01*
X-468302753Y-171940248D01*
X-468252788Y-172058648D01*
X-468223031Y-172175397D01*
X-468523450Y-172214476D01*
X-468569162Y-172100764D01*
X-468649206Y-172001365D01*
X-468675491Y-171980614D01*
X-468787887Y-171924076D01*
X-468910705Y-171902538D01*
X-468939273Y-171901845D01*
X-469063866Y-171914065D01*
X-469185987Y-171956307D01*
X-469290935Y-172028721D01*
X-469319071Y-172056329D01*
X-469389615Y-172157426D01*
X-469437073Y-172286924D01*
X-469458023Y-172407279D01*
X-469465006Y-172544815D01*
X-469458286Y-172684462D01*
X-469438125Y-172806345D01*
X-469398626Y-172923887D01*
X-469333206Y-173028387D01*
X-469324566Y-173038185D01*
X-469228002Y-173119007D01*
X-469114622Y-173169895D01*
X-468984427Y-173190849D01*
X-468956370Y-173191448D01*
X-468828314Y-173177966D01*
X-468708579Y-173132936D01*
X-468652288Y-173095582D01*
X-468567878Y-173000661D01*
X-468516258Y-172882809D01*
X-468497804Y-172800659D01*
G37*
G36*
X-467942762Y-173465000D02*
G01*
X-467942762Y-171628293D01*
X-467664325Y-171628293D01*
X-467664325Y-171900013D01*
X-467599472Y-171793968D01*
X-467519799Y-171693907D01*
X-467467710Y-171649665D01*
X-467354153Y-171599191D01*
X-467269263Y-171589214D01*
X-467141450Y-171605137D01*
X-467022038Y-171648099D01*
X-466951747Y-171685690D01*
X-467057993Y-171971454D01*
X-467171413Y-171919248D01*
X-467284528Y-171901845D01*
X-467408886Y-171928405D01*
X-467467099Y-171963517D01*
X-467549722Y-172059210D01*
X-467581893Y-172134487D01*
X-467613521Y-172263973D01*
X-467629690Y-172390515D01*
X-467633795Y-172499630D01*
X-467633795Y-173465000D01*
X-467942762Y-173465000D01*
G37*
G36*
X-465897784Y-171597930D02*
G01*
X-465771224Y-171624076D01*
X-465654324Y-171667654D01*
X-465547083Y-171728662D01*
X-465449503Y-171807101D01*
X-465419123Y-171837121D01*
X-465337986Y-171936512D01*
X-465273636Y-172049211D01*
X-465226073Y-172175221D01*
X-465195297Y-172314539D01*
X-465182474Y-172440805D01*
X-465180376Y-172521001D01*
X-465184089Y-172648277D01*
X-465197810Y-172783362D01*
X-465221639Y-172904014D01*
X-465261252Y-173024227D01*
X-465286011Y-173077264D01*
X-465353062Y-173184146D01*
X-465435376Y-173276732D01*
X-465532952Y-173355021D01*
X-465593757Y-173392337D01*
X-465710047Y-173446353D01*
X-465832230Y-173482690D01*
X-465960305Y-173501350D01*
X-466034004Y-173504078D01*
X-466172421Y-173495406D01*
X-466300534Y-173469388D01*
X-466418343Y-173426026D01*
X-466525848Y-173365318D01*
X-466623049Y-173287265D01*
X-466653160Y-173257393D01*
X-466733467Y-173157244D01*
X-466797158Y-173041811D01*
X-466844235Y-172911093D01*
X-466870773Y-172790486D01*
X-466885773Y-172659265D01*
X-466889465Y-172546646D01*
X-466889443Y-172546036D01*
X-466571339Y-172546036D01*
X-466564034Y-172679848D01*
X-466537797Y-172813743D01*
X-466492478Y-172927335D01*
X-466418687Y-173030858D01*
X-466315528Y-173115544D01*
X-466196865Y-173168865D01*
X-466062698Y-173190820D01*
X-466034004Y-173191448D01*
X-465910652Y-173178648D01*
X-465787982Y-173134403D01*
X-465680457Y-173058554D01*
X-465651154Y-173029637D01*
X-465577362Y-172925191D01*
X-465532044Y-172809805D01*
X-465505807Y-172673201D01*
X-465498502Y-172536266D01*
X-465505865Y-172406765D01*
X-465532312Y-172276582D01*
X-465585055Y-172152843D01*
X-465652375Y-172063046D01*
X-465755498Y-171978038D01*
X-465873291Y-171924514D01*
X-466005752Y-171902475D01*
X-466034004Y-171901845D01*
X-466158243Y-171914548D01*
X-466281557Y-171958459D01*
X-466389367Y-172033736D01*
X-466418687Y-172062435D01*
X-466492478Y-172165368D01*
X-466542120Y-172294189D01*
X-466565972Y-172430431D01*
X-466571339Y-172546036D01*
X-466889443Y-172546036D01*
X-466885067Y-172423600D01*
X-466867199Y-172281356D01*
X-466835586Y-172151963D01*
X-466790229Y-172035420D01*
X-466717657Y-171912530D01*
X-466625293Y-171808145D01*
X-466607975Y-171792547D01*
X-466499950Y-171713319D01*
X-466382108Y-171653550D01*
X-466254448Y-171613241D01*
X-466116971Y-171592391D01*
X-466034004Y-171589214D01*
X-465897784Y-171597930D01*
G37*
G36*
X-463890017Y-171598778D02*
G01*
X-463759046Y-171631836D01*
X-463638928Y-171688508D01*
X-463605009Y-171710115D01*
X-463501778Y-171795337D01*
X-463415721Y-171899880D01*
X-463352953Y-172010487D01*
X-463335121Y-172050833D01*
X-463291141Y-172177814D01*
X-463261555Y-172311460D01*
X-463247339Y-172435852D01*
X-463244140Y-172532602D01*
X-463250437Y-172669836D01*
X-463269328Y-172800048D01*
X-463300812Y-172923238D01*
X-463344891Y-173039406D01*
X-463408464Y-173157543D01*
X-463486528Y-173259161D01*
X-463579081Y-173344260D01*
X-463636761Y-173384399D01*
X-463745860Y-173442252D01*
X-463870820Y-173484327D01*
X-463999715Y-173503026D01*
X-464039151Y-173504078D01*
X-464168364Y-173488768D01*
X-464285655Y-173442836D01*
X-464316977Y-173424089D01*
X-464415953Y-173345499D01*
X-464498099Y-173250781D01*
X-464518478Y-173220757D01*
X-464518478Y-174168419D01*
X-464827445Y-174168419D01*
X-464827445Y-172561301D01*
X-464547787Y-172561301D01*
X-464540979Y-172694287D01*
X-464516526Y-172826522D01*
X-464467759Y-172950105D01*
X-464405515Y-173037575D01*
X-464310370Y-173118718D01*
X-464192212Y-173173265D01*
X-464059912Y-173191448D01*
X-463937087Y-173175884D01*
X-463815340Y-173122813D01*
X-463716808Y-173041884D01*
X-463707591Y-173032079D01*
X-463636456Y-172928572D01*
X-463592769Y-172813291D01*
X-463567477Y-172676105D01*
X-463560435Y-172538098D01*
X-463567301Y-172406306D01*
X-463591964Y-172274434D01*
X-463641150Y-172149981D01*
X-463703928Y-172060603D01*
X-463799037Y-171976883D01*
X-463916192Y-171920605D01*
X-464046478Y-171901845D01*
X-464176732Y-171921831D01*
X-464296307Y-171981789D01*
X-464395745Y-172070983D01*
X-464469242Y-172177903D01*
X-464514379Y-172293299D01*
X-464540511Y-172427852D01*
X-464547787Y-172561301D01*
X-464827445Y-172561301D01*
X-464827445Y-171628293D01*
X-464545955Y-171628293D01*
X-464545955Y-171934818D01*
X-464474498Y-171826262D01*
X-464389633Y-171731208D01*
X-464321251Y-171675921D01*
X-464210384Y-171619782D01*
X-464082184Y-171592263D01*
X-464017169Y-171589214D01*
X-463890017Y-171598778D01*
G37*
G36*
X-462880829Y-173465000D02*
G01*
X-462880829Y-170924874D01*
X-462571862Y-170924874D01*
X-462571862Y-171883527D01*
X-462486790Y-171783507D01*
X-462393689Y-171704180D01*
X-462274924Y-171637788D01*
X-462145231Y-171599561D01*
X-462025369Y-171589214D01*
X-461892347Y-171598738D01*
X-461772024Y-171627311D01*
X-461673659Y-171669815D01*
X-461566218Y-171744984D01*
X-461486994Y-171840510D01*
X-461459946Y-171891465D01*
X-461420505Y-172015657D01*
X-461401543Y-172146568D01*
X-461395475Y-172269242D01*
X-461395222Y-172302404D01*
X-461395222Y-173465000D01*
X-461704800Y-173465000D01*
X-461704800Y-172334766D01*
X-461714639Y-172205226D01*
X-461752420Y-172081578D01*
X-461805550Y-172005038D01*
X-461909184Y-171934496D01*
X-462034089Y-171904365D01*
X-462089482Y-171901845D01*
X-462214660Y-171917140D01*
X-462332592Y-171963025D01*
X-462347769Y-171971454D01*
X-462445952Y-172047581D01*
X-462517260Y-172152739D01*
X-462520571Y-172160132D01*
X-462555633Y-172281731D01*
X-462570059Y-172413680D01*
X-462571862Y-172489249D01*
X-462571862Y-173465000D01*
X-462880829Y-173465000D01*
G37*
G36*
X-460057938Y-171597930D02*
G01*
X-459931377Y-171624076D01*
X-459814477Y-171667654D01*
X-459707237Y-171728662D01*
X-459609657Y-171807101D01*
X-459579277Y-171837121D01*
X-459498140Y-171936512D01*
X-459433790Y-172049211D01*
X-459386227Y-172175221D01*
X-459355451Y-172314539D01*
X-459342628Y-172440805D01*
X-459340529Y-172521001D01*
X-459344243Y-172648277D01*
X-459357963Y-172783362D01*
X-459381793Y-172904014D01*
X-459421406Y-173024227D01*
X-459446164Y-173077264D01*
X-459513215Y-173184146D01*
X-459595529Y-173276732D01*
X-459693106Y-173355021D01*
X-459753910Y-173392337D01*
X-459870200Y-173446353D01*
X-459992383Y-173482690D01*
X-460120459Y-173501350D01*
X-460194158Y-173504078D01*
X-460332575Y-173495406D01*
X-460460688Y-173469388D01*
X-460578497Y-173426026D01*
X-460686002Y-173365318D01*
X-460783203Y-173287265D01*
X-460813314Y-173257393D01*
X-460893620Y-173157244D01*
X-460957312Y-173041811D01*
X-461004388Y-172911093D01*
X-461030926Y-172790486D01*
X-461045926Y-172659265D01*
X-461049618Y-172546646D01*
X-461049596Y-172546036D01*
X-460731492Y-172546036D01*
X-460724188Y-172679848D01*
X-460697951Y-172813743D01*
X-460652632Y-172927335D01*
X-460578840Y-173030858D01*
X-460475681Y-173115544D01*
X-460357018Y-173168865D01*
X-460222852Y-173190820D01*
X-460194158Y-173191448D01*
X-460070805Y-173178648D01*
X-459948135Y-173134403D01*
X-459840611Y-173058554D01*
X-459811307Y-173029637D01*
X-459737516Y-172925191D01*
X-459692197Y-172809805D01*
X-459665960Y-172673201D01*
X-459658655Y-172536266D01*
X-459666019Y-172406765D01*
X-459692465Y-172276582D01*
X-459745209Y-172152843D01*
X-459812528Y-172063046D01*
X-459915652Y-171978038D01*
X-460033444Y-171924514D01*
X-460165905Y-171902475D01*
X-460194158Y-171901845D01*
X-460318396Y-171914548D01*
X-460441710Y-171958459D01*
X-460549521Y-172033736D01*
X-460578840Y-172062435D01*
X-460652632Y-172165368D01*
X-460702274Y-172294189D01*
X-460726126Y-172430431D01*
X-460731492Y-172546036D01*
X-461049596Y-172546036D01*
X-461045220Y-172423600D01*
X-461027352Y-172281356D01*
X-460995740Y-172151963D01*
X-460950382Y-172035420D01*
X-460877811Y-171912530D01*
X-460785447Y-171808145D01*
X-460768129Y-171792547D01*
X-460660104Y-171713319D01*
X-460542261Y-171653550D01*
X-460414601Y-171613241D01*
X-460277124Y-171592391D01*
X-460194158Y-171589214D01*
X-460057938Y-171597930D01*
G37*
G36*
X-458987598Y-173465000D02*
G01*
X-458987598Y-171628293D01*
X-458709772Y-171628293D01*
X-458709772Y-171887801D01*
X-458628149Y-171786328D01*
X-458533946Y-171705850D01*
X-458427163Y-171646366D01*
X-458307802Y-171607876D01*
X-458175860Y-171590381D01*
X-458129085Y-171589214D01*
X-457999567Y-171599090D01*
X-457878917Y-171628718D01*
X-457826224Y-171649054D01*
X-457718382Y-171708125D01*
X-457628050Y-171793381D01*
X-457619228Y-171805369D01*
X-457557635Y-171918215D01*
X-457522752Y-172034958D01*
X-457509411Y-172163140D01*
X-457505805Y-172297822D01*
X-457505655Y-172337208D01*
X-457505655Y-173465000D01*
X-457814622Y-173465000D01*
X-457814622Y-172379340D01*
X-457819688Y-172253717D01*
X-457842204Y-172127093D01*
X-457850648Y-172102735D01*
X-457922125Y-171998563D01*
X-457978875Y-171956800D01*
X-458099049Y-171910915D01*
X-458194420Y-171901845D01*
X-458323663Y-171916348D01*
X-458440208Y-171959855D01*
X-458535138Y-172024577D01*
X-458610808Y-172122811D01*
X-458654949Y-172248031D01*
X-458673586Y-172369535D01*
X-458678631Y-172490471D01*
X-458678631Y-173465000D01*
X-458987598Y-173465000D01*
G37*
G36*
X-456159943Y-171598166D02*
G01*
X-456036954Y-171625021D01*
X-455905404Y-171678979D01*
X-455786710Y-171757306D01*
X-455695205Y-171843838D01*
X-455616350Y-171946598D01*
X-455553811Y-172063914D01*
X-455507586Y-172195783D01*
X-455481528Y-172316793D01*
X-455466799Y-172447909D01*
X-455463174Y-172560080D01*
X-455464395Y-172644344D01*
X-456824828Y-172644344D01*
X-456807807Y-172769098D01*
X-456768405Y-172890927D01*
X-456699473Y-173003293D01*
X-456655079Y-173050397D01*
X-456551956Y-173124779D01*
X-456434163Y-173171612D01*
X-456301702Y-173190897D01*
X-456273450Y-173191448D01*
X-456143691Y-173180665D01*
X-456022209Y-173144935D01*
X-455983411Y-173126113D01*
X-455881641Y-173047822D01*
X-455806508Y-172944004D01*
X-455792902Y-172917896D01*
X-455472944Y-172956974D01*
X-455518854Y-173079745D01*
X-455580868Y-173187937D01*
X-455669885Y-173292227D01*
X-455753212Y-173360586D01*
X-455862320Y-173423364D01*
X-455985701Y-173468205D01*
X-456105367Y-173492728D01*
X-456235962Y-173503518D01*
X-456275281Y-173504078D01*
X-456419444Y-173495384D01*
X-456551972Y-173469302D01*
X-456672865Y-173425832D01*
X-456782123Y-173364974D01*
X-456879747Y-173286728D01*
X-456909702Y-173256782D01*
X-456989386Y-173156819D01*
X-457052584Y-173042860D01*
X-457099296Y-172914905D01*
X-457129521Y-172772953D01*
X-457142115Y-172643968D01*
X-457144175Y-172561912D01*
X-457138391Y-172422518D01*
X-457126204Y-172331713D01*
X-456807731Y-172331713D01*
X-455789238Y-172331713D01*
X-455815370Y-172203428D01*
X-455872555Y-172087188D01*
X-455905864Y-172048391D01*
X-456006805Y-171971111D01*
X-456124919Y-171922453D01*
X-456245905Y-171903133D01*
X-456289325Y-171901845D01*
X-456415573Y-171913294D01*
X-456539294Y-171952335D01*
X-456647141Y-172019082D01*
X-456731683Y-172108642D01*
X-456788856Y-172227739D01*
X-456807731Y-172331713D01*
X-457126204Y-172331713D01*
X-457121039Y-172293233D01*
X-457092119Y-172174054D01*
X-457042144Y-172044381D01*
X-456975512Y-171929262D01*
X-456907260Y-171844448D01*
X-456813458Y-171757709D01*
X-456709738Y-171688915D01*
X-456596101Y-171638068D01*
X-456472546Y-171605167D01*
X-456339073Y-171590211D01*
X-456292378Y-171589214D01*
X-456159943Y-171598166D01*
G37*
G36*
X-452196426Y-173465000D02*
G01*
X-452575613Y-173465000D01*
X-452869315Y-172683422D01*
X-453922002Y-172683422D01*
X-454198607Y-173465000D01*
X-454552148Y-173465000D01*
X-454135770Y-172370792D01*
X-453826136Y-172370792D01*
X-452972508Y-172370792D01*
X-453235069Y-171731486D01*
X-453284744Y-171599114D01*
X-453328518Y-171480357D01*
X-453371317Y-171361308D01*
X-453413976Y-171237505D01*
X-453443955Y-171356795D01*
X-453480308Y-171481108D01*
X-453523038Y-171610445D01*
X-453549531Y-171684469D01*
X-453826136Y-172370792D01*
X-454135770Y-172370792D01*
X-453585557Y-170924874D01*
X-453226520Y-170924874D01*
X-452196426Y-173465000D01*
G37*
G36*
X-451982713Y-173465000D02*
G01*
X-451982713Y-171628293D01*
X-451704887Y-171628293D01*
X-451704887Y-171887801D01*
X-451623264Y-171786328D01*
X-451529061Y-171705850D01*
X-451422279Y-171646366D01*
X-451302917Y-171607876D01*
X-451170976Y-171590381D01*
X-451124200Y-171589214D01*
X-450994682Y-171599090D01*
X-450874032Y-171628718D01*
X-450821339Y-171649054D01*
X-450713497Y-171708125D01*
X-450623166Y-171793381D01*
X-450614343Y-171805369D01*
X-450552750Y-171918215D01*
X-450517867Y-172034958D01*
X-450504527Y-172163140D01*
X-450500920Y-172297822D01*
X-450500770Y-172337208D01*
X-450500770Y-173465000D01*
X-450809737Y-173465000D01*
X-450809737Y-172379340D01*
X-450814803Y-172253717D01*
X-450837319Y-172127093D01*
X-450845763Y-172102735D01*
X-450917240Y-171998563D01*
X-450973990Y-171956800D01*
X-451094164Y-171910915D01*
X-451189535Y-171901845D01*
X-451318778Y-171916348D01*
X-451435323Y-171959855D01*
X-451530254Y-172024577D01*
X-451605923Y-172122811D01*
X-451650064Y-172248031D01*
X-451668702Y-172369535D01*
X-451673746Y-172490471D01*
X-451673746Y-173465000D01*
X-451982713Y-173465000D01*
G37*
G36*
X-449361377Y-173201217D02*
G01*
X-449316803Y-173474159D01*
X-449440451Y-173496598D01*
X-449550055Y-173504078D01*
X-449674487Y-173495513D01*
X-449793327Y-173461452D01*
X-449811394Y-173452177D01*
X-449909005Y-173370119D01*
X-449941454Y-173316011D01*
X-449968627Y-173196093D01*
X-449977500Y-173070680D01*
X-449979311Y-172961249D01*
X-449979311Y-171940924D01*
X-450206457Y-171940924D01*
X-450206457Y-171628293D01*
X-449979311Y-171628293D01*
X-449979311Y-171176444D01*
X-449672176Y-170991430D01*
X-449672176Y-171628293D01*
X-449361377Y-171628293D01*
X-449361377Y-171940924D01*
X-449672176Y-171940924D01*
X-449672176Y-172952090D01*
X-449665339Y-173077988D01*
X-449656300Y-173113290D01*
X-449603177Y-173170687D01*
X-449496932Y-173191448D01*
X-449371781Y-173200034D01*
X-449361377Y-173201217D01*
G37*
G36*
X-448182972Y-171598166D02*
G01*
X-448059982Y-171625021D01*
X-447928432Y-171678979D01*
X-447809738Y-171757306D01*
X-447718233Y-171843838D01*
X-447639379Y-171946598D01*
X-447576840Y-172063914D01*
X-447530615Y-172195783D01*
X-447504557Y-172316793D01*
X-447489828Y-172447909D01*
X-447486203Y-172560080D01*
X-447487424Y-172644344D01*
X-448847856Y-172644344D01*
X-448830836Y-172769098D01*
X-448791434Y-172890927D01*
X-448722502Y-173003293D01*
X-448678108Y-173050397D01*
X-448574984Y-173124779D01*
X-448457192Y-173171612D01*
X-448324731Y-173190897D01*
X-448296478Y-173191448D01*
X-448166720Y-173180665D01*
X-448045238Y-173144935D01*
X-448006440Y-173126113D01*
X-447904670Y-173047822D01*
X-447829537Y-172944004D01*
X-447815930Y-172917896D01*
X-447495972Y-172956974D01*
X-447541882Y-173079745D01*
X-447603897Y-173187937D01*
X-447692914Y-173292227D01*
X-447776241Y-173360586D01*
X-447885349Y-173423364D01*
X-448008730Y-173468205D01*
X-448128396Y-173492728D01*
X-448258990Y-173503518D01*
X-448298310Y-173504078D01*
X-448442473Y-173495384D01*
X-448575001Y-173469302D01*
X-448695894Y-173425832D01*
X-448805152Y-173364974D01*
X-448902775Y-173286728D01*
X-448932731Y-173256782D01*
X-449012415Y-173156819D01*
X-449075613Y-173042860D01*
X-449122324Y-172914905D01*
X-449152549Y-172772953D01*
X-449165143Y-172643968D01*
X-449167204Y-172561912D01*
X-449161420Y-172422518D01*
X-449149233Y-172331713D01*
X-448830759Y-172331713D01*
X-447812267Y-172331713D01*
X-447838399Y-172203428D01*
X-447895584Y-172087188D01*
X-447928893Y-172048391D01*
X-448029834Y-171971111D01*
X-448147948Y-171922453D01*
X-448268934Y-171903133D01*
X-448312354Y-171901845D01*
X-448438602Y-171913294D01*
X-448562322Y-171952335D01*
X-448670170Y-172019082D01*
X-448754712Y-172108642D01*
X-448811885Y-172227739D01*
X-448830759Y-172331713D01*
X-449149233Y-172331713D01*
X-449144068Y-172293233D01*
X-449115147Y-172174054D01*
X-449065173Y-172044381D01*
X-448998540Y-171929262D01*
X-448930288Y-171844448D01*
X-448836486Y-171757709D01*
X-448732767Y-171688915D01*
X-448619129Y-171638068D01*
X-448495574Y-171605167D01*
X-448362102Y-171590211D01*
X-448315407Y-171589214D01*
X-448182972Y-171598166D01*
G37*
G36*
X-447117396Y-173465000D02*
G01*
X-447117396Y-171628293D01*
X-446839570Y-171628293D01*
X-446839570Y-171887801D01*
X-446757946Y-171786328D01*
X-446663743Y-171705850D01*
X-446556961Y-171646366D01*
X-446437599Y-171607876D01*
X-446305658Y-171590381D01*
X-446258882Y-171589214D01*
X-446129364Y-171599090D01*
X-446008715Y-171628718D01*
X-445956021Y-171649054D01*
X-445848180Y-171708125D01*
X-445757848Y-171793381D01*
X-445749025Y-171805369D01*
X-445687433Y-171918215D01*
X-445652549Y-172034958D01*
X-445639209Y-172163140D01*
X-445635603Y-172297822D01*
X-445635452Y-172337208D01*
X-445635452Y-173465000D01*
X-445944420Y-173465000D01*
X-445944420Y-172379340D01*
X-445949486Y-172253717D01*
X-445972002Y-172127093D01*
X-445980445Y-172102735D01*
X-446051922Y-171998563D01*
X-446108673Y-171956800D01*
X-446228846Y-171910915D01*
X-446324217Y-171901845D01*
X-446453461Y-171916348D01*
X-446570006Y-171959855D01*
X-446664936Y-172024577D01*
X-446740606Y-172122811D01*
X-446784747Y-172248031D01*
X-446803384Y-172369535D01*
X-446808429Y-172490471D01*
X-446808429Y-173465000D01*
X-447117396Y-173465000D01*
G37*
G36*
X-445170780Y-173465000D02*
G01*
X-445170780Y-171628293D01*
X-444892954Y-171628293D01*
X-444892954Y-171887801D01*
X-444811331Y-171786328D01*
X-444717128Y-171705850D01*
X-444610346Y-171646366D01*
X-444490984Y-171607876D01*
X-444359043Y-171590381D01*
X-444312267Y-171589214D01*
X-444182749Y-171599090D01*
X-444062099Y-171628718D01*
X-444009406Y-171649054D01*
X-443901564Y-171708125D01*
X-443811233Y-171793381D01*
X-443802410Y-171805369D01*
X-443740817Y-171918215D01*
X-443705934Y-172034958D01*
X-443692594Y-172163140D01*
X-443688987Y-172297822D01*
X-443688837Y-172337208D01*
X-443688837Y-173465000D01*
X-443997804Y-173465000D01*
X-443997804Y-172379340D01*
X-444002870Y-172253717D01*
X-444025386Y-172127093D01*
X-444033830Y-172102735D01*
X-444105307Y-171998563D01*
X-444162057Y-171956800D01*
X-444282231Y-171910915D01*
X-444377602Y-171901845D01*
X-444506845Y-171916348D01*
X-444623390Y-171959855D01*
X-444718321Y-172024577D01*
X-444793990Y-172122811D01*
X-444838131Y-172248031D01*
X-444856769Y-172369535D01*
X-444861813Y-172490471D01*
X-444861813Y-173465000D01*
X-445170780Y-173465000D01*
G37*
G36*
X-442328986Y-171593610D02*
G01*
X-442206865Y-171608803D01*
X-442082988Y-171641361D01*
X-442073781Y-171644780D01*
X-441960931Y-171698892D01*
X-441863808Y-171779370D01*
X-441859458Y-171784609D01*
X-441794972Y-171892822D01*
X-441762982Y-171996489D01*
X-441750639Y-172122112D01*
X-441747777Y-172246218D01*
X-441747717Y-172270041D01*
X-441747717Y-172658387D01*
X-441747030Y-172801420D01*
X-441744969Y-172925519D01*
X-441740084Y-173061531D01*
X-441730544Y-173184213D01*
X-441728177Y-173202438D01*
X-441700834Y-173328251D01*
X-441656586Y-173449233D01*
X-441649409Y-173465000D01*
X-441972420Y-173465000D01*
X-442013850Y-173348951D01*
X-442034092Y-173230526D01*
X-442129591Y-173308016D01*
X-442233323Y-173377687D01*
X-442344535Y-173434352D01*
X-442364430Y-173442407D01*
X-442486847Y-173479988D01*
X-442615962Y-173500224D01*
X-442705759Y-173504078D01*
X-442830560Y-173496978D01*
X-442956946Y-173471476D01*
X-443078421Y-173420616D01*
X-443167989Y-173355701D01*
X-443252997Y-173254915D01*
X-443306521Y-173138029D01*
X-443328560Y-173005043D01*
X-443329189Y-172976514D01*
X-443326769Y-172954532D01*
X-442999461Y-172954532D01*
X-442959228Y-173073105D01*
X-442906039Y-173123670D01*
X-442790481Y-173174503D01*
X-442664893Y-173190852D01*
X-442631876Y-173191448D01*
X-442503648Y-173180972D01*
X-442377138Y-173145980D01*
X-442314360Y-173116953D01*
X-442206686Y-173045276D01*
X-442122707Y-172955250D01*
X-442109807Y-172935603D01*
X-442069321Y-172818825D01*
X-442059737Y-172693803D01*
X-442059737Y-172605265D01*
X-442181465Y-172638765D01*
X-442302461Y-172663246D01*
X-442425550Y-172682977D01*
X-442564709Y-172701130D01*
X-442691964Y-172718847D01*
X-442813016Y-172744874D01*
X-442834598Y-172751810D01*
X-442942306Y-172817901D01*
X-442956719Y-172834242D01*
X-442999420Y-172950422D01*
X-442999461Y-172954532D01*
X-443326769Y-172954532D01*
X-443315773Y-172854664D01*
X-443271885Y-172736225D01*
X-443268129Y-172729218D01*
X-443197756Y-172628468D01*
X-443108760Y-172549699D01*
X-442996594Y-172486992D01*
X-442885889Y-172447117D01*
X-442763028Y-172421684D01*
X-442633727Y-172402932D01*
X-442611115Y-172400101D01*
X-442477686Y-172382555D01*
X-442339545Y-172360566D01*
X-442204782Y-172333432D01*
X-442082642Y-172300352D01*
X-442059737Y-172292634D01*
X-442058516Y-172223025D01*
X-442075229Y-172098303D01*
X-442145833Y-171992215D01*
X-442261126Y-171933704D01*
X-442388435Y-171907493D01*
X-442498153Y-171901845D01*
X-442623244Y-171907749D01*
X-442743915Y-171930417D01*
X-442819943Y-171962295D01*
X-442910313Y-172045491D01*
X-442967347Y-172156604D01*
X-442973816Y-172175397D01*
X-443276066Y-172136318D01*
X-443241591Y-172014841D01*
X-443189499Y-171902069D01*
X-443140512Y-171831015D01*
X-443049807Y-171745520D01*
X-442941572Y-171682164D01*
X-442867570Y-171652107D01*
X-442737933Y-171616300D01*
X-442608561Y-171596646D01*
X-442482745Y-171589460D01*
X-442453579Y-171589214D01*
X-442328986Y-171593610D01*
G37*
D11*
G36*
X-491085310Y-172945000D02*
G01*
X-491085310Y-171420924D01*
X-490784525Y-171420924D01*
X-490426953Y-172490341D01*
X-490403895Y-172560386D01*
X-490379774Y-172634739D01*
X-490356225Y-172709468D01*
X-490354779Y-172714190D01*
X-490331475Y-172641495D01*
X-490305837Y-172564308D01*
X-490281256Y-172491688D01*
X-490274545Y-172472023D01*
X-489912944Y-171420924D01*
X-489644033Y-171420924D01*
X-489644033Y-172945000D01*
X-489836740Y-172945000D01*
X-489836740Y-171655397D01*
X-490275645Y-172945000D01*
X-490455896Y-172945000D01*
X-490892968Y-171655397D01*
X-490892968Y-172945000D01*
X-491085310Y-172945000D01*
G37*
G36*
X-489405163Y-172546395D02*
G01*
X-489219783Y-172522948D01*
X-489198318Y-172593965D01*
X-489162481Y-172664313D01*
X-489111339Y-172720418D01*
X-489043326Y-172759557D01*
X-488970777Y-172777976D01*
X-488924127Y-172780868D01*
X-488846160Y-172772425D01*
X-488776207Y-172747094D01*
X-488714269Y-172704876D01*
X-488702843Y-172694406D01*
X-488655316Y-172636096D01*
X-488623367Y-172562615D01*
X-488612805Y-172487324D01*
X-488612717Y-172479351D01*
X-488622587Y-172400289D01*
X-488652199Y-172331358D01*
X-488696248Y-172277484D01*
X-488759044Y-172232012D01*
X-488832576Y-172205416D01*
X-488908739Y-172197616D01*
X-488984388Y-172205631D01*
X-489039532Y-172218133D01*
X-489018649Y-172030554D01*
X-488988973Y-172032386D01*
X-488910388Y-172026066D01*
X-488837344Y-172007104D01*
X-488775749Y-171978897D01*
X-488717927Y-171930365D01*
X-488685401Y-171859417D01*
X-488680861Y-171813300D01*
X-488696075Y-171736943D01*
X-488741719Y-171674110D01*
X-488750104Y-171666755D01*
X-488818084Y-171626934D01*
X-488895023Y-171609925D01*
X-488928157Y-171608503D01*
X-489004166Y-171616746D01*
X-489075114Y-171644280D01*
X-489108408Y-171667121D01*
X-489158524Y-171724423D01*
X-489189650Y-171794490D01*
X-489201098Y-171842976D01*
X-489386478Y-171819528D01*
X-489367435Y-171740586D01*
X-489340116Y-171669813D01*
X-489298763Y-171598933D01*
X-489246602Y-171538723D01*
X-489231873Y-171525338D01*
X-489167942Y-171479657D01*
X-489096684Y-171447028D01*
X-489018099Y-171427450D01*
X-488943327Y-171421026D01*
X-488932187Y-171420924D01*
X-488856918Y-171425969D01*
X-488778502Y-171443171D01*
X-488704675Y-171472581D01*
X-488638943Y-171512346D01*
X-488580468Y-171565996D01*
X-488545672Y-171613265D01*
X-488511961Y-171681581D01*
X-488493809Y-171752988D01*
X-488490351Y-171802309D01*
X-488498998Y-171876625D01*
X-488524937Y-171945377D01*
X-488542742Y-171975233D01*
X-488593713Y-172033377D01*
X-488655683Y-172077710D01*
X-488698446Y-172099431D01*
X-488627774Y-172122750D01*
X-488560397Y-172161304D01*
X-488504756Y-172213168D01*
X-488490351Y-172231322D01*
X-488451132Y-172298770D01*
X-488426438Y-172376093D01*
X-488416633Y-172454126D01*
X-488415980Y-172481915D01*
X-488421054Y-172556112D01*
X-488439802Y-172637141D01*
X-488472365Y-172712209D01*
X-488518743Y-172781317D01*
X-488560327Y-172827030D01*
X-488617012Y-172875090D01*
X-488689949Y-172918592D01*
X-488758299Y-172945108D01*
X-488832032Y-172961680D01*
X-488911150Y-172968309D01*
X-488924859Y-172968447D01*
X-489008668Y-172962819D01*
X-489086025Y-172945937D01*
X-489156931Y-172917799D01*
X-489221386Y-172878407D01*
X-489255320Y-172850844D01*
X-489307320Y-172796079D01*
X-489348555Y-172734688D01*
X-489379027Y-172666670D01*
X-489398734Y-172592025D01*
X-489405163Y-172546395D01*
G37*
G36*
X-488171248Y-172945000D02*
G01*
X-488171248Y-171420924D01*
X-487971213Y-171420924D01*
X-487971213Y-172757421D01*
X-487227494Y-172757421D01*
X-487227494Y-172945000D01*
X-488171248Y-172945000D01*
G37*
D12*
X-454200877Y-246858800D02*
X-454277068Y-246896895D01*
X-454277068Y-246896895D02*
X-454429449Y-246896895D01*
X-454429449Y-246896895D02*
X-454505639Y-246858800D01*
X-454505639Y-246858800D02*
X-454543734Y-246820704D01*
X-454543734Y-246820704D02*
X-454581830Y-246744514D01*
X-454581830Y-246744514D02*
X-454581830Y-246515942D01*
X-454581830Y-246515942D02*
X-454543734Y-246439752D01*
X-454543734Y-246439752D02*
X-454505639Y-246401657D01*
X-454505639Y-246401657D02*
X-454429449Y-246363561D01*
X-454429449Y-246363561D02*
X-454277068Y-246363561D01*
X-454277068Y-246363561D02*
X-454200877Y-246401657D01*
X-453743735Y-246896895D02*
X-453819925Y-246858800D01*
X-453819925Y-246858800D02*
X-453858020Y-246782609D01*
X-453858020Y-246782609D02*
X-453858020Y-246096895D01*
X-453438972Y-246896895D02*
X-453438972Y-246096895D01*
X-453362782Y-246592133D02*
X-453134210Y-246896895D01*
X-453134210Y-246363561D02*
X-453438972Y-246668323D01*
X-459200877Y-246896895D02*
X-459200877Y-246096895D01*
X-459200877Y-246858800D02*
X-459277068Y-246896895D01*
X-459277068Y-246896895D02*
X-459429449Y-246896895D01*
X-459429449Y-246896895D02*
X-459505639Y-246858800D01*
X-459505639Y-246858800D02*
X-459543734Y-246820704D01*
X-459543734Y-246820704D02*
X-459581830Y-246744514D01*
X-459581830Y-246744514D02*
X-459581830Y-246515942D01*
X-459581830Y-246515942D02*
X-459543734Y-246439752D01*
X-459543734Y-246439752D02*
X-459505639Y-246401657D01*
X-459505639Y-246401657D02*
X-459429449Y-246363561D01*
X-459429449Y-246363561D02*
X-459277068Y-246363561D01*
X-459277068Y-246363561D02*
X-459200877Y-246401657D01*
X-458400877Y-246896895D02*
X-458858020Y-246896895D01*
X-458629448Y-246896895D02*
X-458629448Y-246096895D01*
X-458629448Y-246096895D02*
X-458705639Y-246211180D01*
X-458705639Y-246211180D02*
X-458781829Y-246287371D01*
X-458781829Y-246287371D02*
X-458858020Y-246325466D01*
X-455600877Y-252363561D02*
X-455600877Y-253011180D01*
X-455600877Y-253011180D02*
X-455638972Y-253087371D01*
X-455638972Y-253087371D02*
X-455677068Y-253125466D01*
X-455677068Y-253125466D02*
X-455753258Y-253163561D01*
X-455753258Y-253163561D02*
X-455867544Y-253163561D01*
X-455867544Y-253163561D02*
X-455943734Y-253125466D01*
X-455600877Y-252858800D02*
X-455677068Y-252896895D01*
X-455677068Y-252896895D02*
X-455829449Y-252896895D01*
X-455829449Y-252896895D02*
X-455905639Y-252858800D01*
X-455905639Y-252858800D02*
X-455943734Y-252820704D01*
X-455943734Y-252820704D02*
X-455981830Y-252744514D01*
X-455981830Y-252744514D02*
X-455981830Y-252515942D01*
X-455981830Y-252515942D02*
X-455943734Y-252439752D01*
X-455943734Y-252439752D02*
X-455905639Y-252401657D01*
X-455905639Y-252401657D02*
X-455829449Y-252363561D01*
X-455829449Y-252363561D02*
X-455677068Y-252363561D01*
X-455677068Y-252363561D02*
X-455600877Y-252401657D01*
X-455219924Y-252363561D02*
X-455219924Y-252896895D01*
X-455219924Y-252439752D02*
X-455181829Y-252401657D01*
X-455181829Y-252401657D02*
X-455105639Y-252363561D01*
X-455105639Y-252363561D02*
X-454991353Y-252363561D01*
X-454991353Y-252363561D02*
X-454915162Y-252401657D01*
X-454915162Y-252401657D02*
X-454877067Y-252477847D01*
X-454877067Y-252477847D02*
X-454877067Y-252896895D01*
X-454153257Y-252896895D02*
X-454153257Y-252096895D01*
X-454153257Y-252858800D02*
X-454229448Y-252896895D01*
X-454229448Y-252896895D02*
X-454381829Y-252896895D01*
X-454381829Y-252896895D02*
X-454458019Y-252858800D01*
X-454458019Y-252858800D02*
X-454496114Y-252820704D01*
X-454496114Y-252820704D02*
X-454534210Y-252744514D01*
X-454534210Y-252744514D02*
X-454534210Y-252515942D01*
X-454534210Y-252515942D02*
X-454496114Y-252439752D01*
X-454496114Y-252439752D02*
X-454458019Y-252401657D01*
X-454458019Y-252401657D02*
X-454381829Y-252363561D01*
X-454381829Y-252363561D02*
X-454229448Y-252363561D01*
X-454229448Y-252363561D02*
X-454153257Y-252401657D01*
X-413713561Y-255256265D02*
X-414513561Y-255256265D01*
X-413751657Y-255256265D02*
X-413713561Y-255332455D01*
X-413713561Y-255332455D02*
X-413713561Y-255484836D01*
X-413713561Y-255484836D02*
X-413751657Y-255561027D01*
X-413751657Y-255561027D02*
X-413789752Y-255599122D01*
X-413789752Y-255599122D02*
X-413865942Y-255637217D01*
X-413865942Y-255637217D02*
X-414094514Y-255637217D01*
X-414094514Y-255637217D02*
X-414170704Y-255599122D01*
X-414170704Y-255599122D02*
X-414208800Y-255561027D01*
X-414208800Y-255561027D02*
X-414246895Y-255484836D01*
X-414246895Y-255484836D02*
X-414246895Y-255332455D01*
X-414246895Y-255332455D02*
X-414208800Y-255256265D01*
X-413713561Y-255903884D02*
X-414246895Y-256056265D01*
X-414246895Y-256056265D02*
X-413865942Y-256208646D01*
X-413865942Y-256208646D02*
X-414246895Y-256361027D01*
X-414246895Y-256361027D02*
X-413713561Y-256513408D01*
X-414246895Y-256818170D02*
X-413713561Y-256818170D01*
X-413865942Y-256818170D02*
X-413789752Y-256856265D01*
X-413789752Y-256856265D02*
X-413751657Y-256894360D01*
X-413751657Y-256894360D02*
X-413713561Y-256970551D01*
X-413713561Y-256970551D02*
X-413713561Y-257046741D01*
D11*
G36*
X-428085310Y-172945000D02*
G01*
X-428085310Y-171420924D01*
X-427784525Y-171420924D01*
X-427426953Y-172490341D01*
X-427403895Y-172560386D01*
X-427379774Y-172634739D01*
X-427356225Y-172709468D01*
X-427354779Y-172714190D01*
X-427331475Y-172641495D01*
X-427305837Y-172564308D01*
X-427281256Y-172491688D01*
X-427274545Y-172472023D01*
X-426912944Y-171420924D01*
X-426644033Y-171420924D01*
X-426644033Y-172945000D01*
X-426836740Y-172945000D01*
X-426836740Y-171655397D01*
X-427275645Y-172945000D01*
X-427455896Y-172945000D01*
X-427892968Y-171655397D01*
X-427892968Y-172945000D01*
X-428085310Y-172945000D01*
G37*
G36*
X-425626273Y-172405711D02*
G01*
X-425422208Y-172405711D01*
X-425422208Y-172593290D01*
X-425626273Y-172593290D01*
X-425626273Y-172945000D01*
X-425811653Y-172945000D01*
X-425811653Y-172593290D01*
X-426467079Y-172593290D01*
X-426467079Y-172405711D01*
X-426284629Y-172405711D01*
X-425811653Y-172405711D01*
X-425811653Y-171746256D01*
X-426284629Y-172405711D01*
X-426467079Y-172405711D01*
X-425777581Y-171444371D01*
X-425626273Y-171444371D01*
X-425626273Y-172405711D01*
G37*
G36*
X-425171248Y-172945000D02*
G01*
X-425171248Y-171420924D01*
X-424971213Y-171420924D01*
X-424971213Y-172757421D01*
X-424227494Y-172757421D01*
X-424227494Y-172945000D01*
X-425171248Y-172945000D01*
G37*
D10*
G36*
X-470198778Y-85890000D02*
G01*
X-470198778Y-82841849D01*
X-468161060Y-82841849D01*
X-468161060Y-83217006D01*
X-469799441Y-83217006D01*
X-469799441Y-84108004D01*
X-468381611Y-84108004D01*
X-468381611Y-84483161D01*
X-469799441Y-84483161D01*
X-469799441Y-85890000D01*
X-470198778Y-85890000D01*
G37*
G36*
X-466175987Y-82802012D02*
G01*
X-466027824Y-82823187D01*
X-465885483Y-82858478D01*
X-465726776Y-82917493D01*
X-465575994Y-82995722D01*
X-465436531Y-83091166D01*
X-465312426Y-83201827D01*
X-465203678Y-83327706D01*
X-465110287Y-83468801D01*
X-465063816Y-83556259D01*
X-465003804Y-83694298D01*
X-464956208Y-83839138D01*
X-464921029Y-83990779D01*
X-464898265Y-84149220D01*
X-464887918Y-84314461D01*
X-464887229Y-84371053D01*
X-464893746Y-84540760D01*
X-464913298Y-84703666D01*
X-464945884Y-84859772D01*
X-464991505Y-85009077D01*
X-465050161Y-85151581D01*
X-465072609Y-85197571D01*
X-465147588Y-85327925D01*
X-465248867Y-85464312D01*
X-465365014Y-85583799D01*
X-465496026Y-85686386D01*
X-465598708Y-85749316D01*
X-465750012Y-85822405D01*
X-465906434Y-85877543D01*
X-466067976Y-85914729D01*
X-466234636Y-85933963D01*
X-466332169Y-85936894D01*
X-466488919Y-85929630D01*
X-466639331Y-85907837D01*
X-466783407Y-85871515D01*
X-466921146Y-85820665D01*
X-467052547Y-85755286D01*
X-467094940Y-85730265D01*
X-467234012Y-85632321D01*
X-467357586Y-85519932D01*
X-467465663Y-85393096D01*
X-467558242Y-85251816D01*
X-467604186Y-85164598D01*
X-467662953Y-85028766D01*
X-467716148Y-84866583D01*
X-467752793Y-84700403D01*
X-467771031Y-84554782D01*
X-467776930Y-84410621D01*
X-467364584Y-84410621D01*
X-467357410Y-84572247D01*
X-467335890Y-84722817D01*
X-467291128Y-84888909D01*
X-467225706Y-85039081D01*
X-467139625Y-85173334D01*
X-467070760Y-85253991D01*
X-466955346Y-85358577D01*
X-466829475Y-85441524D01*
X-466693144Y-85502833D01*
X-466546355Y-85542503D01*
X-466389108Y-85560535D01*
X-466334368Y-85561737D01*
X-466170723Y-85550815D01*
X-466018310Y-85518048D01*
X-465877128Y-85463437D01*
X-465747177Y-85386981D01*
X-465628458Y-85288681D01*
X-465591381Y-85251060D01*
X-465492274Y-85125137D01*
X-465413671Y-84980924D01*
X-465355574Y-84818421D01*
X-465322823Y-84669031D01*
X-465304312Y-84506940D01*
X-465299755Y-84368122D01*
X-465305715Y-84214179D01*
X-465327125Y-84049063D01*
X-465364105Y-83895488D01*
X-465416655Y-83753453D01*
X-465424319Y-83736510D01*
X-465503544Y-83594457D01*
X-465601084Y-83471646D01*
X-465716939Y-83368078D01*
X-465789218Y-83318855D01*
X-465928985Y-83246952D01*
X-466077910Y-83198582D01*
X-466235992Y-83173743D01*
X-466327773Y-83170111D01*
X-466482968Y-83180158D01*
X-466629817Y-83210297D01*
X-466768320Y-83260529D01*
X-466898477Y-83330853D01*
X-467020287Y-83421271D01*
X-467059036Y-83455875D01*
X-467162875Y-83576509D01*
X-467245229Y-83724088D01*
X-467297447Y-83867654D01*
X-467334745Y-84029931D01*
X-467357124Y-84210920D01*
X-467364286Y-84369183D01*
X-467364584Y-84410621D01*
X-467776930Y-84410621D01*
X-467777110Y-84406224D01*
X-467770802Y-84222321D01*
X-467751877Y-84048698D01*
X-467720335Y-83885357D01*
X-467676177Y-83732297D01*
X-467619402Y-83589518D01*
X-467550010Y-83457020D01*
X-467468002Y-83334803D01*
X-467373377Y-83222868D01*
X-467241257Y-83099592D01*
X-467097688Y-82997210D01*
X-466942670Y-82915723D01*
X-466776203Y-82855129D01*
X-466598287Y-82815430D01*
X-466447712Y-82798715D01*
X-466329971Y-82794954D01*
X-466175987Y-82802012D01*
G37*
G36*
X-464525994Y-84858318D02*
G01*
X-464149371Y-84858318D01*
X-464122420Y-85005877D01*
X-464074060Y-85144930D01*
X-464024807Y-85234207D01*
X-463927255Y-85344085D01*
X-463805651Y-85429196D01*
X-463720725Y-85471612D01*
X-463573024Y-85522923D01*
X-463428081Y-85551088D01*
X-463272977Y-85561649D01*
X-463256908Y-85561737D01*
X-463106058Y-85553685D01*
X-462955912Y-85526534D01*
X-462853174Y-85493593D01*
X-462716692Y-85423649D01*
X-462603302Y-85320014D01*
X-462592323Y-85305282D01*
X-462525431Y-85172848D01*
X-462506594Y-85048094D01*
X-462532792Y-84903426D01*
X-462589392Y-84806294D01*
X-462706986Y-84704843D01*
X-462849478Y-84634959D01*
X-462861234Y-84630439D01*
X-463008674Y-84583751D01*
X-463167704Y-84541370D01*
X-463323610Y-84502716D01*
X-463399057Y-84484626D01*
X-463546370Y-84447618D01*
X-463696095Y-84405353D01*
X-463838016Y-84358252D01*
X-463982309Y-84295582D01*
X-464117928Y-84210590D01*
X-464227573Y-84112784D01*
X-464304710Y-84012749D01*
X-464369453Y-83880034D01*
X-464404315Y-83735778D01*
X-464410955Y-83633196D01*
X-464395630Y-83478568D01*
X-464349655Y-83331040D01*
X-464281262Y-83203084D01*
X-464188541Y-83087121D01*
X-464072492Y-82990192D01*
X-463933116Y-82912297D01*
X-463902442Y-82899002D01*
X-463757548Y-82848705D01*
X-463603961Y-82814869D01*
X-463441679Y-82797494D01*
X-463347766Y-82794954D01*
X-463184597Y-82801640D01*
X-463031410Y-82821699D01*
X-462888208Y-82855129D01*
X-462754989Y-82901933D01*
X-462620122Y-82970048D01*
X-462492295Y-83064359D01*
X-462387653Y-83178275D01*
X-462360781Y-83216273D01*
X-462286749Y-83351241D01*
X-462237762Y-83496942D01*
X-462213820Y-83653377D01*
X-462212037Y-83685952D01*
X-462595254Y-83685952D01*
X-462628942Y-83538748D01*
X-462699389Y-83404923D01*
X-462804814Y-83300537D01*
X-462947313Y-83226281D01*
X-463093784Y-83188452D01*
X-463246558Y-83172149D01*
X-463330913Y-83170111D01*
X-463480198Y-83176422D01*
X-463627797Y-83199091D01*
X-463777778Y-83250611D01*
X-463859943Y-83302002D01*
X-463967161Y-83417638D01*
X-464021497Y-83562455D01*
X-464025540Y-83619274D01*
X-463996231Y-83766369D01*
X-463908303Y-83885254D01*
X-463769234Y-83964011D01*
X-463618475Y-84017317D01*
X-463474932Y-84057717D01*
X-463305268Y-84098478D01*
X-463160457Y-84131952D01*
X-463006378Y-84170420D01*
X-462853772Y-84212956D01*
X-462700533Y-84263935D01*
X-462636287Y-84290453D01*
X-462498864Y-84364030D01*
X-462371867Y-84457882D01*
X-462263411Y-84575831D01*
X-462247208Y-84598932D01*
X-462175455Y-84734142D01*
X-462133486Y-84882858D01*
X-462121178Y-85029776D01*
X-462134702Y-85178182D01*
X-462175274Y-85321150D01*
X-462242894Y-85458680D01*
X-462259664Y-85485533D01*
X-462357566Y-85609954D01*
X-462479082Y-85715770D01*
X-462608635Y-85795098D01*
X-462656070Y-85818192D01*
X-462806663Y-85875572D01*
X-462949087Y-85910812D01*
X-463099571Y-85931214D01*
X-463237857Y-85936894D01*
X-463387041Y-85932463D01*
X-463549239Y-85916094D01*
X-463698674Y-85887664D01*
X-463853830Y-85840403D01*
X-463925156Y-85810865D01*
X-464056223Y-85739882D01*
X-464185937Y-85640976D01*
X-464296873Y-85521901D01*
X-464360397Y-85431311D01*
X-464429823Y-85300428D01*
X-464480564Y-85161301D01*
X-464512621Y-85013931D01*
X-464525994Y-84858318D01*
G37*
G36*
X-461726971Y-84858318D02*
G01*
X-461350348Y-84858318D01*
X-461323397Y-85005877D01*
X-461275037Y-85144930D01*
X-461225784Y-85234207D01*
X-461128232Y-85344085D01*
X-461006628Y-85429196D01*
X-460921702Y-85471612D01*
X-460774001Y-85522923D01*
X-460629058Y-85551088D01*
X-460473954Y-85561649D01*
X-460457885Y-85561737D01*
X-460307035Y-85553685D01*
X-460156889Y-85526534D01*
X-460054151Y-85493593D01*
X-459917669Y-85423649D01*
X-459804279Y-85320014D01*
X-459793300Y-85305282D01*
X-459726408Y-85172848D01*
X-459707571Y-85048094D01*
X-459733769Y-84903426D01*
X-459790369Y-84806294D01*
X-459907963Y-84704843D01*
X-460050455Y-84634959D01*
X-460062211Y-84630439D01*
X-460209651Y-84583751D01*
X-460368681Y-84541370D01*
X-460524587Y-84502716D01*
X-460600034Y-84484626D01*
X-460747347Y-84447618D01*
X-460897072Y-84405353D01*
X-461038993Y-84358252D01*
X-461183286Y-84295582D01*
X-461318905Y-84210590D01*
X-461428550Y-84112784D01*
X-461505686Y-84012749D01*
X-461570430Y-83880034D01*
X-461605292Y-83735778D01*
X-461611932Y-83633196D01*
X-461596607Y-83478568D01*
X-461550632Y-83331040D01*
X-461482239Y-83203084D01*
X-461389518Y-83087121D01*
X-461273469Y-82990192D01*
X-461134093Y-82912297D01*
X-461103419Y-82899002D01*
X-460958525Y-82848705D01*
X-460804938Y-82814869D01*
X-460642656Y-82797494D01*
X-460548743Y-82794954D01*
X-460385574Y-82801640D01*
X-460232387Y-82821699D01*
X-460089185Y-82855129D01*
X-459955966Y-82901933D01*
X-459821099Y-82970048D01*
X-459693272Y-83064359D01*
X-459588630Y-83178275D01*
X-459561758Y-83216273D01*
X-459487726Y-83351241D01*
X-459438739Y-83496942D01*
X-459414797Y-83653377D01*
X-459413014Y-83685952D01*
X-459796231Y-83685952D01*
X-459829919Y-83538748D01*
X-459900366Y-83404923D01*
X-460005791Y-83300537D01*
X-460148290Y-83226281D01*
X-460294761Y-83188452D01*
X-460447535Y-83172149D01*
X-460531890Y-83170111D01*
X-460681175Y-83176422D01*
X-460828774Y-83199091D01*
X-460978754Y-83250611D01*
X-461060920Y-83302002D01*
X-461168138Y-83417638D01*
X-461222474Y-83562455D01*
X-461226517Y-83619274D01*
X-461197208Y-83766369D01*
X-461109280Y-83885254D01*
X-460970211Y-83964011D01*
X-460819452Y-84017317D01*
X-460675909Y-84057717D01*
X-460506245Y-84098478D01*
X-460361434Y-84131952D01*
X-460207355Y-84170420D01*
X-460054749Y-84212956D01*
X-459901510Y-84263935D01*
X-459837264Y-84290453D01*
X-459699840Y-84364030D01*
X-459572844Y-84457882D01*
X-459464388Y-84575831D01*
X-459448185Y-84598932D01*
X-459376432Y-84734142D01*
X-459334463Y-84882858D01*
X-459322155Y-85029776D01*
X-459335679Y-85178182D01*
X-459376251Y-85321150D01*
X-459443871Y-85458680D01*
X-459460641Y-85485533D01*
X-459558543Y-85609954D01*
X-459680059Y-85715770D01*
X-459809612Y-85795098D01*
X-459857047Y-85818192D01*
X-460007640Y-85875572D01*
X-460150064Y-85910812D01*
X-460300548Y-85931214D01*
X-460438834Y-85936894D01*
X-460588018Y-85932463D01*
X-460750216Y-85916094D01*
X-460899651Y-85887664D01*
X-461054807Y-85840403D01*
X-461126133Y-85810865D01*
X-461257200Y-85739882D01*
X-461386914Y-85640976D01*
X-461497850Y-85521901D01*
X-461561374Y-85431311D01*
X-461630800Y-85300428D01*
X-461681541Y-85161301D01*
X-461713598Y-85013931D01*
X-461726971Y-84858318D01*
G37*
G36*
X-458796056Y-85890000D02*
G01*
X-458796056Y-82841849D01*
X-458386461Y-82841849D01*
X-456799371Y-85180718D01*
X-456799371Y-82841849D01*
X-456416154Y-82841849D01*
X-456416154Y-85890000D01*
X-456825749Y-85890000D01*
X-458412839Y-83551130D01*
X-458412839Y-85890000D01*
X-458796056Y-85890000D01*
G37*
G36*
X-453297399Y-82844167D02*
G01*
X-453148306Y-82852181D01*
X-452995777Y-82871158D01*
X-452851209Y-82905405D01*
X-452713049Y-82961133D01*
X-452622818Y-83015505D01*
X-452509973Y-83115858D01*
X-452416718Y-83244266D01*
X-452380285Y-83312993D01*
X-452324472Y-83461680D01*
X-452295939Y-83607209D01*
X-452288694Y-83732847D01*
X-452300440Y-83899207D01*
X-452335678Y-84053996D01*
X-452394407Y-84197216D01*
X-452476628Y-84328864D01*
X-452534158Y-84398897D01*
X-452660197Y-84504820D01*
X-452798425Y-84574904D01*
X-452964525Y-84625875D01*
X-453124234Y-84653749D01*
X-453303298Y-84668350D01*
X-453420027Y-84670739D01*
X-454195254Y-84670739D01*
X-454195254Y-85890000D01*
X-454595324Y-85890000D01*
X-454595324Y-83217006D01*
X-454195254Y-83217006D01*
X-454195254Y-84295582D01*
X-453414165Y-84295582D01*
X-453255348Y-84288710D01*
X-453100205Y-84264026D01*
X-452959278Y-84214799D01*
X-452863886Y-84151967D01*
X-452764762Y-84027220D01*
X-452714087Y-83883903D01*
X-452701220Y-83746036D01*
X-452719593Y-83591001D01*
X-452780054Y-83447925D01*
X-452797208Y-83422170D01*
X-452900398Y-83315899D01*
X-453039571Y-83246908D01*
X-453049266Y-83244117D01*
X-453204886Y-83222963D01*
X-453356932Y-83217429D01*
X-453422225Y-83217006D01*
X-454195254Y-83217006D01*
X-454595324Y-83217006D01*
X-454595324Y-82841849D01*
X-453455198Y-82841849D01*
X-453297399Y-82844167D01*
G37*
G36*
X-451847592Y-85890000D02*
G01*
X-451847592Y-83685952D01*
X-451513467Y-83685952D01*
X-451513467Y-84012016D01*
X-451435644Y-83884762D01*
X-451340035Y-83764689D01*
X-451277529Y-83711598D01*
X-451141261Y-83651029D01*
X-451039392Y-83639057D01*
X-450886017Y-83658164D01*
X-450742723Y-83709718D01*
X-450658373Y-83754829D01*
X-450785868Y-84097745D01*
X-450921972Y-84035097D01*
X-451057710Y-84014214D01*
X-451206940Y-84046086D01*
X-451276796Y-84088220D01*
X-451375943Y-84203052D01*
X-451414549Y-84293384D01*
X-451452502Y-84448768D01*
X-451471904Y-84600618D01*
X-451476831Y-84731556D01*
X-451476831Y-85890000D01*
X-451847592Y-85890000D01*
G37*
G36*
X-449393618Y-83649516D02*
G01*
X-449241746Y-83680892D01*
X-449101465Y-83733184D01*
X-448972777Y-83806394D01*
X-448855681Y-83900521D01*
X-448819225Y-83936545D01*
X-448721860Y-84055814D01*
X-448644640Y-84191054D01*
X-448587565Y-84342265D01*
X-448550634Y-84509447D01*
X-448535246Y-84660966D01*
X-448532728Y-84757201D01*
X-448537184Y-84909932D01*
X-448553648Y-85072035D01*
X-448582244Y-85216817D01*
X-448629780Y-85361073D01*
X-448659490Y-85424717D01*
X-448739951Y-85552976D01*
X-448838728Y-85664079D01*
X-448955820Y-85758025D01*
X-449028785Y-85802805D01*
X-449168333Y-85867623D01*
X-449314953Y-85911229D01*
X-449468643Y-85933620D01*
X-449557082Y-85936894D01*
X-449723183Y-85926487D01*
X-449876918Y-85895266D01*
X-450018289Y-85843231D01*
X-450147295Y-85770382D01*
X-450263936Y-85676718D01*
X-450300069Y-85640872D01*
X-450396437Y-85520693D01*
X-450472867Y-85382173D01*
X-450529359Y-85225312D01*
X-450561204Y-85080583D01*
X-450579204Y-84923118D01*
X-450583635Y-84787976D01*
X-450583609Y-84787243D01*
X-450201883Y-84787243D01*
X-450193118Y-84947818D01*
X-450161633Y-85108492D01*
X-450107251Y-85244802D01*
X-450018701Y-85369030D01*
X-449894910Y-85470653D01*
X-449752515Y-85534638D01*
X-449591515Y-85560984D01*
X-449557082Y-85561737D01*
X-449409059Y-85546378D01*
X-449261855Y-85493284D01*
X-449132826Y-85402265D01*
X-449097661Y-85367564D01*
X-449009111Y-85242229D01*
X-448954729Y-85103766D01*
X-448923245Y-84939841D01*
X-448914479Y-84775519D01*
X-448923315Y-84620119D01*
X-448955051Y-84463899D01*
X-449018343Y-84315412D01*
X-449099127Y-84207655D01*
X-449222875Y-84105645D01*
X-449364226Y-84041417D01*
X-449523179Y-84014970D01*
X-449557082Y-84014214D01*
X-449706168Y-84029458D01*
X-449854145Y-84082151D01*
X-449983517Y-84172483D01*
X-450018701Y-84206922D01*
X-450107251Y-84330441D01*
X-450166821Y-84485027D01*
X-450195443Y-84648517D01*
X-450201883Y-84787243D01*
X-450583609Y-84787243D01*
X-450578357Y-84640320D01*
X-450556915Y-84469627D01*
X-450518980Y-84314356D01*
X-450464551Y-84174504D01*
X-450377465Y-84027036D01*
X-450266629Y-83901774D01*
X-450245847Y-83883056D01*
X-450116217Y-83787982D01*
X-449974806Y-83716260D01*
X-449821614Y-83667889D01*
X-449656642Y-83642870D01*
X-449557082Y-83639057D01*
X-449393618Y-83649516D01*
G37*
G36*
X-448111409Y-83217006D02*
G01*
X-448111409Y-82841849D01*
X-447740648Y-82841849D01*
X-447740648Y-83217006D01*
X-448111409Y-83217006D01*
G37*
G36*
X-448581088Y-86735568D02*
G01*
X-448511479Y-86378729D01*
X-448366525Y-86404543D01*
X-448336356Y-86405840D01*
X-448194229Y-86360224D01*
X-448167096Y-86331102D01*
X-448123645Y-86189399D01*
X-448112279Y-86030489D01*
X-448111409Y-85959609D01*
X-448111409Y-83685952D01*
X-447740648Y-83685952D01*
X-447740648Y-86007969D01*
X-447745662Y-86173783D01*
X-447763671Y-86334434D01*
X-447799587Y-86478381D01*
X-447845428Y-86573635D01*
X-447946551Y-86682986D01*
X-448082306Y-86751837D01*
X-448234096Y-86779175D01*
X-448290927Y-86780997D01*
X-448438572Y-86769640D01*
X-448581088Y-86735568D01*
G37*
G36*
X-446119933Y-83649799D02*
G01*
X-445972345Y-83682025D01*
X-445814485Y-83746775D01*
X-445672052Y-83840767D01*
X-445562246Y-83944605D01*
X-445467621Y-84067918D01*
X-445392574Y-84208697D01*
X-445337104Y-84366940D01*
X-445305834Y-84512151D01*
X-445288160Y-84669491D01*
X-445283809Y-84804096D01*
X-445285275Y-84905212D01*
X-446917794Y-84905212D01*
X-446897369Y-85054918D01*
X-446850087Y-85201112D01*
X-446767369Y-85335952D01*
X-446714095Y-85392477D01*
X-446590347Y-85481735D01*
X-446448997Y-85537935D01*
X-446290043Y-85561076D01*
X-446256140Y-85561737D01*
X-446100430Y-85548798D01*
X-445954652Y-85505922D01*
X-445908094Y-85483335D01*
X-445785970Y-85389386D01*
X-445695810Y-85264805D01*
X-445679483Y-85233475D01*
X-445295533Y-85280369D01*
X-445350625Y-85427694D01*
X-445425043Y-85557524D01*
X-445531863Y-85682672D01*
X-445631855Y-85764703D01*
X-445762785Y-85840037D01*
X-445910842Y-85893846D01*
X-446054442Y-85923274D01*
X-446211155Y-85936222D01*
X-446258338Y-85936894D01*
X-446431334Y-85926461D01*
X-446590367Y-85895163D01*
X-446735439Y-85842999D01*
X-446866549Y-85769969D01*
X-446983697Y-85676074D01*
X-447019643Y-85640139D01*
X-447115264Y-85520183D01*
X-447191102Y-85383432D01*
X-447247155Y-85229886D01*
X-447283425Y-85059543D01*
X-447298538Y-84904762D01*
X-447301011Y-84806294D01*
X-447294070Y-84639022D01*
X-447279445Y-84530055D01*
X-446897278Y-84530055D01*
X-445675086Y-84530055D01*
X-445706445Y-84376114D01*
X-445775067Y-84236626D01*
X-445815037Y-84190069D01*
X-445936167Y-84097333D01*
X-446077904Y-84038944D01*
X-446223087Y-84015760D01*
X-446275191Y-84014214D01*
X-446426688Y-84027953D01*
X-446575153Y-84074802D01*
X-446704570Y-84154898D01*
X-446806021Y-84262370D01*
X-446874628Y-84405287D01*
X-446897278Y-84530055D01*
X-447279445Y-84530055D01*
X-447273247Y-84483879D01*
X-447238543Y-84340865D01*
X-447178574Y-84185257D01*
X-447098615Y-84047115D01*
X-447016712Y-83945338D01*
X-446904150Y-83841250D01*
X-446779686Y-83758698D01*
X-446643321Y-83697681D01*
X-446495055Y-83658200D01*
X-446334888Y-83640254D01*
X-446278855Y-83639057D01*
X-446119933Y-83649799D01*
G37*
G36*
X-443413153Y-85092791D02*
G01*
X-443048255Y-85139685D01*
X-443083447Y-85295712D01*
X-443136451Y-85436171D01*
X-443218837Y-85577634D01*
X-443324487Y-85698763D01*
X-443354535Y-85725868D01*
X-443484640Y-85818192D01*
X-443628759Y-85884138D01*
X-443786891Y-85923705D01*
X-443936752Y-85936688D01*
X-443959036Y-85936894D01*
X-444121539Y-85926539D01*
X-444271625Y-85895472D01*
X-444409295Y-85843694D01*
X-444554217Y-85757111D01*
X-444664985Y-85660459D01*
X-444682239Y-85642337D01*
X-444774872Y-85522613D01*
X-444848340Y-85384909D01*
X-444902642Y-85229224D01*
X-444933253Y-85085752D01*
X-444950555Y-84929793D01*
X-444954814Y-84796036D01*
X-444949204Y-84644517D01*
X-444929054Y-84481828D01*
X-444894250Y-84330314D01*
X-444844790Y-84189973D01*
X-444837578Y-84173217D01*
X-444761599Y-84033385D01*
X-444666377Y-83914767D01*
X-444551912Y-83817362D01*
X-444480006Y-83772414D01*
X-444341514Y-83707950D01*
X-444196414Y-83664583D01*
X-444044707Y-83642313D01*
X-443957571Y-83639057D01*
X-443807695Y-83647823D01*
X-443651692Y-83679307D01*
X-443511993Y-83733690D01*
X-443374319Y-83822240D01*
X-443259474Y-83937451D01*
X-443179092Y-84060298D01*
X-443119134Y-84202378D01*
X-443083425Y-84342477D01*
X-443443928Y-84389371D01*
X-443498783Y-84252917D01*
X-443594836Y-84133638D01*
X-443626377Y-84108736D01*
X-443761252Y-84040891D01*
X-443908634Y-84015045D01*
X-443942916Y-84014214D01*
X-444092427Y-84028878D01*
X-444238973Y-84079568D01*
X-444364910Y-84166465D01*
X-444398673Y-84199595D01*
X-444483327Y-84320911D01*
X-444540276Y-84476309D01*
X-444565415Y-84620735D01*
X-444573795Y-84785778D01*
X-444565731Y-84953355D01*
X-444541538Y-85099614D01*
X-444494140Y-85240665D01*
X-444415636Y-85366064D01*
X-444405268Y-85377822D01*
X-444289391Y-85474809D01*
X-444153335Y-85535874D01*
X-443997101Y-85561019D01*
X-443963432Y-85561737D01*
X-443809766Y-85545560D01*
X-443666084Y-85491523D01*
X-443598534Y-85446699D01*
X-443497242Y-85332793D01*
X-443435298Y-85191371D01*
X-443413153Y-85092791D01*
G37*
G36*
X-441933042Y-85573461D02*
G01*
X-441879552Y-85900990D01*
X-442027930Y-85927918D01*
X-442159455Y-85936894D01*
X-442308774Y-85926615D01*
X-442451381Y-85885743D01*
X-442473063Y-85874612D01*
X-442590195Y-85776143D01*
X-442629134Y-85711214D01*
X-442661742Y-85567312D01*
X-442672389Y-85416816D01*
X-442674563Y-85285498D01*
X-442674563Y-84061109D01*
X-442947138Y-84061109D01*
X-442947138Y-83685952D01*
X-442674563Y-83685952D01*
X-442674563Y-83143733D01*
X-442306001Y-82921716D01*
X-442306001Y-83685952D01*
X-441933042Y-83685952D01*
X-441933042Y-84061109D01*
X-442306001Y-84061109D01*
X-442306001Y-85274508D01*
X-442297796Y-85425586D01*
X-442286950Y-85467948D01*
X-442223202Y-85536824D01*
X-442095707Y-85561737D01*
X-441945527Y-85572041D01*
X-441933042Y-85573461D01*
G37*
D11*
G36*
X-426285310Y-945000D02*
G01*
X-426285310Y579075D01*
X-425984525Y579075D01*
X-425626953Y-490341D01*
X-425603895Y-560386D01*
X-425579774Y-634739D01*
X-425556225Y-709468D01*
X-425554779Y-714190D01*
X-425531475Y-641495D01*
X-425505837Y-564308D01*
X-425481256Y-491688D01*
X-425474545Y-472023D01*
X-425112944Y579075D01*
X-424844033Y579075D01*
X-424844033Y-945000D01*
X-425036740Y-945000D01*
X-425036740Y344602D01*
X-425475645Y-945000D01*
X-425655896Y-945000D01*
X-426092968Y344602D01*
X-426092968Y-945000D01*
X-426285310Y-945000D01*
G37*
G36*
X-423631367Y-757421D02*
G01*
X-423631367Y-945000D01*
X-424630076Y-945000D01*
X-424624138Y-869961D01*
X-424608460Y-813841D01*
X-424576854Y-742907D01*
X-424538729Y-679022D01*
X-424491660Y-615710D01*
X-424486461Y-609410D01*
X-424433180Y-550651D01*
X-424375941Y-494918D01*
X-424318231Y-443447D01*
X-424253404Y-389451D01*
X-424243562Y-381531D01*
X-424184508Y-333406D01*
X-424117711Y-277000D01*
X-424058714Y-224763D01*
X-423998212Y-167580D01*
X-423941822Y-108453D01*
X-423910903Y-71221D01*
X-423868930Y-8762D01*
X-423838404Y58255D01*
X-423824159Y135372D01*
X-423824074Y141636D01*
X-423835151Y215859D01*
X-423872151Y285802D01*
X-423902843Y318956D01*
X-423968720Y363160D01*
X-424041055Y385758D01*
X-424108739Y391496D01*
X-424187129Y384806D01*
X-424261373Y361992D01*
X-424323063Y322986D01*
X-424372110Y264236D01*
X-424398900Y190752D01*
X-424404395Y133576D01*
X-424594905Y157023D01*
X-424583811Y230796D01*
X-424561231Y308170D01*
X-424528272Y376183D01*
X-424477897Y442450D01*
X-424447626Y470997D01*
X-424387497Y513110D01*
X-424318988Y544878D01*
X-424242099Y566304D01*
X-424169525Y576436D01*
X-424104343Y579075D01*
X-424026054Y574773D01*
X-423942759Y558880D01*
X-423868124Y531276D01*
X-423802149Y491961D01*
X-423760327Y456709D01*
X-423710934Y400530D01*
X-423669341Y329455D01*
X-423643592Y251053D01*
X-423634060Y176441D01*
X-423633565Y154092D01*
X-423639672Y79861D01*
X-423657993Y6596D01*
X-423670568Y-26891D01*
X-423705224Y-94725D01*
X-423749121Y-159260D01*
X-423793666Y-213736D01*
X-423851079Y-274153D01*
X-423908155Y-328317D01*
X-423965729Y-379738D01*
X-424031288Y-435770D01*
X-424079430Y-475687D01*
X-424137880Y-523579D01*
X-424195457Y-571672D01*
X-424252689Y-621192D01*
X-424294120Y-659968D01*
X-424344430Y-717654D01*
X-424372155Y-757421D01*
X-423631367Y-757421D01*
G37*
G36*
X-423371248Y-945000D02*
G01*
X-423371248Y579075D01*
X-423171213Y579075D01*
X-423171213Y-757421D01*
X-422427494Y-757421D01*
X-422427494Y-945000D01*
X-423371248Y-945000D01*
G37*
D12*
X-452800877Y-252896895D02*
X-452800877Y-252096895D01*
X-452800877Y-252858800D02*
X-452877068Y-252896895D01*
X-452877068Y-252896895D02*
X-453029449Y-252896895D01*
X-453029449Y-252896895D02*
X-453105639Y-252858800D01*
X-453105639Y-252858800D02*
X-453143734Y-252820704D01*
X-453143734Y-252820704D02*
X-453181830Y-252744514D01*
X-453181830Y-252744514D02*
X-453181830Y-252515942D01*
X-453181830Y-252515942D02*
X-453143734Y-252439752D01*
X-453143734Y-252439752D02*
X-453105639Y-252401657D01*
X-453105639Y-252401657D02*
X-453029449Y-252363561D01*
X-453029449Y-252363561D02*
X-452877068Y-252363561D01*
X-452877068Y-252363561D02*
X-452800877Y-252401657D01*
X-452077067Y-252363561D02*
X-452077067Y-252896895D01*
X-452267543Y-252058800D02*
X-452458020Y-252630228D01*
X-452458020Y-252630228D02*
X-451962781Y-252630228D01*
D11*
G36*
X-491258967Y-258745000D02*
G01*
X-491258967Y-257220924D01*
X-490958182Y-257220924D01*
X-490600610Y-258290341D01*
X-490577552Y-258360386D01*
X-490553431Y-258434739D01*
X-490529882Y-258509468D01*
X-490528436Y-258514190D01*
X-490505132Y-258441495D01*
X-490479494Y-258364308D01*
X-490454913Y-258291688D01*
X-490448202Y-258272023D01*
X-490086601Y-257220924D01*
X-489817690Y-257220924D01*
X-489817690Y-258745000D01*
X-490010397Y-258745000D01*
X-490010397Y-257455397D01*
X-490449302Y-258745000D01*
X-490629553Y-258745000D01*
X-491066625Y-257455397D01*
X-491066625Y-258745000D01*
X-491258967Y-258745000D01*
G37*
G36*
X-489578820Y-258346395D02*
G01*
X-489393440Y-258322948D01*
X-489371975Y-258393965D01*
X-489336138Y-258464313D01*
X-489284996Y-258520418D01*
X-489216983Y-258559557D01*
X-489144434Y-258577976D01*
X-489097784Y-258580868D01*
X-489019817Y-258572425D01*
X-488949864Y-258547094D01*
X-488887926Y-258504876D01*
X-488876500Y-258494406D01*
X-488828973Y-258436096D01*
X-488797024Y-258362615D01*
X-488786462Y-258287324D01*
X-488786374Y-258279351D01*
X-488796244Y-258200289D01*
X-488825856Y-258131358D01*
X-488869905Y-258077484D01*
X-488932701Y-258032012D01*
X-489006233Y-258005416D01*
X-489082396Y-257997616D01*
X-489158045Y-258005631D01*
X-489213189Y-258018133D01*
X-489192306Y-257830554D01*
X-489162630Y-257832386D01*
X-489084045Y-257826066D01*
X-489011001Y-257807104D01*
X-488949406Y-257778897D01*
X-488891584Y-257730365D01*
X-488859058Y-257659417D01*
X-488854518Y-257613300D01*
X-488869732Y-257536943D01*
X-488915376Y-257474110D01*
X-488923761Y-257466755D01*
X-488991741Y-257426934D01*
X-489068680Y-257409925D01*
X-489101814Y-257408503D01*
X-489177823Y-257416746D01*
X-489248771Y-257444280D01*
X-489282065Y-257467121D01*
X-489332181Y-257524423D01*
X-489363307Y-257594490D01*
X-489374755Y-257642976D01*
X-489560135Y-257619528D01*
X-489541092Y-257540586D01*
X-489513773Y-257469813D01*
X-489472420Y-257398933D01*
X-489420259Y-257338723D01*
X-489405530Y-257325338D01*
X-489341599Y-257279657D01*
X-489270341Y-257247028D01*
X-489191756Y-257227450D01*
X-489116984Y-257221026D01*
X-489105844Y-257220924D01*
X-489030575Y-257225969D01*
X-488952159Y-257243171D01*
X-488878332Y-257272581D01*
X-488812600Y-257312346D01*
X-488754125Y-257365996D01*
X-488719329Y-257413265D01*
X-488685618Y-257481581D01*
X-488667466Y-257552988D01*
X-488664008Y-257602309D01*
X-488672655Y-257676625D01*
X-488698594Y-257745377D01*
X-488716399Y-257775233D01*
X-488767370Y-257833377D01*
X-488829340Y-257877710D01*
X-488872103Y-257899431D01*
X-488801431Y-257922750D01*
X-488734054Y-257961304D01*
X-488678413Y-258013168D01*
X-488664008Y-258031322D01*
X-488624789Y-258098770D01*
X-488600095Y-258176093D01*
X-488590290Y-258254126D01*
X-488589637Y-258281915D01*
X-488594711Y-258356112D01*
X-488613459Y-258437141D01*
X-488646022Y-258512209D01*
X-488692400Y-258581317D01*
X-488733984Y-258627030D01*
X-488790669Y-258675090D01*
X-488863606Y-258718592D01*
X-488931956Y-258745108D01*
X-489005689Y-258761680D01*
X-489084807Y-258768309D01*
X-489098516Y-258768447D01*
X-489182325Y-258762819D01*
X-489259682Y-258745937D01*
X-489330588Y-258717799D01*
X-489395043Y-258678407D01*
X-489428977Y-258650844D01*
X-489480977Y-258596079D01*
X-489522212Y-258534688D01*
X-489552684Y-258466670D01*
X-489572391Y-258392025D01*
X-489578820Y-258346395D01*
G37*
G36*
X-487580146Y-257222870D02*
G01*
X-487505713Y-257228708D01*
X-487431983Y-257240145D01*
X-487356821Y-257261591D01*
X-487289554Y-257296700D01*
X-487232331Y-257346614D01*
X-487189026Y-257404839D01*
X-487155796Y-257471064D01*
X-487134873Y-257541510D01*
X-487126257Y-257616178D01*
X-487126011Y-257631618D01*
X-487132514Y-257708692D01*
X-487152023Y-257779446D01*
X-487189517Y-257851491D01*
X-487230059Y-257901995D01*
X-487289158Y-257951935D01*
X-487362408Y-257991846D01*
X-487438110Y-258018541D01*
X-487511620Y-258035311D01*
X-487551360Y-258041580D01*
X-487485280Y-258078433D01*
X-487430826Y-258119616D01*
X-487376995Y-258175472D01*
X-487330077Y-258231983D01*
X-487284607Y-258294406D01*
X-487264863Y-258324047D01*
X-487002180Y-258745000D01*
X-487253872Y-258745000D01*
X-487453541Y-258423332D01*
X-487495398Y-258357821D01*
X-487537889Y-258293920D01*
X-487583211Y-258229909D01*
X-487597888Y-258210474D01*
X-487648550Y-258151398D01*
X-487699738Y-258109357D01*
X-487767607Y-258077965D01*
X-487790596Y-258071622D01*
X-487866021Y-258065440D01*
X-487901971Y-258065027D01*
X-488133879Y-258065027D01*
X-488133879Y-258745000D01*
X-488333548Y-258745000D01*
X-488333548Y-257408503D01*
X-488133879Y-257408503D01*
X-488133879Y-257877449D01*
X-487704134Y-257877449D01*
X-487624328Y-257874873D01*
X-487550013Y-257866089D01*
X-487489811Y-257851071D01*
X-487421759Y-257816449D01*
X-487372208Y-257766074D01*
X-487339622Y-257696883D01*
X-487331908Y-257638579D01*
X-487344787Y-257562883D01*
X-487383424Y-257498916D01*
X-487409944Y-257473349D01*
X-487474034Y-257436430D01*
X-487550856Y-257416165D01*
X-487625039Y-257409073D01*
X-487655774Y-257408503D01*
X-488133879Y-257408503D01*
X-488333548Y-257408503D01*
X-488333548Y-257220924D01*
X-487663834Y-257220924D01*
X-487580146Y-257222870D01*
G37*
D12*
X-456600877Y-246896895D02*
X-456600877Y-246096895D01*
X-456600877Y-246858800D02*
X-456677068Y-246896895D01*
X-456677068Y-246896895D02*
X-456829449Y-246896895D01*
X-456829449Y-246896895D02*
X-456905639Y-246858800D01*
X-456905639Y-246858800D02*
X-456943734Y-246820704D01*
X-456943734Y-246820704D02*
X-456981830Y-246744514D01*
X-456981830Y-246744514D02*
X-456981830Y-246515942D01*
X-456981830Y-246515942D02*
X-456943734Y-246439752D01*
X-456943734Y-246439752D02*
X-456905639Y-246401657D01*
X-456905639Y-246401657D02*
X-456829449Y-246363561D01*
X-456829449Y-246363561D02*
X-456677068Y-246363561D01*
X-456677068Y-246363561D02*
X-456600877Y-246401657D01*
X-456258020Y-246173085D02*
X-456219924Y-246134990D01*
X-456219924Y-246134990D02*
X-456143734Y-246096895D01*
X-456143734Y-246096895D02*
X-455953258Y-246096895D01*
X-455953258Y-246096895D02*
X-455877067Y-246134990D01*
X-455877067Y-246134990D02*
X-455838972Y-246173085D01*
X-455838972Y-246173085D02*
X-455800877Y-246249276D01*
X-455800877Y-246249276D02*
X-455800877Y-246325466D01*
X-455800877Y-246325466D02*
X-455838972Y-246439752D01*
X-455838972Y-246439752D02*
X-456296115Y-246896895D01*
X-456296115Y-246896895D02*
X-455800877Y-246896895D01*
D11*
G36*
X-491258967Y-86945000D02*
G01*
X-491258967Y-85420924D01*
X-490958182Y-85420924D01*
X-490600610Y-86490341D01*
X-490577552Y-86560386D01*
X-490553431Y-86634739D01*
X-490529882Y-86709468D01*
X-490528436Y-86714190D01*
X-490505132Y-86641495D01*
X-490479494Y-86564308D01*
X-490454913Y-86491688D01*
X-490448202Y-86472023D01*
X-490086601Y-85420924D01*
X-489817690Y-85420924D01*
X-489817690Y-86945000D01*
X-490010397Y-86945000D01*
X-490010397Y-85655397D01*
X-490449302Y-86945000D01*
X-490629553Y-86945000D01*
X-491066625Y-85655397D01*
X-491066625Y-86945000D01*
X-491258967Y-86945000D01*
G37*
G36*
X-488881262Y-86945000D02*
G01*
X-489066643Y-86945000D01*
X-489066643Y-85757247D01*
X-489122800Y-85805383D01*
X-489184596Y-85849599D01*
X-489242498Y-85885840D01*
X-489308322Y-85922799D01*
X-489375686Y-85956263D01*
X-489437770Y-85982194D01*
X-489437770Y-85801943D01*
X-489371525Y-85768253D01*
X-489300410Y-85726144D01*
X-489234195Y-85680188D01*
X-489172881Y-85630386D01*
X-489165561Y-85623890D01*
X-489111568Y-85571912D01*
X-489061008Y-85514422D01*
X-489017473Y-85451768D01*
X-489000697Y-85420924D01*
X-488881262Y-85420924D01*
X-488881262Y-86945000D01*
G37*
G36*
X-487580146Y-85422870D02*
G01*
X-487505713Y-85428708D01*
X-487431983Y-85440145D01*
X-487356821Y-85461591D01*
X-487289554Y-85496700D01*
X-487232331Y-85546614D01*
X-487189026Y-85604839D01*
X-487155796Y-85671064D01*
X-487134873Y-85741510D01*
X-487126257Y-85816178D01*
X-487126011Y-85831618D01*
X-487132514Y-85908692D01*
X-487152023Y-85979446D01*
X-487189517Y-86051491D01*
X-487230059Y-86101995D01*
X-487289158Y-86151935D01*
X-487362408Y-86191846D01*
X-487438110Y-86218541D01*
X-487511620Y-86235311D01*
X-487551360Y-86241580D01*
X-487485280Y-86278433D01*
X-487430826Y-86319616D01*
X-487376995Y-86375472D01*
X-487330077Y-86431983D01*
X-487284607Y-86494406D01*
X-487264863Y-86524047D01*
X-487002180Y-86945000D01*
X-487253872Y-86945000D01*
X-487453541Y-86623332D01*
X-487495398Y-86557821D01*
X-487537889Y-86493920D01*
X-487583211Y-86429909D01*
X-487597888Y-86410474D01*
X-487648550Y-86351398D01*
X-487699738Y-86309357D01*
X-487767607Y-86277965D01*
X-487790596Y-86271622D01*
X-487866021Y-86265440D01*
X-487901971Y-86265027D01*
X-488133879Y-86265027D01*
X-488133879Y-86945000D01*
X-488333548Y-86945000D01*
X-488333548Y-85608503D01*
X-488133879Y-85608503D01*
X-488133879Y-86077449D01*
X-487704134Y-86077449D01*
X-487624328Y-86074873D01*
X-487550013Y-86066089D01*
X-487489811Y-86051071D01*
X-487421759Y-86016449D01*
X-487372208Y-85966074D01*
X-487339622Y-85896883D01*
X-487331908Y-85838579D01*
X-487344787Y-85762883D01*
X-487383424Y-85698916D01*
X-487409944Y-85673349D01*
X-487474034Y-85636430D01*
X-487550856Y-85616165D01*
X-487625039Y-85609073D01*
X-487655774Y-85608503D01*
X-488133879Y-85608503D01*
X-488333548Y-85608503D01*
X-488333548Y-85420924D01*
X-487663834Y-85420924D01*
X-487580146Y-85422870D01*
G37*
G36*
X-426858967Y-86945000D02*
G01*
X-426858967Y-85420924D01*
X-426558182Y-85420924D01*
X-426200610Y-86490341D01*
X-426177552Y-86560386D01*
X-426153431Y-86634739D01*
X-426129882Y-86709468D01*
X-426128436Y-86714190D01*
X-426105132Y-86641495D01*
X-426079494Y-86564308D01*
X-426054913Y-86491688D01*
X-426048202Y-86472023D01*
X-425686601Y-85420924D01*
X-425417690Y-85420924D01*
X-425417690Y-86945000D01*
X-425610397Y-86945000D01*
X-425610397Y-85655397D01*
X-426049302Y-86945000D01*
X-426229553Y-86945000D01*
X-426666625Y-85655397D01*
X-426666625Y-86945000D01*
X-426858967Y-86945000D01*
G37*
G36*
X-424205024Y-86757421D02*
G01*
X-424205024Y-86945000D01*
X-425203733Y-86945000D01*
X-425197795Y-86869961D01*
X-425182117Y-86813841D01*
X-425150511Y-86742907D01*
X-425112386Y-86679022D01*
X-425065317Y-86615710D01*
X-425060118Y-86609410D01*
X-425006837Y-86550651D01*
X-424949598Y-86494918D01*
X-424891888Y-86443447D01*
X-424827061Y-86389451D01*
X-424817219Y-86381531D01*
X-424758165Y-86333406D01*
X-424691368Y-86277000D01*
X-424632371Y-86224763D01*
X-424571869Y-86167580D01*
X-424515479Y-86108453D01*
X-424484560Y-86071221D01*
X-424442587Y-86008762D01*
X-424412061Y-85941744D01*
X-424397816Y-85864627D01*
X-424397731Y-85858363D01*
X-424408808Y-85784140D01*
X-424445808Y-85714197D01*
X-424476500Y-85681043D01*
X-424542377Y-85636839D01*
X-424614712Y-85614241D01*
X-424682396Y-85608503D01*
X-424760786Y-85615193D01*
X-424835030Y-85638007D01*
X-424896720Y-85677013D01*
X-424945767Y-85735763D01*
X-424972557Y-85809247D01*
X-424978052Y-85866423D01*
X-425168562Y-85842976D01*
X-425157468Y-85769203D01*
X-425134888Y-85691829D01*
X-425101929Y-85623816D01*
X-425051554Y-85557549D01*
X-425021283Y-85529002D01*
X-424961154Y-85486889D01*
X-424892645Y-85455121D01*
X-424815756Y-85433695D01*
X-424743182Y-85423563D01*
X-424678000Y-85420924D01*
X-424599711Y-85425226D01*
X-424516416Y-85441119D01*
X-424441781Y-85468723D01*
X-424375806Y-85508038D01*
X-424333984Y-85543290D01*
X-424284591Y-85599469D01*
X-424242998Y-85670544D01*
X-424217249Y-85748946D01*
X-424207717Y-85823558D01*
X-424207222Y-85845907D01*
X-424213329Y-85920138D01*
X-424231650Y-85993403D01*
X-424244225Y-86026891D01*
X-424278881Y-86094725D01*
X-424322778Y-86159260D01*
X-424367323Y-86213736D01*
X-424424736Y-86274153D01*
X-424481812Y-86328317D01*
X-424539386Y-86379738D01*
X-424604945Y-86435770D01*
X-424653087Y-86475687D01*
X-424711537Y-86523579D01*
X-424769114Y-86571672D01*
X-424826346Y-86621192D01*
X-424867777Y-86659968D01*
X-424918087Y-86717654D01*
X-424945812Y-86757421D01*
X-424205024Y-86757421D01*
G37*
G36*
X-423180146Y-85422870D02*
G01*
X-423105713Y-85428708D01*
X-423031983Y-85440145D01*
X-422956821Y-85461591D01*
X-422889554Y-85496700D01*
X-422832331Y-85546614D01*
X-422789026Y-85604839D01*
X-422755796Y-85671064D01*
X-422734873Y-85741510D01*
X-422726257Y-85816178D01*
X-422726011Y-85831618D01*
X-422732514Y-85908692D01*
X-422752023Y-85979446D01*
X-422789517Y-86051491D01*
X-422830059Y-86101995D01*
X-422889158Y-86151935D01*
X-422962408Y-86191846D01*
X-423038110Y-86218541D01*
X-423111620Y-86235311D01*
X-423151360Y-86241580D01*
X-423085280Y-86278433D01*
X-423030826Y-86319616D01*
X-422976995Y-86375472D01*
X-422930077Y-86431983D01*
X-422884607Y-86494406D01*
X-422864863Y-86524047D01*
X-422602180Y-86945000D01*
X-422853872Y-86945000D01*
X-423053541Y-86623332D01*
X-423095398Y-86557821D01*
X-423137889Y-86493920D01*
X-423183211Y-86429909D01*
X-423197888Y-86410474D01*
X-423248550Y-86351398D01*
X-423299738Y-86309357D01*
X-423367607Y-86277965D01*
X-423390596Y-86271622D01*
X-423466021Y-86265440D01*
X-423501971Y-86265027D01*
X-423733879Y-86265027D01*
X-423733879Y-86945000D01*
X-423933548Y-86945000D01*
X-423933548Y-85608503D01*
X-423733879Y-85608503D01*
X-423733879Y-86077449D01*
X-423304134Y-86077449D01*
X-423224328Y-86074873D01*
X-423150013Y-86066089D01*
X-423089811Y-86051071D01*
X-423021759Y-86016449D01*
X-422972208Y-85966074D01*
X-422939622Y-85896883D01*
X-422931908Y-85838579D01*
X-422944787Y-85762883D01*
X-422983424Y-85698916D01*
X-423009944Y-85673349D01*
X-423074034Y-85636430D01*
X-423150856Y-85616165D01*
X-423225039Y-85609073D01*
X-423255774Y-85608503D01*
X-423733879Y-85608503D01*
X-423933548Y-85608503D01*
X-423933548Y-85420924D01*
X-423263834Y-85420924D01*
X-423180146Y-85422870D01*
G37*
G36*
X-491685310Y-545000D02*
G01*
X-491685310Y979075D01*
X-491384525Y979075D01*
X-491026953Y-90341D01*
X-491003895Y-160386D01*
X-490979774Y-234739D01*
X-490956225Y-309468D01*
X-490954779Y-314190D01*
X-490931475Y-241495D01*
X-490905837Y-164308D01*
X-490881256Y-91688D01*
X-490874545Y-72023D01*
X-490512944Y979075D01*
X-490244033Y979075D01*
X-490244033Y-545000D01*
X-490436740Y-545000D01*
X-490436740Y744602D01*
X-490875645Y-545000D01*
X-491055896Y-545000D01*
X-491492968Y744602D01*
X-491492968Y-545000D01*
X-491685310Y-545000D01*
G37*
G36*
X-489307605Y-545000D02*
G01*
X-489492986Y-545000D01*
X-489492986Y642752D01*
X-489549143Y594616D01*
X-489610939Y550400D01*
X-489668841Y514159D01*
X-489734665Y477200D01*
X-489802029Y443736D01*
X-489864113Y417805D01*
X-489864113Y598056D01*
X-489797868Y631746D01*
X-489726753Y673855D01*
X-489660538Y719811D01*
X-489599224Y769613D01*
X-489591904Y776109D01*
X-489537911Y828087D01*
X-489487351Y885577D01*
X-489443816Y948231D01*
X-489427040Y979075D01*
X-489307605Y979075D01*
X-489307605Y-545000D01*
G37*
G36*
X-488771248Y-545000D02*
G01*
X-488771248Y979075D01*
X-488571213Y979075D01*
X-488571213Y-357421D01*
X-487827494Y-357421D01*
X-487827494Y-545000D01*
X-488771248Y-545000D01*
G37*
D12*
X-462219925Y-246363561D02*
X-462067544Y-246896895D01*
X-462067544Y-246896895D02*
X-461915163Y-246515942D01*
X-461915163Y-246515942D02*
X-461762782Y-246896895D01*
X-461762782Y-246896895D02*
X-461610401Y-246363561D01*
X-461343735Y-246858800D02*
X-461267544Y-246896895D01*
X-461267544Y-246896895D02*
X-461115163Y-246896895D01*
X-461115163Y-246896895D02*
X-461038973Y-246858800D01*
X-461038973Y-246858800D02*
X-461000877Y-246782609D01*
X-461000877Y-246782609D02*
X-461000877Y-246744514D01*
X-461000877Y-246744514D02*
X-461038973Y-246668323D01*
X-461038973Y-246668323D02*
X-461115163Y-246630228D01*
X-461115163Y-246630228D02*
X-461229449Y-246630228D01*
X-461229449Y-246630228D02*
X-461305639Y-246592133D01*
X-461305639Y-246592133D02*
X-461343735Y-246515942D01*
X-461343735Y-246515942D02*
X-461343735Y-246477847D01*
X-461343735Y-246477847D02*
X-461305639Y-246401657D01*
X-461305639Y-246401657D02*
X-461229449Y-246363561D01*
X-461229449Y-246363561D02*
X-461115163Y-246363561D01*
X-461115163Y-246363561D02*
X-461038973Y-246401657D01*
D10*
G36*
X-480295429Y1758150D02*
G01*
X-479685066Y1758150D01*
X-479685066Y103649D01*
X-479683979Y-55242D01*
X-479680075Y-204375D01*
X-479670071Y-352903D01*
X-479662351Y-406329D01*
X-479612901Y-546523D01*
X-479519615Y-670182D01*
X-479476238Y-707480D01*
X-479338323Y-781014D01*
X-479194046Y-813955D01*
X-479073237Y-821053D01*
X-478923185Y-810606D01*
X-478776182Y-770489D01*
X-478681228Y-714075D01*
X-478580764Y-602470D01*
X-478524710Y-460000D01*
X-478522958Y-450293D01*
X-478506438Y-304182D01*
X-478499051Y-156461D01*
X-478496086Y2288D01*
X-478495847Y68478D01*
X-478495847Y1758150D01*
X-477886217Y1758150D01*
X-477886217Y160069D01*
X-477887434Y-3352D01*
X-477891083Y-151067D01*
X-477898674Y-307594D01*
X-477911957Y-461622D01*
X-477936043Y-614424D01*
X-477979751Y-761771D01*
X-478050144Y-903554D01*
X-478118492Y-996908D01*
X-478230634Y-1104550D01*
X-478355698Y-1187654D01*
X-478473865Y-1244570D01*
X-478626007Y-1293257D01*
X-478785815Y-1321657D01*
X-478946065Y-1334640D01*
X-479054919Y-1336894D01*
X-479209720Y-1333365D01*
X-479371827Y-1320327D01*
X-479532707Y-1293662D01*
X-479682604Y-1248666D01*
X-479711444Y-1236510D01*
X-479841961Y-1167516D01*
X-479964373Y-1078235D01*
X-480064619Y-974926D01*
X-480149421Y-851862D01*
X-480213150Y-713659D01*
X-480235345Y-637138D01*
X-480261632Y-490776D01*
X-480278471Y-337163D01*
X-480288329Y-186519D01*
X-480293962Y-18358D01*
X-480295429Y135157D01*
X-480295429Y1758150D01*
G37*
G36*
X-475274040Y-1290000D02*
G01*
X-475852895Y-1290000D01*
X-475852895Y-152072D01*
X-475855231Y12608D01*
X-475863442Y159774D01*
X-475887966Y308518D01*
X-475890265Y315408D01*
X-475967155Y443531D01*
X-476010432Y480272D01*
X-476147920Y534253D01*
X-476211200Y538890D01*
X-476362683Y515108D01*
X-476481577Y454626D01*
X-476587383Y350158D01*
X-476645708Y231877D01*
X-476674173Y80539D01*
X-476685378Y-69712D01*
X-476689500Y-234507D01*
X-476689671Y-280300D01*
X-476689671Y-1290000D01*
X-477268527Y-1290000D01*
X-477268527Y914047D01*
X-476730704Y914047D01*
X-476730704Y592379D01*
X-476618064Y717633D01*
X-476495018Y816972D01*
X-476361564Y890396D01*
X-476217703Y937906D01*
X-476063435Y959502D01*
X-476009699Y960942D01*
X-475859283Y949453D01*
X-475709737Y911386D01*
X-475659455Y891332D01*
X-475527457Y817702D01*
X-475419120Y714012D01*
X-475343386Y583563D01*
X-475306280Y469281D01*
X-475283139Y315429D01*
X-475274827Y154790D01*
X-475274040Y78004D01*
X-475274040Y-1290000D01*
G37*
G36*
X-474700313Y1242309D02*
G01*
X-474700313Y1758150D01*
X-474120725Y1758150D01*
X-474120725Y1242309D01*
X-474700313Y1242309D01*
G37*
G36*
X-474700313Y-1290000D02*
G01*
X-474700313Y914047D01*
X-474120725Y914047D01*
X-474120725Y-1290000D01*
X-474700313Y-1290000D01*
G37*
G36*
X-472931507Y-1290000D02*
G01*
X-473813712Y914047D01*
X-473205547Y914047D01*
X-472793754Y-210690D01*
X-472674319Y-586580D01*
X-472628524Y-445759D01*
X-472614235Y-397536D01*
X-472568898Y-257539D01*
X-472552686Y-210690D01*
X-472136496Y914047D01*
X-471540788Y914047D01*
X-472410537Y-1290000D01*
X-472931507Y-1290000D01*
G37*
G36*
X-470215088Y953053D02*
G01*
X-470051392Y922759D01*
X-469902173Y869745D01*
X-469767431Y794010D01*
X-469647166Y695556D01*
X-469592463Y637808D01*
X-469496782Y504552D01*
X-469421863Y347133D01*
X-469375291Y197492D01*
X-469343138Y31072D01*
X-469325403Y-152127D01*
X-469321596Y-310769D01*
X-469322086Y-352107D01*
X-470772888Y-352107D01*
X-470756703Y-507211D01*
X-470709972Y-651047D01*
X-470632937Y-766831D01*
X-470513106Y-862663D01*
X-470371508Y-909639D01*
X-470298813Y-914842D01*
X-470153082Y-891336D01*
X-470070935Y-848164D01*
X-469972360Y-733046D01*
X-469930251Y-633475D01*
X-469352861Y-727264D01*
X-469416608Y-867490D01*
X-469507592Y-1004005D01*
X-469618978Y-1118032D01*
X-469704570Y-1181556D01*
X-469848910Y-1256646D01*
X-469993269Y-1302762D01*
X-470152740Y-1329461D01*
X-470304675Y-1336894D01*
X-470476015Y-1327753D01*
X-470632829Y-1300329D01*
X-470775117Y-1254623D01*
X-470926688Y-1175643D01*
X-471057343Y-1070336D01*
X-471150244Y-962470D01*
X-471234468Y-823533D01*
X-471298006Y-669590D01*
X-471336002Y-525695D01*
X-471358799Y-370774D01*
X-471366399Y-204829D01*
X-471359458Y-39807D01*
X-471350927Y23049D01*
X-470762630Y23049D01*
X-469897278Y23049D01*
X-469912462Y169165D01*
X-469961097Y313147D01*
X-470026971Y406999D01*
X-470145561Y497159D01*
X-470295345Y537731D01*
X-470328122Y538890D01*
X-470481054Y512383D01*
X-470609021Y432862D01*
X-470640997Y400404D01*
X-470720810Y270964D01*
X-470757561Y122500D01*
X-470762630Y23049D01*
X-471350927Y23049D01*
X-471338635Y113621D01*
X-471295324Y282435D01*
X-471232023Y434556D01*
X-471148732Y569985D01*
X-471082100Y650997D01*
X-470970181Y756330D01*
X-470847650Y839870D01*
X-470714505Y901616D01*
X-470570747Y941570D01*
X-470416376Y959731D01*
X-470362561Y960942D01*
X-470215088Y953053D01*
G37*
G36*
X-468307257Y-1290000D02*
G01*
X-468886112Y-1290000D01*
X-468886112Y914047D01*
X-468348290Y914047D01*
X-468348290Y602637D01*
X-468264913Y725670D01*
X-468164654Y841324D01*
X-468100627Y892065D01*
X-467958649Y949574D01*
X-467849302Y960942D01*
X-467702985Y944249D01*
X-467560790Y894172D01*
X-467468283Y842240D01*
X-467647801Y302951D01*
X-467780519Y371323D01*
X-467919644Y398206D01*
X-468063509Y369806D01*
X-468126273Y332260D01*
X-468217578Y208326D01*
X-468258897Y94124D01*
X-468286430Y-68343D01*
X-468298001Y-218164D01*
X-468304234Y-375325D01*
X-468306832Y-526561D01*
X-468307257Y-626147D01*
X-468307257Y-1290000D01*
G37*
G36*
X-467433112Y-680369D02*
G01*
X-466852058Y-586580D01*
X-466795821Y-728363D01*
X-466701849Y-831311D01*
X-466565561Y-893960D01*
X-466409044Y-914516D01*
X-466383845Y-914842D01*
X-466231242Y-903199D01*
X-466084249Y-855897D01*
X-466046057Y-832044D01*
X-465971044Y-701172D01*
X-465969853Y-677438D01*
X-466010886Y-568262D01*
X-466152242Y-505453D01*
X-466205059Y-492058D01*
X-466372167Y-453819D01*
X-466523246Y-416404D01*
X-466689555Y-370794D01*
X-466830820Y-326473D01*
X-466986517Y-266587D01*
X-467093126Y-209225D01*
X-467206607Y-111497D01*
X-467295518Y19247D01*
X-467343393Y172016D01*
X-467352512Y286099D01*
X-467334776Y439596D01*
X-467281569Y578603D01*
X-467192890Y703121D01*
X-467128297Y766036D01*
X-467000390Y851307D01*
X-466863151Y905934D01*
X-466702281Y941908D01*
X-466545583Y957896D01*
X-466431472Y960942D01*
X-466271150Y955532D01*
X-466104620Y935547D01*
X-465960179Y900835D01*
X-465822151Y843133D01*
X-465763956Y807069D01*
X-465651559Y708807D01*
X-465560839Y587130D01*
X-465491795Y442037D01*
X-465462805Y351311D01*
X-466009420Y257522D01*
X-466073401Y396890D01*
X-466142777Y466350D01*
X-466278841Y525005D01*
X-466421214Y538890D01*
X-466574434Y529925D01*
X-466721987Y490083D01*
X-466748743Y475143D01*
X-466814689Y357173D01*
X-466756803Y252393D01*
X-466614711Y192627D01*
X-466467524Y150289D01*
X-466299366Y108360D01*
X-466216050Y88995D01*
X-466052457Y48002D01*
X-465908441Y3609D01*
X-465765167Y-52480D01*
X-465634054Y-122249D01*
X-465569783Y-168925D01*
X-465466742Y-289762D01*
X-465406473Y-439691D01*
X-465388799Y-601235D01*
X-465408679Y-764025D01*
X-465468320Y-913600D01*
X-465554714Y-1035462D01*
X-465640125Y-1120006D01*
X-465761616Y-1204516D01*
X-465906177Y-1268270D01*
X-466048449Y-1306394D01*
X-466207672Y-1329269D01*
X-466383845Y-1336894D01*
X-466545162Y-1330686D01*
X-466693342Y-1312061D01*
X-466849614Y-1274640D01*
X-466988005Y-1220319D01*
X-467092393Y-1160307D01*
X-467211232Y-1064090D01*
X-467307632Y-952028D01*
X-467381592Y-824122D01*
X-467433112Y-680369D01*
G37*
G36*
X-464893475Y1242309D02*
G01*
X-464893475Y1758150D01*
X-464313886Y1758150D01*
X-464313886Y1242309D01*
X-464893475Y1242309D01*
G37*
G36*
X-464893475Y-1290000D02*
G01*
X-464893475Y914047D01*
X-464313886Y914047D01*
X-464313886Y-1290000D01*
X-464893475Y-1290000D01*
G37*
G36*
X-462723133Y914047D02*
G01*
X-462723133Y491995D01*
X-463118806Y491995D01*
X-463118806Y-464947D01*
X-463117733Y-623071D01*
X-463112098Y-771437D01*
X-463107815Y-804200D01*
X-463055791Y-884068D01*
X-462958339Y-914842D01*
X-462813573Y-888522D01*
X-462725331Y-859155D01*
X-462675505Y-1260690D01*
X-462820775Y-1304076D01*
X-462978512Y-1329452D01*
X-463132728Y-1336894D01*
X-463281838Y-1323339D01*
X-463415561Y-1282672D01*
X-463546422Y-1202587D01*
X-463600209Y-1142721D01*
X-463661683Y-1004010D01*
X-463681542Y-910446D01*
X-463695280Y-753459D01*
X-463699216Y-601575D01*
X-463699860Y-490593D01*
X-463699860Y491995D01*
X-463965840Y491995D01*
X-463965840Y914047D01*
X-463699860Y914047D01*
X-463699860Y1336099D01*
X-463118806Y1664361D01*
X-463118806Y914047D01*
X-462723133Y914047D01*
G37*
G36*
X-462602965Y914047D02*
G01*
X-461986741Y914047D01*
X-461462840Y-646664D01*
X-460952128Y914047D01*
X-460352023Y914047D01*
X-461125052Y-1210132D01*
X-461262805Y-1616064D01*
X-461323632Y-1751104D01*
X-461399891Y-1884268D01*
X-461408618Y-1896699D01*
X-461507854Y-2007866D01*
X-461566887Y-2053503D01*
X-461702202Y-2121002D01*
X-461787438Y-2147292D01*
X-461936307Y-2173591D01*
X-462083461Y-2180997D01*
X-462238632Y-2173913D01*
X-462390906Y-2152661D01*
X-462410990Y-2148757D01*
X-462462281Y-1728904D01*
X-462317536Y-1753196D01*
X-462216817Y-1758946D01*
X-462070391Y-1737058D01*
X-461944414Y-1657406D01*
X-461918597Y-1626322D01*
X-461842161Y-1497033D01*
X-461787008Y-1352113D01*
X-461769853Y-1290000D01*
X-462602965Y914047D01*
G37*
G36*
X-457682038Y953035D02*
G01*
X-457512572Y922672D01*
X-457355728Y869538D01*
X-457211506Y793632D01*
X-457079907Y694954D01*
X-457018841Y637076D01*
X-456911018Y509598D01*
X-456825504Y370065D01*
X-456762297Y218476D01*
X-456721399Y54831D01*
X-456704358Y-90748D01*
X-456701570Y-182114D01*
X-456709405Y-333669D01*
X-456739493Y-504577D01*
X-456792146Y-663534D01*
X-456867365Y-810537D01*
X-456965150Y-945588D01*
X-457022505Y-1008632D01*
X-457148402Y-1120190D01*
X-457285943Y-1208667D01*
X-457435128Y-1274063D01*
X-457595956Y-1316378D01*
X-457768428Y-1335612D01*
X-457828506Y-1336894D01*
X-457977342Y-1328376D01*
X-458122697Y-1302822D01*
X-458264571Y-1260232D01*
X-458402965Y-1200607D01*
X-458531101Y-1124174D01*
X-458655767Y-1019247D01*
X-458759798Y-894266D01*
X-458817690Y-799804D01*
X-458879880Y-660723D01*
X-458924302Y-507262D01*
X-458948595Y-361188D01*
X-458959284Y-204104D01*
X-458959475Y-187976D01*
X-458366329Y-187976D01*
X-458356666Y-353893D01*
X-458327677Y-499202D01*
X-458271965Y-638042D01*
X-458211723Y-727997D01*
X-458096947Y-834375D01*
X-457952382Y-900063D01*
X-457830704Y-914842D01*
X-457683703Y-892764D01*
X-457543088Y-818318D01*
X-457451151Y-727997D01*
X-457370007Y-594231D01*
X-457322673Y-445576D01*
X-457301035Y-290959D01*
X-457297278Y-183579D01*
X-457306895Y-19631D01*
X-457335746Y124166D01*
X-457391195Y261853D01*
X-457451151Y351311D01*
X-457565093Y458107D01*
X-457709143Y524052D01*
X-457830704Y538890D01*
X-457977878Y516725D01*
X-458119077Y441987D01*
X-458211723Y351311D01*
X-458293253Y218361D01*
X-458340813Y71053D01*
X-458362554Y-81880D01*
X-458366329Y-187976D01*
X-458959475Y-187976D01*
X-458959839Y-157201D01*
X-458948595Y4506D01*
X-458914862Y163201D01*
X-458865998Y301732D01*
X-458817690Y404068D01*
X-458739196Y531608D01*
X-458633155Y655933D01*
X-458508335Y759971D01*
X-458414689Y818060D01*
X-458280508Y880570D01*
X-458138817Y925221D01*
X-457989615Y952011D01*
X-457832902Y960942D01*
X-457682038Y953035D01*
G37*
G36*
X-456514724Y914047D02*
G01*
X-456193789Y914047D01*
X-456193789Y1080376D01*
X-456188064Y1240589D01*
X-456166082Y1396386D01*
X-456135170Y1495833D01*
X-456051823Y1620031D01*
X-455928765Y1713175D01*
X-455919015Y1718583D01*
X-455776757Y1774564D01*
X-455621184Y1800908D01*
X-455519678Y1805045D01*
X-455366278Y1798176D01*
X-455214737Y1777568D01*
X-455065058Y1743221D01*
X-455035345Y1734703D01*
X-455113747Y1350020D01*
X-455265705Y1376682D01*
X-455379727Y1382993D01*
X-455523502Y1350440D01*
X-455559979Y1319979D01*
X-455608905Y1179275D01*
X-455614200Y1078911D01*
X-455614200Y914047D01*
X-455181891Y914047D01*
X-455181891Y491995D01*
X-455614200Y491995D01*
X-455614200Y-1290000D01*
X-456193789Y-1290000D01*
X-456193789Y491995D01*
X-456514724Y491995D01*
X-456514724Y914047D01*
G37*
G36*
X-453701046Y-1290000D02*
G01*
X-453701046Y1758150D01*
X-452788066Y1758150D01*
X-452239985Y-321332D01*
X-451697766Y1758150D01*
X-450783321Y1758150D01*
X-450783321Y-1290000D01*
X-451349720Y-1290000D01*
X-451349720Y1109685D01*
X-451949825Y-1290000D01*
X-452536741Y-1290000D01*
X-453134647Y1109685D01*
X-453134647Y-1290000D01*
X-453701046Y-1290000D01*
G37*
G36*
X-449218019Y953053D02*
G01*
X-449054323Y922759D01*
X-448905104Y869745D01*
X-448770362Y794010D01*
X-448650097Y695556D01*
X-448595394Y637808D01*
X-448499713Y504552D01*
X-448424794Y347133D01*
X-448378222Y197492D01*
X-448346069Y31072D01*
X-448328333Y-152127D01*
X-448324527Y-310769D01*
X-448325017Y-352107D01*
X-449775819Y-352107D01*
X-449759634Y-507211D01*
X-449712903Y-651047D01*
X-449635868Y-766831D01*
X-449516037Y-862663D01*
X-449374439Y-909639D01*
X-449301744Y-914842D01*
X-449156013Y-891336D01*
X-449073865Y-848164D01*
X-448975291Y-733046D01*
X-448933182Y-633475D01*
X-448355791Y-727264D01*
X-448419539Y-867490D01*
X-448510523Y-1004005D01*
X-448621909Y-1118032D01*
X-448707501Y-1181556D01*
X-448851841Y-1256646D01*
X-448996200Y-1302762D01*
X-449155671Y-1329461D01*
X-449307606Y-1336894D01*
X-449478946Y-1327753D01*
X-449635759Y-1300329D01*
X-449778048Y-1254623D01*
X-449929619Y-1175643D01*
X-450060274Y-1070336D01*
X-450153175Y-962470D01*
X-450237399Y-823533D01*
X-450300937Y-669590D01*
X-450338933Y-525695D01*
X-450361730Y-370774D01*
X-450369330Y-204829D01*
X-450362389Y-39807D01*
X-450353858Y23049D01*
X-449765561Y23049D01*
X-448900209Y23049D01*
X-448915393Y169165D01*
X-448964028Y313147D01*
X-449029902Y406999D01*
X-449148492Y497159D01*
X-449298276Y537731D01*
X-449331053Y538890D01*
X-449483984Y512383D01*
X-449611952Y432862D01*
X-449643928Y400404D01*
X-449723741Y270964D01*
X-449760492Y122500D01*
X-449765561Y23049D01*
X-450353858Y23049D01*
X-450341566Y113621D01*
X-450298255Y282435D01*
X-450234954Y434556D01*
X-450151663Y569985D01*
X-450085031Y650997D01*
X-449973112Y756330D01*
X-449850581Y839870D01*
X-449717436Y901616D01*
X-449573678Y941570D01*
X-449419307Y959731D01*
X-449365491Y960942D01*
X-449218019Y953053D01*
G37*
G36*
X-447908094Y914047D02*
G01*
X-447373935Y914047D01*
X-447373935Y615094D01*
X-447262661Y732628D01*
X-447143710Y825845D01*
X-446995231Y903863D01*
X-446836304Y948783D01*
X-446691765Y960942D01*
X-446541876Y949298D01*
X-446397171Y910405D01*
X-446326866Y878143D01*
X-446202245Y790067D01*
X-446105614Y679147D01*
X-446073342Y629016D01*
X-445961887Y742359D01*
X-445844044Y831798D01*
X-445761932Y878143D01*
X-445622567Y931752D01*
X-445475945Y958031D01*
X-445405826Y960942D01*
X-445248837Y949253D01*
X-445097523Y909840D01*
X-444997697Y862023D01*
X-444875986Y767010D01*
X-444782332Y641523D01*
X-444748569Y573328D01*
X-444709667Y430241D01*
X-444693238Y281005D01*
X-444688485Y117571D01*
X-444688485Y-1290000D01*
X-445268073Y-1290000D01*
X-445268073Y-15785D01*
X-445271829Y135477D01*
X-445287084Y283211D01*
X-445328157Y412861D01*
X-445437625Y511198D01*
X-445575087Y538890D01*
X-445721690Y509409D01*
X-445804431Y463419D01*
X-445906002Y356026D01*
X-445959036Y241402D01*
X-445989399Y94995D01*
X-446002222Y-55643D01*
X-446005931Y-219483D01*
X-446005931Y-1290000D01*
X-446584787Y-1290000D01*
X-446584787Y-67808D01*
X-446586710Y80431D01*
X-446595636Y237152D01*
X-446615561Y352044D01*
X-446692010Y477122D01*
X-446711549Y492728D01*
X-446853744Y537763D01*
X-446887403Y538890D01*
X-447037077Y512800D01*
X-447128471Y464884D01*
X-447234326Y354883D01*
X-447282344Y253126D01*
X-447313900Y97029D01*
X-447325621Y-57230D01*
X-447328506Y-206294D01*
X-447328506Y-1290000D01*
X-447908094Y-1290000D01*
X-447908094Y914047D01*
G37*
G36*
X-442763617Y946566D02*
G01*
X-442613435Y903440D01*
X-442474263Y831562D01*
X-442346101Y730934D01*
X-442277808Y660523D01*
X-442187416Y539820D01*
X-442115726Y402476D01*
X-442062738Y248492D01*
X-442028452Y77866D01*
X-442014165Y-77033D01*
X-442011828Y-175519D01*
X-442018375Y-341718D01*
X-442038017Y-495931D01*
X-442078872Y-665165D01*
X-442138584Y-817141D01*
X-442217152Y-951857D01*
X-442280006Y-1032079D01*
X-442384317Y-1135669D01*
X-442516171Y-1229435D01*
X-442658964Y-1294030D01*
X-442812697Y-1329452D01*
X-442929204Y-1336894D01*
X-443081254Y-1323150D01*
X-443230157Y-1277919D01*
X-443258199Y-1265087D01*
X-443390013Y-1181979D01*
X-443507685Y-1079489D01*
X-443568143Y-1017424D01*
X-443568143Y-2134103D01*
X-444146999Y-2134103D01*
X-444146999Y-149874D01*
X-443574005Y-149874D01*
X-443567028Y-311275D01*
X-443541966Y-471777D01*
X-443491985Y-621797D01*
X-443428192Y-727997D01*
X-443319909Y-834375D01*
X-443184601Y-900063D01*
X-443071353Y-914842D01*
X-442918406Y-886545D01*
X-442788194Y-801653D01*
X-442735764Y-743384D01*
X-442665052Y-614756D01*
X-442623804Y-462282D01*
X-442604948Y-297556D01*
X-442601674Y-180648D01*
X-442608301Y-29731D01*
X-442632103Y120592D01*
X-442679572Y261461D01*
X-442740160Y361570D01*
X-442852748Y469624D01*
X-442995649Y530405D01*
X-443081611Y538890D01*
X-443230779Y514469D01*
X-443359545Y441208D01*
X-443434054Y365233D01*
X-443513733Y226017D01*
X-443554324Y82618D01*
X-443571818Y-67133D01*
X-443574005Y-149874D01*
X-444146999Y-149874D01*
X-444146999Y914047D01*
X-443606978Y914047D01*
X-443606978Y592379D01*
X-443509509Y715931D01*
X-443397642Y811518D01*
X-443322679Y859092D01*
X-443182579Y921157D01*
X-443031557Y954576D01*
X-442924808Y960942D01*
X-442763617Y946566D01*
G37*
G36*
X-440988939Y1758150D02*
G01*
X-440988939Y648799D01*
X-440880111Y754879D01*
X-440743379Y850899D01*
X-440596128Y917047D01*
X-440438358Y953321D01*
X-440319225Y960942D01*
X-440163227Y948607D01*
X-440020289Y911603D01*
X-439958722Y886203D01*
X-439825672Y807120D01*
X-439722083Y702889D01*
X-439716922Y695694D01*
X-439644981Y565449D01*
X-439605547Y438506D01*
X-439585011Y285535D01*
X-439576943Y123429D01*
X-439575505Y1067D01*
X-439575505Y-1290000D01*
X-440154361Y-1290000D01*
X-440154361Y-111772D01*
X-440156422Y47366D01*
X-440164794Y201340D01*
X-440187334Y332993D01*
X-440269712Y456981D01*
X-440303838Y483203D01*
X-440445490Y534485D01*
X-440512665Y538890D01*
X-440665319Y516170D01*
X-440770586Y467083D01*
X-440879112Y364171D01*
X-440936915Y252393D01*
X-440972478Y100363D01*
X-440986449Y-56082D01*
X-440988939Y-172588D01*
X-440988939Y-1290000D01*
X-441567794Y-1290000D01*
X-441567794Y1758150D01*
X-440988939Y1758150D01*
G37*
G36*
X-439001779Y1242309D02*
G01*
X-439001779Y1758150D01*
X-438422191Y1758150D01*
X-438422191Y1242309D01*
X-439001779Y1242309D01*
G37*
G36*
X-439001779Y-1290000D02*
G01*
X-439001779Y914047D01*
X-438422191Y914047D01*
X-438422191Y-1290000D01*
X-439001779Y-1290000D01*
G37*
G36*
X-438038974Y-680369D02*
G01*
X-437457920Y-586580D01*
X-437401683Y-728363D01*
X-437307711Y-831311D01*
X-437171423Y-893960D01*
X-437014905Y-914516D01*
X-436989706Y-914842D01*
X-436837104Y-903199D01*
X-436690111Y-855897D01*
X-436651918Y-832044D01*
X-436576905Y-701172D01*
X-436575715Y-677438D01*
X-436616748Y-568262D01*
X-436758104Y-505453D01*
X-436810921Y-492058D01*
X-436978028Y-453819D01*
X-437129108Y-416404D01*
X-437295417Y-370794D01*
X-437436682Y-326473D01*
X-437592378Y-266587D01*
X-437698988Y-209225D01*
X-437812469Y-111497D01*
X-437901380Y19247D01*
X-437949254Y172016D01*
X-437958373Y286099D01*
X-437940638Y439596D01*
X-437887430Y578603D01*
X-437798752Y703121D01*
X-437734159Y766036D01*
X-437606252Y851307D01*
X-437469013Y905934D01*
X-437308143Y941908D01*
X-437151445Y957896D01*
X-437037334Y960942D01*
X-436877012Y955532D01*
X-436710482Y935547D01*
X-436566040Y900835D01*
X-436428013Y843133D01*
X-436369818Y807069D01*
X-436257421Y708807D01*
X-436166701Y587130D01*
X-436097657Y442037D01*
X-436068667Y351311D01*
X-436615282Y257522D01*
X-436679263Y396890D01*
X-436748639Y466350D01*
X-436884703Y525005D01*
X-437027076Y538890D01*
X-437180296Y529925D01*
X-437327849Y490083D01*
X-437354605Y475143D01*
X-437420551Y357173D01*
X-437362665Y252393D01*
X-437220573Y192627D01*
X-437073386Y150289D01*
X-436905228Y108360D01*
X-436821912Y88995D01*
X-436658318Y48002D01*
X-436514303Y3609D01*
X-436371029Y-52480D01*
X-436239916Y-122249D01*
X-436175645Y-168925D01*
X-436072604Y-289762D01*
X-436012335Y-439691D01*
X-435994661Y-601235D01*
X-436014541Y-764025D01*
X-436074182Y-913600D01*
X-436160575Y-1035462D01*
X-436245987Y-1120006D01*
X-436367477Y-1204516D01*
X-436512039Y-1268270D01*
X-436654311Y-1306394D01*
X-436813534Y-1329269D01*
X-436989706Y-1336894D01*
X-437151024Y-1330686D01*
X-437299204Y-1312061D01*
X-437455476Y-1274640D01*
X-437593867Y-1220319D01*
X-437698255Y-1160307D01*
X-437817094Y-1064090D01*
X-437913494Y-952028D01*
X-437987454Y-824122D01*
X-438038974Y-680369D01*
G37*
D12*
X-460600877Y-252896895D02*
X-460600877Y-252096895D01*
X-460600877Y-252858800D02*
X-460677068Y-252896895D01*
X-460677068Y-252896895D02*
X-460829449Y-252896895D01*
X-460829449Y-252896895D02*
X-460905639Y-252858800D01*
X-460905639Y-252858800D02*
X-460943734Y-252820704D01*
X-460943734Y-252820704D02*
X-460981830Y-252744514D01*
X-460981830Y-252744514D02*
X-460981830Y-252515942D01*
X-460981830Y-252515942D02*
X-460943734Y-252439752D01*
X-460943734Y-252439752D02*
X-460905639Y-252401657D01*
X-460905639Y-252401657D02*
X-460829449Y-252363561D01*
X-460829449Y-252363561D02*
X-460677068Y-252363561D01*
X-460677068Y-252363561D02*
X-460600877Y-252401657D01*
X-460296115Y-252096895D02*
X-459800877Y-252096895D01*
X-459800877Y-252096895D02*
X-460067543Y-252401657D01*
X-460067543Y-252401657D02*
X-459953258Y-252401657D01*
X-459953258Y-252401657D02*
X-459877067Y-252439752D01*
X-459877067Y-252439752D02*
X-459838972Y-252477847D01*
X-459838972Y-252477847D02*
X-459800877Y-252554038D01*
X-459800877Y-252554038D02*
X-459800877Y-252744514D01*
X-459800877Y-252744514D02*
X-459838972Y-252820704D01*
X-459838972Y-252820704D02*
X-459877067Y-252858800D01*
X-459877067Y-252858800D02*
X-459953258Y-252896895D01*
X-459953258Y-252896895D02*
X-460181829Y-252896895D01*
X-460181829Y-252896895D02*
X-460258020Y-252858800D01*
X-460258020Y-252858800D02*
X-460296115Y-252820704D01*
X-458543734Y-252363561D02*
X-458543734Y-253163561D01*
X-458543734Y-252401657D02*
X-458467544Y-252363561D01*
X-458467544Y-252363561D02*
X-458315163Y-252363561D01*
X-458315163Y-252363561D02*
X-458238972Y-252401657D01*
X-458238972Y-252401657D02*
X-458200877Y-252439752D01*
X-458200877Y-252439752D02*
X-458162782Y-252515942D01*
X-458162782Y-252515942D02*
X-458162782Y-252744514D01*
X-458162782Y-252744514D02*
X-458200877Y-252820704D01*
X-458200877Y-252820704D02*
X-458238972Y-252858800D01*
X-458238972Y-252858800D02*
X-458315163Y-252896895D01*
X-458315163Y-252896895D02*
X-458467544Y-252896895D01*
X-458467544Y-252896895D02*
X-458543734Y-252858800D01*
X-457896115Y-252363561D02*
X-457743734Y-252896895D01*
X-457743734Y-252896895D02*
X-457591353Y-252515942D01*
X-457591353Y-252515942D02*
X-457438972Y-252896895D01*
X-457438972Y-252896895D02*
X-457286591Y-252363561D01*
X-456981829Y-252896895D02*
X-456981829Y-252363561D01*
X-456981829Y-252515942D02*
X-456943734Y-252439752D01*
X-456943734Y-252439752D02*
X-456905639Y-252401657D01*
X-456905639Y-252401657D02*
X-456829448Y-252363561D01*
X-456829448Y-252363561D02*
X-456753258Y-252363561D01*
D11*
G36*
X-427858967Y-259145000D02*
G01*
X-427858967Y-257620924D01*
X-427558182Y-257620924D01*
X-427200610Y-258690341D01*
X-427177552Y-258760386D01*
X-427153431Y-258834739D01*
X-427129882Y-258909468D01*
X-427128436Y-258914190D01*
X-427105132Y-258841495D01*
X-427079494Y-258764308D01*
X-427054913Y-258691688D01*
X-427048202Y-258672023D01*
X-426686601Y-257620924D01*
X-426417690Y-257620924D01*
X-426417690Y-259145000D01*
X-426610397Y-259145000D01*
X-426610397Y-257855397D01*
X-427049302Y-259145000D01*
X-427229553Y-259145000D01*
X-427666625Y-257855397D01*
X-427666625Y-259145000D01*
X-427858967Y-259145000D01*
G37*
G36*
X-425399930Y-258605711D02*
G01*
X-425195865Y-258605711D01*
X-425195865Y-258793290D01*
X-425399930Y-258793290D01*
X-425399930Y-259145000D01*
X-425585310Y-259145000D01*
X-425585310Y-258793290D01*
X-426240736Y-258793290D01*
X-426240736Y-258605711D01*
X-426058286Y-258605711D01*
X-425585310Y-258605711D01*
X-425585310Y-257946256D01*
X-426058286Y-258605711D01*
X-426240736Y-258605711D01*
X-425551238Y-257644371D01*
X-425399930Y-257644371D01*
X-425399930Y-258605711D01*
G37*
G36*
X-424180146Y-257622870D02*
G01*
X-424105713Y-257628708D01*
X-424031983Y-257640145D01*
X-423956821Y-257661591D01*
X-423889554Y-257696700D01*
X-423832331Y-257746614D01*
X-423789026Y-257804839D01*
X-423755796Y-257871064D01*
X-423734873Y-257941510D01*
X-423726257Y-258016178D01*
X-423726011Y-258031618D01*
X-423732514Y-258108692D01*
X-423752023Y-258179446D01*
X-423789517Y-258251491D01*
X-423830059Y-258301995D01*
X-423889158Y-258351935D01*
X-423962408Y-258391846D01*
X-424038110Y-258418541D01*
X-424111620Y-258435311D01*
X-424151360Y-258441580D01*
X-424085280Y-258478433D01*
X-424030826Y-258519616D01*
X-423976995Y-258575472D01*
X-423930077Y-258631983D01*
X-423884607Y-258694406D01*
X-423864863Y-258724047D01*
X-423602180Y-259145000D01*
X-423853872Y-259145000D01*
X-424053541Y-258823332D01*
X-424095398Y-258757821D01*
X-424137889Y-258693920D01*
X-424183211Y-258629909D01*
X-424197888Y-258610474D01*
X-424248550Y-258551398D01*
X-424299738Y-258509357D01*
X-424367607Y-258477965D01*
X-424390596Y-258471622D01*
X-424466021Y-258465440D01*
X-424501971Y-258465027D01*
X-424733879Y-258465027D01*
X-424733879Y-259145000D01*
X-424933548Y-259145000D01*
X-424933548Y-257808503D01*
X-424733879Y-257808503D01*
X-424733879Y-258277449D01*
X-424304134Y-258277449D01*
X-424224328Y-258274873D01*
X-424150013Y-258266089D01*
X-424089811Y-258251071D01*
X-424021759Y-258216449D01*
X-423972208Y-258166074D01*
X-423939622Y-258096883D01*
X-423931908Y-258038579D01*
X-423944787Y-257962883D01*
X-423983424Y-257898916D01*
X-424009944Y-257873349D01*
X-424074034Y-257836430D01*
X-424150856Y-257816165D01*
X-424225039Y-257809073D01*
X-424255774Y-257808503D01*
X-424733879Y-257808503D01*
X-424933548Y-257808503D01*
X-424933548Y-257620924D01*
X-424263834Y-257620924D01*
X-424180146Y-257622870D01*
G37*
G36*
X-462042637Y-89860000D02*
G01*
X-462823237Y-87827899D01*
X-462534542Y-87827899D01*
X-462011374Y-89294822D01*
X-461977315Y-89392276D01*
X-461946579Y-89486253D01*
X-461916326Y-89586593D01*
X-461905373Y-89625526D01*
X-461874632Y-89522286D01*
X-461844519Y-89429288D01*
X-461812087Y-89336213D01*
X-461796929Y-89294822D01*
X-461252756Y-87827899D01*
X-460980669Y-87827899D01*
X-461769085Y-89860000D01*
X-462042637Y-89860000D01*
G37*
G36*
X-460233340Y-88366533D02*
G01*
X-460134948Y-88388017D01*
X-460029708Y-88431183D01*
X-459934753Y-88493844D01*
X-459861549Y-88563070D01*
X-459798465Y-88645279D01*
X-459748434Y-88739131D01*
X-459711454Y-88844627D01*
X-459690607Y-88941434D01*
X-459678824Y-89046327D01*
X-459675924Y-89136064D01*
X-459676901Y-89203475D01*
X-460765247Y-89203475D01*
X-460751631Y-89303278D01*
X-460720109Y-89400741D01*
X-460664963Y-89490634D01*
X-460629448Y-89528318D01*
X-460546949Y-89587823D01*
X-460452716Y-89625290D01*
X-460346747Y-89640717D01*
X-460324145Y-89641158D01*
X-460220338Y-89632532D01*
X-460123152Y-89603948D01*
X-460092114Y-89588890D01*
X-460010698Y-89526257D01*
X-459950591Y-89443203D01*
X-459939706Y-89422316D01*
X-459683740Y-89453579D01*
X-459720468Y-89551796D01*
X-459770080Y-89638349D01*
X-459841293Y-89721781D01*
X-459907955Y-89776468D01*
X-459995241Y-89826691D01*
X-460093946Y-89862564D01*
X-460189679Y-89882182D01*
X-460294154Y-89890814D01*
X-460325610Y-89891263D01*
X-460440940Y-89884307D01*
X-460546963Y-89863442D01*
X-460643677Y-89828666D01*
X-460731084Y-89779979D01*
X-460809182Y-89717383D01*
X-460833147Y-89693426D01*
X-460896894Y-89613455D01*
X-460947452Y-89522288D01*
X-460984821Y-89419924D01*
X-461009001Y-89306362D01*
X-461019077Y-89203174D01*
X-461020725Y-89137529D01*
X-461016098Y-89026015D01*
X-461006348Y-88953370D01*
X-460751570Y-88953370D01*
X-459936775Y-88953370D01*
X-459957681Y-88850742D01*
X-460003429Y-88757751D01*
X-460030076Y-88726713D01*
X-460110829Y-88664889D01*
X-460205320Y-88625963D01*
X-460302109Y-88610507D01*
X-460336845Y-88609476D01*
X-460437843Y-88618635D01*
X-460536820Y-88649868D01*
X-460623098Y-88703265D01*
X-460690732Y-88774913D01*
X-460736470Y-88870191D01*
X-460751570Y-88953370D01*
X-461006348Y-88953370D01*
X-461002216Y-88922586D01*
X-460979080Y-88827243D01*
X-460939100Y-88723505D01*
X-460885794Y-88631410D01*
X-460831193Y-88563558D01*
X-460756151Y-88494167D01*
X-460673175Y-88439132D01*
X-460582265Y-88398454D01*
X-460483421Y-88372133D01*
X-460376643Y-88360169D01*
X-460339288Y-88359371D01*
X-460233340Y-88366533D01*
G37*
G36*
X-459383810Y-89860000D02*
G01*
X-459383810Y-88390635D01*
X-459161060Y-88390635D01*
X-459161060Y-88608011D01*
X-459109178Y-88523174D01*
X-459045439Y-88443126D01*
X-459003768Y-88407732D01*
X-458912922Y-88367353D01*
X-458845010Y-88359371D01*
X-458742760Y-88372109D01*
X-458647230Y-88406479D01*
X-458590997Y-88436552D01*
X-458675994Y-88665163D01*
X-458766730Y-88623398D01*
X-458857222Y-88609476D01*
X-458956709Y-88630724D01*
X-459003279Y-88658813D01*
X-459069377Y-88735368D01*
X-459095115Y-88795589D01*
X-459120417Y-88899179D01*
X-459133351Y-89000412D01*
X-459136636Y-89087704D01*
X-459136636Y-89860000D01*
X-459383810Y-89860000D01*
G37*
G36*
X-458548011Y-89422316D02*
G01*
X-458303279Y-89391053D01*
X-458271209Y-89486209D01*
X-458205514Y-89564090D01*
X-458188485Y-89576678D01*
X-458099550Y-89618426D01*
X-457995559Y-89638072D01*
X-457925191Y-89641158D01*
X-457827485Y-89635386D01*
X-457725997Y-89610623D01*
X-457672644Y-89582051D01*
X-457605891Y-89509065D01*
X-457590090Y-89443321D01*
X-457631306Y-89353379D01*
X-457663363Y-89330969D01*
X-457759941Y-89296974D01*
X-457856550Y-89272855D01*
X-457915910Y-89259651D01*
X-458012069Y-89233776D01*
X-458109409Y-89205326D01*
X-458211066Y-89171494D01*
X-458293021Y-89137529D01*
X-458375193Y-89084649D01*
X-458441654Y-89011183D01*
X-458452267Y-88994403D01*
X-458491186Y-88904579D01*
X-458506277Y-88806384D01*
X-458506489Y-88792658D01*
X-458493944Y-88690015D01*
X-458462037Y-88606545D01*
X-458405326Y-88523470D01*
X-458340404Y-88463907D01*
X-458251942Y-88414715D01*
X-458183112Y-88390146D01*
X-458086576Y-88368057D01*
X-457983815Y-88359492D01*
X-457969643Y-88359371D01*
X-457866327Y-88364190D01*
X-457762266Y-88380619D01*
X-457668248Y-88408709D01*
X-457573961Y-88454203D01*
X-457497665Y-88516179D01*
X-457476761Y-88541577D01*
X-457427080Y-88632445D01*
X-457397741Y-88731514D01*
X-457391276Y-88765792D01*
X-457633077Y-88797055D01*
X-457674842Y-88705838D01*
X-457728820Y-88659302D01*
X-457823831Y-88621933D01*
X-457925125Y-88609914D01*
X-457951570Y-88609476D01*
X-458057231Y-88615075D01*
X-458158317Y-88638396D01*
X-458194835Y-88656859D01*
X-458260512Y-88729399D01*
X-458267620Y-88767257D01*
X-458237334Y-88840041D01*
X-458150494Y-88892506D01*
X-458142567Y-88895240D01*
X-458047680Y-88919667D01*
X-457946305Y-88943411D01*
X-457924214Y-88948485D01*
X-457817048Y-88978662D01*
X-457713176Y-89010116D01*
X-457620040Y-89041633D01*
X-457558339Y-89066210D01*
X-457470669Y-89118381D01*
X-457402748Y-89188799D01*
X-457395184Y-89199567D01*
X-457352759Y-89290879D01*
X-457336597Y-89392953D01*
X-457336078Y-89416943D01*
X-457348009Y-89517717D01*
X-457383804Y-89613654D01*
X-457408373Y-89656301D01*
X-457471296Y-89733421D01*
X-457552355Y-89796252D01*
X-457616468Y-89830202D01*
X-457714102Y-89864966D01*
X-457810272Y-89884047D01*
X-457913503Y-89891203D01*
X-457924214Y-89891263D01*
X-458026086Y-89887107D01*
X-458132956Y-89871753D01*
X-458239293Y-89840352D01*
X-458328778Y-89794175D01*
X-458357990Y-89773049D01*
X-458433256Y-89697512D01*
X-458491444Y-89603892D01*
X-458528828Y-89505492D01*
X-458548011Y-89422316D01*
G37*
G36*
X-457048359Y-88078004D02*
G01*
X-457048359Y-87827899D01*
X-456801186Y-87827899D01*
X-456801186Y-88078004D01*
X-457048359Y-88078004D01*
G37*
G36*
X-457048359Y-89860000D02*
G01*
X-457048359Y-88390635D01*
X-456801186Y-88390635D01*
X-456801186Y-89860000D01*
X-457048359Y-89860000D01*
G37*
G36*
X-455727450Y-88366344D02*
G01*
X-455626202Y-88387261D01*
X-455532682Y-88422123D01*
X-455446890Y-88470929D01*
X-455368825Y-88533681D01*
X-455344521Y-88557697D01*
X-455279612Y-88637209D01*
X-455228132Y-88727369D01*
X-455190082Y-88828177D01*
X-455165461Y-88939631D01*
X-455155202Y-89040644D01*
X-455153523Y-89104801D01*
X-455156494Y-89206621D01*
X-455167471Y-89314690D01*
X-455186534Y-89411211D01*
X-455218225Y-89507382D01*
X-455238031Y-89549811D01*
X-455291672Y-89635317D01*
X-455357523Y-89709386D01*
X-455435585Y-89772017D01*
X-455484228Y-89801870D01*
X-455577260Y-89845082D01*
X-455675007Y-89874152D01*
X-455777467Y-89889080D01*
X-455836426Y-89891263D01*
X-455947160Y-89884325D01*
X-456049650Y-89863510D01*
X-456143898Y-89828820D01*
X-456229902Y-89780254D01*
X-456307663Y-89717812D01*
X-456331751Y-89693914D01*
X-456395996Y-89613795D01*
X-456446950Y-89521448D01*
X-456484611Y-89416874D01*
X-456505841Y-89320389D01*
X-456517841Y-89215412D01*
X-456520795Y-89125317D01*
X-456520778Y-89124829D01*
X-456266294Y-89124829D01*
X-456260450Y-89231878D01*
X-456239461Y-89338994D01*
X-456203206Y-89429868D01*
X-456144172Y-89512686D01*
X-456061645Y-89580435D01*
X-455966715Y-89623092D01*
X-455859381Y-89640656D01*
X-455836426Y-89641158D01*
X-455737744Y-89630918D01*
X-455639608Y-89595522D01*
X-455553589Y-89534843D01*
X-455530146Y-89511709D01*
X-455471113Y-89428152D01*
X-455434858Y-89335844D01*
X-455413868Y-89226560D01*
X-455408025Y-89117013D01*
X-455413915Y-89013412D01*
X-455435073Y-88909266D01*
X-455477267Y-88810274D01*
X-455531123Y-88738436D01*
X-455613622Y-88670430D01*
X-455707856Y-88627611D01*
X-455813824Y-88609980D01*
X-455836426Y-88609476D01*
X-455935817Y-88619638D01*
X-456034468Y-88654767D01*
X-456120717Y-88714989D01*
X-456144172Y-88737948D01*
X-456203206Y-88820294D01*
X-456242919Y-88923351D01*
X-456262001Y-89032344D01*
X-456266294Y-89124829D01*
X-456520778Y-89124829D01*
X-456517276Y-89026880D01*
X-456502982Y-88913085D01*
X-456477692Y-88809570D01*
X-456441406Y-88716336D01*
X-456383349Y-88618024D01*
X-456309458Y-88534516D01*
X-456295603Y-88522037D01*
X-456209183Y-88458655D01*
X-456114909Y-88410840D01*
X-456012781Y-88378593D01*
X-455902799Y-88361913D01*
X-455836426Y-88359371D01*
X-455727450Y-88366344D01*
G37*
G36*
X-454871179Y-89860000D02*
G01*
X-454871179Y-88390635D01*
X-454648918Y-88390635D01*
X-454648918Y-88598241D01*
X-454583619Y-88517063D01*
X-454508257Y-88452680D01*
X-454422831Y-88405093D01*
X-454327342Y-88374301D01*
X-454221789Y-88360305D01*
X-454184368Y-88359371D01*
X-454080754Y-88367272D01*
X-453984234Y-88390974D01*
X-453942079Y-88407243D01*
X-453855806Y-88454500D01*
X-453783541Y-88522705D01*
X-453776482Y-88532295D01*
X-453727208Y-88622572D01*
X-453699302Y-88715966D01*
X-453688629Y-88818512D01*
X-453685744Y-88926258D01*
X-453685624Y-88957766D01*
X-453685624Y-89860000D01*
X-453932798Y-89860000D01*
X-453932798Y-88991472D01*
X-453936851Y-88890974D01*
X-453954864Y-88789674D01*
X-453961618Y-88770188D01*
X-454018800Y-88686850D01*
X-454064200Y-88653440D01*
X-454160339Y-88616732D01*
X-454236636Y-88609476D01*
X-454340031Y-88621078D01*
X-454433267Y-88655884D01*
X-454509211Y-88707662D01*
X-454569747Y-88786249D01*
X-454605059Y-88886425D01*
X-454619969Y-88983628D01*
X-454624005Y-89080376D01*
X-454624005Y-89860000D01*
X-454871179Y-89860000D01*
G37*
G36*
X-452605094Y-89328527D02*
G01*
X-452345219Y-89297264D01*
X-452319765Y-89396125D01*
X-452274574Y-89485698D01*
X-452211374Y-89555184D01*
X-452126492Y-89607575D01*
X-452029383Y-89635785D01*
X-451957850Y-89641158D01*
X-451851499Y-89629041D01*
X-451755930Y-89592691D01*
X-451671141Y-89532107D01*
X-451655477Y-89517083D01*
X-451590305Y-89431311D01*
X-451552287Y-89340576D01*
X-451533822Y-89237012D01*
X-451531891Y-89186866D01*
X-451541319Y-89083487D01*
X-451573910Y-88983939D01*
X-451629780Y-88900515D01*
X-451651081Y-88878632D01*
X-451732473Y-88819126D01*
X-451828272Y-88781660D01*
X-451926808Y-88766783D01*
X-451962246Y-88765792D01*
X-452062478Y-88774113D01*
X-452159908Y-88801497D01*
X-452178157Y-88809267D01*
X-452263764Y-88859214D01*
X-452329099Y-88922107D01*
X-452561130Y-88890844D01*
X-452366224Y-87859162D01*
X-451364340Y-87859162D01*
X-451364340Y-88109267D01*
X-452168387Y-88109267D01*
X-452276831Y-88660279D01*
X-452196679Y-88603939D01*
X-452102958Y-88556495D01*
X-452006979Y-88527124D01*
X-451908740Y-88515828D01*
X-451896301Y-88515687D01*
X-451784846Y-88524476D01*
X-451681293Y-88550843D01*
X-451585640Y-88594787D01*
X-451497887Y-88656310D01*
X-451451290Y-88699357D01*
X-451380485Y-88784549D01*
X-451327070Y-88879838D01*
X-451291046Y-88985225D01*
X-451274010Y-89083593D01*
X-451269574Y-89171235D01*
X-451275172Y-89271556D01*
X-451295856Y-89381955D01*
X-451331779Y-89485201D01*
X-451382943Y-89581295D01*
X-451428820Y-89645554D01*
X-451506506Y-89729057D01*
X-451594119Y-89795283D01*
X-451691658Y-89844232D01*
X-451799123Y-89875906D01*
X-451896259Y-89889103D01*
X-451957850Y-89891263D01*
X-452057427Y-89885853D01*
X-452164614Y-89865868D01*
X-452262123Y-89831156D01*
X-452349956Y-89781718D01*
X-452406768Y-89737390D01*
X-452475530Y-89665065D01*
X-452530081Y-89583156D01*
X-452570419Y-89491664D01*
X-452596545Y-89390588D01*
X-452605094Y-89328527D01*
G37*
D12*
G36*
X-462676315Y-263596000D02*
G01*
X-462676315Y-262376739D01*
X-462516287Y-262376739D01*
X-462516287Y-262955302D01*
X-461916329Y-262376739D01*
X-461699441Y-262376739D01*
X-462206489Y-262870305D01*
X-461677166Y-263596000D01*
X-461888192Y-263596000D01*
X-462318450Y-262981973D01*
X-462516287Y-263164569D01*
X-462516287Y-263596000D01*
X-462676315Y-263596000D01*
G37*
G36*
X-461146117Y-262699919D02*
G01*
X-461087082Y-262712810D01*
X-461023938Y-262738710D01*
X-460966965Y-262776306D01*
X-460923042Y-262817842D01*
X-460885192Y-262867167D01*
X-460855173Y-262923478D01*
X-460832985Y-262986776D01*
X-460820477Y-263044860D01*
X-460813408Y-263107796D01*
X-460811667Y-263161638D01*
X-460812254Y-263202085D01*
X-461465261Y-263202085D01*
X-461457091Y-263261967D01*
X-461438178Y-263320445D01*
X-461405091Y-263374380D01*
X-461383782Y-263396990D01*
X-461334283Y-263432694D01*
X-461277742Y-263455174D01*
X-461214161Y-263464430D01*
X-461200600Y-263464695D01*
X-461138316Y-263459519D01*
X-461080004Y-263442368D01*
X-461061381Y-263433334D01*
X-461012532Y-263395754D01*
X-460976468Y-263345922D01*
X-460969937Y-263333390D01*
X-460816357Y-263352147D01*
X-460838394Y-263411077D01*
X-460868161Y-263463009D01*
X-460910889Y-263513069D01*
X-460950886Y-263545881D01*
X-461003258Y-263576014D01*
X-461062480Y-263597538D01*
X-461119920Y-263609309D01*
X-461182605Y-263614488D01*
X-461201479Y-263614757D01*
X-461270677Y-263610584D01*
X-461334291Y-263598065D01*
X-461392319Y-263577199D01*
X-461444763Y-263547987D01*
X-461491622Y-263510429D01*
X-461506001Y-263496055D01*
X-461544249Y-263448073D01*
X-461574584Y-263393373D01*
X-461597006Y-263331954D01*
X-461611514Y-263263817D01*
X-461617559Y-263201904D01*
X-461618548Y-263162517D01*
X-461615772Y-263095609D01*
X-461609922Y-263052022D01*
X-461457055Y-263052022D01*
X-460968178Y-263052022D01*
X-460980722Y-262990445D01*
X-461008170Y-262934650D01*
X-461024159Y-262916027D01*
X-461072610Y-262878933D01*
X-461129305Y-262855577D01*
X-461187378Y-262846304D01*
X-461208220Y-262845685D01*
X-461268819Y-262851181D01*
X-461328205Y-262869920D01*
X-461379972Y-262901959D01*
X-461420552Y-262944948D01*
X-461447995Y-263002114D01*
X-461457055Y-263052022D01*
X-461609922Y-263052022D01*
X-461607443Y-263033551D01*
X-461593561Y-262976346D01*
X-461569573Y-262914103D01*
X-461537590Y-262858846D01*
X-461504829Y-262818135D01*
X-461459804Y-262776500D01*
X-461410018Y-262743479D01*
X-461355472Y-262719072D01*
X-461296166Y-262703280D01*
X-461232099Y-262696101D01*
X-461209685Y-262695623D01*
X-461146117Y-262699919D01*
G37*
G36*
X-460391667Y-263596000D02*
G01*
X-460724619Y-262714381D01*
X-460567815Y-262714381D01*
X-460379944Y-263242531D01*
X-460359576Y-263302131D01*
X-460340387Y-263363255D01*
X-460323963Y-263420145D01*
X-460307010Y-263363871D01*
X-460287559Y-263305335D01*
X-460268862Y-263252496D01*
X-460074249Y-262714381D01*
X-459921549Y-262714381D01*
X-460253035Y-263596000D01*
X-460391667Y-263596000D01*
G37*
G36*
X-459794347Y-262526802D02*
G01*
X-459794347Y-262376739D01*
X-459646043Y-262376739D01*
X-459646043Y-262526802D01*
X-459794347Y-262526802D01*
G37*
G36*
X-459794347Y-263596000D02*
G01*
X-459794347Y-262714381D01*
X-459646043Y-262714381D01*
X-459646043Y-263596000D01*
X-459794347Y-263596000D01*
G37*
G36*
X-459422414Y-263596000D02*
G01*
X-459422414Y-262714381D01*
X-459289057Y-262714381D01*
X-459289057Y-262838944D01*
X-459249878Y-262790237D01*
X-459204661Y-262751608D01*
X-459153405Y-262723055D01*
X-459096112Y-262704580D01*
X-459032780Y-262696183D01*
X-459010327Y-262695623D01*
X-458948159Y-262700363D01*
X-458890247Y-262714584D01*
X-458864954Y-262724346D01*
X-458813190Y-262752700D01*
X-458769831Y-262793623D01*
X-458765596Y-262799377D01*
X-458736032Y-262853543D01*
X-458719288Y-262909579D01*
X-458712884Y-262971107D01*
X-458711153Y-263035754D01*
X-458711081Y-263054660D01*
X-458711081Y-263596000D01*
X-458859385Y-263596000D01*
X-458859385Y-263074883D01*
X-458861817Y-263014584D01*
X-458872625Y-262953804D01*
X-458876678Y-262942113D01*
X-458910987Y-262892110D01*
X-458938227Y-262872064D01*
X-458995910Y-262850039D01*
X-459041688Y-262845685D01*
X-459103725Y-262852647D01*
X-459159667Y-262873530D01*
X-459205233Y-262904597D01*
X-459241555Y-262951749D01*
X-459262742Y-263011855D01*
X-459271688Y-263070176D01*
X-459274110Y-263128226D01*
X-459274110Y-263596000D01*
X-459422414Y-263596000D01*
G37*
G36*
X-458007369Y-263596000D02*
G01*
X-458007369Y-262376739D01*
X-457766741Y-262376739D01*
X-457480683Y-263232273D01*
X-457462237Y-263288308D01*
X-457442940Y-263347791D01*
X-457424101Y-263407575D01*
X-457422944Y-263411352D01*
X-457404301Y-263353196D01*
X-457383790Y-263291447D01*
X-457364126Y-263233350D01*
X-457358757Y-263217618D01*
X-457069476Y-262376739D01*
X-456854347Y-262376739D01*
X-456854347Y-263596000D01*
X-457008513Y-263596000D01*
X-457008513Y-262564318D01*
X-457359637Y-263596000D01*
X-457503838Y-263596000D01*
X-457853496Y-262564318D01*
X-457853496Y-263596000D01*
X-458007369Y-263596000D01*
G37*
G36*
X-456051570Y-263277116D02*
G01*
X-455905610Y-263295874D01*
X-455919687Y-263358285D01*
X-455940889Y-263414468D01*
X-455973843Y-263471053D01*
X-456016103Y-263519505D01*
X-456028122Y-263530347D01*
X-456080164Y-263567277D01*
X-456137812Y-263593655D01*
X-456201065Y-263609482D01*
X-456261009Y-263614675D01*
X-456269923Y-263614757D01*
X-456334924Y-263610615D01*
X-456394958Y-263598189D01*
X-456450026Y-263577477D01*
X-456507995Y-263542844D01*
X-456552302Y-263504183D01*
X-456559204Y-263496935D01*
X-456596257Y-263449045D01*
X-456625644Y-263393963D01*
X-456647365Y-263331689D01*
X-456659610Y-263274300D01*
X-456666530Y-263211917D01*
X-456668234Y-263158414D01*
X-456665990Y-263097806D01*
X-456657930Y-263032731D01*
X-456644008Y-262972125D01*
X-456624224Y-262915989D01*
X-456621339Y-262909286D01*
X-456590948Y-262853354D01*
X-456552859Y-262805906D01*
X-456507073Y-262766944D01*
X-456478311Y-262748965D01*
X-456422914Y-262723180D01*
X-456364874Y-262705833D01*
X-456304191Y-262696925D01*
X-456269337Y-262695623D01*
X-456209386Y-262699129D01*
X-456146985Y-262711723D01*
X-456091105Y-262733476D01*
X-456036036Y-262768896D01*
X-455990098Y-262814980D01*
X-455957945Y-262864119D01*
X-455933962Y-262920951D01*
X-455919678Y-262976990D01*
X-456063879Y-262995748D01*
X-456085822Y-262941167D01*
X-456124243Y-262893455D01*
X-456136859Y-262883494D01*
X-456190809Y-262856356D01*
X-456249762Y-262846018D01*
X-456263475Y-262845685D01*
X-456323279Y-262851551D01*
X-456381897Y-262871827D01*
X-456432272Y-262906586D01*
X-456445778Y-262919838D01*
X-456479639Y-262968364D01*
X-456502419Y-263030523D01*
X-456512474Y-263088294D01*
X-456515826Y-263154311D01*
X-456512601Y-263221342D01*
X-456502924Y-263279845D01*
X-456483964Y-263336266D01*
X-456452563Y-263386425D01*
X-456448415Y-263391129D01*
X-456402065Y-263429923D01*
X-456347642Y-263454349D01*
X-456285149Y-263464407D01*
X-456271681Y-263464695D01*
X-456210215Y-263458224D01*
X-456152742Y-263436609D01*
X-456125722Y-263418679D01*
X-456085205Y-263373117D01*
X-456060427Y-263316548D01*
X-456051570Y-263277116D01*
G37*
G36*
X-455771081Y-263596000D02*
G01*
X-455771081Y-262376739D01*
X-455611053Y-262376739D01*
X-455611053Y-262955302D01*
X-455011095Y-262376739D01*
X-454794207Y-262376739D01*
X-455301256Y-262870305D01*
X-454771933Y-263596000D01*
X-454982958Y-263596000D01*
X-455413217Y-262981973D01*
X-455611053Y-263164569D01*
X-455611053Y-263596000D01*
X-455771081Y-263596000D01*
G37*
G36*
X-454240883Y-262699919D02*
G01*
X-454181848Y-262712810D01*
X-454118704Y-262738710D01*
X-454061731Y-262776306D01*
X-454017808Y-262817842D01*
X-453979958Y-262867167D01*
X-453949939Y-262923478D01*
X-453927751Y-262986776D01*
X-453915243Y-263044860D01*
X-453908174Y-263107796D01*
X-453906434Y-263161638D01*
X-453907020Y-263202085D01*
X-454560027Y-263202085D01*
X-454551857Y-263261967D01*
X-454532945Y-263320445D01*
X-454499857Y-263374380D01*
X-454478548Y-263396990D01*
X-454429049Y-263432694D01*
X-454372508Y-263455174D01*
X-454308927Y-263464430D01*
X-454295366Y-263464695D01*
X-454233082Y-263459519D01*
X-454174770Y-263442368D01*
X-454156147Y-263433334D01*
X-454107298Y-263395754D01*
X-454071234Y-263345922D01*
X-454064703Y-263333390D01*
X-453911123Y-263352147D01*
X-453933160Y-263411077D01*
X-453962927Y-263463009D01*
X-454005655Y-263513069D01*
X-454045652Y-263545881D01*
X-454098024Y-263576014D01*
X-454157247Y-263597538D01*
X-454214686Y-263609309D01*
X-454277372Y-263614488D01*
X-454296245Y-263614757D01*
X-454365443Y-263610584D01*
X-454429057Y-263598065D01*
X-454487085Y-263577199D01*
X-454539529Y-263547987D01*
X-454586388Y-263510429D01*
X-454600767Y-263496055D01*
X-454639016Y-263448073D01*
X-454669351Y-263393373D01*
X-454691772Y-263331954D01*
X-454706280Y-263263817D01*
X-454712325Y-263201904D01*
X-454713314Y-263162517D01*
X-454710538Y-263095609D01*
X-454704688Y-263052022D01*
X-454551821Y-263052022D01*
X-454062944Y-263052022D01*
X-454075488Y-262990445D01*
X-454102936Y-262934650D01*
X-454118925Y-262916027D01*
X-454167377Y-262878933D01*
X-454224071Y-262855577D01*
X-454282145Y-262846304D01*
X-454302986Y-262845685D01*
X-454363585Y-262851181D01*
X-454422971Y-262869920D01*
X-454474738Y-262901959D01*
X-454515318Y-262944948D01*
X-454542761Y-263002114D01*
X-454551821Y-263052022D01*
X-454704688Y-263052022D01*
X-454702209Y-263033551D01*
X-454688327Y-262976346D01*
X-454664339Y-262914103D01*
X-454632356Y-262858846D01*
X-454599595Y-262818135D01*
X-454554570Y-262776500D01*
X-454504784Y-262743479D01*
X-454450238Y-262719072D01*
X-454390932Y-262703280D01*
X-454326865Y-262696101D01*
X-454304452Y-262695623D01*
X-454240883Y-262699919D01*
G37*
G36*
X-453729406Y-263596000D02*
G01*
X-453729406Y-262714381D01*
X-453596050Y-262714381D01*
X-453596050Y-262838944D01*
X-453556871Y-262790237D01*
X-453511653Y-262751608D01*
X-453460398Y-262723055D01*
X-453403104Y-262704580D01*
X-453339772Y-262696183D01*
X-453317320Y-262695623D01*
X-453255151Y-262700363D01*
X-453197239Y-262714584D01*
X-453171946Y-262724346D01*
X-453120183Y-262752700D01*
X-453076823Y-262793623D01*
X-453072588Y-262799377D01*
X-453043024Y-262853543D01*
X-453026280Y-262909579D01*
X-453019877Y-262971107D01*
X-453018146Y-263035754D01*
X-453018073Y-263054660D01*
X-453018073Y-263596000D01*
X-453166378Y-263596000D01*
X-453166378Y-263074883D01*
X-453168809Y-263014584D01*
X-453179617Y-262953804D01*
X-453183670Y-262942113D01*
X-453217979Y-262892110D01*
X-453245219Y-262872064D01*
X-453302903Y-262850039D01*
X-453348681Y-262845685D01*
X-453410718Y-262852647D01*
X-453466659Y-262873530D01*
X-453512226Y-262904597D01*
X-453548547Y-262951749D01*
X-453569735Y-263011855D01*
X-453578681Y-263070176D01*
X-453581102Y-263128226D01*
X-453581102Y-263596000D01*
X-453729406Y-263596000D01*
G37*
G36*
X-452873286Y-263596000D02*
G01*
X-452873286Y-263454729D01*
X-452316120Y-262864443D01*
X-452378607Y-262864443D01*
X-452440850Y-262864443D01*
X-452483475Y-262864443D01*
X-452840460Y-262864443D01*
X-452840460Y-262714381D01*
X-452125024Y-262714381D01*
X-452125024Y-262841875D01*
X-452598953Y-263362113D01*
X-452690397Y-263445937D01*
X-452629317Y-263445937D01*
X-452570642Y-263445937D01*
X-452508876Y-263445937D01*
X-452503405Y-263445937D01*
X-452098646Y-263445937D01*
X-452098646Y-263596000D01*
X-452873286Y-263596000D01*
G37*
G36*
X-451954738Y-262526802D02*
G01*
X-451954738Y-262376739D01*
X-451806434Y-262376739D01*
X-451806434Y-262526802D01*
X-451954738Y-262526802D01*
G37*
G36*
X-451954738Y-263596000D02*
G01*
X-451954738Y-262714381D01*
X-451806434Y-262714381D01*
X-451806434Y-263596000D01*
X-451954738Y-263596000D01*
G37*
G36*
X-451159906Y-262699919D02*
G01*
X-451100871Y-262712810D01*
X-451037727Y-262738710D01*
X-450980754Y-262776306D01*
X-450936831Y-262817842D01*
X-450898981Y-262867167D01*
X-450868962Y-262923478D01*
X-450846774Y-262986776D01*
X-450834266Y-263044860D01*
X-450827197Y-263107796D01*
X-450825457Y-263161638D01*
X-450826043Y-263202085D01*
X-451479050Y-263202085D01*
X-451470881Y-263261967D01*
X-451451968Y-263320445D01*
X-451418880Y-263374380D01*
X-451397571Y-263396990D01*
X-451348072Y-263432694D01*
X-451291531Y-263455174D01*
X-451227950Y-263464430D01*
X-451214389Y-263464695D01*
X-451152105Y-263459519D01*
X-451093794Y-263442368D01*
X-451075170Y-263433334D01*
X-451026321Y-263395754D01*
X-450990257Y-263345922D01*
X-450983726Y-263333390D01*
X-450830146Y-263352147D01*
X-450852183Y-263411077D01*
X-450881950Y-263463009D01*
X-450924678Y-263513069D01*
X-450964675Y-263545881D01*
X-451017047Y-263576014D01*
X-451076270Y-263597538D01*
X-451133709Y-263609309D01*
X-451196395Y-263614488D01*
X-451215268Y-263614757D01*
X-451284466Y-263610584D01*
X-451348080Y-263598065D01*
X-451406108Y-263577199D01*
X-451458552Y-263547987D01*
X-451505411Y-263510429D01*
X-451519790Y-263496055D01*
X-451558039Y-263448073D01*
X-451588374Y-263393373D01*
X-451610795Y-263331954D01*
X-451625303Y-263263817D01*
X-451631348Y-263201904D01*
X-451632337Y-263162517D01*
X-451629561Y-263095609D01*
X-451623711Y-263052022D01*
X-451470844Y-263052022D01*
X-450981967Y-263052022D01*
X-450994511Y-262990445D01*
X-451021959Y-262934650D01*
X-451037948Y-262916027D01*
X-451086400Y-262878933D01*
X-451143094Y-262855577D01*
X-451201168Y-262846304D01*
X-451222009Y-262845685D01*
X-451282608Y-262851181D01*
X-451341994Y-262869920D01*
X-451393761Y-262901959D01*
X-451434341Y-262944948D01*
X-451461784Y-263002114D01*
X-451470844Y-263052022D01*
X-451623711Y-263052022D01*
X-451621232Y-263033551D01*
X-451607350Y-262976346D01*
X-451583362Y-262914103D01*
X-451551379Y-262858846D01*
X-451518618Y-262818135D01*
X-451473593Y-262776500D01*
X-451423807Y-262743479D01*
X-451369261Y-262719072D01*
X-451309955Y-262703280D01*
X-451245888Y-262696101D01*
X-451223475Y-262695623D01*
X-451159906Y-262699919D01*
G37*
X-500186438Y-84569925D02*
X-499653104Y-84417544D01*
X-499653104Y-84417544D02*
X-500034057Y-84265163D01*
X-500034057Y-84265163D02*
X-499653104Y-84112782D01*
X-499653104Y-84112782D02*
X-500186438Y-83960401D01*
X-499691200Y-83693735D02*
X-499653104Y-83617544D01*
X-499653104Y-83617544D02*
X-499653104Y-83465163D01*
X-499653104Y-83465163D02*
X-499691200Y-83388973D01*
X-499691200Y-83388973D02*
X-499767390Y-83350877D01*
X-499767390Y-83350877D02*
X-499805485Y-83350877D01*
X-499805485Y-83350877D02*
X-499881676Y-83388973D01*
X-499881676Y-83388973D02*
X-499919771Y-83465163D01*
X-499919771Y-83465163D02*
X-499919771Y-83579449D01*
X-499919771Y-83579449D02*
X-499957866Y-83655639D01*
X-499957866Y-83655639D02*
X-500034057Y-83693735D01*
X-500034057Y-83693735D02*
X-500072152Y-83693735D01*
X-500072152Y-83693735D02*
X-500148342Y-83655639D01*
X-500148342Y-83655639D02*
X-500186438Y-83579449D01*
X-500186438Y-83579449D02*
X-500186438Y-83465163D01*
X-500186438Y-83465163D02*
X-500148342Y-83388973D01*
X-497686438Y-88350877D02*
X-497038819Y-88350877D01*
X-497038819Y-88350877D02*
X-496962628Y-88388972D01*
X-496962628Y-88388972D02*
X-496924533Y-88427068D01*
X-496924533Y-88427068D02*
X-496886438Y-88503258D01*
X-496886438Y-88503258D02*
X-496886438Y-88617544D01*
X-496886438Y-88617544D02*
X-496924533Y-88693734D01*
X-497191200Y-88350877D02*
X-497153104Y-88427068D01*
X-497153104Y-88427068D02*
X-497153104Y-88579449D01*
X-497153104Y-88579449D02*
X-497191200Y-88655639D01*
X-497191200Y-88655639D02*
X-497229295Y-88693734D01*
X-497229295Y-88693734D02*
X-497305485Y-88731830D01*
X-497305485Y-88731830D02*
X-497534057Y-88731830D01*
X-497534057Y-88731830D02*
X-497610247Y-88693734D01*
X-497610247Y-88693734D02*
X-497648342Y-88655639D01*
X-497648342Y-88655639D02*
X-497686438Y-88579449D01*
X-497686438Y-88579449D02*
X-497686438Y-88427068D01*
X-497686438Y-88427068D02*
X-497648342Y-88350877D01*
X-497686438Y-87969924D02*
X-497153104Y-87969924D01*
X-497610247Y-87969924D02*
X-497648342Y-87931829D01*
X-497648342Y-87931829D02*
X-497686438Y-87855639D01*
X-497686438Y-87855639D02*
X-497686438Y-87741353D01*
X-497686438Y-87741353D02*
X-497648342Y-87665162D01*
X-497648342Y-87665162D02*
X-497572152Y-87627067D01*
X-497572152Y-87627067D02*
X-497153104Y-87627067D01*
X-497153104Y-86903257D02*
X-497953104Y-86903257D01*
X-497191200Y-86903257D02*
X-497153104Y-86979448D01*
X-497153104Y-86979448D02*
X-497153104Y-87131829D01*
X-497153104Y-87131829D02*
X-497191200Y-87208019D01*
X-497191200Y-87208019D02*
X-497229295Y-87246114D01*
X-497229295Y-87246114D02*
X-497305485Y-87284210D01*
X-497305485Y-87284210D02*
X-497534057Y-87284210D01*
X-497534057Y-87284210D02*
X-497610247Y-87246114D01*
X-497610247Y-87246114D02*
X-497648342Y-87208019D01*
X-497648342Y-87208019D02*
X-497686438Y-87131829D01*
X-497686438Y-87131829D02*
X-497686438Y-86979448D01*
X-497686438Y-86979448D02*
X-497648342Y-86903257D01*
X-497053104Y-84112782D02*
X-497053104Y-84493734D01*
X-497053104Y-84493734D02*
X-497853104Y-84493734D01*
X-497053104Y-83388972D02*
X-497434057Y-83655639D01*
X-497053104Y-83846115D02*
X-497853104Y-83846115D01*
X-497853104Y-83846115D02*
X-497853104Y-83541353D01*
X-497853104Y-83541353D02*
X-497815009Y-83465163D01*
X-497815009Y-83465163D02*
X-497776914Y-83427068D01*
X-497776914Y-83427068D02*
X-497700723Y-83388972D01*
X-497700723Y-83388972D02*
X-497586438Y-83388972D01*
X-497586438Y-83388972D02*
X-497510247Y-83427068D01*
X-497510247Y-83427068D02*
X-497472152Y-83465163D01*
X-497472152Y-83465163D02*
X-497434057Y-83541353D01*
X-497434057Y-83541353D02*
X-497434057Y-83846115D01*
X-500286438Y-88743734D02*
X-499486438Y-88743734D01*
X-500248342Y-88743734D02*
X-500286438Y-88667544D01*
X-500286438Y-88667544D02*
X-500286438Y-88515163D01*
X-500286438Y-88515163D02*
X-500248342Y-88438972D01*
X-500248342Y-88438972D02*
X-500210247Y-88400877D01*
X-500210247Y-88400877D02*
X-500134057Y-88362782D01*
X-500134057Y-88362782D02*
X-499905485Y-88362782D01*
X-499905485Y-88362782D02*
X-499829295Y-88400877D01*
X-499829295Y-88400877D02*
X-499791200Y-88438972D01*
X-499791200Y-88438972D02*
X-499753104Y-88515163D01*
X-499753104Y-88515163D02*
X-499753104Y-88667544D01*
X-499753104Y-88667544D02*
X-499791200Y-88743734D01*
X-500286438Y-88096115D02*
X-499753104Y-87943734D01*
X-499753104Y-87943734D02*
X-500134057Y-87791353D01*
X-500134057Y-87791353D02*
X-499753104Y-87638972D01*
X-499753104Y-87638972D02*
X-500286438Y-87486591D01*
X-499753104Y-87181829D02*
X-500286438Y-87181829D01*
X-500134057Y-87181829D02*
X-500210247Y-87143734D01*
X-500210247Y-87143734D02*
X-500248342Y-87105639D01*
X-500248342Y-87105639D02*
X-500286438Y-87029448D01*
X-500286438Y-87029448D02*
X-500286438Y-86953258D01*
X-502291200Y-84981830D02*
X-502253104Y-84905639D01*
X-502253104Y-84905639D02*
X-502253104Y-84753258D01*
X-502253104Y-84753258D02*
X-502291200Y-84677068D01*
X-502291200Y-84677068D02*
X-502367390Y-84638972D01*
X-502367390Y-84638972D02*
X-502405485Y-84638972D01*
X-502405485Y-84638972D02*
X-502481676Y-84677068D01*
X-502481676Y-84677068D02*
X-502519771Y-84753258D01*
X-502519771Y-84753258D02*
X-502519771Y-84867544D01*
X-502519771Y-84867544D02*
X-502557866Y-84943734D01*
X-502557866Y-84943734D02*
X-502634057Y-84981830D01*
X-502634057Y-84981830D02*
X-502672152Y-84981830D01*
X-502672152Y-84981830D02*
X-502748342Y-84943734D01*
X-502748342Y-84943734D02*
X-502786438Y-84867544D01*
X-502786438Y-84867544D02*
X-502786438Y-84753258D01*
X-502786438Y-84753258D02*
X-502748342Y-84677068D01*
X-502291200Y-83953258D02*
X-502253104Y-84029449D01*
X-502253104Y-84029449D02*
X-502253104Y-84181830D01*
X-502253104Y-84181830D02*
X-502291200Y-84258020D01*
X-502291200Y-84258020D02*
X-502329295Y-84296115D01*
X-502329295Y-84296115D02*
X-502405485Y-84334211D01*
X-502405485Y-84334211D02*
X-502634057Y-84334211D01*
X-502634057Y-84334211D02*
X-502710247Y-84296115D01*
X-502710247Y-84296115D02*
X-502748342Y-84258020D01*
X-502748342Y-84258020D02*
X-502786438Y-84181830D01*
X-502786438Y-84181830D02*
X-502786438Y-84029449D01*
X-502786438Y-84029449D02*
X-502748342Y-83953258D01*
X-502253104Y-83610401D02*
X-503053104Y-83610401D01*
X-502557866Y-83534211D02*
X-502253104Y-83305639D01*
X-502786438Y-83305639D02*
X-502481676Y-83610401D01*
X-502341200Y-88781830D02*
X-502303104Y-88705639D01*
X-502303104Y-88705639D02*
X-502303104Y-88553258D01*
X-502303104Y-88553258D02*
X-502341200Y-88477068D01*
X-502341200Y-88477068D02*
X-502417390Y-88438972D01*
X-502417390Y-88438972D02*
X-502455485Y-88438972D01*
X-502455485Y-88438972D02*
X-502531676Y-88477068D01*
X-502531676Y-88477068D02*
X-502569771Y-88553258D01*
X-502569771Y-88553258D02*
X-502569771Y-88667544D01*
X-502569771Y-88667544D02*
X-502607866Y-88743734D01*
X-502607866Y-88743734D02*
X-502684057Y-88781830D01*
X-502684057Y-88781830D02*
X-502722152Y-88781830D01*
X-502722152Y-88781830D02*
X-502798342Y-88743734D01*
X-502798342Y-88743734D02*
X-502836438Y-88667544D01*
X-502836438Y-88667544D02*
X-502836438Y-88553258D01*
X-502836438Y-88553258D02*
X-502798342Y-88477068D01*
X-502303104Y-87753258D02*
X-503103104Y-87753258D01*
X-502341200Y-87753258D02*
X-502303104Y-87829449D01*
X-502303104Y-87829449D02*
X-502303104Y-87981830D01*
X-502303104Y-87981830D02*
X-502341200Y-88058020D01*
X-502341200Y-88058020D02*
X-502379295Y-88096115D01*
X-502379295Y-88096115D02*
X-502455485Y-88134211D01*
X-502455485Y-88134211D02*
X-502684057Y-88134211D01*
X-502684057Y-88134211D02*
X-502760247Y-88096115D01*
X-502760247Y-88096115D02*
X-502798342Y-88058020D01*
X-502798342Y-88058020D02*
X-502836438Y-87981830D01*
X-502836438Y-87981830D02*
X-502836438Y-87829449D01*
X-502836438Y-87829449D02*
X-502798342Y-87753258D01*
X-497686438Y-2350877D02*
X-497038819Y-2350877D01*
X-497038819Y-2350877D02*
X-496962628Y-2388972D01*
X-496962628Y-2388972D02*
X-496924533Y-2427068D01*
X-496924533Y-2427068D02*
X-496886438Y-2503258D01*
X-496886438Y-2503258D02*
X-496886438Y-2617544D01*
X-496886438Y-2617544D02*
X-496924533Y-2693734D01*
X-497191200Y-2350877D02*
X-497153104Y-2427068D01*
X-497153104Y-2427068D02*
X-497153104Y-2579449D01*
X-497153104Y-2579449D02*
X-497191200Y-2655639D01*
X-497191200Y-2655639D02*
X-497229295Y-2693734D01*
X-497229295Y-2693734D02*
X-497305485Y-2731830D01*
X-497305485Y-2731830D02*
X-497534057Y-2731830D01*
X-497534057Y-2731830D02*
X-497610247Y-2693734D01*
X-497610247Y-2693734D02*
X-497648342Y-2655639D01*
X-497648342Y-2655639D02*
X-497686438Y-2579449D01*
X-497686438Y-2579449D02*
X-497686438Y-2427068D01*
X-497686438Y-2427068D02*
X-497648342Y-2350877D01*
X-497686438Y-1969924D02*
X-497153104Y-1969924D01*
X-497610247Y-1969924D02*
X-497648342Y-1931829D01*
X-497648342Y-1931829D02*
X-497686438Y-1855639D01*
X-497686438Y-1855639D02*
X-497686438Y-1741353D01*
X-497686438Y-1741353D02*
X-497648342Y-1665162D01*
X-497648342Y-1665162D02*
X-497572152Y-1627067D01*
X-497572152Y-1627067D02*
X-497153104Y-1627067D01*
X-497153104Y-903257D02*
X-497953104Y-903257D01*
X-497191200Y-903257D02*
X-497153104Y-979448D01*
X-497153104Y-979448D02*
X-497153104Y-1131829D01*
X-497153104Y-1131829D02*
X-497191200Y-1208019D01*
X-497191200Y-1208019D02*
X-497229295Y-1246114D01*
X-497229295Y-1246114D02*
X-497305485Y-1284210D01*
X-497305485Y-1284210D02*
X-497534057Y-1284210D01*
X-497534057Y-1284210D02*
X-497610247Y-1246114D01*
X-497610247Y-1246114D02*
X-497648342Y-1208019D01*
X-497648342Y-1208019D02*
X-497686438Y-1131829D01*
X-497686438Y-1131829D02*
X-497686438Y-979448D01*
X-497686438Y-979448D02*
X-497648342Y-903257D01*
X-502291200Y1018169D02*
X-502253104Y1094360D01*
X-502253104Y1094360D02*
X-502253104Y1246741D01*
X-502253104Y1246741D02*
X-502291200Y1322931D01*
X-502291200Y1322931D02*
X-502367390Y1361027D01*
X-502367390Y1361027D02*
X-502405485Y1361027D01*
X-502405485Y1361027D02*
X-502481676Y1322931D01*
X-502481676Y1322931D02*
X-502519771Y1246741D01*
X-502519771Y1246741D02*
X-502519771Y1132455D01*
X-502519771Y1132455D02*
X-502557866Y1056265D01*
X-502557866Y1056265D02*
X-502634057Y1018169D01*
X-502634057Y1018169D02*
X-502672152Y1018169D01*
X-502672152Y1018169D02*
X-502748342Y1056265D01*
X-502748342Y1056265D02*
X-502786438Y1132455D01*
X-502786438Y1132455D02*
X-502786438Y1246741D01*
X-502786438Y1246741D02*
X-502748342Y1322931D01*
X-502291200Y2046741D02*
X-502253104Y1970550D01*
X-502253104Y1970550D02*
X-502253104Y1818169D01*
X-502253104Y1818169D02*
X-502291200Y1741979D01*
X-502291200Y1741979D02*
X-502329295Y1703884D01*
X-502329295Y1703884D02*
X-502405485Y1665788D01*
X-502405485Y1665788D02*
X-502634057Y1665788D01*
X-502634057Y1665788D02*
X-502710247Y1703884D01*
X-502710247Y1703884D02*
X-502748342Y1741979D01*
X-502748342Y1741979D02*
X-502786438Y1818169D01*
X-502786438Y1818169D02*
X-502786438Y1970550D01*
X-502786438Y1970550D02*
X-502748342Y2046741D01*
X-502253104Y2389598D02*
X-503053104Y2389598D01*
X-502557866Y2465788D02*
X-502253104Y2694360D01*
X-502786438Y2694360D02*
X-502481676Y2389598D01*
X-500286438Y-2743734D02*
X-499486438Y-2743734D01*
X-500248342Y-2743734D02*
X-500286438Y-2667544D01*
X-500286438Y-2667544D02*
X-500286438Y-2515163D01*
X-500286438Y-2515163D02*
X-500248342Y-2438972D01*
X-500248342Y-2438972D02*
X-500210247Y-2400877D01*
X-500210247Y-2400877D02*
X-500134057Y-2362782D01*
X-500134057Y-2362782D02*
X-499905485Y-2362782D01*
X-499905485Y-2362782D02*
X-499829295Y-2400877D01*
X-499829295Y-2400877D02*
X-499791200Y-2438972D01*
X-499791200Y-2438972D02*
X-499753104Y-2515163D01*
X-499753104Y-2515163D02*
X-499753104Y-2667544D01*
X-499753104Y-2667544D02*
X-499791200Y-2743734D01*
X-500286438Y-2096115D02*
X-499753104Y-1943734D01*
X-499753104Y-1943734D02*
X-500134057Y-1791353D01*
X-500134057Y-1791353D02*
X-499753104Y-1638972D01*
X-499753104Y-1638972D02*
X-500286438Y-1486591D01*
X-499753104Y-1181829D02*
X-500286438Y-1181829D01*
X-500134057Y-1181829D02*
X-500210247Y-1143734D01*
X-500210247Y-1143734D02*
X-500248342Y-1105639D01*
X-500248342Y-1105639D02*
X-500286438Y-1029448D01*
X-500286438Y-1029448D02*
X-500286438Y-953258D01*
X-497053104Y1887217D02*
X-497053104Y1506265D01*
X-497053104Y1506265D02*
X-497853104Y1506265D01*
X-497053104Y2611027D02*
X-497434057Y2344360D01*
X-497053104Y2153884D02*
X-497853104Y2153884D01*
X-497853104Y2153884D02*
X-497853104Y2458646D01*
X-497853104Y2458646D02*
X-497815009Y2534836D01*
X-497815009Y2534836D02*
X-497776914Y2572931D01*
X-497776914Y2572931D02*
X-497700723Y2611027D01*
X-497700723Y2611027D02*
X-497586438Y2611027D01*
X-497586438Y2611027D02*
X-497510247Y2572931D01*
X-497510247Y2572931D02*
X-497472152Y2534836D01*
X-497472152Y2534836D02*
X-497434057Y2458646D01*
X-497434057Y2458646D02*
X-497434057Y2153884D01*
X-502341200Y-2781830D02*
X-502303104Y-2705639D01*
X-502303104Y-2705639D02*
X-502303104Y-2553258D01*
X-502303104Y-2553258D02*
X-502341200Y-2477068D01*
X-502341200Y-2477068D02*
X-502417390Y-2438972D01*
X-502417390Y-2438972D02*
X-502455485Y-2438972D01*
X-502455485Y-2438972D02*
X-502531676Y-2477068D01*
X-502531676Y-2477068D02*
X-502569771Y-2553258D01*
X-502569771Y-2553258D02*
X-502569771Y-2667544D01*
X-502569771Y-2667544D02*
X-502607866Y-2743734D01*
X-502607866Y-2743734D02*
X-502684057Y-2781830D01*
X-502684057Y-2781830D02*
X-502722152Y-2781830D01*
X-502722152Y-2781830D02*
X-502798342Y-2743734D01*
X-502798342Y-2743734D02*
X-502836438Y-2667544D01*
X-502836438Y-2667544D02*
X-502836438Y-2553258D01*
X-502836438Y-2553258D02*
X-502798342Y-2477068D01*
X-502303104Y-1753258D02*
X-503103104Y-1753258D01*
X-502341200Y-1753258D02*
X-502303104Y-1829449D01*
X-502303104Y-1829449D02*
X-502303104Y-1981830D01*
X-502303104Y-1981830D02*
X-502341200Y-2058020D01*
X-502341200Y-2058020D02*
X-502379295Y-2096115D01*
X-502379295Y-2096115D02*
X-502455485Y-2134211D01*
X-502455485Y-2134211D02*
X-502684057Y-2134211D01*
X-502684057Y-2134211D02*
X-502760247Y-2096115D01*
X-502760247Y-2096115D02*
X-502798342Y-2058020D01*
X-502798342Y-2058020D02*
X-502836438Y-1981830D01*
X-502836438Y-1981830D02*
X-502836438Y-1829449D01*
X-502836438Y-1829449D02*
X-502798342Y-1753258D01*
X-500186438Y1430074D02*
X-499653104Y1582455D01*
X-499653104Y1582455D02*
X-500034057Y1734836D01*
X-500034057Y1734836D02*
X-499653104Y1887217D01*
X-499653104Y1887217D02*
X-500186438Y2039598D01*
X-499691200Y2306264D02*
X-499653104Y2382455D01*
X-499653104Y2382455D02*
X-499653104Y2534836D01*
X-499653104Y2534836D02*
X-499691200Y2611026D01*
X-499691200Y2611026D02*
X-499767390Y2649122D01*
X-499767390Y2649122D02*
X-499805485Y2649122D01*
X-499805485Y2649122D02*
X-499881676Y2611026D01*
X-499881676Y2611026D02*
X-499919771Y2534836D01*
X-499919771Y2534836D02*
X-499919771Y2420550D01*
X-499919771Y2420550D02*
X-499957866Y2344360D01*
X-499957866Y2344360D02*
X-500034057Y2306264D01*
X-500034057Y2306264D02*
X-500072152Y2306264D01*
X-500072152Y2306264D02*
X-500148342Y2344360D01*
X-500148342Y2344360D02*
X-500186438Y2420550D01*
X-500186438Y2420550D02*
X-500186438Y2534836D01*
X-500186438Y2534836D02*
X-500148342Y2611026D01*
X-502291200Y-256981830D02*
X-502253104Y-256905639D01*
X-502253104Y-256905639D02*
X-502253104Y-256753258D01*
X-502253104Y-256753258D02*
X-502291200Y-256677068D01*
X-502291200Y-256677068D02*
X-502367390Y-256638972D01*
X-502367390Y-256638972D02*
X-502405485Y-256638972D01*
X-502405485Y-256638972D02*
X-502481676Y-256677068D01*
X-502481676Y-256677068D02*
X-502519771Y-256753258D01*
X-502519771Y-256753258D02*
X-502519771Y-256867544D01*
X-502519771Y-256867544D02*
X-502557866Y-256943734D01*
X-502557866Y-256943734D02*
X-502634057Y-256981830D01*
X-502634057Y-256981830D02*
X-502672152Y-256981830D01*
X-502672152Y-256981830D02*
X-502748342Y-256943734D01*
X-502748342Y-256943734D02*
X-502786438Y-256867544D01*
X-502786438Y-256867544D02*
X-502786438Y-256753258D01*
X-502786438Y-256753258D02*
X-502748342Y-256677068D01*
X-502291200Y-255953258D02*
X-502253104Y-256029449D01*
X-502253104Y-256029449D02*
X-502253104Y-256181830D01*
X-502253104Y-256181830D02*
X-502291200Y-256258020D01*
X-502291200Y-256258020D02*
X-502329295Y-256296115D01*
X-502329295Y-256296115D02*
X-502405485Y-256334211D01*
X-502405485Y-256334211D02*
X-502634057Y-256334211D01*
X-502634057Y-256334211D02*
X-502710247Y-256296115D01*
X-502710247Y-256296115D02*
X-502748342Y-256258020D01*
X-502748342Y-256258020D02*
X-502786438Y-256181830D01*
X-502786438Y-256181830D02*
X-502786438Y-256029449D01*
X-502786438Y-256029449D02*
X-502748342Y-255953258D01*
X-502253104Y-255610401D02*
X-503053104Y-255610401D01*
X-502557866Y-255534211D02*
X-502253104Y-255305639D01*
X-502786438Y-255305639D02*
X-502481676Y-255610401D01*
X-502341200Y-260781830D02*
X-502303104Y-260705639D01*
X-502303104Y-260705639D02*
X-502303104Y-260553258D01*
X-502303104Y-260553258D02*
X-502341200Y-260477068D01*
X-502341200Y-260477068D02*
X-502417390Y-260438972D01*
X-502417390Y-260438972D02*
X-502455485Y-260438972D01*
X-502455485Y-260438972D02*
X-502531676Y-260477068D01*
X-502531676Y-260477068D02*
X-502569771Y-260553258D01*
X-502569771Y-260553258D02*
X-502569771Y-260667544D01*
X-502569771Y-260667544D02*
X-502607866Y-260743734D01*
X-502607866Y-260743734D02*
X-502684057Y-260781830D01*
X-502684057Y-260781830D02*
X-502722152Y-260781830D01*
X-502722152Y-260781830D02*
X-502798342Y-260743734D01*
X-502798342Y-260743734D02*
X-502836438Y-260667544D01*
X-502836438Y-260667544D02*
X-502836438Y-260553258D01*
X-502836438Y-260553258D02*
X-502798342Y-260477068D01*
X-502303104Y-259753258D02*
X-503103104Y-259753258D01*
X-502341200Y-259753258D02*
X-502303104Y-259829449D01*
X-502303104Y-259829449D02*
X-502303104Y-259981830D01*
X-502303104Y-259981830D02*
X-502341200Y-260058020D01*
X-502341200Y-260058020D02*
X-502379295Y-260096115D01*
X-502379295Y-260096115D02*
X-502455485Y-260134211D01*
X-502455485Y-260134211D02*
X-502684057Y-260134211D01*
X-502684057Y-260134211D02*
X-502760247Y-260096115D01*
X-502760247Y-260096115D02*
X-502798342Y-260058020D01*
X-502798342Y-260058020D02*
X-502836438Y-259981830D01*
X-502836438Y-259981830D02*
X-502836438Y-259829449D01*
X-502836438Y-259829449D02*
X-502798342Y-259753258D01*
X-497053104Y-256112782D02*
X-497053104Y-256493734D01*
X-497053104Y-256493734D02*
X-497853104Y-256493734D01*
X-497053104Y-255388972D02*
X-497434057Y-255655639D01*
X-497053104Y-255846115D02*
X-497853104Y-255846115D01*
X-497853104Y-255846115D02*
X-497853104Y-255541353D01*
X-497853104Y-255541353D02*
X-497815009Y-255465163D01*
X-497815009Y-255465163D02*
X-497776914Y-255427068D01*
X-497776914Y-255427068D02*
X-497700723Y-255388972D01*
X-497700723Y-255388972D02*
X-497586438Y-255388972D01*
X-497586438Y-255388972D02*
X-497510247Y-255427068D01*
X-497510247Y-255427068D02*
X-497472152Y-255465163D01*
X-497472152Y-255465163D02*
X-497434057Y-255541353D01*
X-497434057Y-255541353D02*
X-497434057Y-255846115D01*
X-500186438Y-256569925D02*
X-499653104Y-256417544D01*
X-499653104Y-256417544D02*
X-500034057Y-256265163D01*
X-500034057Y-256265163D02*
X-499653104Y-256112782D01*
X-499653104Y-256112782D02*
X-500186438Y-255960401D01*
X-499691200Y-255693735D02*
X-499653104Y-255617544D01*
X-499653104Y-255617544D02*
X-499653104Y-255465163D01*
X-499653104Y-255465163D02*
X-499691200Y-255388973D01*
X-499691200Y-255388973D02*
X-499767390Y-255350877D01*
X-499767390Y-255350877D02*
X-499805485Y-255350877D01*
X-499805485Y-255350877D02*
X-499881676Y-255388973D01*
X-499881676Y-255388973D02*
X-499919771Y-255465163D01*
X-499919771Y-255465163D02*
X-499919771Y-255579449D01*
X-499919771Y-255579449D02*
X-499957866Y-255655639D01*
X-499957866Y-255655639D02*
X-500034057Y-255693735D01*
X-500034057Y-255693735D02*
X-500072152Y-255693735D01*
X-500072152Y-255693735D02*
X-500148342Y-255655639D01*
X-500148342Y-255655639D02*
X-500186438Y-255579449D01*
X-500186438Y-255579449D02*
X-500186438Y-255465163D01*
X-500186438Y-255465163D02*
X-500148342Y-255388973D01*
X-500286438Y-260743734D02*
X-499486438Y-260743734D01*
X-500248342Y-260743734D02*
X-500286438Y-260667544D01*
X-500286438Y-260667544D02*
X-500286438Y-260515163D01*
X-500286438Y-260515163D02*
X-500248342Y-260438972D01*
X-500248342Y-260438972D02*
X-500210247Y-260400877D01*
X-500210247Y-260400877D02*
X-500134057Y-260362782D01*
X-500134057Y-260362782D02*
X-499905485Y-260362782D01*
X-499905485Y-260362782D02*
X-499829295Y-260400877D01*
X-499829295Y-260400877D02*
X-499791200Y-260438972D01*
X-499791200Y-260438972D02*
X-499753104Y-260515163D01*
X-499753104Y-260515163D02*
X-499753104Y-260667544D01*
X-499753104Y-260667544D02*
X-499791200Y-260743734D01*
X-500286438Y-260096115D02*
X-499753104Y-259943734D01*
X-499753104Y-259943734D02*
X-500134057Y-259791353D01*
X-500134057Y-259791353D02*
X-499753104Y-259638972D01*
X-499753104Y-259638972D02*
X-500286438Y-259486591D01*
X-499753104Y-259181829D02*
X-500286438Y-259181829D01*
X-500134057Y-259181829D02*
X-500210247Y-259143734D01*
X-500210247Y-259143734D02*
X-500248342Y-259105639D01*
X-500248342Y-259105639D02*
X-500286438Y-259029448D01*
X-500286438Y-259029448D02*
X-500286438Y-258953258D01*
X-497686438Y-260350877D02*
X-497038819Y-260350877D01*
X-497038819Y-260350877D02*
X-496962628Y-260388972D01*
X-496962628Y-260388972D02*
X-496924533Y-260427068D01*
X-496924533Y-260427068D02*
X-496886438Y-260503258D01*
X-496886438Y-260503258D02*
X-496886438Y-260617544D01*
X-496886438Y-260617544D02*
X-496924533Y-260693734D01*
X-497191200Y-260350877D02*
X-497153104Y-260427068D01*
X-497153104Y-260427068D02*
X-497153104Y-260579449D01*
X-497153104Y-260579449D02*
X-497191200Y-260655639D01*
X-497191200Y-260655639D02*
X-497229295Y-260693734D01*
X-497229295Y-260693734D02*
X-497305485Y-260731830D01*
X-497305485Y-260731830D02*
X-497534057Y-260731830D01*
X-497534057Y-260731830D02*
X-497610247Y-260693734D01*
X-497610247Y-260693734D02*
X-497648342Y-260655639D01*
X-497648342Y-260655639D02*
X-497686438Y-260579449D01*
X-497686438Y-260579449D02*
X-497686438Y-260427068D01*
X-497686438Y-260427068D02*
X-497648342Y-260350877D01*
X-497686438Y-259969924D02*
X-497153104Y-259969924D01*
X-497610247Y-259969924D02*
X-497648342Y-259931829D01*
X-497648342Y-259931829D02*
X-497686438Y-259855639D01*
X-497686438Y-259855639D02*
X-497686438Y-259741353D01*
X-497686438Y-259741353D02*
X-497648342Y-259665162D01*
X-497648342Y-259665162D02*
X-497572152Y-259627067D01*
X-497572152Y-259627067D02*
X-497153104Y-259627067D01*
X-497153104Y-258903257D02*
X-497953104Y-258903257D01*
X-497191200Y-258903257D02*
X-497153104Y-258979448D01*
X-497153104Y-258979448D02*
X-497153104Y-259131829D01*
X-497153104Y-259131829D02*
X-497191200Y-259208019D01*
X-497191200Y-259208019D02*
X-497229295Y-259246114D01*
X-497229295Y-259246114D02*
X-497305485Y-259284210D01*
X-497305485Y-259284210D02*
X-497534057Y-259284210D01*
X-497534057Y-259284210D02*
X-497610247Y-259246114D01*
X-497610247Y-259246114D02*
X-497648342Y-259208019D01*
X-497648342Y-259208019D02*
X-497686438Y-259131829D01*
X-497686438Y-259131829D02*
X-497686438Y-258979448D01*
X-497686438Y-258979448D02*
X-497648342Y-258903257D01*
X-413813561Y-87430074D02*
X-414346895Y-87582455D01*
X-414346895Y-87582455D02*
X-413965942Y-87734836D01*
X-413965942Y-87734836D02*
X-414346895Y-87887217D01*
X-414346895Y-87887217D02*
X-413813561Y-88039598D01*
X-414308800Y-88306264D02*
X-414346895Y-88382455D01*
X-414346895Y-88382455D02*
X-414346895Y-88534836D01*
X-414346895Y-88534836D02*
X-414308800Y-88611026D01*
X-414308800Y-88611026D02*
X-414232609Y-88649122D01*
X-414232609Y-88649122D02*
X-414194514Y-88649122D01*
X-414194514Y-88649122D02*
X-414118323Y-88611026D01*
X-414118323Y-88611026D02*
X-414080228Y-88534836D01*
X-414080228Y-88534836D02*
X-414080228Y-88420550D01*
X-414080228Y-88420550D02*
X-414042133Y-88344360D01*
X-414042133Y-88344360D02*
X-413965942Y-88306264D01*
X-413965942Y-88306264D02*
X-413927847Y-88306264D01*
X-413927847Y-88306264D02*
X-413851657Y-88344360D01*
X-413851657Y-88344360D02*
X-413813561Y-88420550D01*
X-413813561Y-88420550D02*
X-413813561Y-88534836D01*
X-413813561Y-88534836D02*
X-413851657Y-88611026D01*
X-411708800Y-87018169D02*
X-411746895Y-87094360D01*
X-411746895Y-87094360D02*
X-411746895Y-87246741D01*
X-411746895Y-87246741D02*
X-411708800Y-87322931D01*
X-411708800Y-87322931D02*
X-411632609Y-87361027D01*
X-411632609Y-87361027D02*
X-411594514Y-87361027D01*
X-411594514Y-87361027D02*
X-411518323Y-87322931D01*
X-411518323Y-87322931D02*
X-411480228Y-87246741D01*
X-411480228Y-87246741D02*
X-411480228Y-87132455D01*
X-411480228Y-87132455D02*
X-411442133Y-87056265D01*
X-411442133Y-87056265D02*
X-411365942Y-87018169D01*
X-411365942Y-87018169D02*
X-411327847Y-87018169D01*
X-411327847Y-87018169D02*
X-411251657Y-87056265D01*
X-411251657Y-87056265D02*
X-411213561Y-87132455D01*
X-411213561Y-87132455D02*
X-411213561Y-87246741D01*
X-411213561Y-87246741D02*
X-411251657Y-87322931D01*
X-411708800Y-88046741D02*
X-411746895Y-87970550D01*
X-411746895Y-87970550D02*
X-411746895Y-87818169D01*
X-411746895Y-87818169D02*
X-411708800Y-87741979D01*
X-411708800Y-87741979D02*
X-411670704Y-87703884D01*
X-411670704Y-87703884D02*
X-411594514Y-87665788D01*
X-411594514Y-87665788D02*
X-411365942Y-87665788D01*
X-411365942Y-87665788D02*
X-411289752Y-87703884D01*
X-411289752Y-87703884D02*
X-411251657Y-87741979D01*
X-411251657Y-87741979D02*
X-411213561Y-87818169D01*
X-411213561Y-87818169D02*
X-411213561Y-87970550D01*
X-411213561Y-87970550D02*
X-411251657Y-88046741D01*
X-411746895Y-88389598D02*
X-410946895Y-88389598D01*
X-411442133Y-88465788D02*
X-411746895Y-88694360D01*
X-411213561Y-88694360D02*
X-411518323Y-88389598D01*
X-416946895Y-87887217D02*
X-416946895Y-87506265D01*
X-416946895Y-87506265D02*
X-416146895Y-87506265D01*
X-416946895Y-88611027D02*
X-416565942Y-88344360D01*
X-416946895Y-88153884D02*
X-416146895Y-88153884D01*
X-416146895Y-88153884D02*
X-416146895Y-88458646D01*
X-416146895Y-88458646D02*
X-416184990Y-88534836D01*
X-416184990Y-88534836D02*
X-416223085Y-88572931D01*
X-416223085Y-88572931D02*
X-416299276Y-88611027D01*
X-416299276Y-88611027D02*
X-416413561Y-88611027D01*
X-416413561Y-88611027D02*
X-416489752Y-88572931D01*
X-416489752Y-88572931D02*
X-416527847Y-88534836D01*
X-416527847Y-88534836D02*
X-416565942Y-88458646D01*
X-416565942Y-88458646D02*
X-416565942Y-88153884D01*
X-413713561Y-83256265D02*
X-414513561Y-83256265D01*
X-413751657Y-83256265D02*
X-413713561Y-83332455D01*
X-413713561Y-83332455D02*
X-413713561Y-83484836D01*
X-413713561Y-83484836D02*
X-413751657Y-83561027D01*
X-413751657Y-83561027D02*
X-413789752Y-83599122D01*
X-413789752Y-83599122D02*
X-413865942Y-83637217D01*
X-413865942Y-83637217D02*
X-414094514Y-83637217D01*
X-414094514Y-83637217D02*
X-414170704Y-83599122D01*
X-414170704Y-83599122D02*
X-414208800Y-83561027D01*
X-414208800Y-83561027D02*
X-414246895Y-83484836D01*
X-414246895Y-83484836D02*
X-414246895Y-83332455D01*
X-414246895Y-83332455D02*
X-414208800Y-83256265D01*
X-413713561Y-83903884D02*
X-414246895Y-84056265D01*
X-414246895Y-84056265D02*
X-413865942Y-84208646D01*
X-413865942Y-84208646D02*
X-414246895Y-84361027D01*
X-414246895Y-84361027D02*
X-413713561Y-84513408D01*
X-414246895Y-84818170D02*
X-413713561Y-84818170D01*
X-413865942Y-84818170D02*
X-413789752Y-84856265D01*
X-413789752Y-84856265D02*
X-413751657Y-84894360D01*
X-413751657Y-84894360D02*
X-413713561Y-84970551D01*
X-413713561Y-84970551D02*
X-413713561Y-85046741D01*
X-411658800Y-83218169D02*
X-411696895Y-83294360D01*
X-411696895Y-83294360D02*
X-411696895Y-83446741D01*
X-411696895Y-83446741D02*
X-411658800Y-83522931D01*
X-411658800Y-83522931D02*
X-411582609Y-83561027D01*
X-411582609Y-83561027D02*
X-411544514Y-83561027D01*
X-411544514Y-83561027D02*
X-411468323Y-83522931D01*
X-411468323Y-83522931D02*
X-411430228Y-83446741D01*
X-411430228Y-83446741D02*
X-411430228Y-83332455D01*
X-411430228Y-83332455D02*
X-411392133Y-83256265D01*
X-411392133Y-83256265D02*
X-411315942Y-83218169D01*
X-411315942Y-83218169D02*
X-411277847Y-83218169D01*
X-411277847Y-83218169D02*
X-411201657Y-83256265D01*
X-411201657Y-83256265D02*
X-411163561Y-83332455D01*
X-411163561Y-83332455D02*
X-411163561Y-83446741D01*
X-411163561Y-83446741D02*
X-411201657Y-83522931D01*
X-411696895Y-84246741D02*
X-410896895Y-84246741D01*
X-411658800Y-84246741D02*
X-411696895Y-84170550D01*
X-411696895Y-84170550D02*
X-411696895Y-84018169D01*
X-411696895Y-84018169D02*
X-411658800Y-83941979D01*
X-411658800Y-83941979D02*
X-411620704Y-83903884D01*
X-411620704Y-83903884D02*
X-411544514Y-83865788D01*
X-411544514Y-83865788D02*
X-411315942Y-83865788D01*
X-411315942Y-83865788D02*
X-411239752Y-83903884D01*
X-411239752Y-83903884D02*
X-411201657Y-83941979D01*
X-411201657Y-83941979D02*
X-411163561Y-84018169D01*
X-411163561Y-84018169D02*
X-411163561Y-84170550D01*
X-411163561Y-84170550D02*
X-411201657Y-84246741D01*
X-416313561Y-83649122D02*
X-416961180Y-83649122D01*
X-416961180Y-83649122D02*
X-417037371Y-83611027D01*
X-417037371Y-83611027D02*
X-417075466Y-83572931D01*
X-417075466Y-83572931D02*
X-417113561Y-83496741D01*
X-417113561Y-83496741D02*
X-417113561Y-83382455D01*
X-417113561Y-83382455D02*
X-417075466Y-83306265D01*
X-416808800Y-83649122D02*
X-416846895Y-83572931D01*
X-416846895Y-83572931D02*
X-416846895Y-83420550D01*
X-416846895Y-83420550D02*
X-416808800Y-83344360D01*
X-416808800Y-83344360D02*
X-416770704Y-83306265D01*
X-416770704Y-83306265D02*
X-416694514Y-83268169D01*
X-416694514Y-83268169D02*
X-416465942Y-83268169D01*
X-416465942Y-83268169D02*
X-416389752Y-83306265D01*
X-416389752Y-83306265D02*
X-416351657Y-83344360D01*
X-416351657Y-83344360D02*
X-416313561Y-83420550D01*
X-416313561Y-83420550D02*
X-416313561Y-83572931D01*
X-416313561Y-83572931D02*
X-416351657Y-83649122D01*
X-416313561Y-84030075D02*
X-416846895Y-84030075D01*
X-416389752Y-84030075D02*
X-416351657Y-84068170D01*
X-416351657Y-84068170D02*
X-416313561Y-84144360D01*
X-416313561Y-84144360D02*
X-416313561Y-84258646D01*
X-416313561Y-84258646D02*
X-416351657Y-84334837D01*
X-416351657Y-84334837D02*
X-416427847Y-84372932D01*
X-416427847Y-84372932D02*
X-416846895Y-84372932D01*
X-416846895Y-85096742D02*
X-416046895Y-85096742D01*
X-416808800Y-85096742D02*
X-416846895Y-85020551D01*
X-416846895Y-85020551D02*
X-416846895Y-84868170D01*
X-416846895Y-84868170D02*
X-416808800Y-84791980D01*
X-416808800Y-84791980D02*
X-416770704Y-84753885D01*
X-416770704Y-84753885D02*
X-416694514Y-84715789D01*
X-416694514Y-84715789D02*
X-416465942Y-84715789D01*
X-416465942Y-84715789D02*
X-416389752Y-84753885D01*
X-416389752Y-84753885D02*
X-416351657Y-84791980D01*
X-416351657Y-84791980D02*
X-416313561Y-84868170D01*
X-416313561Y-84868170D02*
X-416313561Y-85020551D01*
X-416313561Y-85020551D02*
X-416351657Y-85096742D01*
X-411708800Y-173018169D02*
X-411746895Y-173094360D01*
X-411746895Y-173094360D02*
X-411746895Y-173246741D01*
X-411746895Y-173246741D02*
X-411708800Y-173322931D01*
X-411708800Y-173322931D02*
X-411632609Y-173361027D01*
X-411632609Y-173361027D02*
X-411594514Y-173361027D01*
X-411594514Y-173361027D02*
X-411518323Y-173322931D01*
X-411518323Y-173322931D02*
X-411480228Y-173246741D01*
X-411480228Y-173246741D02*
X-411480228Y-173132455D01*
X-411480228Y-173132455D02*
X-411442133Y-173056265D01*
X-411442133Y-173056265D02*
X-411365942Y-173018169D01*
X-411365942Y-173018169D02*
X-411327847Y-173018169D01*
X-411327847Y-173018169D02*
X-411251657Y-173056265D01*
X-411251657Y-173056265D02*
X-411213561Y-173132455D01*
X-411213561Y-173132455D02*
X-411213561Y-173246741D01*
X-411213561Y-173246741D02*
X-411251657Y-173322931D01*
X-411708800Y-174046741D02*
X-411746895Y-173970550D01*
X-411746895Y-173970550D02*
X-411746895Y-173818169D01*
X-411746895Y-173818169D02*
X-411708800Y-173741979D01*
X-411708800Y-173741979D02*
X-411670704Y-173703884D01*
X-411670704Y-173703884D02*
X-411594514Y-173665788D01*
X-411594514Y-173665788D02*
X-411365942Y-173665788D01*
X-411365942Y-173665788D02*
X-411289752Y-173703884D01*
X-411289752Y-173703884D02*
X-411251657Y-173741979D01*
X-411251657Y-173741979D02*
X-411213561Y-173818169D01*
X-411213561Y-173818169D02*
X-411213561Y-173970550D01*
X-411213561Y-173970550D02*
X-411251657Y-174046741D01*
X-411746895Y-174389598D02*
X-410946895Y-174389598D01*
X-411442133Y-174465788D02*
X-411746895Y-174694360D01*
X-411213561Y-174694360D02*
X-411518323Y-174389598D01*
X-411658800Y-169218169D02*
X-411696895Y-169294360D01*
X-411696895Y-169294360D02*
X-411696895Y-169446741D01*
X-411696895Y-169446741D02*
X-411658800Y-169522931D01*
X-411658800Y-169522931D02*
X-411582609Y-169561027D01*
X-411582609Y-169561027D02*
X-411544514Y-169561027D01*
X-411544514Y-169561027D02*
X-411468323Y-169522931D01*
X-411468323Y-169522931D02*
X-411430228Y-169446741D01*
X-411430228Y-169446741D02*
X-411430228Y-169332455D01*
X-411430228Y-169332455D02*
X-411392133Y-169256265D01*
X-411392133Y-169256265D02*
X-411315942Y-169218169D01*
X-411315942Y-169218169D02*
X-411277847Y-169218169D01*
X-411277847Y-169218169D02*
X-411201657Y-169256265D01*
X-411201657Y-169256265D02*
X-411163561Y-169332455D01*
X-411163561Y-169332455D02*
X-411163561Y-169446741D01*
X-411163561Y-169446741D02*
X-411201657Y-169522931D01*
X-411696895Y-170246741D02*
X-410896895Y-170246741D01*
X-411658800Y-170246741D02*
X-411696895Y-170170550D01*
X-411696895Y-170170550D02*
X-411696895Y-170018169D01*
X-411696895Y-170018169D02*
X-411658800Y-169941979D01*
X-411658800Y-169941979D02*
X-411620704Y-169903884D01*
X-411620704Y-169903884D02*
X-411544514Y-169865788D01*
X-411544514Y-169865788D02*
X-411315942Y-169865788D01*
X-411315942Y-169865788D02*
X-411239752Y-169903884D01*
X-411239752Y-169903884D02*
X-411201657Y-169941979D01*
X-411201657Y-169941979D02*
X-411163561Y-170018169D01*
X-411163561Y-170018169D02*
X-411163561Y-170170550D01*
X-411163561Y-170170550D02*
X-411201657Y-170246741D01*
X-416313561Y-169649122D02*
X-416961180Y-169649122D01*
X-416961180Y-169649122D02*
X-417037371Y-169611027D01*
X-417037371Y-169611027D02*
X-417075466Y-169572931D01*
X-417075466Y-169572931D02*
X-417113561Y-169496741D01*
X-417113561Y-169496741D02*
X-417113561Y-169382455D01*
X-417113561Y-169382455D02*
X-417075466Y-169306265D01*
X-416808800Y-169649122D02*
X-416846895Y-169572931D01*
X-416846895Y-169572931D02*
X-416846895Y-169420550D01*
X-416846895Y-169420550D02*
X-416808800Y-169344360D01*
X-416808800Y-169344360D02*
X-416770704Y-169306265D01*
X-416770704Y-169306265D02*
X-416694514Y-169268169D01*
X-416694514Y-169268169D02*
X-416465942Y-169268169D01*
X-416465942Y-169268169D02*
X-416389752Y-169306265D01*
X-416389752Y-169306265D02*
X-416351657Y-169344360D01*
X-416351657Y-169344360D02*
X-416313561Y-169420550D01*
X-416313561Y-169420550D02*
X-416313561Y-169572931D01*
X-416313561Y-169572931D02*
X-416351657Y-169649122D01*
X-416313561Y-170030075D02*
X-416846895Y-170030075D01*
X-416389752Y-170030075D02*
X-416351657Y-170068170D01*
X-416351657Y-170068170D02*
X-416313561Y-170144360D01*
X-416313561Y-170144360D02*
X-416313561Y-170258646D01*
X-416313561Y-170258646D02*
X-416351657Y-170334837D01*
X-416351657Y-170334837D02*
X-416427847Y-170372932D01*
X-416427847Y-170372932D02*
X-416846895Y-170372932D01*
X-416846895Y-171096742D02*
X-416046895Y-171096742D01*
X-416808800Y-171096742D02*
X-416846895Y-171020551D01*
X-416846895Y-171020551D02*
X-416846895Y-170868170D01*
X-416846895Y-170868170D02*
X-416808800Y-170791980D01*
X-416808800Y-170791980D02*
X-416770704Y-170753885D01*
X-416770704Y-170753885D02*
X-416694514Y-170715789D01*
X-416694514Y-170715789D02*
X-416465942Y-170715789D01*
X-416465942Y-170715789D02*
X-416389752Y-170753885D01*
X-416389752Y-170753885D02*
X-416351657Y-170791980D01*
X-416351657Y-170791980D02*
X-416313561Y-170868170D01*
X-416313561Y-170868170D02*
X-416313561Y-171020551D01*
X-416313561Y-171020551D02*
X-416351657Y-171096742D01*
X-413813561Y-173430074D02*
X-414346895Y-173582455D01*
X-414346895Y-173582455D02*
X-413965942Y-173734836D01*
X-413965942Y-173734836D02*
X-414346895Y-173887217D01*
X-414346895Y-173887217D02*
X-413813561Y-174039598D01*
X-414308800Y-174306264D02*
X-414346895Y-174382455D01*
X-414346895Y-174382455D02*
X-414346895Y-174534836D01*
X-414346895Y-174534836D02*
X-414308800Y-174611026D01*
X-414308800Y-174611026D02*
X-414232609Y-174649122D01*
X-414232609Y-174649122D02*
X-414194514Y-174649122D01*
X-414194514Y-174649122D02*
X-414118323Y-174611026D01*
X-414118323Y-174611026D02*
X-414080228Y-174534836D01*
X-414080228Y-174534836D02*
X-414080228Y-174420550D01*
X-414080228Y-174420550D02*
X-414042133Y-174344360D01*
X-414042133Y-174344360D02*
X-413965942Y-174306264D01*
X-413965942Y-174306264D02*
X-413927847Y-174306264D01*
X-413927847Y-174306264D02*
X-413851657Y-174344360D01*
X-413851657Y-174344360D02*
X-413813561Y-174420550D01*
X-413813561Y-174420550D02*
X-413813561Y-174534836D01*
X-413813561Y-174534836D02*
X-413851657Y-174611026D01*
X-413713561Y-169256265D02*
X-414513561Y-169256265D01*
X-413751657Y-169256265D02*
X-413713561Y-169332455D01*
X-413713561Y-169332455D02*
X-413713561Y-169484836D01*
X-413713561Y-169484836D02*
X-413751657Y-169561027D01*
X-413751657Y-169561027D02*
X-413789752Y-169599122D01*
X-413789752Y-169599122D02*
X-413865942Y-169637217D01*
X-413865942Y-169637217D02*
X-414094514Y-169637217D01*
X-414094514Y-169637217D02*
X-414170704Y-169599122D01*
X-414170704Y-169599122D02*
X-414208800Y-169561027D01*
X-414208800Y-169561027D02*
X-414246895Y-169484836D01*
X-414246895Y-169484836D02*
X-414246895Y-169332455D01*
X-414246895Y-169332455D02*
X-414208800Y-169256265D01*
X-413713561Y-169903884D02*
X-414246895Y-170056265D01*
X-414246895Y-170056265D02*
X-413865942Y-170208646D01*
X-413865942Y-170208646D02*
X-414246895Y-170361027D01*
X-414246895Y-170361027D02*
X-413713561Y-170513408D01*
X-414246895Y-170818170D02*
X-413713561Y-170818170D01*
X-413865942Y-170818170D02*
X-413789752Y-170856265D01*
X-413789752Y-170856265D02*
X-413751657Y-170894360D01*
X-413751657Y-170894360D02*
X-413713561Y-170970551D01*
X-413713561Y-170970551D02*
X-413713561Y-171046741D01*
X-416946895Y-173887217D02*
X-416946895Y-173506265D01*
X-416946895Y-173506265D02*
X-416146895Y-173506265D01*
X-416946895Y-174611027D02*
X-416565942Y-174344360D01*
X-416946895Y-174153884D02*
X-416146895Y-174153884D01*
X-416146895Y-174153884D02*
X-416146895Y-174458646D01*
X-416146895Y-174458646D02*
X-416184990Y-174534836D01*
X-416184990Y-174534836D02*
X-416223085Y-174572931D01*
X-416223085Y-174572931D02*
X-416299276Y-174611027D01*
X-416299276Y-174611027D02*
X-416413561Y-174611027D01*
X-416413561Y-174611027D02*
X-416489752Y-174572931D01*
X-416489752Y-174572931D02*
X-416527847Y-174534836D01*
X-416527847Y-174534836D02*
X-416565942Y-174458646D01*
X-416565942Y-174458646D02*
X-416565942Y-174153884D01*
X-411658800Y-255218169D02*
X-411696895Y-255294360D01*
X-411696895Y-255294360D02*
X-411696895Y-255446741D01*
X-411696895Y-255446741D02*
X-411658800Y-255522931D01*
X-411658800Y-255522931D02*
X-411582609Y-255561027D01*
X-411582609Y-255561027D02*
X-411544514Y-255561027D01*
X-411544514Y-255561027D02*
X-411468323Y-255522931D01*
X-411468323Y-255522931D02*
X-411430228Y-255446741D01*
X-411430228Y-255446741D02*
X-411430228Y-255332455D01*
X-411430228Y-255332455D02*
X-411392133Y-255256265D01*
X-411392133Y-255256265D02*
X-411315942Y-255218169D01*
X-411315942Y-255218169D02*
X-411277847Y-255218169D01*
X-411277847Y-255218169D02*
X-411201657Y-255256265D01*
X-411201657Y-255256265D02*
X-411163561Y-255332455D01*
X-411163561Y-255332455D02*
X-411163561Y-255446741D01*
X-411163561Y-255446741D02*
X-411201657Y-255522931D01*
X-411696895Y-256246741D02*
X-410896895Y-256246741D01*
X-411658800Y-256246741D02*
X-411696895Y-256170550D01*
X-411696895Y-256170550D02*
X-411696895Y-256018169D01*
X-411696895Y-256018169D02*
X-411658800Y-255941979D01*
X-411658800Y-255941979D02*
X-411620704Y-255903884D01*
X-411620704Y-255903884D02*
X-411544514Y-255865788D01*
X-411544514Y-255865788D02*
X-411315942Y-255865788D01*
X-411315942Y-255865788D02*
X-411239752Y-255903884D01*
X-411239752Y-255903884D02*
X-411201657Y-255941979D01*
X-411201657Y-255941979D02*
X-411163561Y-256018169D01*
X-411163561Y-256018169D02*
X-411163561Y-256170550D01*
X-411163561Y-256170550D02*
X-411201657Y-256246741D01*
X-413813561Y-259430074D02*
X-414346895Y-259582455D01*
X-414346895Y-259582455D02*
X-413965942Y-259734836D01*
X-413965942Y-259734836D02*
X-414346895Y-259887217D01*
X-414346895Y-259887217D02*
X-413813561Y-260039598D01*
X-414308800Y-260306264D02*
X-414346895Y-260382455D01*
X-414346895Y-260382455D02*
X-414346895Y-260534836D01*
X-414346895Y-260534836D02*
X-414308800Y-260611026D01*
X-414308800Y-260611026D02*
X-414232609Y-260649122D01*
X-414232609Y-260649122D02*
X-414194514Y-260649122D01*
X-414194514Y-260649122D02*
X-414118323Y-260611026D01*
X-414118323Y-260611026D02*
X-414080228Y-260534836D01*
X-414080228Y-260534836D02*
X-414080228Y-260420550D01*
X-414080228Y-260420550D02*
X-414042133Y-260344360D01*
X-414042133Y-260344360D02*
X-413965942Y-260306264D01*
X-413965942Y-260306264D02*
X-413927847Y-260306264D01*
X-413927847Y-260306264D02*
X-413851657Y-260344360D01*
X-413851657Y-260344360D02*
X-413813561Y-260420550D01*
X-413813561Y-260420550D02*
X-413813561Y-260534836D01*
X-413813561Y-260534836D02*
X-413851657Y-260611026D01*
X-411708800Y-259018169D02*
X-411746895Y-259094360D01*
X-411746895Y-259094360D02*
X-411746895Y-259246741D01*
X-411746895Y-259246741D02*
X-411708800Y-259322931D01*
X-411708800Y-259322931D02*
X-411632609Y-259361027D01*
X-411632609Y-259361027D02*
X-411594514Y-259361027D01*
X-411594514Y-259361027D02*
X-411518323Y-259322931D01*
X-411518323Y-259322931D02*
X-411480228Y-259246741D01*
X-411480228Y-259246741D02*
X-411480228Y-259132455D01*
X-411480228Y-259132455D02*
X-411442133Y-259056265D01*
X-411442133Y-259056265D02*
X-411365942Y-259018169D01*
X-411365942Y-259018169D02*
X-411327847Y-259018169D01*
X-411327847Y-259018169D02*
X-411251657Y-259056265D01*
X-411251657Y-259056265D02*
X-411213561Y-259132455D01*
X-411213561Y-259132455D02*
X-411213561Y-259246741D01*
X-411213561Y-259246741D02*
X-411251657Y-259322931D01*
X-411708800Y-260046741D02*
X-411746895Y-259970550D01*
X-411746895Y-259970550D02*
X-411746895Y-259818169D01*
X-411746895Y-259818169D02*
X-411708800Y-259741979D01*
X-411708800Y-259741979D02*
X-411670704Y-259703884D01*
X-411670704Y-259703884D02*
X-411594514Y-259665788D01*
X-411594514Y-259665788D02*
X-411365942Y-259665788D01*
X-411365942Y-259665788D02*
X-411289752Y-259703884D01*
X-411289752Y-259703884D02*
X-411251657Y-259741979D01*
X-411251657Y-259741979D02*
X-411213561Y-259818169D01*
X-411213561Y-259818169D02*
X-411213561Y-259970550D01*
X-411213561Y-259970550D02*
X-411251657Y-260046741D01*
X-411746895Y-260389598D02*
X-410946895Y-260389598D01*
X-411442133Y-260465788D02*
X-411746895Y-260694360D01*
X-411213561Y-260694360D02*
X-411518323Y-260389598D01*
X-416313561Y-255649122D02*
X-416961180Y-255649122D01*
X-416961180Y-255649122D02*
X-417037371Y-255611027D01*
X-417037371Y-255611027D02*
X-417075466Y-255572931D01*
X-417075466Y-255572931D02*
X-417113561Y-255496741D01*
X-417113561Y-255496741D02*
X-417113561Y-255382455D01*
X-417113561Y-255382455D02*
X-417075466Y-255306265D01*
X-416808800Y-255649122D02*
X-416846895Y-255572931D01*
X-416846895Y-255572931D02*
X-416846895Y-255420550D01*
X-416846895Y-255420550D02*
X-416808800Y-255344360D01*
X-416808800Y-255344360D02*
X-416770704Y-255306265D01*
X-416770704Y-255306265D02*
X-416694514Y-255268169D01*
X-416694514Y-255268169D02*
X-416465942Y-255268169D01*
X-416465942Y-255268169D02*
X-416389752Y-255306265D01*
X-416389752Y-255306265D02*
X-416351657Y-255344360D01*
X-416351657Y-255344360D02*
X-416313561Y-255420550D01*
X-416313561Y-255420550D02*
X-416313561Y-255572931D01*
X-416313561Y-255572931D02*
X-416351657Y-255649122D01*
X-416313561Y-256030075D02*
X-416846895Y-256030075D01*
X-416389752Y-256030075D02*
X-416351657Y-256068170D01*
X-416351657Y-256068170D02*
X-416313561Y-256144360D01*
X-416313561Y-256144360D02*
X-416313561Y-256258646D01*
X-416313561Y-256258646D02*
X-416351657Y-256334837D01*
X-416351657Y-256334837D02*
X-416427847Y-256372932D01*
X-416427847Y-256372932D02*
X-416846895Y-256372932D01*
X-416846895Y-257096742D02*
X-416046895Y-257096742D01*
X-416808800Y-257096742D02*
X-416846895Y-257020551D01*
X-416846895Y-257020551D02*
X-416846895Y-256868170D01*
X-416846895Y-256868170D02*
X-416808800Y-256791980D01*
X-416808800Y-256791980D02*
X-416770704Y-256753885D01*
X-416770704Y-256753885D02*
X-416694514Y-256715789D01*
X-416694514Y-256715789D02*
X-416465942Y-256715789D01*
X-416465942Y-256715789D02*
X-416389752Y-256753885D01*
X-416389752Y-256753885D02*
X-416351657Y-256791980D01*
X-416351657Y-256791980D02*
X-416313561Y-256868170D01*
X-416313561Y-256868170D02*
X-416313561Y-257020551D01*
X-416313561Y-257020551D02*
X-416351657Y-257096742D01*
X-416946895Y-259887217D02*
X-416946895Y-259506265D01*
X-416946895Y-259506265D02*
X-416146895Y-259506265D01*
X-416946895Y-260611027D02*
X-416565942Y-260344360D01*
X-416946895Y-260153884D02*
X-416146895Y-260153884D01*
X-416146895Y-260153884D02*
X-416146895Y-260458646D01*
X-416146895Y-260458646D02*
X-416184990Y-260534836D01*
X-416184990Y-260534836D02*
X-416223085Y-260572931D01*
X-416223085Y-260572931D02*
X-416299276Y-260611027D01*
X-416299276Y-260611027D02*
X-416413561Y-260611027D01*
X-416413561Y-260611027D02*
X-416489752Y-260572931D01*
X-416489752Y-260572931D02*
X-416527847Y-260534836D01*
X-416527847Y-260534836D02*
X-416565942Y-260458646D01*
X-416565942Y-260458646D02*
X-416565942Y-260153884D01*
X-411708800Y-1018169D02*
X-411746895Y-1094360D01*
X-411746895Y-1094360D02*
X-411746895Y-1246741D01*
X-411746895Y-1246741D02*
X-411708800Y-1322931D01*
X-411708800Y-1322931D02*
X-411632609Y-1361027D01*
X-411632609Y-1361027D02*
X-411594514Y-1361027D01*
X-411594514Y-1361027D02*
X-411518323Y-1322931D01*
X-411518323Y-1322931D02*
X-411480228Y-1246741D01*
X-411480228Y-1246741D02*
X-411480228Y-1132455D01*
X-411480228Y-1132455D02*
X-411442133Y-1056265D01*
X-411442133Y-1056265D02*
X-411365942Y-1018169D01*
X-411365942Y-1018169D02*
X-411327847Y-1018169D01*
X-411327847Y-1018169D02*
X-411251657Y-1056265D01*
X-411251657Y-1056265D02*
X-411213561Y-1132455D01*
X-411213561Y-1132455D02*
X-411213561Y-1246741D01*
X-411213561Y-1246741D02*
X-411251657Y-1322931D01*
X-411708800Y-2046741D02*
X-411746895Y-1970550D01*
X-411746895Y-1970550D02*
X-411746895Y-1818169D01*
X-411746895Y-1818169D02*
X-411708800Y-1741979D01*
X-411708800Y-1741979D02*
X-411670704Y-1703884D01*
X-411670704Y-1703884D02*
X-411594514Y-1665788D01*
X-411594514Y-1665788D02*
X-411365942Y-1665788D01*
X-411365942Y-1665788D02*
X-411289752Y-1703884D01*
X-411289752Y-1703884D02*
X-411251657Y-1741979D01*
X-411251657Y-1741979D02*
X-411213561Y-1818169D01*
X-411213561Y-1818169D02*
X-411213561Y-1970550D01*
X-411213561Y-1970550D02*
X-411251657Y-2046741D01*
X-411746895Y-2389598D02*
X-410946895Y-2389598D01*
X-411442133Y-2465788D02*
X-411746895Y-2694360D01*
X-411213561Y-2694360D02*
X-411518323Y-2389598D01*
X-413713561Y2743734D02*
X-414513561Y2743734D01*
X-413751657Y2743734D02*
X-413713561Y2667544D01*
X-413713561Y2667544D02*
X-413713561Y2515163D01*
X-413713561Y2515163D02*
X-413751657Y2438972D01*
X-413751657Y2438972D02*
X-413789752Y2400877D01*
X-413789752Y2400877D02*
X-413865942Y2362782D01*
X-413865942Y2362782D02*
X-414094514Y2362782D01*
X-414094514Y2362782D02*
X-414170704Y2400877D01*
X-414170704Y2400877D02*
X-414208800Y2438972D01*
X-414208800Y2438972D02*
X-414246895Y2515163D01*
X-414246895Y2515163D02*
X-414246895Y2667544D01*
X-414246895Y2667544D02*
X-414208800Y2743734D01*
X-413713561Y2096115D02*
X-414246895Y1943734D01*
X-414246895Y1943734D02*
X-413865942Y1791353D01*
X-413865942Y1791353D02*
X-414246895Y1638972D01*
X-414246895Y1638972D02*
X-413713561Y1486591D01*
X-414246895Y1181829D02*
X-413713561Y1181829D01*
X-413865942Y1181829D02*
X-413789752Y1143734D01*
X-413789752Y1143734D02*
X-413751657Y1105639D01*
X-413751657Y1105639D02*
X-413713561Y1029448D01*
X-413713561Y1029448D02*
X-413713561Y953258D01*
X-411658800Y2781830D02*
X-411696895Y2705639D01*
X-411696895Y2705639D02*
X-411696895Y2553258D01*
X-411696895Y2553258D02*
X-411658800Y2477068D01*
X-411658800Y2477068D02*
X-411582609Y2438972D01*
X-411582609Y2438972D02*
X-411544514Y2438972D01*
X-411544514Y2438972D02*
X-411468323Y2477068D01*
X-411468323Y2477068D02*
X-411430228Y2553258D01*
X-411430228Y2553258D02*
X-411430228Y2667544D01*
X-411430228Y2667544D02*
X-411392133Y2743734D01*
X-411392133Y2743734D02*
X-411315942Y2781830D01*
X-411315942Y2781830D02*
X-411277847Y2781830D01*
X-411277847Y2781830D02*
X-411201657Y2743734D01*
X-411201657Y2743734D02*
X-411163561Y2667544D01*
X-411163561Y2667544D02*
X-411163561Y2553258D01*
X-411163561Y2553258D02*
X-411201657Y2477068D01*
X-411696895Y1753258D02*
X-410896895Y1753258D01*
X-411658800Y1753258D02*
X-411696895Y1829449D01*
X-411696895Y1829449D02*
X-411696895Y1981830D01*
X-411696895Y1981830D02*
X-411658800Y2058020D01*
X-411658800Y2058020D02*
X-411620704Y2096115D01*
X-411620704Y2096115D02*
X-411544514Y2134211D01*
X-411544514Y2134211D02*
X-411315942Y2134211D01*
X-411315942Y2134211D02*
X-411239752Y2096115D01*
X-411239752Y2096115D02*
X-411201657Y2058020D01*
X-411201657Y2058020D02*
X-411163561Y1981830D01*
X-411163561Y1981830D02*
X-411163561Y1829449D01*
X-411163561Y1829449D02*
X-411201657Y1753258D01*
X-416313561Y2350877D02*
X-416961180Y2350877D01*
X-416961180Y2350877D02*
X-417037371Y2388972D01*
X-417037371Y2388972D02*
X-417075466Y2427068D01*
X-417075466Y2427068D02*
X-417113561Y2503258D01*
X-417113561Y2503258D02*
X-417113561Y2617544D01*
X-417113561Y2617544D02*
X-417075466Y2693734D01*
X-416808800Y2350877D02*
X-416846895Y2427068D01*
X-416846895Y2427068D02*
X-416846895Y2579449D01*
X-416846895Y2579449D02*
X-416808800Y2655639D01*
X-416808800Y2655639D02*
X-416770704Y2693734D01*
X-416770704Y2693734D02*
X-416694514Y2731830D01*
X-416694514Y2731830D02*
X-416465942Y2731830D01*
X-416465942Y2731830D02*
X-416389752Y2693734D01*
X-416389752Y2693734D02*
X-416351657Y2655639D01*
X-416351657Y2655639D02*
X-416313561Y2579449D01*
X-416313561Y2579449D02*
X-416313561Y2427068D01*
X-416313561Y2427068D02*
X-416351657Y2350877D01*
X-416313561Y1969924D02*
X-416846895Y1969924D01*
X-416389752Y1969924D02*
X-416351657Y1931829D01*
X-416351657Y1931829D02*
X-416313561Y1855639D01*
X-416313561Y1855639D02*
X-416313561Y1741353D01*
X-416313561Y1741353D02*
X-416351657Y1665162D01*
X-416351657Y1665162D02*
X-416427847Y1627067D01*
X-416427847Y1627067D02*
X-416846895Y1627067D01*
X-416846895Y903257D02*
X-416046895Y903257D01*
X-416808800Y903257D02*
X-416846895Y979448D01*
X-416846895Y979448D02*
X-416846895Y1131829D01*
X-416846895Y1131829D02*
X-416808800Y1208019D01*
X-416808800Y1208019D02*
X-416770704Y1246114D01*
X-416770704Y1246114D02*
X-416694514Y1284210D01*
X-416694514Y1284210D02*
X-416465942Y1284210D01*
X-416465942Y1284210D02*
X-416389752Y1246114D01*
X-416389752Y1246114D02*
X-416351657Y1208019D01*
X-416351657Y1208019D02*
X-416313561Y1131829D01*
X-416313561Y1131829D02*
X-416313561Y979448D01*
X-416313561Y979448D02*
X-416351657Y903257D01*
X-413813561Y-1430074D02*
X-414346895Y-1582455D01*
X-414346895Y-1582455D02*
X-413965942Y-1734836D01*
X-413965942Y-1734836D02*
X-414346895Y-1887217D01*
X-414346895Y-1887217D02*
X-413813561Y-2039598D01*
X-414308800Y-2306264D02*
X-414346895Y-2382455D01*
X-414346895Y-2382455D02*
X-414346895Y-2534836D01*
X-414346895Y-2534836D02*
X-414308800Y-2611026D01*
X-414308800Y-2611026D02*
X-414232609Y-2649122D01*
X-414232609Y-2649122D02*
X-414194514Y-2649122D01*
X-414194514Y-2649122D02*
X-414118323Y-2611026D01*
X-414118323Y-2611026D02*
X-414080228Y-2534836D01*
X-414080228Y-2534836D02*
X-414080228Y-2420550D01*
X-414080228Y-2420550D02*
X-414042133Y-2344360D01*
X-414042133Y-2344360D02*
X-413965942Y-2306264D01*
X-413965942Y-2306264D02*
X-413927847Y-2306264D01*
X-413927847Y-2306264D02*
X-413851657Y-2344360D01*
X-413851657Y-2344360D02*
X-413813561Y-2420550D01*
X-413813561Y-2420550D02*
X-413813561Y-2534836D01*
X-413813561Y-2534836D02*
X-413851657Y-2611026D01*
X-416946895Y-1887217D02*
X-416946895Y-1506265D01*
X-416946895Y-1506265D02*
X-416146895Y-1506265D01*
X-416946895Y-2611027D02*
X-416565942Y-2344360D01*
X-416946895Y-2153884D02*
X-416146895Y-2153884D01*
X-416146895Y-2153884D02*
X-416146895Y-2458646D01*
X-416146895Y-2458646D02*
X-416184990Y-2534836D01*
X-416184990Y-2534836D02*
X-416223085Y-2572931D01*
X-416223085Y-2572931D02*
X-416299276Y-2611027D01*
X-416299276Y-2611027D02*
X-416413561Y-2611027D01*
X-416413561Y-2611027D02*
X-416489752Y-2572931D01*
X-416489752Y-2572931D02*
X-416527847Y-2534836D01*
X-416527847Y-2534836D02*
X-416565942Y-2458646D01*
X-416565942Y-2458646D02*
X-416565942Y-2153884D01*
X-502291200Y-170981830D02*
X-502253104Y-170905639D01*
X-502253104Y-170905639D02*
X-502253104Y-170753258D01*
X-502253104Y-170753258D02*
X-502291200Y-170677068D01*
X-502291200Y-170677068D02*
X-502367390Y-170638972D01*
X-502367390Y-170638972D02*
X-502405485Y-170638972D01*
X-502405485Y-170638972D02*
X-502481676Y-170677068D01*
X-502481676Y-170677068D02*
X-502519771Y-170753258D01*
X-502519771Y-170753258D02*
X-502519771Y-170867544D01*
X-502519771Y-170867544D02*
X-502557866Y-170943734D01*
X-502557866Y-170943734D02*
X-502634057Y-170981830D01*
X-502634057Y-170981830D02*
X-502672152Y-170981830D01*
X-502672152Y-170981830D02*
X-502748342Y-170943734D01*
X-502748342Y-170943734D02*
X-502786438Y-170867544D01*
X-502786438Y-170867544D02*
X-502786438Y-170753258D01*
X-502786438Y-170753258D02*
X-502748342Y-170677068D01*
X-502291200Y-169953258D02*
X-502253104Y-170029449D01*
X-502253104Y-170029449D02*
X-502253104Y-170181830D01*
X-502253104Y-170181830D02*
X-502291200Y-170258020D01*
X-502291200Y-170258020D02*
X-502329295Y-170296115D01*
X-502329295Y-170296115D02*
X-502405485Y-170334211D01*
X-502405485Y-170334211D02*
X-502634057Y-170334211D01*
X-502634057Y-170334211D02*
X-502710247Y-170296115D01*
X-502710247Y-170296115D02*
X-502748342Y-170258020D01*
X-502748342Y-170258020D02*
X-502786438Y-170181830D01*
X-502786438Y-170181830D02*
X-502786438Y-170029449D01*
X-502786438Y-170029449D02*
X-502748342Y-169953258D01*
X-502253104Y-169610401D02*
X-503053104Y-169610401D01*
X-502557866Y-169534211D02*
X-502253104Y-169305639D01*
X-502786438Y-169305639D02*
X-502481676Y-169610401D01*
X-502341200Y-174781830D02*
X-502303104Y-174705639D01*
X-502303104Y-174705639D02*
X-502303104Y-174553258D01*
X-502303104Y-174553258D02*
X-502341200Y-174477068D01*
X-502341200Y-174477068D02*
X-502417390Y-174438972D01*
X-502417390Y-174438972D02*
X-502455485Y-174438972D01*
X-502455485Y-174438972D02*
X-502531676Y-174477068D01*
X-502531676Y-174477068D02*
X-502569771Y-174553258D01*
X-502569771Y-174553258D02*
X-502569771Y-174667544D01*
X-502569771Y-174667544D02*
X-502607866Y-174743734D01*
X-502607866Y-174743734D02*
X-502684057Y-174781830D01*
X-502684057Y-174781830D02*
X-502722152Y-174781830D01*
X-502722152Y-174781830D02*
X-502798342Y-174743734D01*
X-502798342Y-174743734D02*
X-502836438Y-174667544D01*
X-502836438Y-174667544D02*
X-502836438Y-174553258D01*
X-502836438Y-174553258D02*
X-502798342Y-174477068D01*
X-502303104Y-173753258D02*
X-503103104Y-173753258D01*
X-502341200Y-173753258D02*
X-502303104Y-173829449D01*
X-502303104Y-173829449D02*
X-502303104Y-173981830D01*
X-502303104Y-173981830D02*
X-502341200Y-174058020D01*
X-502341200Y-174058020D02*
X-502379295Y-174096115D01*
X-502379295Y-174096115D02*
X-502455485Y-174134211D01*
X-502455485Y-174134211D02*
X-502684057Y-174134211D01*
X-502684057Y-174134211D02*
X-502760247Y-174096115D01*
X-502760247Y-174096115D02*
X-502798342Y-174058020D01*
X-502798342Y-174058020D02*
X-502836438Y-173981830D01*
X-502836438Y-173981830D02*
X-502836438Y-173829449D01*
X-502836438Y-173829449D02*
X-502798342Y-173753258D01*
X-500186438Y-170569925D02*
X-499653104Y-170417544D01*
X-499653104Y-170417544D02*
X-500034057Y-170265163D01*
X-500034057Y-170265163D02*
X-499653104Y-170112782D01*
X-499653104Y-170112782D02*
X-500186438Y-169960401D01*
X-499691200Y-169693735D02*
X-499653104Y-169617544D01*
X-499653104Y-169617544D02*
X-499653104Y-169465163D01*
X-499653104Y-169465163D02*
X-499691200Y-169388973D01*
X-499691200Y-169388973D02*
X-499767390Y-169350877D01*
X-499767390Y-169350877D02*
X-499805485Y-169350877D01*
X-499805485Y-169350877D02*
X-499881676Y-169388973D01*
X-499881676Y-169388973D02*
X-499919771Y-169465163D01*
X-499919771Y-169465163D02*
X-499919771Y-169579449D01*
X-499919771Y-169579449D02*
X-499957866Y-169655639D01*
X-499957866Y-169655639D02*
X-500034057Y-169693735D01*
X-500034057Y-169693735D02*
X-500072152Y-169693735D01*
X-500072152Y-169693735D02*
X-500148342Y-169655639D01*
X-500148342Y-169655639D02*
X-500186438Y-169579449D01*
X-500186438Y-169579449D02*
X-500186438Y-169465163D01*
X-500186438Y-169465163D02*
X-500148342Y-169388973D01*
X-500286438Y-174743734D02*
X-499486438Y-174743734D01*
X-500248342Y-174743734D02*
X-500286438Y-174667544D01*
X-500286438Y-174667544D02*
X-500286438Y-174515163D01*
X-500286438Y-174515163D02*
X-500248342Y-174438972D01*
X-500248342Y-174438972D02*
X-500210247Y-174400877D01*
X-500210247Y-174400877D02*
X-500134057Y-174362782D01*
X-500134057Y-174362782D02*
X-499905485Y-174362782D01*
X-499905485Y-174362782D02*
X-499829295Y-174400877D01*
X-499829295Y-174400877D02*
X-499791200Y-174438972D01*
X-499791200Y-174438972D02*
X-499753104Y-174515163D01*
X-499753104Y-174515163D02*
X-499753104Y-174667544D01*
X-499753104Y-174667544D02*
X-499791200Y-174743734D01*
X-500286438Y-174096115D02*
X-499753104Y-173943734D01*
X-499753104Y-173943734D02*
X-500134057Y-173791353D01*
X-500134057Y-173791353D02*
X-499753104Y-173638972D01*
X-499753104Y-173638972D02*
X-500286438Y-173486591D01*
X-499753104Y-173181829D02*
X-500286438Y-173181829D01*
X-500134057Y-173181829D02*
X-500210247Y-173143734D01*
X-500210247Y-173143734D02*
X-500248342Y-173105639D01*
X-500248342Y-173105639D02*
X-500286438Y-173029448D01*
X-500286438Y-173029448D02*
X-500286438Y-172953258D01*
X-497053104Y-170112782D02*
X-497053104Y-170493734D01*
X-497053104Y-170493734D02*
X-497853104Y-170493734D01*
X-497053104Y-169388972D02*
X-497434057Y-169655639D01*
X-497053104Y-169846115D02*
X-497853104Y-169846115D01*
X-497853104Y-169846115D02*
X-497853104Y-169541353D01*
X-497853104Y-169541353D02*
X-497815009Y-169465163D01*
X-497815009Y-169465163D02*
X-497776914Y-169427068D01*
X-497776914Y-169427068D02*
X-497700723Y-169388972D01*
X-497700723Y-169388972D02*
X-497586438Y-169388972D01*
X-497586438Y-169388972D02*
X-497510247Y-169427068D01*
X-497510247Y-169427068D02*
X-497472152Y-169465163D01*
X-497472152Y-169465163D02*
X-497434057Y-169541353D01*
X-497434057Y-169541353D02*
X-497434057Y-169846115D01*
X-497686438Y-174350877D02*
X-497038819Y-174350877D01*
X-497038819Y-174350877D02*
X-496962628Y-174388972D01*
X-496962628Y-174388972D02*
X-496924533Y-174427068D01*
X-496924533Y-174427068D02*
X-496886438Y-174503258D01*
X-496886438Y-174503258D02*
X-496886438Y-174617544D01*
X-496886438Y-174617544D02*
X-496924533Y-174693734D01*
X-497191200Y-174350877D02*
X-497153104Y-174427068D01*
X-497153104Y-174427068D02*
X-497153104Y-174579449D01*
X-497153104Y-174579449D02*
X-497191200Y-174655639D01*
X-497191200Y-174655639D02*
X-497229295Y-174693734D01*
X-497229295Y-174693734D02*
X-497305485Y-174731830D01*
X-497305485Y-174731830D02*
X-497534057Y-174731830D01*
X-497534057Y-174731830D02*
X-497610247Y-174693734D01*
X-497610247Y-174693734D02*
X-497648342Y-174655639D01*
X-497648342Y-174655639D02*
X-497686438Y-174579449D01*
X-497686438Y-174579449D02*
X-497686438Y-174427068D01*
X-497686438Y-174427068D02*
X-497648342Y-174350877D01*
X-497686438Y-173969924D02*
X-497153104Y-173969924D01*
X-497610247Y-173969924D02*
X-497648342Y-173931829D01*
X-497648342Y-173931829D02*
X-497686438Y-173855639D01*
X-497686438Y-173855639D02*
X-497686438Y-173741353D01*
X-497686438Y-173741353D02*
X-497648342Y-173665162D01*
X-497648342Y-173665162D02*
X-497572152Y-173627067D01*
X-497572152Y-173627067D02*
X-497153104Y-173627067D01*
X-497153104Y-172903257D02*
X-497953104Y-172903257D01*
X-497191200Y-172903257D02*
X-497153104Y-172979448D01*
X-497153104Y-172979448D02*
X-497153104Y-173131829D01*
X-497153104Y-173131829D02*
X-497191200Y-173208019D01*
X-497191200Y-173208019D02*
X-497229295Y-173246114D01*
X-497229295Y-173246114D02*
X-497305485Y-173284210D01*
X-497305485Y-173284210D02*
X-497534057Y-173284210D01*
X-497534057Y-173284210D02*
X-497610247Y-173246114D01*
X-497610247Y-173246114D02*
X-497648342Y-173208019D01*
X-497648342Y-173208019D02*
X-497686438Y-173131829D01*
X-497686438Y-173131829D02*
X-497686438Y-172979448D01*
X-497686438Y-172979448D02*
X-497648342Y-172903257D01*
D13*
%TO.C,REF\u002A\u002A*%
X-494049790Y-86000000D02*
G75*
G02*
X-505950210Y-86000000I-5950210J0D01*
G01*
X-505950210Y-86000000D02*
G75*
G02*
X-494049790Y-86000000I5950210J0D01*
G01*
X-494049790Y0D02*
G75*
G02*
X-505950210Y0I-5950210J0D01*
G01*
X-505950210Y0D02*
G75*
G02*
X-494049790Y0I5950210J0D01*
G01*
X-494049790Y-258000000D02*
G75*
G02*
X-505950210Y-258000000I-5950210J0D01*
G01*
X-505950210Y-258000000D02*
G75*
G02*
X-494049790Y-258000000I5950210J0D01*
G01*
X-408049790Y-86000000D02*
G75*
G02*
X-419950210Y-86000000I-5950210J0D01*
G01*
X-419950210Y-86000000D02*
G75*
G02*
X-408049790Y-86000000I5950210J0D01*
G01*
X-408049790Y-172000000D02*
G75*
G02*
X-419950210Y-172000000I-5950210J0D01*
G01*
X-419950210Y-172000000D02*
G75*
G02*
X-408049790Y-172000000I5950210J0D01*
G01*
X-408049790Y-258000000D02*
G75*
G02*
X-419950210Y-258000000I-5950210J0D01*
G01*
X-419950210Y-258000000D02*
G75*
G02*
X-408049790Y-258000000I5950210J0D01*
G01*
X-408049790Y0D02*
G75*
G02*
X-419950210Y0I-5950210J0D01*
G01*
X-419950210Y0D02*
G75*
G02*
X-408049790Y0I5950210J0D01*
G01*
X-494049790Y-172000000D02*
G75*
G02*
X-505950210Y-172000000I-5950210J0D01*
G01*
X-505950210Y-172000000D02*
G75*
G02*
X-494049790Y-172000000I5950210J0D01*
G01*
%TD*%
M02*
