%TF.GenerationSoftware,KiCad,Pcbnew,8.0.0*%
%TF.CreationDate,2024-05-23T14:19:23-05:00*%
%TF.ProjectId,mic_array_circuit,6d69635f-6172-4726-9179-5f6369726375,rev?*%
%TF.SameCoordinates,Original*%
%TF.FileFunction,Copper,L2,Inr*%
%TF.FilePolarity,Positive*%
%FSLAX46Y46*%
G04 Gerber Fmt 4.6, Leading zero omitted, Abs format (unit mm)*
G04 Created by KiCad (PCBNEW 8.0.0) date 2024-05-23 14:19:23*
%MOMM*%
%LPD*%
G01*
G04 APERTURE LIST*
%TA.AperFunction,ComponentPad*%
%ADD10R,1.700000X1.700000*%
%TD*%
%TA.AperFunction,ComponentPad*%
%ADD11C,1.700000*%
%TD*%
%TA.AperFunction,ComponentPad*%
%ADD12O,1.500000X1.500000*%
%TD*%
%TA.AperFunction,ComponentPad*%
%ADD13C,1.500000*%
%TD*%
G04 APERTURE END LIST*
D10*
%TO.N,gnd*%
%TO.C,REF\u002A\u002A*%
X-497500000Y-89800000D03*
D11*
%TO.N,pwr*%
X-497420000Y-82200000D03*
X-500040000Y-89800000D03*
%TO.N,ws*%
X-499960000Y-82200000D03*
%TO.N,d1*%
X-502580000Y-89800000D03*
%TO.N,clk*%
X-502500000Y-82200000D03*
%TD*%
D10*
%TO.N,gnd*%
%TO.C,REF\u002A\u002A*%
X-497500000Y-3800000D03*
D11*
X-497420000Y3800000D03*
%TO.N,pwr*%
X-500040000Y-3800000D03*
%TO.N,ws*%
X-499960000Y3800000D03*
%TO.N,d1*%
X-502580000Y-3800000D03*
%TO.N,clk*%
X-502500000Y3800000D03*
%TD*%
D10*
%TO.N,gnd*%
%TO.C,REF\u002A\u002A*%
X-497500000Y-261800000D03*
D11*
%TO.N,pwr*%
X-497420000Y-254200000D03*
X-500040000Y-261800000D03*
%TO.N,ws*%
X-499960000Y-254200000D03*
%TO.N,d3*%
X-502580000Y-261800000D03*
%TO.N,clk*%
X-502500000Y-254200000D03*
%TD*%
D10*
%TO.N,gnd*%
%TO.C,REF\u002A\u002A*%
X-416500000Y-82200000D03*
D11*
%TO.N,pwr*%
X-416580000Y-89800000D03*
X-413960000Y-82200000D03*
%TO.N,ws*%
X-414040000Y-89800000D03*
%TO.N,d2*%
X-411420000Y-82200000D03*
%TO.N,clk*%
X-411500000Y-89800000D03*
%TD*%
D10*
%TO.N,gnd*%
%TO.C,REF\u002A\u002A*%
X-416500000Y-168200000D03*
D11*
X-416580000Y-175800000D03*
%TO.N,pwr*%
X-413960000Y-168200000D03*
%TO.N,ws*%
X-414040000Y-175800000D03*
%TO.N,d4*%
X-411420000Y-168200000D03*
%TO.N,clk*%
X-411500000Y-175800000D03*
%TD*%
D10*
%TO.N,gnd*%
%TO.C,REF\u002A\u002A*%
X-416500000Y-254200000D03*
D11*
%TO.N,pwr*%
X-416580000Y-261800000D03*
X-413960000Y-254200000D03*
%TO.N,ws*%
X-414040000Y-261800000D03*
%TO.N,d4*%
X-411420000Y-254200000D03*
%TO.N,clk*%
X-411500000Y-261800000D03*
%TD*%
D10*
%TO.N,gnd*%
%TO.C,REF\u002A\u002A*%
X-416500000Y3800000D03*
D11*
X-416580000Y-3800000D03*
%TO.N,pwr*%
X-413960000Y3800000D03*
%TO.N,ws*%
X-414040000Y-3800000D03*
%TO.N,d2*%
X-411420000Y3800000D03*
%TO.N,clk*%
X-411500000Y-3800000D03*
%TD*%
D10*
%TO.N,gnd*%
%TO.C,REF\u002A\u002A*%
X-497500000Y-175800000D03*
D11*
X-497420000Y-168200000D03*
%TO.N,pwr*%
X-500040000Y-175800000D03*
%TO.N,ws*%
X-499960000Y-168200000D03*
%TO.N,d3*%
X-502580000Y-175800000D03*
%TO.N,clk*%
X-502500000Y-168200000D03*
%TD*%
D12*
%TO.N,d4*%
%TO.C,REF\u002A\u002A*%
X-452670000Y-250850000D03*
D13*
%TO.N,clk*%
X-453940000Y-248310000D03*
%TO.N,gnd*%
X-455210000Y-250850000D03*
%TO.N,d2*%
X-456480000Y-248310000D03*
%TO.N,pwr*%
X-457750000Y-250850000D03*
%TO.N,d1*%
X-459020000Y-248310000D03*
%TO.N,d3*%
X-460290000Y-250850000D03*
%TO.N,ws*%
X-461560000Y-248310000D03*
%TD*%
%TA.AperFunction,Conductor*%
%TO.N,pwr*%
G36*
X-413997626Y6499409D02*
G01*
X-413507219Y6480611D01*
X-413497748Y6479884D01*
X-413012578Y6423874D01*
X-413003190Y6422424D01*
X-412523723Y6329436D01*
X-412514474Y6327271D01*
X-412043549Y6197859D01*
X-412034493Y6194993D01*
X-411574846Y6029907D01*
X-411566036Y6026356D01*
X-411120391Y5826577D01*
X-411111878Y5822363D01*
X-410682801Y5589039D01*
X-410674636Y5584184D01*
X-410264708Y5318717D01*
X-410256938Y5313252D01*
X-409868524Y5017177D01*
X-409861198Y5011136D01*
X-409819081Y4973601D01*
X-409496588Y4686196D01*
X-409489743Y4679609D01*
X-409471787Y4660952D01*
X-409254351Y4435021D01*
X-409151070Y4327706D01*
X-409144755Y4320619D01*
X-408834009Y3943818D01*
X-408828258Y3936272D01*
X-408547279Y3536804D01*
X-408542115Y3528831D01*
X-408292533Y3109016D01*
X-408288009Y3100697D01*
X-408071284Y2662986D01*
X-408067409Y2654340D01*
X-407884830Y2201333D01*
X-407881626Y2192411D01*
X-407734268Y1726779D01*
X-407731752Y1717626D01*
X-407641651Y1332587D01*
X-407620471Y1242081D01*
X-407618664Y1232766D01*
X-407544105Y750061D01*
X-407543019Y740655D01*
X-407506136Y260243D01*
X-407505633Y253690D01*
X-407505269Y244198D01*
X-407505269Y-244198D01*
X-407505633Y-253690D01*
X-407543019Y-740655D01*
X-407544105Y-750061D01*
X-407618662Y-1232756D01*
X-407620469Y-1242071D01*
X-407731751Y-1717620D01*
X-407734268Y-1726779D01*
X-407881626Y-2192411D01*
X-407884830Y-2201333D01*
X-408056148Y-2626400D01*
X-408067407Y-2654336D01*
X-408071284Y-2662986D01*
X-408288009Y-3100697D01*
X-408292533Y-3109016D01*
X-408542115Y-3528831D01*
X-408547279Y-3536804D01*
X-408828258Y-3936272D01*
X-408834009Y-3943818D01*
X-409127750Y-4300000D01*
X-409144750Y-4320614D01*
X-409151070Y-4327706D01*
X-409489743Y-4679609D01*
X-409496588Y-4686196D01*
X-409576577Y-4757482D01*
X-409819564Y-4974032D01*
X-409861196Y-5011134D01*
X-409868524Y-5017177D01*
X-410256938Y-5313252D01*
X-410264708Y-5318717D01*
X-410674636Y-5584184D01*
X-410682801Y-5589039D01*
X-411111878Y-5822363D01*
X-411120391Y-5826577D01*
X-411566036Y-6026356D01*
X-411574846Y-6029907D01*
X-412034493Y-6194993D01*
X-412043549Y-6197859D01*
X-412514474Y-6327271D01*
X-412523723Y-6329436D01*
X-413003190Y-6422424D01*
X-413012578Y-6423874D01*
X-413497748Y-6479884D01*
X-413507219Y-6480611D01*
X-413997626Y-6499409D01*
X-414002376Y-6499500D01*
X-449934108Y-6499500D01*
X-450065892Y-6499500D01*
X-450129539Y-6516554D01*
X-450193187Y-6533608D01*
X-450250250Y-6566554D01*
X-450307314Y-6599500D01*
X-450400500Y-6692686D01*
X-450466392Y-6806814D01*
X-450500500Y-6934108D01*
X-450500500Y-78934108D01*
X-450500500Y-79065892D01*
X-450466392Y-79193186D01*
X-450400500Y-79307314D01*
X-450307314Y-79400500D01*
X-450193186Y-79466392D01*
X-450065892Y-79500500D01*
X-414065892Y-79500500D01*
X-414002376Y-79500500D01*
X-413997627Y-79500591D01*
X-413975559Y-79501436D01*
X-413507197Y-79519389D01*
X-413497771Y-79520113D01*
X-413012555Y-79576128D01*
X-413003213Y-79577571D01*
X-412523702Y-79670567D01*
X-412514496Y-79672722D01*
X-412043528Y-79802146D01*
X-412034513Y-79804999D01*
X-411574833Y-79970097D01*
X-411566049Y-79973637D01*
X-411120373Y-80173430D01*
X-411111895Y-80177627D01*
X-410682780Y-80410972D01*
X-410674656Y-80415802D01*
X-410264693Y-80681292D01*
X-410256952Y-80686736D01*
X-409868506Y-80982836D01*
X-409861213Y-80988850D01*
X-409496579Y-81313810D01*
X-409489750Y-81320382D01*
X-409151053Y-81672311D01*
X-409144766Y-81679366D01*
X-408833999Y-82056193D01*
X-408828264Y-82063717D01*
X-408732407Y-82199999D01*
X-408547279Y-82463195D01*
X-408542120Y-82471159D01*
X-408292524Y-82890998D01*
X-408288014Y-82899291D01*
X-408071280Y-83337022D01*
X-408067413Y-83345649D01*
X-407884827Y-83798674D01*
X-407881631Y-83807571D01*
X-407734264Y-84273233D01*
X-407731754Y-84282367D01*
X-407620467Y-84757933D01*
X-407618664Y-84767228D01*
X-407544104Y-85249941D01*
X-407543020Y-85259341D01*
X-407505633Y-85746309D01*
X-407505269Y-85755801D01*
X-407505269Y-86244198D01*
X-407505633Y-86253690D01*
X-407543019Y-86740655D01*
X-407544105Y-86750061D01*
X-407618662Y-87232756D01*
X-407620469Y-87242071D01*
X-407731751Y-87717620D01*
X-407734268Y-87726779D01*
X-407881626Y-88192411D01*
X-407884830Y-88201333D01*
X-408056148Y-88626400D01*
X-408067407Y-88654336D01*
X-408071284Y-88662986D01*
X-408288009Y-89100697D01*
X-408292530Y-89109012D01*
X-408321785Y-89158220D01*
X-408542115Y-89528831D01*
X-408547279Y-89536804D01*
X-408828258Y-89936272D01*
X-408834009Y-89943818D01*
X-409127750Y-90300000D01*
X-409144750Y-90320614D01*
X-409151065Y-90327701D01*
X-409295311Y-90477582D01*
X-409489743Y-90679609D01*
X-409496588Y-90686196D01*
X-409576577Y-90757482D01*
X-409819564Y-90974032D01*
X-409861196Y-91011134D01*
X-409868524Y-91017177D01*
X-410256938Y-91313252D01*
X-410264708Y-91318717D01*
X-410674636Y-91584184D01*
X-410682801Y-91589039D01*
X-411111878Y-91822363D01*
X-411120391Y-91826577D01*
X-411566036Y-92026356D01*
X-411574846Y-92029907D01*
X-412034493Y-92194993D01*
X-412043549Y-92197859D01*
X-412514474Y-92327271D01*
X-412523723Y-92329436D01*
X-413003190Y-92422424D01*
X-413012578Y-92423874D01*
X-413497748Y-92479884D01*
X-413507219Y-92480611D01*
X-413997626Y-92499409D01*
X-414002376Y-92499500D01*
X-449934108Y-92499500D01*
X-450065892Y-92499500D01*
X-450129539Y-92516554D01*
X-450193187Y-92533608D01*
X-450250250Y-92566554D01*
X-450307314Y-92599500D01*
X-450400500Y-92692686D01*
X-450466392Y-92806814D01*
X-450500500Y-92934108D01*
X-450500500Y-164934108D01*
X-450500500Y-165065892D01*
X-450466392Y-165193186D01*
X-450400500Y-165307314D01*
X-450307314Y-165400500D01*
X-450193186Y-165466392D01*
X-450065892Y-165500500D01*
X-414065892Y-165500500D01*
X-414002376Y-165500500D01*
X-413997627Y-165500591D01*
X-413975559Y-165501436D01*
X-413507197Y-165519389D01*
X-413497771Y-165520113D01*
X-413012555Y-165576128D01*
X-413003213Y-165577571D01*
X-412523702Y-165670567D01*
X-412514496Y-165672722D01*
X-412043528Y-165802146D01*
X-412034513Y-165804999D01*
X-411574833Y-165970097D01*
X-411566049Y-165973637D01*
X-411120373Y-166173430D01*
X-411111895Y-166177627D01*
X-410682780Y-166410972D01*
X-410674656Y-166415802D01*
X-410264693Y-166681292D01*
X-410256952Y-166686736D01*
X-409868506Y-166982836D01*
X-409861213Y-166988850D01*
X-409496579Y-167313810D01*
X-409489750Y-167320382D01*
X-409151053Y-167672311D01*
X-409144766Y-167679366D01*
X-408833999Y-168056193D01*
X-408828264Y-168063717D01*
X-408732407Y-168199999D01*
X-408547279Y-168463195D01*
X-408542120Y-168471159D01*
X-408292524Y-168890998D01*
X-408288014Y-168899291D01*
X-408071280Y-169337022D01*
X-408067413Y-169345649D01*
X-407884827Y-169798674D01*
X-407881631Y-169807571D01*
X-407734264Y-170273233D01*
X-407731754Y-170282367D01*
X-407620467Y-170757933D01*
X-407618664Y-170767228D01*
X-407544104Y-171249941D01*
X-407543020Y-171259341D01*
X-407505633Y-171746309D01*
X-407505269Y-171755801D01*
X-407505269Y-172244198D01*
X-407505633Y-172253690D01*
X-407543019Y-172740655D01*
X-407544105Y-172750061D01*
X-407618662Y-173232756D01*
X-407620469Y-173242071D01*
X-407731751Y-173717620D01*
X-407734268Y-173726779D01*
X-407881626Y-174192411D01*
X-407884830Y-174201333D01*
X-408056148Y-174626400D01*
X-408067407Y-174654336D01*
X-408071284Y-174662986D01*
X-408288009Y-175100697D01*
X-408292533Y-175109016D01*
X-408542115Y-175528831D01*
X-408547279Y-175536804D01*
X-408828258Y-175936272D01*
X-408834009Y-175943818D01*
X-409127750Y-176300000D01*
X-409144750Y-176320614D01*
X-409151070Y-176327706D01*
X-409489743Y-176679609D01*
X-409496588Y-176686196D01*
X-409576577Y-176757482D01*
X-409819564Y-176974032D01*
X-409861196Y-177011134D01*
X-409868524Y-177017177D01*
X-410256938Y-177313252D01*
X-410264708Y-177318717D01*
X-410674636Y-177584184D01*
X-410682801Y-177589039D01*
X-411111878Y-177822363D01*
X-411120391Y-177826577D01*
X-411566036Y-178026356D01*
X-411574846Y-178029907D01*
X-412034493Y-178194993D01*
X-412043549Y-178197859D01*
X-412514474Y-178327271D01*
X-412523723Y-178329436D01*
X-413003190Y-178422424D01*
X-413012578Y-178423874D01*
X-413497748Y-178479884D01*
X-413507219Y-178480611D01*
X-413997626Y-178499409D01*
X-414002376Y-178499500D01*
X-449934108Y-178499500D01*
X-450065892Y-178499500D01*
X-450129539Y-178516554D01*
X-450193187Y-178533608D01*
X-450250250Y-178566554D01*
X-450307314Y-178599500D01*
X-450400500Y-178692686D01*
X-450466392Y-178806814D01*
X-450500500Y-178934108D01*
X-450500500Y-251065892D01*
X-450466392Y-251193186D01*
X-450400500Y-251307314D01*
X-450307314Y-251400500D01*
X-450193186Y-251466392D01*
X-450065892Y-251500500D01*
X-449934108Y-251500500D01*
X-414065892Y-251500500D01*
X-414002376Y-251500500D01*
X-413997627Y-251500591D01*
X-413975559Y-251501436D01*
X-413507197Y-251519389D01*
X-413497771Y-251520113D01*
X-413012555Y-251576128D01*
X-413003213Y-251577571D01*
X-412523702Y-251670567D01*
X-412514496Y-251672722D01*
X-412043528Y-251802146D01*
X-412034513Y-251804999D01*
X-411574833Y-251970097D01*
X-411566049Y-251973637D01*
X-411120373Y-252173430D01*
X-411111895Y-252177627D01*
X-410682780Y-252410972D01*
X-410674656Y-252415802D01*
X-410264693Y-252681292D01*
X-410256952Y-252686736D01*
X-409868506Y-252982836D01*
X-409861213Y-252988850D01*
X-409496579Y-253313810D01*
X-409489750Y-253320382D01*
X-409151053Y-253672311D01*
X-409144766Y-253679366D01*
X-408833999Y-254056193D01*
X-408828264Y-254063717D01*
X-408732407Y-254199999D01*
X-408547279Y-254463195D01*
X-408542120Y-254471159D01*
X-408292524Y-254890998D01*
X-408288014Y-254899291D01*
X-408071280Y-255337022D01*
X-408067413Y-255345649D01*
X-407884827Y-255798674D01*
X-407881631Y-255807571D01*
X-407734264Y-256273233D01*
X-407731754Y-256282367D01*
X-407620467Y-256757933D01*
X-407618664Y-256767228D01*
X-407544104Y-257249941D01*
X-407543020Y-257259341D01*
X-407505633Y-257746309D01*
X-407505269Y-257755801D01*
X-407505269Y-258244198D01*
X-407505633Y-258253690D01*
X-407543019Y-258740655D01*
X-407544105Y-258750061D01*
X-407618662Y-259232756D01*
X-407620469Y-259242071D01*
X-407731751Y-259717620D01*
X-407734268Y-259726779D01*
X-407881626Y-260192411D01*
X-407884830Y-260201333D01*
X-408056148Y-260626400D01*
X-408067407Y-260654336D01*
X-408071284Y-260662986D01*
X-408288009Y-261100697D01*
X-408292530Y-261109012D01*
X-408321785Y-261158220D01*
X-408542115Y-261528831D01*
X-408547279Y-261536804D01*
X-408828258Y-261936272D01*
X-408834009Y-261943818D01*
X-409127750Y-262300000D01*
X-409144750Y-262320614D01*
X-409151065Y-262327701D01*
X-409295311Y-262477582D01*
X-409489743Y-262679609D01*
X-409496588Y-262686196D01*
X-409576577Y-262757482D01*
X-409819564Y-262974032D01*
X-409861196Y-263011134D01*
X-409868524Y-263017177D01*
X-410256938Y-263313252D01*
X-410264708Y-263318717D01*
X-410674636Y-263584184D01*
X-410682801Y-263589039D01*
X-411111878Y-263822363D01*
X-411120391Y-263826577D01*
X-411566036Y-264026356D01*
X-411574846Y-264029907D01*
X-412034493Y-264194993D01*
X-412043549Y-264197859D01*
X-412514474Y-264327271D01*
X-412523723Y-264329436D01*
X-413003190Y-264422424D01*
X-413012578Y-264423874D01*
X-413497748Y-264479884D01*
X-413507219Y-264480611D01*
X-413997626Y-264499409D01*
X-414002376Y-264499500D01*
X-499997624Y-264499500D01*
X-500002374Y-264499409D01*
X-500492780Y-264480611D01*
X-500502251Y-264479884D01*
X-500987421Y-264423874D01*
X-500996809Y-264422424D01*
X-501476276Y-264329436D01*
X-501485525Y-264327271D01*
X-501956450Y-264197859D01*
X-501965506Y-264194993D01*
X-502425153Y-264029907D01*
X-502433963Y-264026356D01*
X-502879608Y-263826577D01*
X-502888121Y-263822363D01*
X-503317198Y-263589039D01*
X-503325363Y-263584184D01*
X-503735291Y-263318717D01*
X-503743061Y-263313252D01*
X-504131475Y-263017177D01*
X-504138803Y-263011134D01*
X-504503411Y-262686196D01*
X-504510256Y-262679609D01*
X-504848929Y-262327706D01*
X-504855249Y-262320614D01*
X-505165983Y-261943827D01*
X-505171741Y-261936272D01*
X-505267592Y-261800000D01*
X-503935659Y-261800000D01*
X-503915063Y-262035408D01*
X-503853903Y-262263663D01*
X-503754035Y-262477830D01*
X-503618495Y-262671401D01*
X-503451401Y-262838495D01*
X-503257830Y-262974035D01*
X-503043663Y-263073903D01*
X-502815408Y-263135063D01*
X-502638966Y-263150500D01*
X-502580001Y-263155659D01*
X-502580000Y-263155659D01*
X-502579999Y-263155659D01*
X-502521034Y-263150500D01*
X-502344592Y-263135063D01*
X-502116337Y-263073903D01*
X-501902170Y-262974035D01*
X-501902167Y-262974033D01*
X-501902165Y-262974032D01*
X-501805384Y-262906265D01*
X-501708599Y-262838495D01*
X-501541505Y-262671401D01*
X-501411269Y-262485405D01*
X-501356692Y-262441781D01*
X-501287193Y-262434588D01*
X-501224839Y-262466110D01*
X-501208119Y-262485405D01*
X-501154925Y-262561373D01*
X-500522962Y-261929410D01*
X-500505925Y-261992993D01*
X-500440099Y-262107007D01*
X-500347007Y-262200099D01*
X-500232993Y-262265925D01*
X-500169409Y-262282962D01*
X-500801373Y-262914925D01*
X-500801373Y-262914926D01*
X-500717582Y-262973598D01*
X-500717578Y-262973600D01*
X-500503492Y-263073429D01*
X-500503483Y-263073433D01*
X-500275326Y-263134567D01*
X-500275315Y-263134569D01*
X-500040002Y-263155157D01*
X-500039998Y-263155157D01*
X-499804684Y-263134569D01*
X-499804673Y-263134567D01*
X-499576516Y-263073433D01*
X-499576507Y-263073429D01*
X-499362421Y-262973599D01*
X-499278625Y-262914925D01*
X-499910590Y-262282962D01*
X-499847007Y-262265925D01*
X-499732993Y-262200099D01*
X-499639901Y-262107007D01*
X-499574075Y-261992993D01*
X-499557037Y-261929409D01*
X-498886818Y-262599629D01*
X-498853333Y-262660952D01*
X-498850499Y-262687309D01*
X-498850499Y-262697872D01*
X-498844091Y-262757483D01*
X-498793796Y-262892331D01*
X-498707546Y-263007546D01*
X-498592331Y-263093796D01*
X-498457483Y-263144091D01*
X-498397873Y-263150500D01*
X-496602128Y-263150499D01*
X-496553757Y-263145299D01*
X-496542516Y-263144091D01*
X-496407671Y-263093797D01*
X-496407664Y-263093793D01*
X-496292455Y-263007547D01*
X-496292452Y-263007544D01*
X-496206206Y-262892335D01*
X-496206202Y-262892328D01*
X-496155908Y-262757482D01*
X-496149501Y-262697883D01*
X-496149500Y-262697881D01*
X-496149500Y-262697873D01*
X-496149500Y-261800001D01*
X-417935157Y-261800001D01*
X-417914569Y-262035315D01*
X-417914567Y-262035326D01*
X-417853433Y-262263483D01*
X-417853429Y-262263492D01*
X-417753600Y-262477578D01*
X-417753598Y-262477582D01*
X-417694926Y-262561373D01*
X-417694925Y-262561373D01*
X-417062962Y-261929409D01*
X-417045925Y-261992993D01*
X-416980099Y-262107007D01*
X-416887007Y-262200099D01*
X-416772993Y-262265925D01*
X-416709409Y-262282962D01*
X-417341373Y-262914925D01*
X-417341373Y-262914926D01*
X-417257582Y-262973598D01*
X-417257578Y-262973600D01*
X-417043492Y-263073429D01*
X-417043483Y-263073433D01*
X-416815326Y-263134567D01*
X-416815315Y-263134569D01*
X-416580002Y-263155157D01*
X-416579998Y-263155157D01*
X-416344684Y-263134569D01*
X-416344673Y-263134567D01*
X-416116516Y-263073433D01*
X-416116507Y-263073429D01*
X-415902421Y-262973599D01*
X-415818625Y-262914925D01*
X-416450590Y-262282962D01*
X-416387007Y-262265925D01*
X-416272993Y-262200099D01*
X-416179901Y-262107007D01*
X-416114075Y-261992993D01*
X-416097037Y-261929409D01*
X-415465073Y-262561373D01*
X-415465072Y-262561373D01*
X-415411880Y-262485405D01*
X-415357304Y-262441780D01*
X-415287805Y-262434586D01*
X-415225451Y-262466108D01*
X-415208734Y-262485399D01*
X-415078495Y-262671401D01*
X-414911401Y-262838495D01*
X-414717830Y-262974035D01*
X-414503663Y-263073903D01*
X-414275408Y-263135063D01*
X-414098966Y-263150500D01*
X-414040001Y-263155659D01*
X-414040000Y-263155659D01*
X-414039999Y-263155659D01*
X-413981034Y-263150500D01*
X-413804592Y-263135063D01*
X-413576337Y-263073903D01*
X-413362170Y-262974035D01*
X-413362167Y-262974033D01*
X-413362165Y-262974032D01*
X-413265384Y-262906265D01*
X-413168599Y-262838495D01*
X-413001505Y-262671401D01*
X-413001500Y-262671395D01*
X-412871575Y-262485842D01*
X-412816998Y-262442217D01*
X-412747500Y-262435023D01*
X-412685145Y-262466546D01*
X-412668424Y-262485842D01*
X-412538495Y-262671401D01*
X-412371401Y-262838495D01*
X-412177830Y-262974035D01*
X-411963663Y-263073903D01*
X-411735408Y-263135063D01*
X-411558966Y-263150500D01*
X-411500001Y-263155659D01*
X-411500000Y-263155659D01*
X-411499999Y-263155659D01*
X-411441034Y-263150500D01*
X-411264592Y-263135063D01*
X-411036337Y-263073903D01*
X-410822170Y-262974035D01*
X-410822167Y-262974033D01*
X-410822165Y-262974032D01*
X-410725384Y-262906265D01*
X-410628599Y-262838495D01*
X-410461505Y-262671401D01*
X-410434281Y-262632521D01*
X-410325967Y-262477834D01*
X-410325965Y-262477830D01*
X-410255961Y-262327706D01*
X-410226097Y-262263663D01*
X-410226096Y-262263659D01*
X-410226094Y-262263655D01*
X-410164938Y-262035413D01*
X-410164936Y-262035403D01*
X-410144341Y-261800000D01*
X-410144341Y-261799999D01*
X-410164936Y-261564596D01*
X-410164938Y-261564586D01*
X-410226094Y-261336344D01*
X-410226098Y-261336335D01*
X-410325964Y-261122171D01*
X-410325965Y-261122169D01*
X-410461505Y-260928597D01*
X-410628597Y-260761506D01*
X-410628604Y-260761501D01*
X-410822165Y-260625967D01*
X-410822169Y-260625965D01*
X-411036335Y-260526098D01*
X-411036344Y-260526094D01*
X-411264586Y-260464938D01*
X-411264596Y-260464936D01*
X-411499999Y-260444341D01*
X-411500001Y-260444341D01*
X-411735403Y-260464936D01*
X-411735413Y-260464938D01*
X-411963655Y-260526094D01*
X-411963659Y-260526096D01*
X-411963663Y-260526097D01*
X-412070746Y-260576031D01*
X-412177828Y-260625964D01*
X-412177830Y-260625965D01*
X-412371402Y-260761505D01*
X-412538494Y-260928597D01*
X-412668425Y-261114158D01*
X-412723002Y-261157783D01*
X-412792500Y-261164977D01*
X-412854855Y-261133454D01*
X-412871575Y-261114158D01*
X-413001505Y-260928597D01*
X-413168597Y-260761506D01*
X-413168604Y-260761501D01*
X-413362165Y-260625967D01*
X-413362169Y-260625965D01*
X-413576335Y-260526098D01*
X-413576344Y-260526094D01*
X-413804586Y-260464938D01*
X-413804596Y-260464936D01*
X-414039999Y-260444341D01*
X-414040001Y-260444341D01*
X-414275403Y-260464936D01*
X-414275413Y-260464938D01*
X-414503655Y-260526094D01*
X-414503659Y-260526096D01*
X-414503663Y-260526097D01*
X-414610746Y-260576031D01*
X-414717828Y-260625964D01*
X-414717830Y-260625965D01*
X-414911402Y-260761505D01*
X-415078494Y-260928597D01*
X-415208730Y-261114594D01*
X-415263307Y-261158219D01*
X-415332805Y-261165413D01*
X-415395160Y-261133890D01*
X-415411881Y-261114594D01*
X-415465073Y-261038626D01*
X-416097037Y-261670589D01*
X-416114075Y-261607007D01*
X-416179901Y-261492993D01*
X-416272993Y-261399901D01*
X-416387007Y-261334075D01*
X-416450590Y-261317037D01*
X-415818625Y-260685073D01*
X-415818626Y-260685072D01*
X-415902417Y-260626402D01*
X-416116507Y-260526570D01*
X-416116516Y-260526566D01*
X-416344673Y-260465432D01*
X-416344684Y-260465430D01*
X-416579998Y-260444843D01*
X-416580002Y-260444843D01*
X-416815315Y-260465430D01*
X-416815326Y-260465432D01*
X-417043483Y-260526566D01*
X-417043492Y-260526570D01*
X-417257576Y-260626399D01*
X-417257578Y-260626400D01*
X-417341372Y-260685073D01*
X-417341373Y-260685074D01*
X-416709410Y-261317037D01*
X-416772993Y-261334075D01*
X-416887007Y-261399901D01*
X-416980099Y-261492993D01*
X-417045925Y-261607007D01*
X-417062962Y-261670589D01*
X-417694925Y-261038625D01*
X-417694925Y-261038626D01*
X-417753599Y-261122421D01*
X-417753600Y-261122423D01*
X-417853429Y-261336507D01*
X-417853433Y-261336516D01*
X-417914567Y-261564673D01*
X-417914569Y-261564684D01*
X-417935157Y-261799998D01*
X-417935157Y-261800001D01*
X-496149500Y-261800001D01*
X-496149500Y-260902129D01*
X-496149501Y-260902123D01*
X-496155908Y-260842516D01*
X-496206202Y-260707671D01*
X-496206206Y-260707664D01*
X-496292452Y-260592455D01*
X-496292455Y-260592452D01*
X-496407664Y-260506206D01*
X-496407671Y-260506202D01*
X-496542517Y-260455908D01*
X-496542516Y-260455908D01*
X-496602116Y-260449501D01*
X-496602119Y-260449500D01*
X-496602127Y-260449500D01*
X-496602134Y-260449500D01*
X-496602135Y-260449500D01*
X-498397870Y-260449500D01*
X-498397876Y-260449501D01*
X-498457483Y-260455908D01*
X-498592328Y-260506202D01*
X-498592335Y-260506206D01*
X-498707544Y-260592452D01*
X-498707547Y-260592455D01*
X-498793793Y-260707664D01*
X-498793795Y-260707668D01*
X-498793796Y-260707669D01*
X-498844091Y-260842517D01*
X-498850500Y-260902127D01*
X-498850499Y-260912684D01*
X-498870179Y-260979722D01*
X-498886818Y-261000371D01*
X-499557037Y-261670589D01*
X-499574075Y-261607007D01*
X-499639901Y-261492993D01*
X-499732993Y-261399901D01*
X-499847007Y-261334075D01*
X-499910590Y-261317037D01*
X-499278625Y-260685073D01*
X-499278626Y-260685072D01*
X-499362417Y-260626402D01*
X-499576507Y-260526570D01*
X-499576516Y-260526566D01*
X-499804673Y-260465432D01*
X-499804684Y-260465430D01*
X-500039998Y-260444843D01*
X-500040002Y-260444843D01*
X-500275315Y-260465430D01*
X-500275326Y-260465432D01*
X-500503483Y-260526566D01*
X-500503492Y-260526570D01*
X-500717576Y-260626399D01*
X-500717578Y-260626400D01*
X-500801372Y-260685073D01*
X-500801373Y-260685074D01*
X-500169410Y-261317037D01*
X-500232993Y-261334075D01*
X-500347007Y-261399901D01*
X-500440099Y-261492993D01*
X-500505925Y-261607007D01*
X-500522962Y-261670589D01*
X-501154925Y-261038625D01*
X-501154925Y-261038626D01*
X-501208119Y-261114595D01*
X-501262695Y-261158220D01*
X-501332194Y-261165414D01*
X-501394548Y-261133892D01*
X-501411269Y-261114595D01*
X-501541505Y-260928597D01*
X-501708597Y-260761506D01*
X-501708604Y-260761501D01*
X-501902165Y-260625967D01*
X-501902169Y-260625965D01*
X-502116335Y-260526098D01*
X-502116344Y-260526094D01*
X-502344586Y-260464938D01*
X-502344596Y-260464936D01*
X-502579999Y-260444341D01*
X-502580001Y-260444341D01*
X-502815403Y-260464936D01*
X-502815413Y-260464938D01*
X-503043655Y-260526094D01*
X-503043659Y-260526096D01*
X-503043663Y-260526097D01*
X-503150746Y-260576031D01*
X-503257828Y-260625964D01*
X-503257830Y-260625965D01*
X-503451402Y-260761505D01*
X-503618494Y-260928597D01*
X-503748730Y-261114595D01*
X-503754035Y-261122171D01*
X-503853903Y-261336337D01*
X-503915063Y-261564592D01*
X-503935659Y-261800000D01*
X-505267592Y-261800000D01*
X-505452720Y-261536804D01*
X-505457884Y-261528831D01*
X-505707466Y-261109016D01*
X-505712004Y-261100671D01*
X-505761666Y-261000371D01*
X-505879938Y-260761501D01*
X-505928707Y-260663003D01*
X-505932592Y-260654336D01*
X-506115162Y-260201352D01*
X-506118373Y-260192411D01*
X-506265731Y-259726779D01*
X-506268248Y-259717620D01*
X-506379528Y-259242081D01*
X-506381337Y-259232756D01*
X-506455892Y-258750076D01*
X-506456981Y-258740639D01*
X-506494367Y-258253690D01*
X-506494731Y-258244198D01*
X-506494731Y-257755801D01*
X-506494367Y-257746309D01*
X-506493277Y-257732119D01*
X-506461862Y-257322934D01*
X-506461861Y-257322927D01*
X-464705500Y-257322927D01*
X-464673409Y-257566677D01*
X-464609778Y-257804153D01*
X-464515694Y-258031292D01*
X-464392767Y-258244208D01*
X-464243101Y-258439256D01*
X-464069256Y-258613101D01*
X-463874208Y-258762767D01*
X-463661292Y-258885694D01*
X-463434153Y-258979778D01*
X-463196677Y-259043409D01*
X-462952927Y-259075500D01*
X-462952920Y-259075500D01*
X-462707080Y-259075500D01*
X-462707073Y-259075500D01*
X-462463323Y-259043409D01*
X-462225847Y-258979778D01*
X-461998708Y-258885694D01*
X-461785792Y-258762767D01*
X-461590744Y-258613101D01*
X-461590738Y-258613096D01*
X-461416903Y-258439261D01*
X-461416897Y-258439254D01*
X-461267236Y-258244212D01*
X-461267235Y-258244211D01*
X-461267233Y-258244208D01*
X-461144306Y-258031292D01*
X-461144303Y-258031285D01*
X-461050225Y-257804162D01*
X-461050222Y-257804152D01*
X-460986591Y-257566677D01*
X-460981227Y-257525939D01*
X-460954500Y-257322934D01*
X-460954500Y-257322927D01*
X-453275500Y-257322927D01*
X-453243409Y-257566677D01*
X-453179778Y-257804153D01*
X-453085694Y-258031292D01*
X-452962767Y-258244208D01*
X-452813101Y-258439256D01*
X-452639256Y-258613101D01*
X-452444208Y-258762767D01*
X-452231292Y-258885694D01*
X-452004153Y-258979778D01*
X-451766677Y-259043409D01*
X-451522927Y-259075500D01*
X-451522920Y-259075500D01*
X-451277080Y-259075500D01*
X-451277073Y-259075500D01*
X-451033323Y-259043409D01*
X-450795847Y-258979778D01*
X-450568708Y-258885694D01*
X-450355792Y-258762767D01*
X-450160744Y-258613101D01*
X-450160738Y-258613096D01*
X-449986903Y-258439261D01*
X-449986897Y-258439254D01*
X-449837236Y-258244212D01*
X-449837235Y-258244211D01*
X-449837233Y-258244208D01*
X-449714306Y-258031292D01*
X-449714303Y-258031285D01*
X-449620225Y-257804162D01*
X-449620222Y-257804152D01*
X-449556591Y-257566677D01*
X-449551227Y-257525939D01*
X-449524500Y-257322934D01*
X-449524500Y-257077065D01*
X-449556590Y-256833331D01*
X-449556592Y-256833320D01*
X-449620222Y-256595847D01*
X-449620225Y-256595837D01*
X-449714303Y-256368714D01*
X-449714307Y-256368705D01*
X-449837236Y-256155787D01*
X-449986897Y-255960745D01*
X-449986903Y-255960738D01*
X-450160738Y-255786903D01*
X-450160745Y-255786897D01*
X-450355787Y-255637236D01*
X-450568705Y-255514307D01*
X-450568714Y-255514303D01*
X-450795837Y-255420225D01*
X-450795847Y-255420222D01*
X-450968221Y-255374035D01*
X-451033323Y-255356591D01*
X-451045059Y-255355045D01*
X-451277065Y-255324500D01*
X-451277073Y-255324500D01*
X-451522927Y-255324500D01*
X-451522934Y-255324500D01*
X-451725939Y-255351227D01*
X-451766677Y-255356591D01*
X-452004153Y-255420222D01*
X-452004155Y-255420223D01*
X-452004162Y-255420225D01*
X-452181779Y-255493797D01*
X-452231292Y-255514306D01*
X-452444208Y-255637233D01*
X-452444211Y-255637235D01*
X-452444212Y-255637236D01*
X-452639254Y-255786897D01*
X-452639261Y-255786903D01*
X-452813096Y-255960738D01*
X-452813101Y-255960744D01*
X-452962767Y-256155792D01*
X-453085694Y-256368708D01*
X-453179778Y-256595847D01*
X-453243409Y-256833323D01*
X-453275500Y-257077073D01*
X-453275500Y-257322927D01*
X-460954500Y-257322927D01*
X-460954500Y-257077065D01*
X-460986590Y-256833331D01*
X-460986592Y-256833320D01*
X-461050222Y-256595847D01*
X-461050225Y-256595837D01*
X-461144303Y-256368714D01*
X-461144307Y-256368705D01*
X-461267236Y-256155787D01*
X-461416897Y-255960745D01*
X-461416903Y-255960738D01*
X-461590738Y-255786903D01*
X-461590745Y-255786897D01*
X-461785787Y-255637236D01*
X-461998705Y-255514307D01*
X-461998714Y-255514303D01*
X-462225837Y-255420225D01*
X-462225847Y-255420222D01*
X-462398221Y-255374035D01*
X-462463323Y-255356591D01*
X-462475059Y-255355045D01*
X-462707065Y-255324500D01*
X-462707073Y-255324500D01*
X-462952927Y-255324500D01*
X-462952934Y-255324500D01*
X-463155939Y-255351227D01*
X-463196677Y-255356591D01*
X-463434153Y-255420222D01*
X-463434155Y-255420223D01*
X-463434162Y-255420225D01*
X-463611779Y-255493797D01*
X-463661292Y-255514306D01*
X-463874208Y-255637233D01*
X-463874211Y-255637235D01*
X-463874212Y-255637236D01*
X-464069254Y-255786897D01*
X-464069261Y-255786903D01*
X-464243096Y-255960738D01*
X-464243101Y-255960744D01*
X-464392767Y-256155792D01*
X-464515694Y-256368708D01*
X-464609778Y-256595847D01*
X-464673409Y-256833323D01*
X-464705500Y-257077073D01*
X-464705500Y-257322927D01*
X-506461861Y-257322927D01*
X-506456981Y-257259360D01*
X-506455892Y-257249923D01*
X-506381337Y-256767243D01*
X-506379528Y-256757918D01*
X-506268248Y-256282379D01*
X-506265731Y-256273220D01*
X-506118373Y-255807588D01*
X-506115162Y-255798647D01*
X-505932592Y-255345663D01*
X-505928707Y-255336996D01*
X-505906590Y-255292328D01*
X-505711995Y-254899312D01*
X-505707466Y-254890983D01*
X-505457884Y-254471168D01*
X-505452720Y-254463195D01*
X-505267593Y-254200000D01*
X-503855659Y-254200000D01*
X-503835063Y-254435408D01*
X-503773903Y-254663663D01*
X-503674035Y-254877830D01*
X-503538495Y-255071401D01*
X-503371401Y-255238495D01*
X-503177830Y-255374035D01*
X-502963663Y-255473903D01*
X-502735408Y-255535063D01*
X-502558966Y-255550500D01*
X-502500001Y-255555659D01*
X-502500000Y-255555659D01*
X-502499999Y-255555659D01*
X-502441034Y-255550500D01*
X-502264592Y-255535063D01*
X-502036337Y-255473903D01*
X-501822170Y-255374035D01*
X-501822167Y-255374033D01*
X-501822165Y-255374032D01*
X-501725384Y-255306265D01*
X-501628599Y-255238495D01*
X-501461505Y-255071401D01*
X-501461500Y-255071395D01*
X-501331575Y-254885842D01*
X-501276998Y-254842217D01*
X-501207500Y-254835023D01*
X-501145145Y-254866546D01*
X-501128424Y-254885842D01*
X-500998495Y-255071401D01*
X-500831401Y-255238495D01*
X-500637830Y-255374035D01*
X-500423663Y-255473903D01*
X-500195408Y-255535063D01*
X-500018966Y-255550500D01*
X-499960001Y-255555659D01*
X-499960000Y-255555659D01*
X-499959999Y-255555659D01*
X-499901034Y-255550500D01*
X-499724592Y-255535063D01*
X-499496337Y-255473903D01*
X-499282170Y-255374035D01*
X-499282167Y-255374033D01*
X-499282165Y-255374032D01*
X-499185384Y-255306265D01*
X-499088599Y-255238495D01*
X-498921505Y-255071401D01*
X-498791269Y-254885405D01*
X-498736692Y-254841781D01*
X-498667193Y-254834588D01*
X-498604839Y-254866110D01*
X-498588119Y-254885405D01*
X-498534925Y-254961373D01*
X-497902962Y-254329409D01*
X-497885925Y-254392993D01*
X-497820099Y-254507007D01*
X-497727007Y-254600099D01*
X-497612993Y-254665925D01*
X-497549409Y-254682962D01*
X-498181373Y-255314925D01*
X-498181373Y-255314926D01*
X-498097582Y-255373598D01*
X-498097578Y-255373600D01*
X-497883492Y-255473429D01*
X-497883483Y-255473433D01*
X-497655326Y-255534567D01*
X-497655315Y-255534569D01*
X-497420002Y-255555157D01*
X-497419998Y-255555157D01*
X-497184684Y-255534569D01*
X-497184673Y-255534567D01*
X-496956516Y-255473433D01*
X-496956507Y-255473429D01*
X-496742421Y-255373599D01*
X-496658625Y-255314925D01*
X-497290590Y-254682962D01*
X-497227007Y-254665925D01*
X-497112993Y-254600099D01*
X-497019901Y-254507007D01*
X-496954075Y-254392993D01*
X-496937037Y-254329409D01*
X-496305073Y-254961373D01*
X-496305072Y-254961373D01*
X-496246402Y-254877583D01*
X-496246400Y-254877579D01*
X-496146570Y-254663492D01*
X-496146566Y-254663483D01*
X-496085432Y-254435326D01*
X-496085430Y-254435315D01*
X-496064843Y-254200001D01*
X-496064843Y-254199998D01*
X-496085430Y-253964684D01*
X-496085432Y-253964673D01*
X-496146566Y-253736516D01*
X-496146570Y-253736507D01*
X-496246401Y-253522419D01*
X-496305072Y-253438625D01*
X-496937037Y-254070590D01*
X-496954075Y-254007007D01*
X-497019901Y-253892993D01*
X-497112993Y-253799901D01*
X-497227007Y-253734075D01*
X-497290590Y-253717037D01*
X-496875679Y-253302127D01*
X-417850500Y-253302127D01*
X-417850499Y-255097872D01*
X-417844091Y-255157483D01*
X-417793796Y-255292331D01*
X-417707546Y-255407546D01*
X-417592331Y-255493796D01*
X-417457483Y-255544091D01*
X-417397873Y-255550500D01*
X-415602128Y-255550499D01*
X-415553757Y-255545299D01*
X-415542516Y-255544091D01*
X-415407671Y-255493797D01*
X-415407664Y-255493793D01*
X-415292455Y-255407547D01*
X-415292452Y-255407544D01*
X-415206206Y-255292335D01*
X-415206202Y-255292328D01*
X-415155908Y-255157482D01*
X-415149501Y-255097883D01*
X-415149500Y-255097881D01*
X-415149500Y-255097873D01*
X-415149500Y-255087310D01*
X-415129815Y-255020271D01*
X-415113181Y-254999629D01*
X-414442962Y-254329410D01*
X-414425925Y-254392993D01*
X-414360099Y-254507007D01*
X-414267007Y-254600099D01*
X-414152993Y-254665925D01*
X-414089409Y-254682962D01*
X-414721373Y-255314925D01*
X-414721373Y-255314926D01*
X-414637582Y-255373598D01*
X-414637578Y-255373600D01*
X-414423492Y-255473429D01*
X-414423483Y-255473433D01*
X-414195326Y-255534567D01*
X-414195315Y-255534569D01*
X-413960002Y-255555157D01*
X-413959998Y-255555157D01*
X-413724684Y-255534569D01*
X-413724673Y-255534567D01*
X-413496516Y-255473433D01*
X-413496507Y-255473429D01*
X-413282421Y-255373599D01*
X-413198625Y-255314925D01*
X-413830590Y-254682962D01*
X-413767007Y-254665925D01*
X-413652993Y-254600099D01*
X-413559901Y-254507007D01*
X-413494075Y-254392993D01*
X-413477037Y-254329409D01*
X-412845073Y-254961373D01*
X-412845072Y-254961373D01*
X-412791880Y-254885405D01*
X-412737304Y-254841780D01*
X-412667805Y-254834586D01*
X-412605451Y-254866108D01*
X-412588734Y-254885399D01*
X-412458495Y-255071401D01*
X-412291401Y-255238495D01*
X-412097830Y-255374035D01*
X-411883663Y-255473903D01*
X-411655408Y-255535063D01*
X-411478966Y-255550500D01*
X-411420001Y-255555659D01*
X-411420000Y-255555659D01*
X-411419999Y-255555659D01*
X-411361034Y-255550500D01*
X-411184592Y-255535063D01*
X-410956337Y-255473903D01*
X-410742170Y-255374035D01*
X-410742167Y-255374033D01*
X-410742165Y-255374032D01*
X-410645384Y-255306265D01*
X-410548599Y-255238495D01*
X-410381505Y-255071401D01*
X-410345703Y-255020271D01*
X-410245967Y-254877834D01*
X-410245965Y-254877830D01*
X-410225800Y-254834586D01*
X-410146097Y-254663663D01*
X-410146096Y-254663659D01*
X-410146094Y-254663655D01*
X-410084938Y-254435413D01*
X-410084936Y-254435403D01*
X-410064341Y-254200000D01*
X-410064341Y-254199999D01*
X-410084936Y-253964596D01*
X-410084938Y-253964586D01*
X-410146094Y-253736344D01*
X-410146098Y-253736335D01*
X-410245964Y-253522171D01*
X-410245965Y-253522169D01*
X-410381505Y-253328597D01*
X-410548597Y-253161506D01*
X-410548604Y-253161501D01*
X-410742165Y-253025967D01*
X-410742169Y-253025965D01*
X-410956335Y-252926098D01*
X-410956344Y-252926094D01*
X-411184586Y-252864938D01*
X-411184596Y-252864936D01*
X-411419999Y-252844341D01*
X-411420001Y-252844341D01*
X-411655403Y-252864936D01*
X-411655413Y-252864938D01*
X-411883655Y-252926094D01*
X-411883659Y-252926096D01*
X-411883663Y-252926097D01*
X-411990746Y-252976031D01*
X-412097828Y-253025964D01*
X-412097830Y-253025965D01*
X-412291402Y-253161505D01*
X-412458494Y-253328597D01*
X-412588730Y-253514594D01*
X-412643307Y-253558219D01*
X-412712805Y-253565413D01*
X-412775160Y-253533890D01*
X-412791881Y-253514594D01*
X-412845073Y-253438626D01*
X-413477037Y-254070589D01*
X-413494075Y-254007007D01*
X-413559901Y-253892993D01*
X-413652993Y-253799901D01*
X-413767007Y-253734075D01*
X-413830590Y-253717037D01*
X-413198625Y-253085073D01*
X-413198626Y-253085072D01*
X-413282417Y-253026402D01*
X-413496507Y-252926570D01*
X-413496516Y-252926566D01*
X-413724673Y-252865432D01*
X-413724684Y-252865430D01*
X-413959998Y-252844843D01*
X-413960002Y-252844843D01*
X-414195315Y-252865430D01*
X-414195326Y-252865432D01*
X-414423483Y-252926566D01*
X-414423492Y-252926570D01*
X-414637576Y-253026399D01*
X-414637578Y-253026400D01*
X-414721372Y-253085073D01*
X-414721373Y-253085074D01*
X-414089410Y-253717037D01*
X-414152993Y-253734075D01*
X-414267007Y-253799901D01*
X-414360099Y-253892993D01*
X-414425925Y-254007007D01*
X-414442962Y-254070589D01*
X-415113181Y-253400369D01*
X-415146666Y-253339046D01*
X-415149500Y-253312697D01*
X-415149500Y-253302134D01*
X-415149501Y-253302123D01*
X-415155908Y-253242516D01*
X-415206202Y-253107671D01*
X-415206206Y-253107664D01*
X-415292452Y-252992455D01*
X-415292455Y-252992452D01*
X-415407664Y-252906206D01*
X-415407671Y-252906202D01*
X-415542517Y-252855908D01*
X-415542516Y-252855908D01*
X-415602116Y-252849501D01*
X-415602119Y-252849500D01*
X-415602127Y-252849500D01*
X-415602134Y-252849500D01*
X-415602135Y-252849500D01*
X-417397870Y-252849500D01*
X-417397876Y-252849501D01*
X-417457483Y-252855908D01*
X-417592328Y-252906202D01*
X-417592335Y-252906206D01*
X-417707544Y-252992452D01*
X-417707547Y-252992455D01*
X-417793793Y-253107664D01*
X-417793795Y-253107668D01*
X-417793796Y-253107669D01*
X-417844091Y-253242517D01*
X-417850500Y-253302127D01*
X-496875679Y-253302127D01*
X-496658625Y-253085073D01*
X-496658626Y-253085072D01*
X-496742417Y-253026402D01*
X-496956507Y-252926570D01*
X-496956516Y-252926566D01*
X-497184673Y-252865432D01*
X-497184684Y-252865430D01*
X-497419998Y-252844843D01*
X-497420002Y-252844843D01*
X-497655315Y-252865430D01*
X-497655326Y-252865432D01*
X-497883483Y-252926566D01*
X-497883492Y-252926570D01*
X-498097576Y-253026399D01*
X-498097578Y-253026400D01*
X-498181372Y-253085073D01*
X-498181373Y-253085074D01*
X-497549410Y-253717037D01*
X-497612993Y-253734075D01*
X-497727007Y-253799901D01*
X-497820099Y-253892993D01*
X-497885925Y-254007007D01*
X-497902962Y-254070589D01*
X-498534925Y-253438625D01*
X-498534925Y-253438626D01*
X-498588119Y-253514595D01*
X-498642695Y-253558220D01*
X-498712194Y-253565414D01*
X-498774548Y-253533892D01*
X-498791269Y-253514595D01*
X-498921505Y-253328597D01*
X-499088597Y-253161506D01*
X-499088604Y-253161501D01*
X-499282165Y-253025967D01*
X-499282169Y-253025965D01*
X-499496335Y-252926098D01*
X-499496344Y-252926094D01*
X-499724586Y-252864938D01*
X-499724596Y-252864936D01*
X-499959999Y-252844341D01*
X-499960001Y-252844341D01*
X-500195403Y-252864936D01*
X-500195413Y-252864938D01*
X-500423655Y-252926094D01*
X-500423659Y-252926096D01*
X-500423663Y-252926097D01*
X-500530746Y-252976031D01*
X-500637828Y-253025964D01*
X-500637830Y-253025965D01*
X-500831402Y-253161505D01*
X-500998494Y-253328597D01*
X-501128425Y-253514158D01*
X-501183002Y-253557783D01*
X-501252500Y-253564977D01*
X-501314855Y-253533454D01*
X-501331575Y-253514158D01*
X-501461505Y-253328597D01*
X-501628597Y-253161506D01*
X-501628604Y-253161501D01*
X-501822165Y-253025967D01*
X-501822169Y-253025965D01*
X-502036335Y-252926098D01*
X-502036344Y-252926094D01*
X-502264586Y-252864938D01*
X-502264596Y-252864936D01*
X-502499999Y-252844341D01*
X-502500001Y-252844341D01*
X-502735403Y-252864936D01*
X-502735413Y-252864938D01*
X-502963655Y-252926094D01*
X-502963659Y-252926096D01*
X-502963663Y-252926097D01*
X-503070746Y-252976031D01*
X-503177828Y-253025964D01*
X-503177830Y-253025965D01*
X-503371402Y-253161505D01*
X-503538494Y-253328597D01*
X-503668730Y-253514595D01*
X-503674035Y-253522171D01*
X-503773903Y-253736337D01*
X-503835063Y-253964592D01*
X-503855659Y-254200000D01*
X-505267593Y-254200000D01*
X-505171741Y-254063727D01*
X-505165983Y-254056172D01*
X-505090457Y-253964592D01*
X-504855246Y-253679382D01*
X-504848929Y-253672293D01*
X-504510256Y-253320390D01*
X-504503411Y-253313803D01*
X-504272111Y-253107669D01*
X-504138798Y-252988861D01*
X-504131475Y-252982822D01*
X-504057058Y-252926097D01*
X-503743059Y-252686746D01*
X-503735291Y-252681282D01*
X-503325354Y-252415810D01*
X-503317208Y-252410966D01*
X-502888114Y-252177632D01*
X-502879616Y-252173425D01*
X-502433959Y-251973641D01*
X-502425157Y-251970093D01*
X-501965494Y-251805002D01*
X-501956463Y-251802144D01*
X-501485509Y-251672724D01*
X-501476291Y-251670566D01*
X-500996790Y-251577572D01*
X-500987440Y-251576128D01*
X-500502230Y-251520113D01*
X-500492800Y-251519389D01*
X-500025432Y-251501474D01*
X-500002373Y-251500591D01*
X-499997624Y-251500500D01*
X-463934110Y-251500500D01*
X-463934108Y-251500500D01*
X-463806814Y-251466392D01*
X-463692686Y-251400500D01*
X-463599500Y-251307314D01*
X-463566554Y-251250250D01*
X-463533608Y-251193187D01*
X-463500058Y-251067975D01*
X-463499500Y-251065892D01*
X-463499500Y-250850000D01*
X-461545277Y-250850000D01*
X-461526207Y-251067977D01*
X-461469575Y-251279330D01*
X-461377102Y-251477639D01*
X-461251598Y-251656877D01*
X-461096877Y-251811598D01*
X-460917639Y-251937102D01*
X-460719330Y-252029575D01*
X-460507977Y-252086207D01*
X-460322462Y-252102437D01*
X-460290002Y-252105277D01*
X-460290000Y-252105277D01*
X-460289998Y-252105277D01*
X-460259787Y-252102633D01*
X-460072023Y-252086207D01*
X-459860670Y-252029575D01*
X-459662361Y-251937102D01*
X-459483123Y-251811598D01*
X-459328402Y-251656877D01*
X-459202898Y-251477639D01*
X-459202897Y-251477638D01*
X-459132105Y-251325824D01*
X-459085932Y-251273385D01*
X-459018739Y-251254233D01*
X-458951858Y-251274449D01*
X-458907340Y-251325825D01*
X-458836666Y-251477388D01*
X-458793124Y-251539570D01*
X-458192138Y-250938584D01*
X-458169333Y-251023694D01*
X-458110090Y-251126306D01*
X-458026306Y-251210090D01*
X-457923694Y-251269333D01*
X-457838585Y-251292137D01*
X-458439571Y-251893124D01*
X-458377385Y-251936668D01*
X-458377383Y-251936669D01*
X-458179164Y-252029100D01*
X-458179150Y-252029105D01*
X-457967894Y-252085710D01*
X-457967884Y-252085712D01*
X-457750001Y-252104775D01*
X-457749999Y-252104775D01*
X-457532115Y-252085712D01*
X-457532105Y-252085710D01*
X-457320849Y-252029105D01*
X-457320840Y-252029101D01*
X-457122612Y-251936666D01*
X-457060427Y-251893124D01*
X-457661414Y-251292137D01*
X-457576306Y-251269333D01*
X-457473694Y-251210090D01*
X-457389910Y-251126306D01*
X-457330667Y-251023694D01*
X-457307861Y-250938584D01*
X-456706874Y-251539571D01*
X-456663333Y-251477387D01*
X-456592658Y-251325824D01*
X-456546486Y-251273385D01*
X-456479292Y-251254233D01*
X-456412411Y-251274449D01*
X-456367895Y-251325822D01*
X-456297102Y-251477639D01*
X-456171598Y-251656877D01*
X-456016877Y-251811598D01*
X-455837639Y-251937102D01*
X-455639330Y-252029575D01*
X-455427977Y-252086207D01*
X-455242462Y-252102437D01*
X-455210002Y-252105277D01*
X-455210000Y-252105277D01*
X-455209998Y-252105277D01*
X-455179787Y-252102633D01*
X-454992023Y-252086207D01*
X-454780670Y-252029575D01*
X-454582361Y-251937102D01*
X-454403123Y-251811598D01*
X-454248402Y-251656877D01*
X-454122898Y-251477639D01*
X-454052381Y-251326414D01*
X-454006210Y-251273977D01*
X-453939016Y-251254825D01*
X-453872135Y-251275041D01*
X-453827618Y-251326414D01*
X-453757102Y-251477639D01*
X-453631598Y-251656877D01*
X-453476877Y-251811598D01*
X-453297639Y-251937102D01*
X-453099330Y-252029575D01*
X-452887977Y-252086207D01*
X-452702462Y-252102437D01*
X-452670002Y-252105277D01*
X-452670000Y-252105277D01*
X-452669998Y-252105277D01*
X-452639787Y-252102633D01*
X-452452023Y-252086207D01*
X-452240670Y-252029575D01*
X-452042361Y-251937102D01*
X-451863123Y-251811598D01*
X-451708402Y-251656877D01*
X-451582898Y-251477639D01*
X-451582897Y-251477638D01*
X-451503475Y-251307316D01*
X-451490425Y-251279330D01*
X-451490424Y-251279326D01*
X-451490422Y-251279322D01*
X-451433793Y-251067979D01*
X-451433793Y-251067975D01*
X-451433610Y-251065890D01*
X-451414723Y-250850000D01*
X-451433793Y-250632023D01*
X-451433793Y-250632020D01*
X-451490422Y-250420677D01*
X-451490426Y-250420668D01*
X-451582898Y-250222361D01*
X-451582900Y-250222357D01*
X-451708400Y-250043124D01*
X-451863122Y-249888403D01*
X-452042361Y-249762897D01*
X-452240668Y-249670426D01*
X-452240677Y-249670422D01*
X-452452022Y-249613793D01*
X-452669998Y-249594723D01*
X-452670002Y-249594723D01*
X-452778988Y-249604258D01*
X-452887977Y-249613793D01*
X-452887979Y-249613793D01*
X-453099322Y-249670422D01*
X-453099326Y-249670424D01*
X-453099330Y-249670425D01*
X-453297636Y-249762897D01*
X-453297638Y-249762898D01*
X-453297642Y-249762900D01*
X-453476878Y-249888402D01*
X-453631597Y-250043121D01*
X-453757099Y-250222357D01*
X-453757099Y-250222358D01*
X-453757102Y-250222362D01*
X-453813118Y-250342488D01*
X-453827618Y-250373583D01*
X-453873791Y-250426022D01*
X-453940984Y-250445174D01*
X-454007865Y-250424958D01*
X-454052382Y-250373583D01*
X-454122898Y-250222361D01*
X-454122900Y-250222357D01*
X-454248400Y-250043124D01*
X-454403122Y-249888403D01*
X-454582361Y-249762897D01*
X-454780668Y-249670426D01*
X-454780677Y-249670422D01*
X-454992022Y-249613793D01*
X-455209998Y-249594723D01*
X-455210002Y-249594723D01*
X-455318988Y-249604258D01*
X-455427977Y-249613793D01*
X-455427979Y-249613793D01*
X-455639322Y-249670422D01*
X-455639326Y-249670424D01*
X-455639330Y-249670425D01*
X-455837636Y-249762897D01*
X-455837638Y-249762898D01*
X-455837642Y-249762900D01*
X-456016878Y-249888402D01*
X-456171597Y-250043121D01*
X-456297099Y-250222357D01*
X-456297099Y-250222358D01*
X-456297102Y-250222362D01*
X-456358402Y-250353820D01*
X-456367894Y-250374175D01*
X-456414067Y-250426614D01*
X-456481260Y-250445766D01*
X-456548141Y-250425550D01*
X-456592658Y-250374175D01*
X-456663333Y-250222613D01*
X-456706874Y-250160428D01*
X-457307861Y-250761415D01*
X-457330667Y-250676306D01*
X-457389910Y-250573694D01*
X-457473694Y-250489910D01*
X-457576306Y-250430667D01*
X-457661415Y-250407861D01*
X-457060427Y-249806874D01*
X-457060428Y-249806873D01*
X-457122608Y-249763335D01*
X-457320840Y-249670898D01*
X-457320849Y-249670894D01*
X-457532105Y-249614289D01*
X-457532115Y-249614287D01*
X-457749999Y-249595225D01*
X-457750001Y-249595225D01*
X-457967884Y-249614287D01*
X-457967894Y-249614289D01*
X-458179150Y-249670894D01*
X-458179159Y-249670898D01*
X-458377390Y-249763335D01*
X-458439570Y-249806873D01*
X-458439571Y-249806875D01*
X-457838584Y-250407861D01*
X-457923694Y-250430667D01*
X-458026306Y-250489910D01*
X-458110090Y-250573694D01*
X-458169333Y-250676306D01*
X-458192137Y-250761414D01*
X-458793124Y-250160427D01*
X-458793124Y-250160428D01*
X-458836666Y-250222612D01*
X-458836667Y-250222614D01*
X-458907341Y-250374175D01*
X-458953513Y-250426614D01*
X-459020707Y-250445766D01*
X-459087588Y-250425550D01*
X-459132105Y-250374176D01*
X-459190197Y-250249597D01*
X-459202898Y-250222362D01*
X-459202898Y-250222361D01*
X-459202900Y-250222358D01*
X-459202900Y-250222357D01*
X-459328400Y-250043124D01*
X-459483122Y-249888403D01*
X-459662361Y-249762897D01*
X-459860668Y-249670426D01*
X-459860677Y-249670422D01*
X-460072022Y-249613793D01*
X-460289998Y-249594723D01*
X-460290002Y-249594723D01*
X-460398988Y-249604258D01*
X-460507977Y-249613793D01*
X-460507979Y-249613793D01*
X-460719322Y-249670422D01*
X-460719326Y-249670424D01*
X-460719330Y-249670425D01*
X-460917636Y-249762897D01*
X-460917638Y-249762898D01*
X-460917642Y-249762900D01*
X-461096878Y-249888402D01*
X-461251597Y-250043121D01*
X-461377099Y-250222357D01*
X-461377099Y-250222358D01*
X-461377102Y-250222362D01*
X-461469575Y-250420670D01*
X-461469576Y-250420676D01*
X-461469577Y-250420677D01*
X-461488128Y-250489910D01*
X-461526207Y-250632023D01*
X-461545277Y-250850000D01*
X-463499500Y-250850000D01*
X-463499500Y-248310000D01*
X-462815277Y-248310000D01*
X-462796207Y-248527977D01*
X-462739575Y-248739330D01*
X-462647102Y-248937639D01*
X-462521598Y-249116877D01*
X-462366877Y-249271598D01*
X-462187639Y-249397102D01*
X-461989330Y-249489575D01*
X-461777977Y-249546207D01*
X-461592462Y-249562437D01*
X-461560002Y-249565277D01*
X-461560000Y-249565277D01*
X-461559998Y-249565277D01*
X-461529787Y-249562633D01*
X-461342023Y-249546207D01*
X-461130670Y-249489575D01*
X-460932361Y-249397102D01*
X-460753123Y-249271598D01*
X-460598402Y-249116877D01*
X-460472898Y-248937639D01*
X-460402381Y-248786414D01*
X-460356210Y-248733977D01*
X-460289016Y-248714825D01*
X-460222135Y-248735041D01*
X-460177618Y-248786414D01*
X-460107102Y-248937639D01*
X-459981598Y-249116877D01*
X-459826877Y-249271598D01*
X-459647639Y-249397102D01*
X-459449330Y-249489575D01*
X-459237977Y-249546207D01*
X-459052462Y-249562437D01*
X-459020002Y-249565277D01*
X-459020000Y-249565277D01*
X-459019998Y-249565277D01*
X-458989787Y-249562633D01*
X-458802023Y-249546207D01*
X-458590670Y-249489575D01*
X-458392361Y-249397102D01*
X-458213123Y-249271598D01*
X-458058402Y-249116877D01*
X-457932898Y-248937639D01*
X-457862381Y-248786414D01*
X-457816210Y-248733977D01*
X-457749016Y-248714825D01*
X-457682135Y-248735041D01*
X-457637618Y-248786414D01*
X-457567102Y-248937639D01*
X-457441598Y-249116877D01*
X-457286877Y-249271598D01*
X-457107639Y-249397102D01*
X-456909330Y-249489575D01*
X-456697977Y-249546207D01*
X-456512462Y-249562437D01*
X-456480002Y-249565277D01*
X-456480000Y-249565277D01*
X-456479998Y-249565277D01*
X-456449787Y-249562633D01*
X-456262023Y-249546207D01*
X-456050670Y-249489575D01*
X-455852361Y-249397102D01*
X-455673123Y-249271598D01*
X-455518402Y-249116877D01*
X-455392898Y-248937639D01*
X-455322381Y-248786414D01*
X-455276210Y-248733977D01*
X-455209016Y-248714825D01*
X-455142135Y-248735041D01*
X-455097618Y-248786414D01*
X-455027102Y-248937639D01*
X-454901598Y-249116877D01*
X-454746877Y-249271598D01*
X-454567639Y-249397102D01*
X-454369330Y-249489575D01*
X-454157977Y-249546207D01*
X-453972462Y-249562437D01*
X-453940002Y-249565277D01*
X-453940000Y-249565277D01*
X-453939998Y-249565277D01*
X-453909787Y-249562633D01*
X-453722023Y-249546207D01*
X-453510670Y-249489575D01*
X-453312361Y-249397102D01*
X-453133123Y-249271598D01*
X-452978402Y-249116877D01*
X-452852898Y-248937639D01*
X-452852897Y-248937638D01*
X-452782382Y-248786416D01*
X-452760425Y-248739330D01*
X-452760424Y-248739326D01*
X-452760422Y-248739322D01*
X-452703793Y-248527979D01*
X-452703793Y-248527975D01*
X-452684723Y-248310002D01*
X-452684723Y-248309997D01*
X-452703793Y-248092024D01*
X-452703793Y-248092020D01*
X-452760422Y-247880677D01*
X-452760426Y-247880668D01*
X-452852898Y-247682361D01*
X-452852900Y-247682357D01*
X-452978400Y-247503124D01*
X-453133122Y-247348403D01*
X-453312361Y-247222897D01*
X-453510668Y-247130426D01*
X-453510677Y-247130422D01*
X-453722022Y-247073793D01*
X-453939998Y-247054723D01*
X-453940002Y-247054723D01*
X-454048988Y-247064258D01*
X-454157977Y-247073793D01*
X-454157979Y-247073793D01*
X-454369322Y-247130422D01*
X-454369326Y-247130424D01*
X-454369330Y-247130425D01*
X-454567636Y-247222897D01*
X-454567638Y-247222898D01*
X-454567642Y-247222900D01*
X-454746878Y-247348402D01*
X-454901597Y-247503121D01*
X-455027099Y-247682357D01*
X-455027100Y-247682359D01*
X-455027102Y-247682362D01*
X-455083118Y-247802488D01*
X-455097618Y-247833583D01*
X-455143791Y-247886022D01*
X-455210984Y-247905174D01*
X-455277865Y-247884958D01*
X-455322382Y-247833583D01*
X-455392898Y-247682361D01*
X-455392900Y-247682357D01*
X-455518400Y-247503124D01*
X-455673122Y-247348403D01*
X-455852361Y-247222897D01*
X-456050668Y-247130426D01*
X-456050677Y-247130422D01*
X-456262022Y-247073793D01*
X-456479998Y-247054723D01*
X-456480002Y-247054723D01*
X-456588988Y-247064258D01*
X-456697977Y-247073793D01*
X-456697979Y-247073793D01*
X-456909322Y-247130422D01*
X-456909326Y-247130424D01*
X-456909330Y-247130425D01*
X-457107636Y-247222897D01*
X-457107638Y-247222898D01*
X-457107642Y-247222900D01*
X-457286878Y-247348402D01*
X-457441597Y-247503121D01*
X-457567099Y-247682357D01*
X-457567100Y-247682359D01*
X-457567102Y-247682362D01*
X-457623118Y-247802488D01*
X-457637618Y-247833583D01*
X-457683791Y-247886022D01*
X-457750984Y-247905174D01*
X-457817865Y-247884958D01*
X-457862382Y-247833583D01*
X-457932898Y-247682361D01*
X-457932900Y-247682357D01*
X-458058400Y-247503124D01*
X-458213122Y-247348403D01*
X-458392361Y-247222897D01*
X-458590668Y-247130426D01*
X-458590677Y-247130422D01*
X-458802022Y-247073793D01*
X-459019998Y-247054723D01*
X-459020002Y-247054723D01*
X-459128988Y-247064258D01*
X-459237977Y-247073793D01*
X-459237979Y-247073793D01*
X-459449322Y-247130422D01*
X-459449326Y-247130424D01*
X-459449330Y-247130425D01*
X-459647636Y-247222897D01*
X-459647638Y-247222898D01*
X-459647642Y-247222900D01*
X-459826878Y-247348402D01*
X-459981597Y-247503121D01*
X-460107099Y-247682357D01*
X-460107100Y-247682359D01*
X-460107102Y-247682362D01*
X-460163118Y-247802488D01*
X-460177618Y-247833583D01*
X-460223791Y-247886022D01*
X-460290984Y-247905174D01*
X-460357865Y-247884958D01*
X-460402382Y-247833583D01*
X-460472898Y-247682361D01*
X-460472900Y-247682357D01*
X-460598400Y-247503124D01*
X-460753122Y-247348403D01*
X-460932361Y-247222897D01*
X-461130668Y-247130426D01*
X-461130677Y-247130422D01*
X-461342022Y-247073793D01*
X-461559998Y-247054723D01*
X-461560002Y-247054723D01*
X-461668988Y-247064258D01*
X-461777977Y-247073793D01*
X-461777979Y-247073793D01*
X-461989322Y-247130422D01*
X-461989326Y-247130424D01*
X-461989330Y-247130425D01*
X-462187636Y-247222897D01*
X-462187638Y-247222898D01*
X-462187642Y-247222900D01*
X-462366878Y-247348402D01*
X-462521597Y-247503121D01*
X-462647099Y-247682357D01*
X-462647100Y-247682359D01*
X-462647102Y-247682362D01*
X-462739575Y-247880670D01*
X-462796207Y-248092023D01*
X-462815277Y-248310000D01*
X-463499500Y-248310000D01*
X-463499500Y-225188097D01*
X-458520500Y-225188097D01*
X-458483553Y-225421368D01*
X-458410568Y-225645992D01*
X-458303343Y-225856433D01*
X-458164517Y-226047510D01*
X-457997510Y-226214517D01*
X-457806433Y-226353343D01*
X-457595992Y-226460568D01*
X-457371368Y-226533553D01*
X-457138097Y-226570500D01*
X-457138092Y-226570500D01*
X-456901903Y-226570500D01*
X-456668631Y-226533553D01*
X-456564412Y-226499689D01*
X-456444008Y-226460568D01*
X-456444005Y-226460566D01*
X-456444003Y-226460566D01*
X-456332991Y-226404002D01*
X-456233567Y-226353343D01*
X-456042490Y-226214517D01*
X-455875483Y-226047510D01*
X-455736657Y-225856433D01*
X-455629433Y-225645996D01*
X-455556446Y-225421368D01*
X-455519500Y-225188097D01*
X-455519500Y-224951902D01*
X-455556446Y-224718631D01*
X-455629433Y-224494003D01*
X-455736657Y-224283566D01*
X-455815862Y-224174550D01*
X-455875483Y-224092490D01*
X-455875485Y-224092488D01*
X-455875485Y-224092487D01*
X-456042487Y-223925485D01*
X-456233566Y-223786657D01*
X-456444003Y-223679433D01*
X-456668631Y-223606446D01*
X-456901903Y-223569500D01*
X-456901908Y-223569500D01*
X-457138092Y-223569500D01*
X-457138097Y-223569500D01*
X-457371368Y-223606446D01*
X-457595996Y-223679433D01*
X-457806433Y-223786657D01*
X-457997510Y-223925483D01*
X-458164517Y-224092490D01*
X-458303342Y-224283566D01*
X-458410566Y-224494003D01*
X-458483553Y-224718631D01*
X-458520500Y-224951902D01*
X-458520500Y-225188097D01*
X-463499500Y-225188097D01*
X-463499500Y-204858097D01*
X-458440500Y-204858097D01*
X-458403553Y-205091368D01*
X-458330568Y-205315992D01*
X-458223343Y-205526433D01*
X-458084517Y-205717510D01*
X-457917510Y-205884517D01*
X-457726433Y-206023343D01*
X-457515992Y-206130568D01*
X-457291368Y-206203553D01*
X-457058097Y-206240500D01*
X-457058092Y-206240500D01*
X-456821903Y-206240500D01*
X-456588631Y-206203553D01*
X-456484412Y-206169689D01*
X-456364008Y-206130568D01*
X-456364005Y-206130566D01*
X-456364003Y-206130566D01*
X-456252991Y-206074002D01*
X-456153567Y-206023343D01*
X-455962490Y-205884517D01*
X-455795483Y-205717510D01*
X-455656657Y-205526433D01*
X-455549433Y-205315996D01*
X-455476446Y-205091368D01*
X-455439500Y-204858097D01*
X-455439500Y-204621902D01*
X-455476446Y-204388631D01*
X-455549433Y-204164003D01*
X-455656657Y-203953566D01*
X-455735862Y-203844550D01*
X-455795483Y-203762490D01*
X-455795485Y-203762488D01*
X-455795485Y-203762487D01*
X-455962487Y-203595485D01*
X-456153566Y-203456657D01*
X-456364003Y-203349433D01*
X-456588631Y-203276446D01*
X-456821903Y-203239500D01*
X-456821908Y-203239500D01*
X-457058092Y-203239500D01*
X-457058097Y-203239500D01*
X-457291368Y-203276446D01*
X-457515996Y-203349433D01*
X-457726433Y-203456657D01*
X-457917510Y-203595483D01*
X-458084517Y-203762490D01*
X-458223342Y-203953566D01*
X-458330566Y-204164003D01*
X-458403553Y-204388631D01*
X-458440500Y-204621902D01*
X-458440500Y-204858097D01*
X-463499500Y-204858097D01*
X-463499500Y-178934108D01*
X-463499535Y-178933976D01*
X-463533608Y-178806812D01*
X-463599500Y-178692686D01*
X-463599502Y-178692683D01*
X-463692683Y-178599502D01*
X-463692686Y-178599500D01*
X-463806812Y-178533608D01*
X-463934108Y-178499500D01*
X-499997624Y-178499500D01*
X-500002374Y-178499409D01*
X-500492780Y-178480611D01*
X-500502251Y-178479884D01*
X-500987421Y-178423874D01*
X-500996809Y-178422424D01*
X-501476276Y-178329436D01*
X-501485525Y-178327271D01*
X-501956450Y-178197859D01*
X-501965506Y-178194993D01*
X-502425153Y-178029907D01*
X-502433963Y-178026356D01*
X-502879608Y-177826577D01*
X-502888121Y-177822363D01*
X-503317198Y-177589039D01*
X-503325363Y-177584184D01*
X-503735291Y-177318717D01*
X-503743061Y-177313252D01*
X-504131475Y-177017177D01*
X-504138803Y-177011134D01*
X-504503411Y-176686196D01*
X-504510256Y-176679609D01*
X-504848929Y-176327706D01*
X-504855249Y-176320614D01*
X-505165983Y-175943827D01*
X-505171741Y-175936272D01*
X-505267592Y-175800000D01*
X-503935659Y-175800000D01*
X-503915063Y-176035408D01*
X-503853903Y-176263663D01*
X-503754035Y-176477830D01*
X-503618495Y-176671401D01*
X-503451401Y-176838495D01*
X-503257830Y-176974035D01*
X-503043663Y-177073903D01*
X-502815408Y-177135063D01*
X-502638966Y-177150500D01*
X-502580001Y-177155659D01*
X-502580000Y-177155659D01*
X-502579999Y-177155659D01*
X-502521034Y-177150500D01*
X-502344592Y-177135063D01*
X-502116337Y-177073903D01*
X-501902170Y-176974035D01*
X-501902167Y-176974033D01*
X-501902165Y-176974032D01*
X-501805384Y-176906265D01*
X-501708599Y-176838495D01*
X-501541505Y-176671401D01*
X-501411269Y-176485405D01*
X-501356692Y-176441781D01*
X-501287193Y-176434588D01*
X-501224839Y-176466110D01*
X-501208119Y-176485405D01*
X-501154925Y-176561373D01*
X-500522962Y-175929410D01*
X-500505925Y-175992993D01*
X-500440099Y-176107007D01*
X-500347007Y-176200099D01*
X-500232993Y-176265925D01*
X-500169409Y-176282962D01*
X-500801373Y-176914925D01*
X-500801373Y-176914926D01*
X-500717582Y-176973598D01*
X-500717578Y-176973600D01*
X-500503492Y-177073429D01*
X-500503483Y-177073433D01*
X-500275326Y-177134567D01*
X-500275315Y-177134569D01*
X-500040002Y-177155157D01*
X-500039998Y-177155157D01*
X-499804684Y-177134569D01*
X-499804673Y-177134567D01*
X-499576516Y-177073433D01*
X-499576507Y-177073429D01*
X-499362421Y-176973599D01*
X-499278625Y-176914925D01*
X-499910590Y-176282962D01*
X-499847007Y-176265925D01*
X-499732993Y-176200099D01*
X-499639901Y-176107007D01*
X-499574075Y-175992993D01*
X-499557037Y-175929409D01*
X-498886818Y-176599629D01*
X-498853333Y-176660952D01*
X-498850499Y-176687309D01*
X-498850499Y-176697872D01*
X-498844091Y-176757483D01*
X-498793796Y-176892331D01*
X-498707546Y-177007546D01*
X-498592331Y-177093796D01*
X-498457483Y-177144091D01*
X-498397873Y-177150500D01*
X-496602128Y-177150499D01*
X-496553757Y-177145299D01*
X-496542516Y-177144091D01*
X-496407671Y-177093797D01*
X-496407664Y-177093793D01*
X-496292455Y-177007547D01*
X-496292452Y-177007544D01*
X-496206206Y-176892335D01*
X-496206202Y-176892328D01*
X-496155908Y-176757482D01*
X-496149501Y-176697883D01*
X-496149500Y-176697881D01*
X-496149500Y-176697873D01*
X-496149500Y-175800001D01*
X-496149500Y-175800000D01*
X-417935659Y-175800000D01*
X-417915063Y-176035408D01*
X-417853903Y-176263663D01*
X-417754035Y-176477830D01*
X-417618495Y-176671401D01*
X-417451401Y-176838495D01*
X-417257830Y-176974035D01*
X-417043663Y-177073903D01*
X-416815408Y-177135063D01*
X-416638966Y-177150500D01*
X-416580001Y-177155659D01*
X-416580000Y-177155659D01*
X-416579999Y-177155659D01*
X-416521034Y-177150500D01*
X-416344592Y-177135063D01*
X-416116337Y-177073903D01*
X-415902170Y-176974035D01*
X-415902167Y-176974033D01*
X-415902165Y-176974032D01*
X-415805384Y-176906265D01*
X-415708599Y-176838495D01*
X-415541505Y-176671401D01*
X-415541500Y-176671395D01*
X-415411575Y-176485842D01*
X-415356998Y-176442217D01*
X-415287500Y-176435023D01*
X-415225145Y-176466546D01*
X-415208424Y-176485842D01*
X-415078495Y-176671401D01*
X-414911401Y-176838495D01*
X-414717830Y-176974035D01*
X-414503663Y-177073903D01*
X-414275408Y-177135063D01*
X-414098966Y-177150500D01*
X-414040001Y-177155659D01*
X-414040000Y-177155659D01*
X-414039999Y-177155659D01*
X-413981034Y-177150500D01*
X-413804592Y-177135063D01*
X-413576337Y-177073903D01*
X-413362170Y-176974035D01*
X-413362167Y-176974033D01*
X-413362165Y-176974032D01*
X-413265384Y-176906265D01*
X-413168599Y-176838495D01*
X-413001505Y-176671401D01*
X-413001500Y-176671395D01*
X-412871575Y-176485842D01*
X-412816998Y-176442217D01*
X-412747500Y-176435023D01*
X-412685145Y-176466546D01*
X-412668424Y-176485842D01*
X-412538495Y-176671401D01*
X-412371401Y-176838495D01*
X-412177830Y-176974035D01*
X-411963663Y-177073903D01*
X-411735408Y-177135063D01*
X-411558966Y-177150500D01*
X-411500001Y-177155659D01*
X-411500000Y-177155659D01*
X-411499999Y-177155659D01*
X-411441034Y-177150500D01*
X-411264592Y-177135063D01*
X-411036337Y-177073903D01*
X-410822170Y-176974035D01*
X-410822167Y-176974033D01*
X-410822165Y-176974032D01*
X-410725384Y-176906265D01*
X-410628599Y-176838495D01*
X-410461505Y-176671401D01*
X-410434281Y-176632521D01*
X-410325967Y-176477834D01*
X-410325965Y-176477830D01*
X-410255961Y-176327706D01*
X-410226097Y-176263663D01*
X-410226096Y-176263659D01*
X-410226094Y-176263655D01*
X-410164938Y-176035413D01*
X-410164936Y-176035403D01*
X-410144341Y-175800000D01*
X-410144341Y-175799999D01*
X-410164936Y-175564596D01*
X-410164938Y-175564586D01*
X-410226094Y-175336344D01*
X-410226098Y-175336335D01*
X-410325964Y-175122171D01*
X-410325965Y-175122169D01*
X-410461505Y-174928597D01*
X-410628597Y-174761506D01*
X-410628604Y-174761501D01*
X-410822165Y-174625967D01*
X-410822169Y-174625965D01*
X-411036335Y-174526098D01*
X-411036344Y-174526094D01*
X-411264586Y-174464938D01*
X-411264596Y-174464936D01*
X-411499999Y-174444341D01*
X-411500001Y-174444341D01*
X-411735403Y-174464936D01*
X-411735413Y-174464938D01*
X-411963655Y-174526094D01*
X-411963659Y-174526096D01*
X-411963663Y-174526097D01*
X-412070746Y-174576031D01*
X-412177828Y-174625964D01*
X-412177830Y-174625965D01*
X-412371402Y-174761505D01*
X-412538494Y-174928597D01*
X-412668425Y-175114158D01*
X-412723002Y-175157783D01*
X-412792500Y-175164977D01*
X-412854855Y-175133454D01*
X-412871575Y-175114158D01*
X-413001505Y-174928597D01*
X-413168597Y-174761506D01*
X-413168604Y-174761501D01*
X-413362165Y-174625967D01*
X-413362169Y-174625965D01*
X-413576335Y-174526098D01*
X-413576344Y-174526094D01*
X-413804586Y-174464938D01*
X-413804596Y-174464936D01*
X-414039999Y-174444341D01*
X-414040001Y-174444341D01*
X-414275403Y-174464936D01*
X-414275413Y-174464938D01*
X-414503655Y-174526094D01*
X-414503659Y-174526096D01*
X-414503663Y-174526097D01*
X-414610746Y-174576031D01*
X-414717828Y-174625964D01*
X-414717830Y-174625965D01*
X-414911402Y-174761505D01*
X-415078494Y-174928597D01*
X-415208425Y-175114158D01*
X-415263002Y-175157783D01*
X-415332500Y-175164977D01*
X-415394855Y-175133454D01*
X-415411575Y-175114158D01*
X-415541505Y-174928597D01*
X-415708597Y-174761506D01*
X-415708604Y-174761501D01*
X-415902165Y-174625967D01*
X-415902169Y-174625965D01*
X-416116335Y-174526098D01*
X-416116344Y-174526094D01*
X-416344586Y-174464938D01*
X-416344596Y-174464936D01*
X-416579999Y-174444341D01*
X-416580001Y-174444341D01*
X-416815403Y-174464936D01*
X-416815413Y-174464938D01*
X-417043655Y-174526094D01*
X-417043659Y-174526096D01*
X-417043663Y-174526097D01*
X-417150746Y-174576031D01*
X-417257828Y-174625964D01*
X-417257830Y-174625965D01*
X-417451402Y-174761505D01*
X-417618494Y-174928597D01*
X-417748730Y-175114595D01*
X-417754035Y-175122171D01*
X-417853903Y-175336337D01*
X-417915063Y-175564592D01*
X-417935659Y-175800000D01*
X-496149500Y-175800000D01*
X-496149500Y-174902129D01*
X-496149501Y-174902123D01*
X-496155908Y-174842516D01*
X-496206202Y-174707671D01*
X-496206206Y-174707664D01*
X-496292452Y-174592455D01*
X-496292455Y-174592452D01*
X-496407664Y-174506206D01*
X-496407671Y-174506202D01*
X-496542517Y-174455908D01*
X-496542516Y-174455908D01*
X-496602116Y-174449501D01*
X-496602119Y-174449500D01*
X-496602127Y-174449500D01*
X-496602134Y-174449500D01*
X-496602135Y-174449500D01*
X-498397870Y-174449500D01*
X-498397876Y-174449501D01*
X-498457483Y-174455908D01*
X-498592328Y-174506202D01*
X-498592335Y-174506206D01*
X-498707544Y-174592452D01*
X-498707547Y-174592455D01*
X-498793793Y-174707664D01*
X-498793795Y-174707668D01*
X-498793796Y-174707669D01*
X-498844091Y-174842517D01*
X-498850500Y-174902127D01*
X-498850499Y-174912684D01*
X-498870179Y-174979722D01*
X-498886818Y-175000371D01*
X-499557037Y-175670589D01*
X-499574075Y-175607007D01*
X-499639901Y-175492993D01*
X-499732993Y-175399901D01*
X-499847007Y-175334075D01*
X-499910590Y-175317037D01*
X-499278625Y-174685073D01*
X-499278626Y-174685072D01*
X-499362417Y-174626402D01*
X-499576507Y-174526570D01*
X-499576516Y-174526566D01*
X-499804673Y-174465432D01*
X-499804684Y-174465430D01*
X-500039998Y-174444843D01*
X-500040002Y-174444843D01*
X-500275315Y-174465430D01*
X-500275326Y-174465432D01*
X-500503483Y-174526566D01*
X-500503492Y-174526570D01*
X-500717576Y-174626399D01*
X-500717578Y-174626400D01*
X-500801372Y-174685073D01*
X-500801373Y-174685074D01*
X-500169410Y-175317037D01*
X-500232993Y-175334075D01*
X-500347007Y-175399901D01*
X-500440099Y-175492993D01*
X-500505925Y-175607007D01*
X-500522962Y-175670589D01*
X-501154925Y-175038625D01*
X-501154925Y-175038626D01*
X-501208119Y-175114595D01*
X-501262695Y-175158220D01*
X-501332194Y-175165414D01*
X-501394548Y-175133892D01*
X-501411269Y-175114595D01*
X-501541505Y-174928597D01*
X-501708597Y-174761506D01*
X-501708604Y-174761501D01*
X-501902165Y-174625967D01*
X-501902169Y-174625965D01*
X-502116335Y-174526098D01*
X-502116344Y-174526094D01*
X-502344586Y-174464938D01*
X-502344596Y-174464936D01*
X-502579999Y-174444341D01*
X-502580001Y-174444341D01*
X-502815403Y-174464936D01*
X-502815413Y-174464938D01*
X-503043655Y-174526094D01*
X-503043659Y-174526096D01*
X-503043663Y-174526097D01*
X-503150746Y-174576031D01*
X-503257828Y-174625964D01*
X-503257830Y-174625965D01*
X-503451402Y-174761505D01*
X-503618494Y-174928597D01*
X-503748730Y-175114595D01*
X-503754035Y-175122171D01*
X-503853903Y-175336337D01*
X-503915063Y-175564592D01*
X-503935659Y-175800000D01*
X-505267592Y-175800000D01*
X-505452720Y-175536804D01*
X-505457884Y-175528831D01*
X-505707466Y-175109016D01*
X-505712004Y-175100671D01*
X-505761666Y-175000371D01*
X-505879938Y-174761501D01*
X-505928707Y-174663003D01*
X-505932592Y-174654336D01*
X-506115162Y-174201352D01*
X-506118373Y-174192411D01*
X-506265731Y-173726779D01*
X-506268248Y-173717620D01*
X-506379528Y-173242081D01*
X-506381337Y-173232756D01*
X-506455892Y-172750076D01*
X-506456981Y-172740639D01*
X-506494367Y-172253690D01*
X-506494731Y-172244198D01*
X-506494731Y-171755801D01*
X-506494367Y-171746309D01*
X-506493277Y-171732119D01*
X-506456981Y-171259360D01*
X-506455892Y-171249923D01*
X-506381337Y-170767243D01*
X-506379528Y-170757918D01*
X-506268248Y-170282379D01*
X-506265731Y-170273220D01*
X-506118373Y-169807588D01*
X-506115162Y-169798647D01*
X-505932592Y-169345663D01*
X-505928707Y-169336996D01*
X-505906590Y-169292328D01*
X-505711995Y-168899312D01*
X-505707466Y-168890983D01*
X-505457884Y-168471168D01*
X-505452720Y-168463195D01*
X-505267593Y-168200000D01*
X-503855659Y-168200000D01*
X-503835063Y-168435408D01*
X-503773903Y-168663663D01*
X-503674035Y-168877830D01*
X-503538495Y-169071401D01*
X-503371401Y-169238495D01*
X-503177830Y-169374035D01*
X-502963663Y-169473903D01*
X-502735408Y-169535063D01*
X-502558966Y-169550500D01*
X-502500001Y-169555659D01*
X-502500000Y-169555659D01*
X-502499999Y-169555659D01*
X-502441034Y-169550500D01*
X-502264592Y-169535063D01*
X-502036337Y-169473903D01*
X-501822170Y-169374035D01*
X-501822167Y-169374033D01*
X-501822165Y-169374032D01*
X-501725384Y-169306265D01*
X-501628599Y-169238495D01*
X-501461505Y-169071401D01*
X-501461500Y-169071395D01*
X-501331575Y-168885842D01*
X-501276998Y-168842217D01*
X-501207500Y-168835023D01*
X-501145145Y-168866546D01*
X-501128424Y-168885842D01*
X-500998495Y-169071401D01*
X-500831401Y-169238495D01*
X-500637830Y-169374035D01*
X-500423663Y-169473903D01*
X-500195408Y-169535063D01*
X-500018966Y-169550500D01*
X-499960001Y-169555659D01*
X-499960000Y-169555659D01*
X-499959999Y-169555659D01*
X-499901034Y-169550500D01*
X-499724592Y-169535063D01*
X-499496337Y-169473903D01*
X-499282170Y-169374035D01*
X-499282167Y-169374033D01*
X-499282165Y-169374032D01*
X-499185384Y-169306265D01*
X-499088599Y-169238495D01*
X-498921505Y-169071401D01*
X-498921500Y-169071395D01*
X-498791575Y-168885842D01*
X-498736998Y-168842217D01*
X-498667500Y-168835023D01*
X-498605145Y-168866546D01*
X-498588424Y-168885842D01*
X-498458495Y-169071401D01*
X-498291401Y-169238495D01*
X-498097830Y-169374035D01*
X-497883663Y-169473903D01*
X-497655408Y-169535063D01*
X-497478966Y-169550500D01*
X-497420001Y-169555659D01*
X-497420000Y-169555659D01*
X-497419999Y-169555659D01*
X-497361034Y-169550500D01*
X-497184592Y-169535063D01*
X-496956337Y-169473903D01*
X-496742170Y-169374035D01*
X-496742167Y-169374033D01*
X-496742165Y-169374032D01*
X-496645384Y-169306265D01*
X-496548599Y-169238495D01*
X-496381505Y-169071401D01*
X-496345703Y-169020271D01*
X-496245967Y-168877834D01*
X-496245965Y-168877830D01*
X-496225800Y-168834586D01*
X-496146097Y-168663663D01*
X-496146096Y-168663659D01*
X-496146094Y-168663655D01*
X-496084938Y-168435413D01*
X-496084936Y-168435403D01*
X-496064341Y-168200000D01*
X-496064341Y-168199999D01*
X-496084936Y-167964596D01*
X-496084938Y-167964586D01*
X-496146094Y-167736344D01*
X-496146098Y-167736335D01*
X-496245964Y-167522171D01*
X-496245965Y-167522169D01*
X-496381505Y-167328597D01*
X-496407975Y-167302127D01*
X-417850500Y-167302127D01*
X-417850499Y-169097872D01*
X-417844091Y-169157483D01*
X-417793796Y-169292331D01*
X-417707546Y-169407546D01*
X-417592331Y-169493796D01*
X-417457483Y-169544091D01*
X-417397873Y-169550500D01*
X-415602128Y-169550499D01*
X-415553757Y-169545299D01*
X-415542516Y-169544091D01*
X-415407671Y-169493797D01*
X-415407664Y-169493793D01*
X-415292455Y-169407547D01*
X-415292452Y-169407544D01*
X-415206206Y-169292335D01*
X-415206202Y-169292328D01*
X-415155908Y-169157482D01*
X-415149501Y-169097883D01*
X-415149500Y-169097881D01*
X-415149500Y-169097873D01*
X-415149500Y-169087310D01*
X-415129815Y-169020271D01*
X-415113181Y-168999629D01*
X-414442962Y-168329410D01*
X-414425925Y-168392993D01*
X-414360099Y-168507007D01*
X-414267007Y-168600099D01*
X-414152993Y-168665925D01*
X-414089409Y-168682962D01*
X-414721373Y-169314925D01*
X-414721373Y-169314926D01*
X-414637582Y-169373598D01*
X-414637578Y-169373600D01*
X-414423492Y-169473429D01*
X-414423483Y-169473433D01*
X-414195326Y-169534567D01*
X-414195315Y-169534569D01*
X-413960002Y-169555157D01*
X-413959998Y-169555157D01*
X-413724684Y-169534569D01*
X-413724673Y-169534567D01*
X-413496516Y-169473433D01*
X-413496507Y-169473429D01*
X-413282421Y-169373599D01*
X-413198625Y-169314925D01*
X-413830590Y-168682962D01*
X-413767007Y-168665925D01*
X-413652993Y-168600099D01*
X-413559901Y-168507007D01*
X-413494075Y-168392993D01*
X-413477037Y-168329409D01*
X-412845073Y-168961373D01*
X-412845072Y-168961373D01*
X-412791880Y-168885405D01*
X-412737304Y-168841780D01*
X-412667805Y-168834586D01*
X-412605451Y-168866108D01*
X-412588734Y-168885399D01*
X-412458495Y-169071401D01*
X-412291401Y-169238495D01*
X-412097830Y-169374035D01*
X-411883663Y-169473903D01*
X-411655408Y-169535063D01*
X-411478966Y-169550500D01*
X-411420001Y-169555659D01*
X-411420000Y-169555659D01*
X-411419999Y-169555659D01*
X-411361034Y-169550500D01*
X-411184592Y-169535063D01*
X-410956337Y-169473903D01*
X-410742170Y-169374035D01*
X-410742167Y-169374033D01*
X-410742165Y-169374032D01*
X-410645384Y-169306265D01*
X-410548599Y-169238495D01*
X-410381505Y-169071401D01*
X-410345703Y-169020271D01*
X-410245967Y-168877834D01*
X-410245965Y-168877830D01*
X-410225800Y-168834586D01*
X-410146097Y-168663663D01*
X-410146096Y-168663659D01*
X-410146094Y-168663655D01*
X-410084938Y-168435413D01*
X-410084936Y-168435403D01*
X-410064341Y-168200000D01*
X-410064341Y-168199999D01*
X-410084936Y-167964596D01*
X-410084938Y-167964586D01*
X-410146094Y-167736344D01*
X-410146098Y-167736335D01*
X-410245964Y-167522171D01*
X-410245965Y-167522169D01*
X-410381505Y-167328597D01*
X-410548597Y-167161506D01*
X-410548604Y-167161501D01*
X-410742165Y-167025967D01*
X-410742169Y-167025965D01*
X-410956335Y-166926098D01*
X-410956344Y-166926094D01*
X-411184586Y-166864938D01*
X-411184596Y-166864936D01*
X-411419999Y-166844341D01*
X-411420001Y-166844341D01*
X-411655403Y-166864936D01*
X-411655413Y-166864938D01*
X-411883655Y-166926094D01*
X-411883659Y-166926096D01*
X-411883663Y-166926097D01*
X-411990746Y-166976031D01*
X-412097828Y-167025964D01*
X-412097830Y-167025965D01*
X-412291402Y-167161505D01*
X-412458494Y-167328597D01*
X-412588730Y-167514594D01*
X-412643307Y-167558219D01*
X-412712805Y-167565413D01*
X-412775160Y-167533890D01*
X-412791881Y-167514594D01*
X-412845073Y-167438626D01*
X-413477037Y-168070589D01*
X-413494075Y-168007007D01*
X-413559901Y-167892993D01*
X-413652993Y-167799901D01*
X-413767007Y-167734075D01*
X-413830590Y-167717037D01*
X-413198625Y-167085073D01*
X-413198626Y-167085072D01*
X-413282417Y-167026402D01*
X-413496507Y-166926570D01*
X-413496516Y-166926566D01*
X-413724673Y-166865432D01*
X-413724684Y-166865430D01*
X-413959998Y-166844843D01*
X-413960002Y-166844843D01*
X-414195315Y-166865430D01*
X-414195326Y-166865432D01*
X-414423483Y-166926566D01*
X-414423492Y-166926570D01*
X-414637576Y-167026399D01*
X-414637578Y-167026400D01*
X-414721372Y-167085073D01*
X-414721373Y-167085074D01*
X-414089410Y-167717037D01*
X-414152993Y-167734075D01*
X-414267007Y-167799901D01*
X-414360099Y-167892993D01*
X-414425925Y-168007007D01*
X-414442962Y-168070589D01*
X-415113181Y-167400369D01*
X-415146666Y-167339046D01*
X-415149500Y-167312697D01*
X-415149500Y-167302134D01*
X-415149501Y-167302123D01*
X-415155908Y-167242516D01*
X-415206202Y-167107671D01*
X-415206206Y-167107664D01*
X-415292452Y-166992455D01*
X-415292455Y-166992452D01*
X-415407664Y-166906206D01*
X-415407671Y-166906202D01*
X-415542517Y-166855908D01*
X-415542516Y-166855908D01*
X-415602116Y-166849501D01*
X-415602119Y-166849500D01*
X-415602127Y-166849500D01*
X-415602134Y-166849500D01*
X-415602135Y-166849500D01*
X-417397870Y-166849500D01*
X-417397876Y-166849501D01*
X-417457483Y-166855908D01*
X-417592328Y-166906202D01*
X-417592335Y-166906206D01*
X-417707544Y-166992452D01*
X-417707547Y-166992455D01*
X-417793793Y-167107664D01*
X-417793795Y-167107668D01*
X-417793796Y-167107669D01*
X-417844091Y-167242517D01*
X-417850500Y-167302127D01*
X-496407975Y-167302127D01*
X-496548597Y-167161506D01*
X-496548604Y-167161501D01*
X-496742165Y-167025967D01*
X-496742169Y-167025965D01*
X-496956335Y-166926098D01*
X-496956344Y-166926094D01*
X-497184586Y-166864938D01*
X-497184596Y-166864936D01*
X-497419999Y-166844341D01*
X-497420001Y-166844341D01*
X-497655403Y-166864936D01*
X-497655413Y-166864938D01*
X-497883655Y-166926094D01*
X-497883659Y-166926096D01*
X-497883663Y-166926097D01*
X-497990746Y-166976031D01*
X-498097828Y-167025964D01*
X-498097830Y-167025965D01*
X-498291402Y-167161505D01*
X-498458494Y-167328597D01*
X-498588425Y-167514158D01*
X-498643002Y-167557783D01*
X-498712500Y-167564977D01*
X-498774855Y-167533454D01*
X-498791575Y-167514158D01*
X-498921505Y-167328597D01*
X-499088597Y-167161506D01*
X-499088604Y-167161501D01*
X-499282165Y-167025967D01*
X-499282169Y-167025965D01*
X-499496335Y-166926098D01*
X-499496344Y-166926094D01*
X-499724586Y-166864938D01*
X-499724596Y-166864936D01*
X-499959999Y-166844341D01*
X-499960001Y-166844341D01*
X-500195403Y-166864936D01*
X-500195413Y-166864938D01*
X-500423655Y-166926094D01*
X-500423659Y-166926096D01*
X-500423663Y-166926097D01*
X-500530746Y-166976031D01*
X-500637828Y-167025964D01*
X-500637830Y-167025965D01*
X-500831402Y-167161505D01*
X-500998494Y-167328597D01*
X-501128425Y-167514158D01*
X-501183002Y-167557783D01*
X-501252500Y-167564977D01*
X-501314855Y-167533454D01*
X-501331575Y-167514158D01*
X-501461505Y-167328597D01*
X-501628597Y-167161506D01*
X-501628604Y-167161501D01*
X-501822165Y-167025967D01*
X-501822169Y-167025965D01*
X-502036335Y-166926098D01*
X-502036344Y-166926094D01*
X-502264586Y-166864938D01*
X-502264596Y-166864936D01*
X-502499999Y-166844341D01*
X-502500001Y-166844341D01*
X-502735403Y-166864936D01*
X-502735413Y-166864938D01*
X-502963655Y-166926094D01*
X-502963659Y-166926096D01*
X-502963663Y-166926097D01*
X-503070746Y-166976031D01*
X-503177828Y-167025964D01*
X-503177830Y-167025965D01*
X-503371402Y-167161505D01*
X-503538494Y-167328597D01*
X-503668424Y-167514158D01*
X-503674035Y-167522171D01*
X-503773903Y-167736337D01*
X-503835063Y-167964592D01*
X-503855659Y-168200000D01*
X-505267593Y-168200000D01*
X-505171741Y-168063727D01*
X-505165983Y-168056172D01*
X-505090457Y-167964592D01*
X-504855246Y-167679382D01*
X-504848929Y-167672293D01*
X-504510256Y-167320390D01*
X-504503411Y-167313803D01*
X-504272111Y-167107669D01*
X-504138798Y-166988861D01*
X-504131475Y-166982822D01*
X-504057058Y-166926097D01*
X-503743059Y-166686746D01*
X-503735291Y-166681282D01*
X-503325354Y-166415810D01*
X-503317208Y-166410966D01*
X-502888114Y-166177632D01*
X-502879616Y-166173425D01*
X-502433959Y-165973641D01*
X-502425157Y-165970093D01*
X-501965494Y-165805002D01*
X-501956463Y-165802144D01*
X-501485509Y-165672724D01*
X-501476291Y-165670566D01*
X-500996790Y-165577572D01*
X-500987440Y-165576128D01*
X-500502230Y-165520113D01*
X-500492800Y-165519389D01*
X-500025432Y-165501474D01*
X-500002373Y-165500591D01*
X-499997624Y-165500500D01*
X-463934110Y-165500500D01*
X-463934108Y-165500500D01*
X-463806814Y-165466392D01*
X-463692686Y-165400500D01*
X-463599500Y-165307314D01*
X-463566554Y-165250250D01*
X-463533608Y-165193187D01*
X-463516554Y-165129539D01*
X-463499500Y-165065892D01*
X-463499500Y-128718097D01*
X-458300500Y-128718097D01*
X-458263553Y-128951368D01*
X-458190568Y-129175992D01*
X-458083343Y-129386433D01*
X-457944517Y-129577510D01*
X-457777510Y-129744517D01*
X-457586433Y-129883343D01*
X-457375992Y-129990568D01*
X-457151368Y-130063553D01*
X-456918097Y-130100500D01*
X-456918092Y-130100500D01*
X-456681903Y-130100500D01*
X-456448631Y-130063553D01*
X-456344412Y-130029689D01*
X-456224008Y-129990568D01*
X-456224005Y-129990566D01*
X-456224003Y-129990566D01*
X-456112991Y-129934002D01*
X-456013567Y-129883343D01*
X-455822490Y-129744517D01*
X-455655483Y-129577510D01*
X-455516657Y-129386433D01*
X-455409433Y-129175996D01*
X-455336446Y-128951368D01*
X-455299500Y-128718097D01*
X-455299500Y-128481902D01*
X-455336446Y-128248631D01*
X-455409433Y-128024003D01*
X-455516657Y-127813566D01*
X-455595862Y-127704550D01*
X-455655483Y-127622490D01*
X-455655485Y-127622488D01*
X-455655485Y-127622487D01*
X-455822487Y-127455485D01*
X-456013566Y-127316657D01*
X-456224003Y-127209433D01*
X-456448631Y-127136446D01*
X-456681903Y-127099500D01*
X-456681908Y-127099500D01*
X-456918092Y-127099500D01*
X-456918097Y-127099500D01*
X-457151368Y-127136446D01*
X-457375996Y-127209433D01*
X-457586433Y-127316657D01*
X-457777510Y-127455483D01*
X-457944517Y-127622490D01*
X-458083342Y-127813566D01*
X-458190566Y-128024003D01*
X-458263553Y-128248631D01*
X-458300500Y-128481902D01*
X-458300500Y-128718097D01*
X-463499500Y-128718097D01*
X-463499500Y-92934108D01*
X-463499535Y-92933976D01*
X-463533608Y-92806812D01*
X-463599500Y-92692686D01*
X-463599502Y-92692683D01*
X-463692683Y-92599502D01*
X-463692686Y-92599500D01*
X-463806812Y-92533608D01*
X-463934108Y-92499500D01*
X-499997624Y-92499500D01*
X-500002374Y-92499409D01*
X-500492780Y-92480611D01*
X-500502251Y-92479884D01*
X-500987421Y-92423874D01*
X-500996809Y-92422424D01*
X-501476276Y-92329436D01*
X-501485525Y-92327271D01*
X-501956450Y-92197859D01*
X-501965506Y-92194993D01*
X-502425153Y-92029907D01*
X-502433963Y-92026356D01*
X-502879608Y-91826577D01*
X-502888121Y-91822363D01*
X-503317198Y-91589039D01*
X-503325363Y-91584184D01*
X-503735291Y-91318717D01*
X-503743061Y-91313252D01*
X-504131475Y-91017177D01*
X-504138803Y-91011134D01*
X-504503411Y-90686196D01*
X-504510256Y-90679609D01*
X-504848929Y-90327706D01*
X-504855249Y-90320614D01*
X-505165983Y-89943827D01*
X-505171741Y-89936272D01*
X-505267592Y-89800000D01*
X-503935659Y-89800000D01*
X-503915063Y-90035408D01*
X-503853903Y-90263663D01*
X-503754035Y-90477830D01*
X-503618495Y-90671401D01*
X-503451401Y-90838495D01*
X-503257830Y-90974035D01*
X-503043663Y-91073903D01*
X-502815408Y-91135063D01*
X-502638966Y-91150500D01*
X-502580001Y-91155659D01*
X-502580000Y-91155659D01*
X-502579999Y-91155659D01*
X-502521034Y-91150500D01*
X-502344592Y-91135063D01*
X-502116337Y-91073903D01*
X-501902170Y-90974035D01*
X-501902167Y-90974033D01*
X-501902165Y-90974032D01*
X-501805384Y-90906265D01*
X-501708599Y-90838495D01*
X-501541505Y-90671401D01*
X-501411269Y-90485405D01*
X-501356692Y-90441781D01*
X-501287193Y-90434588D01*
X-501224839Y-90466110D01*
X-501208119Y-90485405D01*
X-501154925Y-90561373D01*
X-500522962Y-89929410D01*
X-500505925Y-89992993D01*
X-500440099Y-90107007D01*
X-500347007Y-90200099D01*
X-500232993Y-90265925D01*
X-500169409Y-90282962D01*
X-500801373Y-90914925D01*
X-500801373Y-90914926D01*
X-500717582Y-90973598D01*
X-500717578Y-90973600D01*
X-500503492Y-91073429D01*
X-500503483Y-91073433D01*
X-500275326Y-91134567D01*
X-500275315Y-91134569D01*
X-500040002Y-91155157D01*
X-500039998Y-91155157D01*
X-499804684Y-91134569D01*
X-499804673Y-91134567D01*
X-499576516Y-91073433D01*
X-499576507Y-91073429D01*
X-499362421Y-90973599D01*
X-499278625Y-90914925D01*
X-499910590Y-90282962D01*
X-499847007Y-90265925D01*
X-499732993Y-90200099D01*
X-499639901Y-90107007D01*
X-499574075Y-89992993D01*
X-499557037Y-89929409D01*
X-498886818Y-90599629D01*
X-498853333Y-90660952D01*
X-498850499Y-90687309D01*
X-498850499Y-90697872D01*
X-498844091Y-90757483D01*
X-498793796Y-90892331D01*
X-498707546Y-91007546D01*
X-498592331Y-91093796D01*
X-498457483Y-91144091D01*
X-498397873Y-91150500D01*
X-496602128Y-91150499D01*
X-496553757Y-91145299D01*
X-496542516Y-91144091D01*
X-496407671Y-91093797D01*
X-496407664Y-91093793D01*
X-496292455Y-91007547D01*
X-496292452Y-91007544D01*
X-496206206Y-90892335D01*
X-496206202Y-90892328D01*
X-496155908Y-90757482D01*
X-496149501Y-90697883D01*
X-496149500Y-90697881D01*
X-496149500Y-90697873D01*
X-496149500Y-89800001D01*
X-417935157Y-89800001D01*
X-417914569Y-90035315D01*
X-417914567Y-90035326D01*
X-417853433Y-90263483D01*
X-417853429Y-90263492D01*
X-417753600Y-90477578D01*
X-417753598Y-90477582D01*
X-417694926Y-90561373D01*
X-417694925Y-90561373D01*
X-417062962Y-89929409D01*
X-417045925Y-89992993D01*
X-416980099Y-90107007D01*
X-416887007Y-90200099D01*
X-416772993Y-90265925D01*
X-416709409Y-90282962D01*
X-417341373Y-90914925D01*
X-417341373Y-90914926D01*
X-417257582Y-90973598D01*
X-417257578Y-90973600D01*
X-417043492Y-91073429D01*
X-417043483Y-91073433D01*
X-416815326Y-91134567D01*
X-416815315Y-91134569D01*
X-416580002Y-91155157D01*
X-416579998Y-91155157D01*
X-416344684Y-91134569D01*
X-416344673Y-91134567D01*
X-416116516Y-91073433D01*
X-416116507Y-91073429D01*
X-415902421Y-90973599D01*
X-415818625Y-90914925D01*
X-416450590Y-90282962D01*
X-416387007Y-90265925D01*
X-416272993Y-90200099D01*
X-416179901Y-90107007D01*
X-416114075Y-89992993D01*
X-416097037Y-89929409D01*
X-415465073Y-90561373D01*
X-415465072Y-90561373D01*
X-415411880Y-90485405D01*
X-415357304Y-90441780D01*
X-415287805Y-90434586D01*
X-415225451Y-90466108D01*
X-415208734Y-90485399D01*
X-415078495Y-90671401D01*
X-414911401Y-90838495D01*
X-414717830Y-90974035D01*
X-414503663Y-91073903D01*
X-414275408Y-91135063D01*
X-414098966Y-91150500D01*
X-414040001Y-91155659D01*
X-414040000Y-91155659D01*
X-414039999Y-91155659D01*
X-413981034Y-91150500D01*
X-413804592Y-91135063D01*
X-413576337Y-91073903D01*
X-413362170Y-90974035D01*
X-413362167Y-90974033D01*
X-413362165Y-90974032D01*
X-413265384Y-90906265D01*
X-413168599Y-90838495D01*
X-413001505Y-90671401D01*
X-413001500Y-90671395D01*
X-412871575Y-90485842D01*
X-412816998Y-90442217D01*
X-412747500Y-90435023D01*
X-412685145Y-90466546D01*
X-412668424Y-90485842D01*
X-412538495Y-90671401D01*
X-412371401Y-90838495D01*
X-412177830Y-90974035D01*
X-411963663Y-91073903D01*
X-411735408Y-91135063D01*
X-411558966Y-91150500D01*
X-411500001Y-91155659D01*
X-411500000Y-91155659D01*
X-411499999Y-91155659D01*
X-411441034Y-91150500D01*
X-411264592Y-91135063D01*
X-411036337Y-91073903D01*
X-410822170Y-90974035D01*
X-410822167Y-90974033D01*
X-410822165Y-90974032D01*
X-410725384Y-90906265D01*
X-410628599Y-90838495D01*
X-410461505Y-90671401D01*
X-410434281Y-90632521D01*
X-410325967Y-90477834D01*
X-410325965Y-90477830D01*
X-410255961Y-90327706D01*
X-410226097Y-90263663D01*
X-410226096Y-90263659D01*
X-410226094Y-90263655D01*
X-410164938Y-90035413D01*
X-410164936Y-90035403D01*
X-410144341Y-89800000D01*
X-410144341Y-89799999D01*
X-410164936Y-89564596D01*
X-410164938Y-89564586D01*
X-410226094Y-89336344D01*
X-410226098Y-89336335D01*
X-410325964Y-89122171D01*
X-410325965Y-89122169D01*
X-410461505Y-88928597D01*
X-410628597Y-88761506D01*
X-410628604Y-88761501D01*
X-410822165Y-88625967D01*
X-410822169Y-88625965D01*
X-411036335Y-88526098D01*
X-411036344Y-88526094D01*
X-411264586Y-88464938D01*
X-411264596Y-88464936D01*
X-411499999Y-88444341D01*
X-411500001Y-88444341D01*
X-411735403Y-88464936D01*
X-411735413Y-88464938D01*
X-411963655Y-88526094D01*
X-411963659Y-88526096D01*
X-411963663Y-88526097D01*
X-412070746Y-88576031D01*
X-412177828Y-88625964D01*
X-412177830Y-88625965D01*
X-412371402Y-88761505D01*
X-412538494Y-88928597D01*
X-412668425Y-89114158D01*
X-412723002Y-89157783D01*
X-412792500Y-89164977D01*
X-412854855Y-89133454D01*
X-412871575Y-89114158D01*
X-413001505Y-88928597D01*
X-413168597Y-88761506D01*
X-413168604Y-88761501D01*
X-413362165Y-88625967D01*
X-413362169Y-88625965D01*
X-413576335Y-88526098D01*
X-413576344Y-88526094D01*
X-413804586Y-88464938D01*
X-413804596Y-88464936D01*
X-414039999Y-88444341D01*
X-414040001Y-88444341D01*
X-414275403Y-88464936D01*
X-414275413Y-88464938D01*
X-414503655Y-88526094D01*
X-414503659Y-88526096D01*
X-414503663Y-88526097D01*
X-414610746Y-88576031D01*
X-414717828Y-88625964D01*
X-414717830Y-88625965D01*
X-414911402Y-88761505D01*
X-415078494Y-88928597D01*
X-415208730Y-89114594D01*
X-415263307Y-89158219D01*
X-415332805Y-89165413D01*
X-415395160Y-89133890D01*
X-415411881Y-89114594D01*
X-415465073Y-89038626D01*
X-416097037Y-89670589D01*
X-416114075Y-89607007D01*
X-416179901Y-89492993D01*
X-416272993Y-89399901D01*
X-416387007Y-89334075D01*
X-416450590Y-89317037D01*
X-415818625Y-88685073D01*
X-415818626Y-88685072D01*
X-415902417Y-88626402D01*
X-416116507Y-88526570D01*
X-416116516Y-88526566D01*
X-416344673Y-88465432D01*
X-416344684Y-88465430D01*
X-416579998Y-88444843D01*
X-416580002Y-88444843D01*
X-416815315Y-88465430D01*
X-416815326Y-88465432D01*
X-417043483Y-88526566D01*
X-417043492Y-88526570D01*
X-417257576Y-88626399D01*
X-417257578Y-88626400D01*
X-417341372Y-88685073D01*
X-417341373Y-88685074D01*
X-416709410Y-89317037D01*
X-416772993Y-89334075D01*
X-416887007Y-89399901D01*
X-416980099Y-89492993D01*
X-417045925Y-89607007D01*
X-417062962Y-89670589D01*
X-417694925Y-89038625D01*
X-417694925Y-89038626D01*
X-417753599Y-89122421D01*
X-417753600Y-89122423D01*
X-417853429Y-89336507D01*
X-417853433Y-89336516D01*
X-417914567Y-89564673D01*
X-417914569Y-89564684D01*
X-417935157Y-89799998D01*
X-417935157Y-89800001D01*
X-496149500Y-89800001D01*
X-496149500Y-88902129D01*
X-496149501Y-88902123D01*
X-496155908Y-88842516D01*
X-496206202Y-88707671D01*
X-496206206Y-88707664D01*
X-496292452Y-88592455D01*
X-496292455Y-88592452D01*
X-496407664Y-88506206D01*
X-496407671Y-88506202D01*
X-496542517Y-88455908D01*
X-496542516Y-88455908D01*
X-496602116Y-88449501D01*
X-496602119Y-88449500D01*
X-496602127Y-88449500D01*
X-496602134Y-88449500D01*
X-496602135Y-88449500D01*
X-498397870Y-88449500D01*
X-498397876Y-88449501D01*
X-498457483Y-88455908D01*
X-498592328Y-88506202D01*
X-498592335Y-88506206D01*
X-498707544Y-88592452D01*
X-498707547Y-88592455D01*
X-498793793Y-88707664D01*
X-498793795Y-88707668D01*
X-498793796Y-88707669D01*
X-498844091Y-88842517D01*
X-498850500Y-88902127D01*
X-498850499Y-88912684D01*
X-498870179Y-88979722D01*
X-498886818Y-89000371D01*
X-499557037Y-89670589D01*
X-499574075Y-89607007D01*
X-499639901Y-89492993D01*
X-499732993Y-89399901D01*
X-499847007Y-89334075D01*
X-499910590Y-89317037D01*
X-499278625Y-88685073D01*
X-499278626Y-88685072D01*
X-499362417Y-88626402D01*
X-499576507Y-88526570D01*
X-499576516Y-88526566D01*
X-499804673Y-88465432D01*
X-499804684Y-88465430D01*
X-500039998Y-88444843D01*
X-500040002Y-88444843D01*
X-500275315Y-88465430D01*
X-500275326Y-88465432D01*
X-500503483Y-88526566D01*
X-500503492Y-88526570D01*
X-500717576Y-88626399D01*
X-500717578Y-88626400D01*
X-500801372Y-88685073D01*
X-500801373Y-88685074D01*
X-500169410Y-89317037D01*
X-500232993Y-89334075D01*
X-500347007Y-89399901D01*
X-500440099Y-89492993D01*
X-500505925Y-89607007D01*
X-500522962Y-89670589D01*
X-501154925Y-89038625D01*
X-501154925Y-89038626D01*
X-501208119Y-89114595D01*
X-501262695Y-89158220D01*
X-501332194Y-89165414D01*
X-501394548Y-89133892D01*
X-501411269Y-89114595D01*
X-501541505Y-88928597D01*
X-501708597Y-88761506D01*
X-501708604Y-88761501D01*
X-501902165Y-88625967D01*
X-501902169Y-88625965D01*
X-502116335Y-88526098D01*
X-502116344Y-88526094D01*
X-502344586Y-88464938D01*
X-502344596Y-88464936D01*
X-502579999Y-88444341D01*
X-502580001Y-88444341D01*
X-502815403Y-88464936D01*
X-502815413Y-88464938D01*
X-503043655Y-88526094D01*
X-503043659Y-88526096D01*
X-503043663Y-88526097D01*
X-503150746Y-88576031D01*
X-503257828Y-88625964D01*
X-503257830Y-88625965D01*
X-503451402Y-88761505D01*
X-503618494Y-88928597D01*
X-503748730Y-89114595D01*
X-503754035Y-89122171D01*
X-503853903Y-89336337D01*
X-503915063Y-89564592D01*
X-503935659Y-89800000D01*
X-505267592Y-89800000D01*
X-505452720Y-89536804D01*
X-505457884Y-89528831D01*
X-505707466Y-89109016D01*
X-505712004Y-89100671D01*
X-505761666Y-89000371D01*
X-505879938Y-88761501D01*
X-505928707Y-88663003D01*
X-505932592Y-88654336D01*
X-506115162Y-88201352D01*
X-506118373Y-88192411D01*
X-506265731Y-87726779D01*
X-506268248Y-87717620D01*
X-506379528Y-87242081D01*
X-506381337Y-87232756D01*
X-506455892Y-86750076D01*
X-506456981Y-86740639D01*
X-506494367Y-86253690D01*
X-506494731Y-86244198D01*
X-506494731Y-85755801D01*
X-506494367Y-85746309D01*
X-506493277Y-85732119D01*
X-506456981Y-85259360D01*
X-506455892Y-85249923D01*
X-506381337Y-84767243D01*
X-506379528Y-84757918D01*
X-506268248Y-84282379D01*
X-506265731Y-84273220D01*
X-506118373Y-83807588D01*
X-506115162Y-83798647D01*
X-505932592Y-83345663D01*
X-505928707Y-83336996D01*
X-505906590Y-83292328D01*
X-505711995Y-82899312D01*
X-505707466Y-82890983D01*
X-505457884Y-82471168D01*
X-505452720Y-82463195D01*
X-505267593Y-82200000D01*
X-503855659Y-82200000D01*
X-503835063Y-82435408D01*
X-503773903Y-82663663D01*
X-503674035Y-82877830D01*
X-503538495Y-83071401D01*
X-503371401Y-83238495D01*
X-503177830Y-83374035D01*
X-502963663Y-83473903D01*
X-502735408Y-83535063D01*
X-502558966Y-83550500D01*
X-502500001Y-83555659D01*
X-502500000Y-83555659D01*
X-502499999Y-83555659D01*
X-502441034Y-83550500D01*
X-502264592Y-83535063D01*
X-502036337Y-83473903D01*
X-501822170Y-83374035D01*
X-501822167Y-83374033D01*
X-501822165Y-83374032D01*
X-501725384Y-83306265D01*
X-501628599Y-83238495D01*
X-501461505Y-83071401D01*
X-501461500Y-83071395D01*
X-501331575Y-82885842D01*
X-501276998Y-82842217D01*
X-501207500Y-82835023D01*
X-501145145Y-82866546D01*
X-501128424Y-82885842D01*
X-500998495Y-83071401D01*
X-500831401Y-83238495D01*
X-500637830Y-83374035D01*
X-500423663Y-83473903D01*
X-500195408Y-83535063D01*
X-500018966Y-83550500D01*
X-499960001Y-83555659D01*
X-499960000Y-83555659D01*
X-499959999Y-83555659D01*
X-499901034Y-83550500D01*
X-499724592Y-83535063D01*
X-499496337Y-83473903D01*
X-499282170Y-83374035D01*
X-499282167Y-83374033D01*
X-499282165Y-83374032D01*
X-499185384Y-83306265D01*
X-499088599Y-83238495D01*
X-498921505Y-83071401D01*
X-498791269Y-82885405D01*
X-498736692Y-82841781D01*
X-498667193Y-82834588D01*
X-498604839Y-82866110D01*
X-498588119Y-82885405D01*
X-498534925Y-82961373D01*
X-497902962Y-82329409D01*
X-497885925Y-82392993D01*
X-497820099Y-82507007D01*
X-497727007Y-82600099D01*
X-497612993Y-82665925D01*
X-497549409Y-82682962D01*
X-498181373Y-83314925D01*
X-498181373Y-83314926D01*
X-498097582Y-83373598D01*
X-498097578Y-83373600D01*
X-497883492Y-83473429D01*
X-497883483Y-83473433D01*
X-497655326Y-83534567D01*
X-497655315Y-83534569D01*
X-497420002Y-83555157D01*
X-497419998Y-83555157D01*
X-497184684Y-83534569D01*
X-497184673Y-83534567D01*
X-496956516Y-83473433D01*
X-496956507Y-83473429D01*
X-496742421Y-83373599D01*
X-496658625Y-83314925D01*
X-497290590Y-82682962D01*
X-497227007Y-82665925D01*
X-497112993Y-82600099D01*
X-497019901Y-82507007D01*
X-496954075Y-82392993D01*
X-496937037Y-82329409D01*
X-496305073Y-82961373D01*
X-496305072Y-82961373D01*
X-496246402Y-82877583D01*
X-496246400Y-82877579D01*
X-496146570Y-82663492D01*
X-496146566Y-82663483D01*
X-496085432Y-82435326D01*
X-496085430Y-82435315D01*
X-496064843Y-82200001D01*
X-496064843Y-82199998D01*
X-496085430Y-81964684D01*
X-496085432Y-81964673D01*
X-496146566Y-81736516D01*
X-496146570Y-81736507D01*
X-496246401Y-81522419D01*
X-496305072Y-81438625D01*
X-496937037Y-82070590D01*
X-496954075Y-82007007D01*
X-497019901Y-81892993D01*
X-497112993Y-81799901D01*
X-497227007Y-81734075D01*
X-497290590Y-81717037D01*
X-496875679Y-81302127D01*
X-417850500Y-81302127D01*
X-417850499Y-83097872D01*
X-417844091Y-83157483D01*
X-417793796Y-83292331D01*
X-417707546Y-83407546D01*
X-417592331Y-83493796D01*
X-417457483Y-83544091D01*
X-417397873Y-83550500D01*
X-415602128Y-83550499D01*
X-415553757Y-83545299D01*
X-415542516Y-83544091D01*
X-415407671Y-83493797D01*
X-415407664Y-83493793D01*
X-415292455Y-83407547D01*
X-415292452Y-83407544D01*
X-415206206Y-83292335D01*
X-415206202Y-83292328D01*
X-415155908Y-83157482D01*
X-415149501Y-83097883D01*
X-415149500Y-83097881D01*
X-415149500Y-83097873D01*
X-415149500Y-83087310D01*
X-415129815Y-83020271D01*
X-415113181Y-82999629D01*
X-414442962Y-82329410D01*
X-414425925Y-82392993D01*
X-414360099Y-82507007D01*
X-414267007Y-82600099D01*
X-414152993Y-82665925D01*
X-414089409Y-82682962D01*
X-414721373Y-83314925D01*
X-414721373Y-83314926D01*
X-414637582Y-83373598D01*
X-414637578Y-83373600D01*
X-414423492Y-83473429D01*
X-414423483Y-83473433D01*
X-414195326Y-83534567D01*
X-414195315Y-83534569D01*
X-413960002Y-83555157D01*
X-413959998Y-83555157D01*
X-413724684Y-83534569D01*
X-413724673Y-83534567D01*
X-413496516Y-83473433D01*
X-413496507Y-83473429D01*
X-413282421Y-83373599D01*
X-413198625Y-83314925D01*
X-413830590Y-82682962D01*
X-413767007Y-82665925D01*
X-413652993Y-82600099D01*
X-413559901Y-82507007D01*
X-413494075Y-82392993D01*
X-413477037Y-82329409D01*
X-412845073Y-82961373D01*
X-412845072Y-82961373D01*
X-412791880Y-82885405D01*
X-412737304Y-82841780D01*
X-412667805Y-82834586D01*
X-412605451Y-82866108D01*
X-412588734Y-82885399D01*
X-412458495Y-83071401D01*
X-412291401Y-83238495D01*
X-412097830Y-83374035D01*
X-411883663Y-83473903D01*
X-411655408Y-83535063D01*
X-411478966Y-83550500D01*
X-411420001Y-83555659D01*
X-411420000Y-83555659D01*
X-411419999Y-83555659D01*
X-411361034Y-83550500D01*
X-411184592Y-83535063D01*
X-410956337Y-83473903D01*
X-410742170Y-83374035D01*
X-410742167Y-83374033D01*
X-410742165Y-83374032D01*
X-410645384Y-83306265D01*
X-410548599Y-83238495D01*
X-410381505Y-83071401D01*
X-410345703Y-83020271D01*
X-410245967Y-82877834D01*
X-410245965Y-82877830D01*
X-410225800Y-82834586D01*
X-410146097Y-82663663D01*
X-410146096Y-82663659D01*
X-410146094Y-82663655D01*
X-410084938Y-82435413D01*
X-410084936Y-82435403D01*
X-410064341Y-82200000D01*
X-410064341Y-82199999D01*
X-410084936Y-81964596D01*
X-410084938Y-81964586D01*
X-410146094Y-81736344D01*
X-410146098Y-81736335D01*
X-410245964Y-81522171D01*
X-410245965Y-81522169D01*
X-410381505Y-81328597D01*
X-410548597Y-81161506D01*
X-410548604Y-81161501D01*
X-410742165Y-81025967D01*
X-410742169Y-81025965D01*
X-410956335Y-80926098D01*
X-410956344Y-80926094D01*
X-411184586Y-80864938D01*
X-411184596Y-80864936D01*
X-411419999Y-80844341D01*
X-411420001Y-80844341D01*
X-411655403Y-80864936D01*
X-411655413Y-80864938D01*
X-411883655Y-80926094D01*
X-411883659Y-80926096D01*
X-411883663Y-80926097D01*
X-411990746Y-80976031D01*
X-412097828Y-81025964D01*
X-412097830Y-81025965D01*
X-412291402Y-81161505D01*
X-412458494Y-81328597D01*
X-412588730Y-81514594D01*
X-412643307Y-81558219D01*
X-412712805Y-81565413D01*
X-412775160Y-81533890D01*
X-412791881Y-81514594D01*
X-412845073Y-81438626D01*
X-413477037Y-82070589D01*
X-413494075Y-82007007D01*
X-413559901Y-81892993D01*
X-413652993Y-81799901D01*
X-413767007Y-81734075D01*
X-413830590Y-81717037D01*
X-413198625Y-81085073D01*
X-413198626Y-81085072D01*
X-413282417Y-81026402D01*
X-413496507Y-80926570D01*
X-413496516Y-80926566D01*
X-413724673Y-80865432D01*
X-413724684Y-80865430D01*
X-413959998Y-80844843D01*
X-413960002Y-80844843D01*
X-414195315Y-80865430D01*
X-414195326Y-80865432D01*
X-414423483Y-80926566D01*
X-414423492Y-80926570D01*
X-414637576Y-81026399D01*
X-414637578Y-81026400D01*
X-414721372Y-81085073D01*
X-414721373Y-81085074D01*
X-414089410Y-81717037D01*
X-414152993Y-81734075D01*
X-414267007Y-81799901D01*
X-414360099Y-81892993D01*
X-414425925Y-82007007D01*
X-414442962Y-82070589D01*
X-415113181Y-81400369D01*
X-415146666Y-81339046D01*
X-415149500Y-81312697D01*
X-415149500Y-81302134D01*
X-415149501Y-81302123D01*
X-415155908Y-81242516D01*
X-415206202Y-81107671D01*
X-415206206Y-81107664D01*
X-415292452Y-80992455D01*
X-415292455Y-80992452D01*
X-415407664Y-80906206D01*
X-415407671Y-80906202D01*
X-415542517Y-80855908D01*
X-415542516Y-80855908D01*
X-415602116Y-80849501D01*
X-415602119Y-80849500D01*
X-415602127Y-80849500D01*
X-415602134Y-80849500D01*
X-415602135Y-80849500D01*
X-417397870Y-80849500D01*
X-417397876Y-80849501D01*
X-417457483Y-80855908D01*
X-417592328Y-80906202D01*
X-417592335Y-80906206D01*
X-417707544Y-80992452D01*
X-417707547Y-80992455D01*
X-417793793Y-81107664D01*
X-417793795Y-81107668D01*
X-417793796Y-81107669D01*
X-417844091Y-81242517D01*
X-417850500Y-81302127D01*
X-496875679Y-81302127D01*
X-496658625Y-81085073D01*
X-496658626Y-81085072D01*
X-496742417Y-81026402D01*
X-496956507Y-80926570D01*
X-496956516Y-80926566D01*
X-497184673Y-80865432D01*
X-497184684Y-80865430D01*
X-497419998Y-80844843D01*
X-497420002Y-80844843D01*
X-497655315Y-80865430D01*
X-497655326Y-80865432D01*
X-497883483Y-80926566D01*
X-497883492Y-80926570D01*
X-498097576Y-81026399D01*
X-498097578Y-81026400D01*
X-498181372Y-81085073D01*
X-498181373Y-81085074D01*
X-497549410Y-81717037D01*
X-497612993Y-81734075D01*
X-497727007Y-81799901D01*
X-497820099Y-81892993D01*
X-497885925Y-82007007D01*
X-497902962Y-82070589D01*
X-498534925Y-81438625D01*
X-498534925Y-81438626D01*
X-498588119Y-81514595D01*
X-498642695Y-81558220D01*
X-498712194Y-81565414D01*
X-498774548Y-81533892D01*
X-498791269Y-81514595D01*
X-498921505Y-81328597D01*
X-499088597Y-81161506D01*
X-499088604Y-81161501D01*
X-499282165Y-81025967D01*
X-499282169Y-81025965D01*
X-499496335Y-80926098D01*
X-499496344Y-80926094D01*
X-499724586Y-80864938D01*
X-499724596Y-80864936D01*
X-499959999Y-80844341D01*
X-499960001Y-80844341D01*
X-500195403Y-80864936D01*
X-500195413Y-80864938D01*
X-500423655Y-80926094D01*
X-500423659Y-80926096D01*
X-500423663Y-80926097D01*
X-500530746Y-80976031D01*
X-500637828Y-81025964D01*
X-500637830Y-81025965D01*
X-500831402Y-81161505D01*
X-500998494Y-81328597D01*
X-501128425Y-81514158D01*
X-501183002Y-81557783D01*
X-501252500Y-81564977D01*
X-501314855Y-81533454D01*
X-501331575Y-81514158D01*
X-501461505Y-81328597D01*
X-501628597Y-81161506D01*
X-501628604Y-81161501D01*
X-501822165Y-81025967D01*
X-501822169Y-81025965D01*
X-502036335Y-80926098D01*
X-502036344Y-80926094D01*
X-502264586Y-80864938D01*
X-502264596Y-80864936D01*
X-502499999Y-80844341D01*
X-502500001Y-80844341D01*
X-502735403Y-80864936D01*
X-502735413Y-80864938D01*
X-502963655Y-80926094D01*
X-502963659Y-80926096D01*
X-502963663Y-80926097D01*
X-503070746Y-80976031D01*
X-503177828Y-81025964D01*
X-503177830Y-81025965D01*
X-503371402Y-81161505D01*
X-503538494Y-81328597D01*
X-503668730Y-81514595D01*
X-503674035Y-81522171D01*
X-503773903Y-81736337D01*
X-503835063Y-81964592D01*
X-503855659Y-82200000D01*
X-505267593Y-82200000D01*
X-505171741Y-82063727D01*
X-505165983Y-82056172D01*
X-505090457Y-81964592D01*
X-504855246Y-81679382D01*
X-504848929Y-81672293D01*
X-504510256Y-81320390D01*
X-504503411Y-81313803D01*
X-504272111Y-81107669D01*
X-504138798Y-80988861D01*
X-504131475Y-80982822D01*
X-504057058Y-80926097D01*
X-503743059Y-80686746D01*
X-503735291Y-80681282D01*
X-503325354Y-80415810D01*
X-503317208Y-80410966D01*
X-502888114Y-80177632D01*
X-502879616Y-80173425D01*
X-502433959Y-79973641D01*
X-502425157Y-79970093D01*
X-501965494Y-79805002D01*
X-501956463Y-79802144D01*
X-501485509Y-79672724D01*
X-501476291Y-79670566D01*
X-500996790Y-79577572D01*
X-500987440Y-79576128D01*
X-500502230Y-79520113D01*
X-500492800Y-79519389D01*
X-500025432Y-79501474D01*
X-500002373Y-79500591D01*
X-499997624Y-79500500D01*
X-463934110Y-79500500D01*
X-463934108Y-79500500D01*
X-463806814Y-79466392D01*
X-463692686Y-79400500D01*
X-463599500Y-79307314D01*
X-463566554Y-79250250D01*
X-463533608Y-79193187D01*
X-463516554Y-79129539D01*
X-463499500Y-79065892D01*
X-463499500Y-38718097D01*
X-458300500Y-38718097D01*
X-458263553Y-38951368D01*
X-458190568Y-39175992D01*
X-458083343Y-39386433D01*
X-457944517Y-39577510D01*
X-457777510Y-39744517D01*
X-457586433Y-39883343D01*
X-457375992Y-39990568D01*
X-457151368Y-40063553D01*
X-456918097Y-40100500D01*
X-456918092Y-40100500D01*
X-456681903Y-40100500D01*
X-456448631Y-40063553D01*
X-456344412Y-40029689D01*
X-456224008Y-39990568D01*
X-456224005Y-39990566D01*
X-456224003Y-39990566D01*
X-456112991Y-39934002D01*
X-456013567Y-39883343D01*
X-455822490Y-39744517D01*
X-455655483Y-39577510D01*
X-455516657Y-39386433D01*
X-455409433Y-39175996D01*
X-455336446Y-38951368D01*
X-455299500Y-38718097D01*
X-455299500Y-38481902D01*
X-455336446Y-38248631D01*
X-455409433Y-38024003D01*
X-455516657Y-37813566D01*
X-455595862Y-37704550D01*
X-455655483Y-37622490D01*
X-455655485Y-37622488D01*
X-455655485Y-37622487D01*
X-455822487Y-37455485D01*
X-456013566Y-37316657D01*
X-456224003Y-37209433D01*
X-456448631Y-37136446D01*
X-456681903Y-37099500D01*
X-456681908Y-37099500D01*
X-456918092Y-37099500D01*
X-456918097Y-37099500D01*
X-457151368Y-37136446D01*
X-457375996Y-37209433D01*
X-457586433Y-37316657D01*
X-457777510Y-37455483D01*
X-457944517Y-37622490D01*
X-458083342Y-37813566D01*
X-458190566Y-38024003D01*
X-458263553Y-38248631D01*
X-458300500Y-38481902D01*
X-458300500Y-38718097D01*
X-463499500Y-38718097D01*
X-463499500Y-6934108D01*
X-463499535Y-6933976D01*
X-463533608Y-6806812D01*
X-463599500Y-6692686D01*
X-463599502Y-6692683D01*
X-463692683Y-6599502D01*
X-463692686Y-6599500D01*
X-463806812Y-6533608D01*
X-463934108Y-6499500D01*
X-499997624Y-6499500D01*
X-500002374Y-6499409D01*
X-500492780Y-6480611D01*
X-500502251Y-6479884D01*
X-500987421Y-6423874D01*
X-500996809Y-6422424D01*
X-501476276Y-6329436D01*
X-501485525Y-6327271D01*
X-501956450Y-6197859D01*
X-501965506Y-6194993D01*
X-502425153Y-6029907D01*
X-502433963Y-6026356D01*
X-502879608Y-5826577D01*
X-502888121Y-5822363D01*
X-503317198Y-5589039D01*
X-503325363Y-5584184D01*
X-503735291Y-5318717D01*
X-503743061Y-5313252D01*
X-504131475Y-5017177D01*
X-504138803Y-5011134D01*
X-504503411Y-4686196D01*
X-504510256Y-4679609D01*
X-504848929Y-4327706D01*
X-504855249Y-4320614D01*
X-505165983Y-3943827D01*
X-505171741Y-3936272D01*
X-505267592Y-3800000D01*
X-503935659Y-3800000D01*
X-503915063Y-4035408D01*
X-503853903Y-4263663D01*
X-503754035Y-4477830D01*
X-503618495Y-4671401D01*
X-503451401Y-4838495D01*
X-503257830Y-4974035D01*
X-503043663Y-5073903D01*
X-502815408Y-5135063D01*
X-502638966Y-5150500D01*
X-502580001Y-5155659D01*
X-502580000Y-5155659D01*
X-502579999Y-5155659D01*
X-502521034Y-5150500D01*
X-502344592Y-5135063D01*
X-502116337Y-5073903D01*
X-501902170Y-4974035D01*
X-501902167Y-4974033D01*
X-501902165Y-4974032D01*
X-501805384Y-4906265D01*
X-501708599Y-4838495D01*
X-501541505Y-4671401D01*
X-501411269Y-4485405D01*
X-501356692Y-4441781D01*
X-501287193Y-4434588D01*
X-501224839Y-4466110D01*
X-501208119Y-4485405D01*
X-501154925Y-4561373D01*
X-500522962Y-3929409D01*
X-500505925Y-3992993D01*
X-500440099Y-4107007D01*
X-500347007Y-4200099D01*
X-500232993Y-4265925D01*
X-500169409Y-4282962D01*
X-500801373Y-4914925D01*
X-500801373Y-4914926D01*
X-500717582Y-4973598D01*
X-500717578Y-4973600D01*
X-500503492Y-5073429D01*
X-500503483Y-5073433D01*
X-500275326Y-5134567D01*
X-500275315Y-5134569D01*
X-500040002Y-5155157D01*
X-500039998Y-5155157D01*
X-499804684Y-5134569D01*
X-499804673Y-5134567D01*
X-499576516Y-5073433D01*
X-499576507Y-5073429D01*
X-499362421Y-4973599D01*
X-499278625Y-4914925D01*
X-499910590Y-4282962D01*
X-499847007Y-4265925D01*
X-499732993Y-4200099D01*
X-499639901Y-4107007D01*
X-499574075Y-3992993D01*
X-499557037Y-3929409D01*
X-498886818Y-4599629D01*
X-498853333Y-4660952D01*
X-498850499Y-4687309D01*
X-498850499Y-4697872D01*
X-498844091Y-4757483D01*
X-498793796Y-4892331D01*
X-498707546Y-5007546D01*
X-498592331Y-5093796D01*
X-498457483Y-5144091D01*
X-498397873Y-5150500D01*
X-496602128Y-5150499D01*
X-496553757Y-5145299D01*
X-496542516Y-5144091D01*
X-496407671Y-5093797D01*
X-496407664Y-5093793D01*
X-496292455Y-5007547D01*
X-496292452Y-5007544D01*
X-496206206Y-4892335D01*
X-496206202Y-4892328D01*
X-496155908Y-4757482D01*
X-496149501Y-4697883D01*
X-496149500Y-4697881D01*
X-496149500Y-4697873D01*
X-496149500Y-3829720D01*
X-496149500Y-3800000D01*
X-417935659Y-3800000D01*
X-417915063Y-4035408D01*
X-417853903Y-4263663D01*
X-417754035Y-4477830D01*
X-417618495Y-4671401D01*
X-417451401Y-4838495D01*
X-417257830Y-4974035D01*
X-417043663Y-5073903D01*
X-416815408Y-5135063D01*
X-416638966Y-5150500D01*
X-416580001Y-5155659D01*
X-416580000Y-5155659D01*
X-416579999Y-5155659D01*
X-416521034Y-5150500D01*
X-416344592Y-5135063D01*
X-416116337Y-5073903D01*
X-415902170Y-4974035D01*
X-415902167Y-4974033D01*
X-415902165Y-4974032D01*
X-415805384Y-4906265D01*
X-415708599Y-4838495D01*
X-415541505Y-4671401D01*
X-415541500Y-4671395D01*
X-415411575Y-4485842D01*
X-415356998Y-4442217D01*
X-415287500Y-4435023D01*
X-415225145Y-4466546D01*
X-415208424Y-4485842D01*
X-415078495Y-4671401D01*
X-414911401Y-4838495D01*
X-414717830Y-4974035D01*
X-414503663Y-5073903D01*
X-414275408Y-5135063D01*
X-414098966Y-5150500D01*
X-414040001Y-5155659D01*
X-414040000Y-5155659D01*
X-414039999Y-5155659D01*
X-413981034Y-5150500D01*
X-413804592Y-5135063D01*
X-413576337Y-5073903D01*
X-413362170Y-4974035D01*
X-413362167Y-4974033D01*
X-413362165Y-4974032D01*
X-413265384Y-4906265D01*
X-413168599Y-4838495D01*
X-413001505Y-4671401D01*
X-413001500Y-4671395D01*
X-412871575Y-4485842D01*
X-412816998Y-4442217D01*
X-412747500Y-4435023D01*
X-412685145Y-4466546D01*
X-412668424Y-4485842D01*
X-412538495Y-4671401D01*
X-412371401Y-4838495D01*
X-412177830Y-4974035D01*
X-411963663Y-5073903D01*
X-411735408Y-5135063D01*
X-411558966Y-5150500D01*
X-411500001Y-5155659D01*
X-411500000Y-5155659D01*
X-411499999Y-5155659D01*
X-411441034Y-5150500D01*
X-411264592Y-5135063D01*
X-411036337Y-5073903D01*
X-410822170Y-4974035D01*
X-410822167Y-4974033D01*
X-410822165Y-4974032D01*
X-410725384Y-4906265D01*
X-410628599Y-4838495D01*
X-410461505Y-4671401D01*
X-410434281Y-4632521D01*
X-410325967Y-4477834D01*
X-410325965Y-4477830D01*
X-410255961Y-4327706D01*
X-410226097Y-4263663D01*
X-410226096Y-4263659D01*
X-410226094Y-4263655D01*
X-410164938Y-4035413D01*
X-410164936Y-4035403D01*
X-410144341Y-3800000D01*
X-410144341Y-3799999D01*
X-410164936Y-3564596D01*
X-410164938Y-3564586D01*
X-410226094Y-3336344D01*
X-410226098Y-3336335D01*
X-410325964Y-3122171D01*
X-410325965Y-3122169D01*
X-410461505Y-2928597D01*
X-410628597Y-2761506D01*
X-410628604Y-2761501D01*
X-410822165Y-2625967D01*
X-410822169Y-2625965D01*
X-411036335Y-2526098D01*
X-411036344Y-2526094D01*
X-411264586Y-2464938D01*
X-411264596Y-2464936D01*
X-411499999Y-2444341D01*
X-411500001Y-2444341D01*
X-411735403Y-2464936D01*
X-411735413Y-2464938D01*
X-411963655Y-2526094D01*
X-411963659Y-2526096D01*
X-411963663Y-2526097D01*
X-412070746Y-2576031D01*
X-412177828Y-2625964D01*
X-412177830Y-2625965D01*
X-412371402Y-2761505D01*
X-412538494Y-2928597D01*
X-412668425Y-3114158D01*
X-412723002Y-3157783D01*
X-412792500Y-3164977D01*
X-412854855Y-3133454D01*
X-412871575Y-3114158D01*
X-413001505Y-2928597D01*
X-413168597Y-2761506D01*
X-413168604Y-2761501D01*
X-413362165Y-2625967D01*
X-413362169Y-2625965D01*
X-413576335Y-2526098D01*
X-413576344Y-2526094D01*
X-413804586Y-2464938D01*
X-413804596Y-2464936D01*
X-414039999Y-2444341D01*
X-414040001Y-2444341D01*
X-414275403Y-2464936D01*
X-414275413Y-2464938D01*
X-414503655Y-2526094D01*
X-414503659Y-2526096D01*
X-414503663Y-2526097D01*
X-414610746Y-2576031D01*
X-414717828Y-2625964D01*
X-414717830Y-2625965D01*
X-414911402Y-2761505D01*
X-415078494Y-2928597D01*
X-415208425Y-3114158D01*
X-415263002Y-3157783D01*
X-415332500Y-3164977D01*
X-415394855Y-3133454D01*
X-415411575Y-3114158D01*
X-415541505Y-2928597D01*
X-415708597Y-2761506D01*
X-415708604Y-2761501D01*
X-415902165Y-2625967D01*
X-415902169Y-2625965D01*
X-416116335Y-2526098D01*
X-416116344Y-2526094D01*
X-416344586Y-2464938D01*
X-416344596Y-2464936D01*
X-416579999Y-2444341D01*
X-416580001Y-2444341D01*
X-416815403Y-2464936D01*
X-416815413Y-2464938D01*
X-417043655Y-2526094D01*
X-417043659Y-2526096D01*
X-417043663Y-2526097D01*
X-417150746Y-2576031D01*
X-417257828Y-2625964D01*
X-417257830Y-2625965D01*
X-417451402Y-2761505D01*
X-417618494Y-2928597D01*
X-417748730Y-3114595D01*
X-417754035Y-3122171D01*
X-417853903Y-3336337D01*
X-417915063Y-3564592D01*
X-417935659Y-3800000D01*
X-496149500Y-3800000D01*
X-496149500Y-2902129D01*
X-496149501Y-2902123D01*
X-496155908Y-2842516D01*
X-496206202Y-2707671D01*
X-496206206Y-2707664D01*
X-496292452Y-2592455D01*
X-496292455Y-2592452D01*
X-496407664Y-2506206D01*
X-496407671Y-2506202D01*
X-496542517Y-2455908D01*
X-496542516Y-2455908D01*
X-496602116Y-2449501D01*
X-496602119Y-2449500D01*
X-496602127Y-2449500D01*
X-496602134Y-2449500D01*
X-496602135Y-2449500D01*
X-498397870Y-2449500D01*
X-498397876Y-2449501D01*
X-498457483Y-2455908D01*
X-498592328Y-2506202D01*
X-498592335Y-2506206D01*
X-498707544Y-2592452D01*
X-498707547Y-2592455D01*
X-498793793Y-2707664D01*
X-498793795Y-2707668D01*
X-498793796Y-2707669D01*
X-498844091Y-2842517D01*
X-498850500Y-2902127D01*
X-498850499Y-2912684D01*
X-498870179Y-2979722D01*
X-498886818Y-3000371D01*
X-499557037Y-3670589D01*
X-499574075Y-3607007D01*
X-499639901Y-3492993D01*
X-499732993Y-3399901D01*
X-499847007Y-3334075D01*
X-499910590Y-3317037D01*
X-499278625Y-2685073D01*
X-499278626Y-2685072D01*
X-499362417Y-2626402D01*
X-499576507Y-2526570D01*
X-499576516Y-2526566D01*
X-499804673Y-2465432D01*
X-499804684Y-2465430D01*
X-500039998Y-2444843D01*
X-500040002Y-2444843D01*
X-500275315Y-2465430D01*
X-500275326Y-2465432D01*
X-500503483Y-2526566D01*
X-500503492Y-2526570D01*
X-500717576Y-2626399D01*
X-500717578Y-2626400D01*
X-500801372Y-2685073D01*
X-500801373Y-2685074D01*
X-500169410Y-3317037D01*
X-500232993Y-3334075D01*
X-500347007Y-3399901D01*
X-500440099Y-3492993D01*
X-500505925Y-3607007D01*
X-500522962Y-3670589D01*
X-501154925Y-3038625D01*
X-501154925Y-3038626D01*
X-501208119Y-3114595D01*
X-501262695Y-3158220D01*
X-501332194Y-3165414D01*
X-501394548Y-3133892D01*
X-501411269Y-3114595D01*
X-501541505Y-2928597D01*
X-501708597Y-2761506D01*
X-501708604Y-2761501D01*
X-501902165Y-2625967D01*
X-501902169Y-2625965D01*
X-502116335Y-2526098D01*
X-502116344Y-2526094D01*
X-502344586Y-2464938D01*
X-502344596Y-2464936D01*
X-502579999Y-2444341D01*
X-502580001Y-2444341D01*
X-502815403Y-2464936D01*
X-502815413Y-2464938D01*
X-503043655Y-2526094D01*
X-503043659Y-2526096D01*
X-503043663Y-2526097D01*
X-503150746Y-2576031D01*
X-503257828Y-2625964D01*
X-503257830Y-2625965D01*
X-503451402Y-2761505D01*
X-503618494Y-2928597D01*
X-503748730Y-3114595D01*
X-503754035Y-3122171D01*
X-503853903Y-3336337D01*
X-503915063Y-3564592D01*
X-503935659Y-3800000D01*
X-505267592Y-3800000D01*
X-505452720Y-3536804D01*
X-505457884Y-3528831D01*
X-505707466Y-3109016D01*
X-505712004Y-3100671D01*
X-505761666Y-3000371D01*
X-505879938Y-2761501D01*
X-505928707Y-2663003D01*
X-505932592Y-2654336D01*
X-506115162Y-2201352D01*
X-506118373Y-2192411D01*
X-506265731Y-1726779D01*
X-506268248Y-1717620D01*
X-506379528Y-1242081D01*
X-506381337Y-1232756D01*
X-506455892Y-750076D01*
X-506456981Y-740639D01*
X-506494367Y-253690D01*
X-506494731Y-244198D01*
X-506494731Y244198D01*
X-506494367Y253690D01*
X-506456981Y740639D01*
X-506455892Y750076D01*
X-506381337Y1232756D01*
X-506379528Y1242081D01*
X-506268248Y1717620D01*
X-506265731Y1726779D01*
X-506118373Y2192411D01*
X-506115162Y2201352D01*
X-505932592Y2654336D01*
X-505928707Y2663003D01*
X-505797200Y2928604D01*
X-505712000Y3100676D01*
X-505707466Y3109016D01*
X-505457884Y3528831D01*
X-505452720Y3536804D01*
X-505267592Y3800000D01*
X-503855659Y3800000D01*
X-503835063Y3564592D01*
X-503773903Y3336337D01*
X-503674035Y3122170D01*
X-503674034Y3122169D01*
X-503674032Y3122165D01*
X-503615537Y3038626D01*
X-503538495Y2928599D01*
X-503538493Y2928597D01*
X-503371402Y2761506D01*
X-503371395Y2761501D01*
X-503177834Y2625967D01*
X-503177830Y2625965D01*
X-502963663Y2526097D01*
X-502963659Y2526096D01*
X-502963655Y2526094D01*
X-502735413Y2464938D01*
X-502735403Y2464936D01*
X-502500001Y2444341D01*
X-502500000Y2444341D01*
X-502499999Y2444341D01*
X-502264596Y2464936D01*
X-502264586Y2464938D01*
X-502036344Y2526094D01*
X-502036335Y2526098D01*
X-501822169Y2625965D01*
X-501822165Y2625967D01*
X-501628604Y2761501D01*
X-501628597Y2761506D01*
X-501461506Y2928597D01*
X-501461505Y2928599D01*
X-501331575Y3114158D01*
X-501276998Y3157782D01*
X-501207499Y3164975D01*
X-501145145Y3133453D01*
X-501128425Y3114158D01*
X-500998495Y2928599D01*
X-500998493Y2928597D01*
X-500831402Y2761506D01*
X-500831395Y2761501D01*
X-500637834Y2625967D01*
X-500637830Y2625965D01*
X-500423663Y2526097D01*
X-500423659Y2526096D01*
X-500423655Y2526094D01*
X-500195413Y2464938D01*
X-500195403Y2464936D01*
X-499960001Y2444341D01*
X-499960000Y2444341D01*
X-499959999Y2444341D01*
X-499724596Y2464936D01*
X-499724586Y2464938D01*
X-499496344Y2526094D01*
X-499496335Y2526098D01*
X-499282169Y2625965D01*
X-499282165Y2625967D01*
X-499088604Y2761501D01*
X-499088597Y2761506D01*
X-498921506Y2928597D01*
X-498921505Y2928599D01*
X-498791575Y3114158D01*
X-498736998Y3157782D01*
X-498667499Y3164975D01*
X-498605145Y3133453D01*
X-498588425Y3114158D01*
X-498458495Y2928599D01*
X-498458493Y2928597D01*
X-498291402Y2761506D01*
X-498291395Y2761501D01*
X-498097834Y2625967D01*
X-498097830Y2625965D01*
X-497883663Y2526097D01*
X-497883659Y2526096D01*
X-497883655Y2526094D01*
X-497655413Y2464938D01*
X-497655403Y2464936D01*
X-497420001Y2444341D01*
X-497420000Y2444341D01*
X-497419999Y2444341D01*
X-497184596Y2464936D01*
X-497184586Y2464938D01*
X-496956344Y2526094D01*
X-496956335Y2526098D01*
X-496742169Y2625965D01*
X-496742165Y2625967D01*
X-496548604Y2761501D01*
X-496548597Y2761506D01*
X-496381506Y2928597D01*
X-496381501Y2928604D01*
X-496245967Y3122165D01*
X-496245965Y3122169D01*
X-496146098Y3336335D01*
X-496146094Y3336344D01*
X-496084938Y3564586D01*
X-496084936Y3564596D01*
X-496064341Y3799999D01*
X-496064341Y3800000D01*
X-496084936Y4035403D01*
X-496084938Y4035413D01*
X-496146094Y4263655D01*
X-496146096Y4263659D01*
X-496146097Y4263663D01*
X-496229155Y4441780D01*
X-496245964Y4477828D01*
X-496245965Y4477830D01*
X-496381505Y4671402D01*
X-496407976Y4697873D01*
X-417850500Y4697873D01*
X-417850499Y2902128D01*
X-417847276Y2872147D01*
X-417844091Y2842516D01*
X-417793797Y2707671D01*
X-417793793Y2707664D01*
X-417707547Y2592455D01*
X-417707544Y2592452D01*
X-417592335Y2506206D01*
X-417592328Y2506202D01*
X-417457482Y2455908D01*
X-417457483Y2455908D01*
X-417397883Y2449501D01*
X-417397881Y2449500D01*
X-417397873Y2449500D01*
X-417397864Y2449500D01*
X-415602129Y2449500D01*
X-415602123Y2449501D01*
X-415542516Y2455908D01*
X-415407671Y2506202D01*
X-415407664Y2506206D01*
X-415292455Y2592452D01*
X-415292452Y2592455D01*
X-415206206Y2707664D01*
X-415206202Y2707671D01*
X-415155908Y2842517D01*
X-415149501Y2902116D01*
X-415149500Y2902119D01*
X-415149500Y2902127D01*
X-415149500Y2912689D01*
X-415129815Y2979728D01*
X-415113181Y3000370D01*
X-414442962Y3670588D01*
X-414425925Y3607007D01*
X-414360099Y3492993D01*
X-414267007Y3399901D01*
X-414152993Y3334075D01*
X-414089410Y3317037D01*
X-414721373Y2685073D01*
X-414721373Y2685072D01*
X-414637583Y2626402D01*
X-414637579Y2626400D01*
X-414423492Y2526570D01*
X-414423483Y2526566D01*
X-414195326Y2465432D01*
X-414195315Y2465430D01*
X-413960002Y2444843D01*
X-413959998Y2444843D01*
X-413724684Y2465430D01*
X-413724673Y2465432D01*
X-413496516Y2526566D01*
X-413496507Y2526570D01*
X-413282417Y2626402D01*
X-413198626Y2685072D01*
X-413198625Y2685073D01*
X-413830590Y3317037D01*
X-413767007Y3334075D01*
X-413652993Y3399901D01*
X-413559901Y3492993D01*
X-413494075Y3607007D01*
X-413477037Y3670589D01*
X-412845073Y3038625D01*
X-412845072Y3038626D01*
X-412791880Y3114593D01*
X-412737303Y3158218D01*
X-412667805Y3165411D01*
X-412605450Y3133889D01*
X-412588731Y3114595D01*
X-412458495Y2928599D01*
X-412458493Y2928597D01*
X-412291402Y2761506D01*
X-412291395Y2761501D01*
X-412097834Y2625967D01*
X-412097830Y2625965D01*
X-411883663Y2526097D01*
X-411883659Y2526096D01*
X-411883655Y2526094D01*
X-411655413Y2464938D01*
X-411655403Y2464936D01*
X-411420001Y2444341D01*
X-411420000Y2444341D01*
X-411419999Y2444341D01*
X-411184596Y2464936D01*
X-411184586Y2464938D01*
X-410956344Y2526094D01*
X-410956335Y2526098D01*
X-410742169Y2625965D01*
X-410742165Y2625967D01*
X-410548604Y2761501D01*
X-410548597Y2761506D01*
X-410381506Y2928597D01*
X-410381501Y2928604D01*
X-410245967Y3122165D01*
X-410245965Y3122169D01*
X-410146098Y3336335D01*
X-410146094Y3336344D01*
X-410084938Y3564586D01*
X-410084936Y3564596D01*
X-410064341Y3799999D01*
X-410064341Y3800000D01*
X-410084936Y4035403D01*
X-410084938Y4035413D01*
X-410146094Y4263655D01*
X-410146096Y4263659D01*
X-410146097Y4263663D01*
X-410229155Y4441780D01*
X-410245964Y4477828D01*
X-410245965Y4477830D01*
X-410381505Y4671402D01*
X-410548597Y4838493D01*
X-410548598Y4838494D01*
X-410548599Y4838495D01*
X-410741547Y4973599D01*
X-410742165Y4974032D01*
X-410742169Y4974034D01*
X-410742170Y4974035D01*
X-410956337Y5073903D01*
X-411184592Y5135063D01*
X-411372918Y5151539D01*
X-411419999Y5155659D01*
X-411420001Y5155659D01*
X-411459234Y5152226D01*
X-411655408Y5135063D01*
X-411883663Y5073903D01*
X-412097829Y4974035D01*
X-412291401Y4838495D01*
X-412458495Y4671401D01*
X-412588731Y4485402D01*
X-412643305Y4441780D01*
X-412712804Y4434586D01*
X-412775158Y4466108D01*
X-412791879Y4485404D01*
X-412845073Y4561372D01*
X-412845074Y4561373D01*
X-413477037Y3929409D01*
X-413494075Y3992993D01*
X-413559901Y4107007D01*
X-413652993Y4200099D01*
X-413767007Y4265925D01*
X-413830590Y4282962D01*
X-413198625Y4914925D01*
X-413282421Y4973599D01*
X-413496507Y5073429D01*
X-413496516Y5073433D01*
X-413724673Y5134567D01*
X-413724684Y5134569D01*
X-413959998Y5155157D01*
X-413960002Y5155157D01*
X-414195315Y5134569D01*
X-414195326Y5134567D01*
X-414423483Y5073433D01*
X-414423492Y5073429D01*
X-414637575Y4973601D01*
X-414721373Y4914925D01*
X-414089409Y4282962D01*
X-414152993Y4265925D01*
X-414267007Y4200099D01*
X-414360099Y4107007D01*
X-414425925Y3992993D01*
X-414442962Y3929410D01*
X-415113181Y4599629D01*
X-415146666Y4660952D01*
X-415149500Y4687301D01*
X-415149500Y4697865D01*
X-415149501Y4697876D01*
X-415155908Y4757483D01*
X-415206202Y4892328D01*
X-415206206Y4892335D01*
X-415292452Y5007544D01*
X-415292455Y5007547D01*
X-415407664Y5093793D01*
X-415407671Y5093797D01*
X-415542517Y5144091D01*
X-415542516Y5144091D01*
X-415548925Y5144779D01*
X-415602127Y5150500D01*
X-417397872Y5150499D01*
X-417457483Y5144091D01*
X-417592331Y5093796D01*
X-417707546Y5007546D01*
X-417793796Y4892331D01*
X-417844091Y4757483D01*
X-417850500Y4697873D01*
X-496407976Y4697873D01*
X-496548597Y4838493D01*
X-496548598Y4838494D01*
X-496548599Y4838495D01*
X-496741547Y4973599D01*
X-496742165Y4974032D01*
X-496742169Y4974034D01*
X-496742170Y4974035D01*
X-496956337Y5073903D01*
X-497184592Y5135063D01*
X-497372918Y5151539D01*
X-497419999Y5155659D01*
X-497420001Y5155659D01*
X-497459234Y5152226D01*
X-497655408Y5135063D01*
X-497883663Y5073903D01*
X-498097829Y4974035D01*
X-498291401Y4838495D01*
X-498458495Y4671401D01*
X-498588426Y4485838D01*
X-498643001Y4442215D01*
X-498712500Y4435021D01*
X-498774855Y4466543D01*
X-498791571Y4485836D01*
X-498921505Y4671401D01*
X-499088599Y4838495D01*
X-499281547Y4973599D01*
X-499282165Y4974032D01*
X-499282169Y4974034D01*
X-499282170Y4974035D01*
X-499496337Y5073903D01*
X-499724592Y5135063D01*
X-499912918Y5151539D01*
X-499959999Y5155659D01*
X-499960001Y5155659D01*
X-499999234Y5152226D01*
X-500195408Y5135063D01*
X-500423663Y5073903D01*
X-500637829Y4974035D01*
X-500831401Y4838495D01*
X-500998495Y4671401D01*
X-501128426Y4485838D01*
X-501183001Y4442215D01*
X-501252500Y4435021D01*
X-501314855Y4466543D01*
X-501331571Y4485836D01*
X-501461505Y4671401D01*
X-501628599Y4838495D01*
X-501821547Y4973599D01*
X-501822165Y4974032D01*
X-501822169Y4974034D01*
X-501822170Y4974035D01*
X-502036337Y5073903D01*
X-502264592Y5135063D01*
X-502452918Y5151539D01*
X-502499999Y5155659D01*
X-502500001Y5155659D01*
X-502539234Y5152226D01*
X-502735408Y5135063D01*
X-502963663Y5073903D01*
X-503177829Y4974035D01*
X-503371401Y4838495D01*
X-503538495Y4671401D01*
X-503674035Y4477829D01*
X-503773903Y4263663D01*
X-503835063Y4035408D01*
X-503855659Y3800000D01*
X-505267592Y3800000D01*
X-505171741Y3936272D01*
X-505165983Y3943827D01*
X-504855249Y4320614D01*
X-504848929Y4327706D01*
X-504510256Y4679609D01*
X-504503411Y4686196D01*
X-504138803Y5011134D01*
X-504131475Y5017177D01*
X-503743061Y5313252D01*
X-503735291Y5318717D01*
X-503325363Y5584184D01*
X-503317198Y5589039D01*
X-502888121Y5822363D01*
X-502879608Y5826577D01*
X-502433963Y6026356D01*
X-502425153Y6029907D01*
X-501965506Y6194993D01*
X-501956450Y6197859D01*
X-501485525Y6327271D01*
X-501476276Y6329436D01*
X-500996809Y6422424D01*
X-500987421Y6423874D01*
X-500502251Y6479884D01*
X-500492780Y6480611D01*
X-500002374Y6499409D01*
X-499997624Y6499500D01*
X-499934108Y6499500D01*
X-414065892Y6499500D01*
X-414002376Y6499500D01*
X-413997626Y6499409D01*
G37*
%TD.AperFunction*%
%TD*%
M02*
