%TF.GenerationSoftware,KiCad,Pcbnew,8.0.0*%
%TF.CreationDate,2024-05-23T14:56:37-05:00*%
%TF.ProjectId,antenna_connector,616e7465-6e6e-4615-9f63-6f6e6e656374,rev?*%
%TF.SameCoordinates,Original*%
%TF.FileFunction,Copper,L4,Bot*%
%TF.FilePolarity,Positive*%
%FSLAX46Y46*%
G04 Gerber Fmt 4.6, Leading zero omitted, Abs format (unit mm)*
G04 Created by KiCad (PCBNEW 8.0.0) date 2024-05-23 14:56:37*
%MOMM*%
%LPD*%
G01*
G04 APERTURE LIST*
%TA.AperFunction,ComponentPad*%
%ADD10O,1.700000X1.700000*%
%TD*%
%TA.AperFunction,ComponentPad*%
%ADD11R,1.700000X1.700000*%
%TD*%
%TA.AperFunction,ComponentPad*%
%ADD12O,1.500000X1.500000*%
%TD*%
%TA.AperFunction,ComponentPad*%
%ADD13C,1.500000*%
%TD*%
%TA.AperFunction,Conductor*%
%ADD14C,0.750000*%
%TD*%
G04 APERTURE END LIST*
D10*
%TO.P,REF\u002A\u002A,1*%
%TO.N,d2*%
X112640000Y-117520000D03*
%TO.P,REF\u002A\u002A,2*%
%TO.N,d1*%
X112640000Y-114980000D03*
%TO.P,REF\u002A\u002A,3*%
%TO.N,clk*%
X115180000Y-117520000D03*
%TO.P,REF\u002A\u002A,4*%
%TO.N,ws*%
X115180000Y-114980000D03*
%TO.P,REF\u002A\u002A,5*%
%TO.N,d4*%
X117720000Y-117520000D03*
%TO.P,REF\u002A\u002A,6*%
%TO.N,d3*%
X117720000Y-114980000D03*
%TO.P,REF\u002A\u002A,7*%
X120260000Y-117520000D03*
%TO.P,REF\u002A\u002A,8*%
%TO.N,d4*%
X120260000Y-114980000D03*
%TO.P,REF\u002A\u002A,9*%
%TO.N,ws*%
X122800000Y-117520000D03*
%TO.P,REF\u002A\u002A,10*%
%TO.N,clk*%
X122800000Y-114980000D03*
%TO.P,REF\u002A\u002A,11*%
%TO.N,5V*%
X125340000Y-117520000D03*
%TO.P,REF\u002A\u002A,12*%
%TO.N,gnd*%
X125340000Y-114980000D03*
%TO.P,REF\u002A\u002A,13*%
%TO.N,d1*%
X127880000Y-117520000D03*
%TO.P,REF\u002A\u002A,14*%
%TO.N,d2*%
X127880000Y-114980000D03*
%TO.P,REF\u002A\u002A,15*%
X130420000Y-117520000D03*
%TO.P,REF\u002A\u002A,16*%
%TO.N,d1*%
X130420000Y-114980000D03*
%TO.P,REF\u002A\u002A,17*%
%TO.N,clk*%
X132960000Y-117520000D03*
%TO.P,REF\u002A\u002A,18*%
%TO.N,ws*%
X132960000Y-114980000D03*
%TO.P,REF\u002A\u002A,19*%
%TO.N,d4*%
X135500000Y-117520000D03*
%TO.P,REF\u002A\u002A,20*%
%TO.N,d3*%
X135500000Y-114980000D03*
%TO.P,REF\u002A\u002A,21*%
X138040000Y-117520000D03*
%TO.P,REF\u002A\u002A,22*%
%TO.N,d4*%
X138040000Y-114980000D03*
%TO.P,REF\u002A\u002A,23*%
%TO.N,ws*%
X140580000Y-117520000D03*
%TO.P,REF\u002A\u002A,24*%
%TO.N,clk*%
X140580000Y-114980000D03*
%TO.P,REF\u002A\u002A,25*%
%TO.N,d1*%
X143120000Y-117520000D03*
%TO.P,REF\u002A\u002A,26*%
%TO.N,d2*%
X143120000Y-114980000D03*
%TO.P,REF\u002A\u002A,27*%
X145660000Y-117520000D03*
%TO.P,REF\u002A\u002A,28*%
%TO.N,d1*%
X145660000Y-114980000D03*
%TO.P,REF\u002A\u002A,29*%
%TO.N,N/C*%
X148200000Y-117520000D03*
%TO.P,REF\u002A\u002A,30*%
%TO.N,gnd*%
X148200000Y-114980000D03*
%TO.P,REF\u002A\u002A,31*%
%TO.N,clk*%
X150740000Y-117520000D03*
%TO.P,REF\u002A\u002A,32*%
%TO.N,ws*%
X150740000Y-114980000D03*
%TO.P,REF\u002A\u002A,33*%
%TO.N,d4*%
X153280000Y-117520000D03*
%TO.P,REF\u002A\u002A,34*%
%TO.N,d3*%
X153280000Y-114980000D03*
%TO.P,REF\u002A\u002A,35*%
X155820000Y-117520000D03*
%TO.P,REF\u002A\u002A,36*%
%TO.N,d4*%
X155820000Y-114980000D03*
%TO.P,REF\u002A\u002A,37*%
%TO.N,ws*%
X158360000Y-117520000D03*
%TO.P,REF\u002A\u002A,38*%
%TO.N,clk*%
X158360000Y-114980000D03*
%TO.P,REF\u002A\u002A,39*%
%TO.N,d1*%
X160900000Y-117520000D03*
%TO.P,REF\u002A\u002A,40*%
%TO.N,d2*%
X160900000Y-114980000D03*
%TD*%
%TO.P,REF\u002A\u002A,1*%
%TO.N,d2*%
X113180000Y-82760000D03*
%TO.P,REF\u002A\u002A,2*%
%TO.N,d1*%
X113180000Y-80220000D03*
%TO.P,REF\u002A\u002A,3*%
%TO.N,clk*%
X115720000Y-82760000D03*
%TO.P,REF\u002A\u002A,4*%
%TO.N,ws*%
X115720000Y-80220000D03*
%TO.P,REF\u002A\u002A,5*%
%TO.N,d4*%
X118260000Y-82760000D03*
%TO.P,REF\u002A\u002A,6*%
%TO.N,d3*%
X118260000Y-80220000D03*
%TO.P,REF\u002A\u002A,7*%
X120800000Y-82760000D03*
%TO.P,REF\u002A\u002A,8*%
%TO.N,d4*%
X120800000Y-80220000D03*
%TO.P,REF\u002A\u002A,9*%
%TO.N,ws*%
X123340000Y-82760000D03*
%TO.P,REF\u002A\u002A,10*%
%TO.N,clk*%
X123340000Y-80220000D03*
%TO.P,REF\u002A\u002A,11*%
%TO.N,5V*%
X125880000Y-82760000D03*
%TO.P,REF\u002A\u002A,12*%
%TO.N,gnd*%
X125880000Y-80220000D03*
%TO.P,REF\u002A\u002A,13*%
%TO.N,d1*%
X128420000Y-82760000D03*
%TO.P,REF\u002A\u002A,14*%
%TO.N,d2*%
X128420000Y-80220000D03*
%TO.P,REF\u002A\u002A,15*%
X130960000Y-82760000D03*
%TO.P,REF\u002A\u002A,16*%
%TO.N,d1*%
X130960000Y-80220000D03*
%TO.P,REF\u002A\u002A,17*%
%TO.N,clk*%
X133500000Y-82760000D03*
%TO.P,REF\u002A\u002A,18*%
%TO.N,ws*%
X133500000Y-80220000D03*
%TO.P,REF\u002A\u002A,19*%
%TO.N,d4*%
X136040000Y-82760000D03*
%TO.P,REF\u002A\u002A,20*%
%TO.N,d3*%
X136040000Y-80220000D03*
%TO.P,REF\u002A\u002A,21*%
X138580000Y-82760000D03*
%TO.P,REF\u002A\u002A,22*%
%TO.N,d4*%
X138580000Y-80220000D03*
%TO.P,REF\u002A\u002A,23*%
%TO.N,ws*%
X141120000Y-82760000D03*
%TO.P,REF\u002A\u002A,24*%
%TO.N,clk*%
X141120000Y-80220000D03*
%TO.P,REF\u002A\u002A,25*%
%TO.N,d1*%
X143660000Y-82760000D03*
%TO.P,REF\u002A\u002A,26*%
%TO.N,d2*%
X143660000Y-80220000D03*
%TO.P,REF\u002A\u002A,27*%
X146200000Y-82760000D03*
%TO.P,REF\u002A\u002A,28*%
%TO.N,d1*%
X146200000Y-80220000D03*
%TO.P,REF\u002A\u002A,29*%
%TO.N,N/C*%
X148740000Y-82760000D03*
%TO.P,REF\u002A\u002A,30*%
%TO.N,gnd*%
X148740000Y-80220000D03*
%TO.P,REF\u002A\u002A,31*%
%TO.N,clk*%
X151280000Y-82760000D03*
%TO.P,REF\u002A\u002A,32*%
%TO.N,ws*%
X151280000Y-80220000D03*
%TO.P,REF\u002A\u002A,33*%
%TO.N,d4*%
X153820000Y-82760000D03*
%TO.P,REF\u002A\u002A,34*%
%TO.N,d3*%
X153820000Y-80220000D03*
%TO.P,REF\u002A\u002A,35*%
X156360000Y-82760000D03*
%TO.P,REF\u002A\u002A,36*%
%TO.N,d4*%
X156360000Y-80220000D03*
%TO.P,REF\u002A\u002A,37*%
%TO.N,ws*%
X158900000Y-82760000D03*
%TO.P,REF\u002A\u002A,38*%
%TO.N,clk*%
X158900000Y-80220000D03*
%TO.P,REF\u002A\u002A,39*%
%TO.N,d1*%
X161440000Y-82760000D03*
%TO.P,REF\u002A\u002A,40*%
%TO.N,d2*%
X161440000Y-80220000D03*
%TD*%
D11*
%TO.P,REF\u002A\u002A,1*%
%TO.N,gnd*%
X182728494Y-119510000D03*
D10*
%TO.P,REF\u002A\u002A,2*%
%TO.N,pwr*%
X182728494Y-116970000D03*
%TO.P,REF\u002A\u002A,3*%
%TO.N,5V*%
X182728494Y-114430000D03*
%TD*%
D11*
%TO.P,REF\u002A\u002A,1*%
%TO.N,gnd*%
X183268494Y-84750000D03*
D10*
%TO.P,REF\u002A\u002A,2*%
%TO.N,pwr*%
X183268494Y-82210000D03*
%TO.P,REF\u002A\u002A,3*%
%TO.N,5V*%
X183268494Y-79670000D03*
%TD*%
D12*
%TO.P,REF\u002A\u002A,1*%
%TO.N,d4*%
X178660000Y-68390000D03*
D13*
%TO.P,REF\u002A\u002A,2*%
%TO.N,clk*%
X179930000Y-70930000D03*
%TO.P,REF\u002A\u002A,3*%
%TO.N,gnd*%
X181200000Y-68390000D03*
%TO.P,REF\u002A\u002A,4*%
%TO.N,d2*%
X182470000Y-70930000D03*
%TO.P,REF\u002A\u002A,5*%
%TO.N,pwr*%
X183740000Y-68390000D03*
%TO.P,REF\u002A\u002A,6*%
%TO.N,d1*%
X185010000Y-70930000D03*
%TO.P,REF\u002A\u002A,7*%
%TO.N,d3*%
X186280000Y-68390000D03*
%TO.P,REF\u002A\u002A,8*%
%TO.N,ws*%
X187550000Y-70930000D03*
%TD*%
D12*
%TO.P,REF\u002A\u002A,1*%
%TO.N,d4*%
X187215000Y-129765000D03*
D13*
%TO.P,REF\u002A\u002A,2*%
%TO.N,clk*%
X185945000Y-127225000D03*
%TO.P,REF\u002A\u002A,3*%
%TO.N,gnd*%
X184675000Y-129765000D03*
%TO.P,REF\u002A\u002A,4*%
%TO.N,d2*%
X183405000Y-127225000D03*
%TO.P,REF\u002A\u002A,5*%
%TO.N,pwr*%
X182135000Y-129765000D03*
%TO.P,REF\u002A\u002A,6*%
%TO.N,d1*%
X180865000Y-127225000D03*
%TO.P,REF\u002A\u002A,7*%
%TO.N,d3*%
X179595000Y-129765000D03*
%TO.P,REF\u002A\u002A,8*%
%TO.N,ws*%
X178325000Y-127225000D03*
%TD*%
D12*
%TO.P,REF\u002A\u002A,1*%
%TO.N,d4*%
X99215000Y-68415000D03*
D13*
%TO.P,REF\u002A\u002A,2*%
%TO.N,clk*%
X100485000Y-70955000D03*
%TO.P,REF\u002A\u002A,3*%
%TO.N,gnd*%
X101755000Y-68415000D03*
%TO.P,REF\u002A\u002A,4*%
%TO.N,d2*%
X103025000Y-70955000D03*
%TO.P,REF\u002A\u002A,5*%
%TO.N,pwr*%
X104295000Y-68415000D03*
%TO.P,REF\u002A\u002A,6*%
%TO.N,d1*%
X105565000Y-70955000D03*
%TO.P,REF\u002A\u002A,7*%
%TO.N,d3*%
X106835000Y-68415000D03*
%TO.P,REF\u002A\u002A,8*%
%TO.N,ws*%
X108105000Y-70955000D03*
%TD*%
D12*
%TO.P,REF\u002A\u002A,1*%
%TO.N,d4*%
X162815000Y-68415000D03*
D13*
%TO.P,REF\u002A\u002A,2*%
%TO.N,clk*%
X164085000Y-70955000D03*
%TO.P,REF\u002A\u002A,3*%
%TO.N,gnd*%
X165355000Y-68415000D03*
%TO.P,REF\u002A\u002A,4*%
%TO.N,d2*%
X166625000Y-70955000D03*
%TO.P,REF\u002A\u002A,5*%
%TO.N,pwr*%
X167895000Y-68415000D03*
%TO.P,REF\u002A\u002A,6*%
%TO.N,d1*%
X169165000Y-70955000D03*
%TO.P,REF\u002A\u002A,7*%
%TO.N,d3*%
X170435000Y-68415000D03*
%TO.P,REF\u002A\u002A,8*%
%TO.N,ws*%
X171705000Y-70955000D03*
%TD*%
D12*
%TO.P,REF\u002A\u002A,1*%
%TO.N,d4*%
X115060000Y-68390000D03*
D13*
%TO.P,REF\u002A\u002A,2*%
%TO.N,clk*%
X116330000Y-70930000D03*
%TO.P,REF\u002A\u002A,3*%
%TO.N,gnd*%
X117600000Y-68390000D03*
%TO.P,REF\u002A\u002A,4*%
%TO.N,d2*%
X118870000Y-70930000D03*
%TO.P,REF\u002A\u002A,5*%
%TO.N,pwr*%
X120140000Y-68390000D03*
%TO.P,REF\u002A\u002A,6*%
%TO.N,d1*%
X121410000Y-70930000D03*
%TO.P,REF\u002A\u002A,7*%
%TO.N,d3*%
X122680000Y-68390000D03*
%TO.P,REF\u002A\u002A,8*%
%TO.N,ws*%
X123950000Y-70930000D03*
%TD*%
D12*
%TO.P,REF\u002A\u002A,1*%
%TO.N,d4*%
X171370000Y-129790000D03*
D13*
%TO.P,REF\u002A\u002A,2*%
%TO.N,clk*%
X170100000Y-127250000D03*
%TO.P,REF\u002A\u002A,3*%
%TO.N,gnd*%
X168830000Y-129790000D03*
%TO.P,REF\u002A\u002A,4*%
%TO.N,d2*%
X167560000Y-127250000D03*
%TO.P,REF\u002A\u002A,5*%
%TO.N,pwr*%
X166290000Y-129790000D03*
%TO.P,REF\u002A\u002A,6*%
%TO.N,d1*%
X165020000Y-127250000D03*
%TO.P,REF\u002A\u002A,7*%
%TO.N,d3*%
X163750000Y-129790000D03*
%TO.P,REF\u002A\u002A,8*%
%TO.N,ws*%
X162480000Y-127250000D03*
%TD*%
D12*
%TO.P,REF\u002A\u002A,1*%
%TO.N,d4*%
X146815000Y-68390000D03*
D13*
%TO.P,REF\u002A\u002A,2*%
%TO.N,clk*%
X148085000Y-70930000D03*
%TO.P,REF\u002A\u002A,3*%
%TO.N,gnd*%
X149355000Y-68390000D03*
%TO.P,REF\u002A\u002A,4*%
%TO.N,d2*%
X150625000Y-70930000D03*
%TO.P,REF\u002A\u002A,5*%
%TO.N,pwr*%
X151895000Y-68390000D03*
%TO.P,REF\u002A\u002A,6*%
%TO.N,d1*%
X153165000Y-70930000D03*
%TO.P,REF\u002A\u002A,7*%
%TO.N,d3*%
X154435000Y-68390000D03*
%TO.P,REF\u002A\u002A,8*%
%TO.N,ws*%
X155705000Y-70930000D03*
%TD*%
D12*
%TO.P,REF\u002A\u002A,1*%
%TO.N,d4*%
X123615000Y-129765000D03*
D13*
%TO.P,REF\u002A\u002A,2*%
%TO.N,clk*%
X122345000Y-127225000D03*
%TO.P,REF\u002A\u002A,3*%
%TO.N,gnd*%
X121075000Y-129765000D03*
%TO.P,REF\u002A\u002A,4*%
%TO.N,d2*%
X119805000Y-127225000D03*
%TO.P,REF\u002A\u002A,5*%
%TO.N,pwr*%
X118535000Y-129765000D03*
%TO.P,REF\u002A\u002A,6*%
%TO.N,d1*%
X117265000Y-127225000D03*
%TO.P,REF\u002A\u002A,7*%
%TO.N,d3*%
X115995000Y-129765000D03*
%TO.P,REF\u002A\u002A,8*%
%TO.N,ws*%
X114725000Y-127225000D03*
%TD*%
D12*
%TO.P,REF\u002A\u002A,1*%
%TO.N,d4*%
X155460000Y-129765000D03*
D13*
%TO.P,REF\u002A\u002A,2*%
%TO.N,clk*%
X154190000Y-127225000D03*
%TO.P,REF\u002A\u002A,3*%
%TO.N,gnd*%
X152920000Y-129765000D03*
%TO.P,REF\u002A\u002A,4*%
%TO.N,d2*%
X151650000Y-127225000D03*
%TO.P,REF\u002A\u002A,5*%
%TO.N,pwr*%
X150380000Y-129765000D03*
%TO.P,REF\u002A\u002A,6*%
%TO.N,d1*%
X149110000Y-127225000D03*
%TO.P,REF\u002A\u002A,7*%
%TO.N,d3*%
X147840000Y-129765000D03*
%TO.P,REF\u002A\u002A,8*%
%TO.N,ws*%
X146570000Y-127225000D03*
%TD*%
D12*
%TO.P,REF\u002A\u002A,1*%
%TO.N,d4*%
X107770000Y-129790000D03*
D13*
%TO.P,REF\u002A\u002A,2*%
%TO.N,clk*%
X106500000Y-127250000D03*
%TO.P,REF\u002A\u002A,3*%
%TO.N,gnd*%
X105230000Y-129790000D03*
%TO.P,REF\u002A\u002A,4*%
%TO.N,d2*%
X103960000Y-127250000D03*
%TO.P,REF\u002A\u002A,5*%
%TO.N,pwr*%
X102690000Y-129790000D03*
%TO.P,REF\u002A\u002A,6*%
%TO.N,d1*%
X101420000Y-127250000D03*
%TO.P,REF\u002A\u002A,7*%
%TO.N,d3*%
X100150000Y-129790000D03*
%TO.P,REF\u002A\u002A,8*%
%TO.N,ws*%
X98880000Y-127250000D03*
%TD*%
D12*
%TO.P,REF\u002A\u002A,1*%
%TO.N,d4*%
X139615000Y-129790000D03*
D13*
%TO.P,REF\u002A\u002A,2*%
%TO.N,clk*%
X138345000Y-127250000D03*
%TO.P,REF\u002A\u002A,3*%
%TO.N,gnd*%
X137075000Y-129790000D03*
%TO.P,REF\u002A\u002A,4*%
%TO.N,d2*%
X135805000Y-127250000D03*
%TO.P,REF\u002A\u002A,5*%
%TO.N,pwr*%
X134535000Y-129790000D03*
%TO.P,REF\u002A\u002A,6*%
%TO.N,d1*%
X133265000Y-127250000D03*
%TO.P,REF\u002A\u002A,7*%
%TO.N,d3*%
X131995000Y-129790000D03*
%TO.P,REF\u002A\u002A,8*%
%TO.N,ws*%
X130725000Y-127250000D03*
%TD*%
D12*
%TO.P,REF\u002A\u002A,1*%
%TO.N,d4*%
X130970000Y-68415000D03*
D13*
%TO.P,REF\u002A\u002A,2*%
%TO.N,clk*%
X132240000Y-70955000D03*
%TO.P,REF\u002A\u002A,3*%
%TO.N,gnd*%
X133510000Y-68415000D03*
%TO.P,REF\u002A\u002A,4*%
%TO.N,d2*%
X134780000Y-70955000D03*
%TO.P,REF\u002A\u002A,5*%
%TO.N,pwr*%
X136050000Y-68415000D03*
%TO.P,REF\u002A\u002A,6*%
%TO.N,d1*%
X137320000Y-70955000D03*
%TO.P,REF\u002A\u002A,7*%
%TO.N,d3*%
X138590000Y-68415000D03*
%TO.P,REF\u002A\u002A,8*%
%TO.N,ws*%
X139860000Y-70955000D03*
%TD*%
D14*
%TO.N,5V*%
X125340000Y-117520000D02*
X127280000Y-119460000D01*
X125880000Y-82760000D02*
X127820000Y-84700000D01*
X178238494Y-84700000D02*
X183268494Y-79670000D01*
X177698494Y-119460000D02*
X182728494Y-114430000D01*
X127280000Y-119460000D02*
X177698494Y-119460000D01*
X127820000Y-84700000D02*
X178238494Y-84700000D01*
%TD*%
M02*
