%TF.GenerationSoftware,KiCad,Pcbnew,8.0.0*%
%TF.CreationDate,2024-05-23T14:56:36-05:00*%
%TF.ProjectId,antenna_connector,616e7465-6e6e-4615-9f63-6f6e6e656374,rev?*%
%TF.SameCoordinates,Original*%
%TF.FileFunction,Copper,L1,Top*%
%TF.FilePolarity,Positive*%
%FSLAX46Y46*%
G04 Gerber Fmt 4.6, Leading zero omitted, Abs format (unit mm)*
G04 Created by KiCad (PCBNEW 8.0.0) date 2024-05-23 14:56:36*
%MOMM*%
%LPD*%
G01*
G04 APERTURE LIST*
%TA.AperFunction,ComponentPad*%
%ADD10O,1.700000X1.700000*%
%TD*%
%TA.AperFunction,ComponentPad*%
%ADD11R,1.700000X1.700000*%
%TD*%
%TA.AperFunction,ComponentPad*%
%ADD12O,1.500000X1.500000*%
%TD*%
%TA.AperFunction,ComponentPad*%
%ADD13C,1.500000*%
%TD*%
%TA.AperFunction,Conductor*%
%ADD14C,0.200000*%
%TD*%
G04 APERTURE END LIST*
D10*
%TO.P,REF\u002A\u002A,1*%
%TO.N,d2*%
X112640000Y-117520000D03*
%TO.P,REF\u002A\u002A,2*%
%TO.N,d1*%
X112640000Y-114980000D03*
%TO.P,REF\u002A\u002A,3*%
%TO.N,clk*%
X115180000Y-117520000D03*
%TO.P,REF\u002A\u002A,4*%
%TO.N,ws*%
X115180000Y-114980000D03*
%TO.P,REF\u002A\u002A,5*%
%TO.N,d4*%
X117720000Y-117520000D03*
%TO.P,REF\u002A\u002A,6*%
%TO.N,d3*%
X117720000Y-114980000D03*
%TO.P,REF\u002A\u002A,7*%
X120260000Y-117520000D03*
%TO.P,REF\u002A\u002A,8*%
%TO.N,d4*%
X120260000Y-114980000D03*
%TO.P,REF\u002A\u002A,9*%
%TO.N,ws*%
X122800000Y-117520000D03*
%TO.P,REF\u002A\u002A,10*%
%TO.N,clk*%
X122800000Y-114980000D03*
%TO.P,REF\u002A\u002A,11*%
%TO.N,5V*%
X125340000Y-117520000D03*
%TO.P,REF\u002A\u002A,12*%
%TO.N,gnd*%
X125340000Y-114980000D03*
%TO.P,REF\u002A\u002A,13*%
%TO.N,d1*%
X127880000Y-117520000D03*
%TO.P,REF\u002A\u002A,14*%
%TO.N,d2*%
X127880000Y-114980000D03*
%TO.P,REF\u002A\u002A,15*%
X130420000Y-117520000D03*
%TO.P,REF\u002A\u002A,16*%
%TO.N,d1*%
X130420000Y-114980000D03*
%TO.P,REF\u002A\u002A,17*%
%TO.N,clk*%
X132960000Y-117520000D03*
%TO.P,REF\u002A\u002A,18*%
%TO.N,ws*%
X132960000Y-114980000D03*
%TO.P,REF\u002A\u002A,19*%
%TO.N,d4*%
X135500000Y-117520000D03*
%TO.P,REF\u002A\u002A,20*%
%TO.N,d3*%
X135500000Y-114980000D03*
%TO.P,REF\u002A\u002A,21*%
X138040000Y-117520000D03*
%TO.P,REF\u002A\u002A,22*%
%TO.N,d4*%
X138040000Y-114980000D03*
%TO.P,REF\u002A\u002A,23*%
%TO.N,ws*%
X140580000Y-117520000D03*
%TO.P,REF\u002A\u002A,24*%
%TO.N,clk*%
X140580000Y-114980000D03*
%TO.P,REF\u002A\u002A,25*%
%TO.N,d1*%
X143120000Y-117520000D03*
%TO.P,REF\u002A\u002A,26*%
%TO.N,d2*%
X143120000Y-114980000D03*
%TO.P,REF\u002A\u002A,27*%
X145660000Y-117520000D03*
%TO.P,REF\u002A\u002A,28*%
%TO.N,d1*%
X145660000Y-114980000D03*
%TO.P,REF\u002A\u002A,29*%
%TO.N,N/C*%
X148200000Y-117520000D03*
%TO.P,REF\u002A\u002A,30*%
%TO.N,gnd*%
X148200000Y-114980000D03*
%TO.P,REF\u002A\u002A,31*%
%TO.N,clk*%
X150740000Y-117520000D03*
%TO.P,REF\u002A\u002A,32*%
%TO.N,ws*%
X150740000Y-114980000D03*
%TO.P,REF\u002A\u002A,33*%
%TO.N,d4*%
X153280000Y-117520000D03*
%TO.P,REF\u002A\u002A,34*%
%TO.N,d3*%
X153280000Y-114980000D03*
%TO.P,REF\u002A\u002A,35*%
X155820000Y-117520000D03*
%TO.P,REF\u002A\u002A,36*%
%TO.N,d4*%
X155820000Y-114980000D03*
%TO.P,REF\u002A\u002A,37*%
%TO.N,ws*%
X158360000Y-117520000D03*
%TO.P,REF\u002A\u002A,38*%
%TO.N,clk*%
X158360000Y-114980000D03*
%TO.P,REF\u002A\u002A,39*%
%TO.N,d1*%
X160900000Y-117520000D03*
%TO.P,REF\u002A\u002A,40*%
%TO.N,d2*%
X160900000Y-114980000D03*
%TD*%
%TO.P,REF\u002A\u002A,1*%
%TO.N,d2*%
X113180000Y-82760000D03*
%TO.P,REF\u002A\u002A,2*%
%TO.N,d1*%
X113180000Y-80220000D03*
%TO.P,REF\u002A\u002A,3*%
%TO.N,clk*%
X115720000Y-82760000D03*
%TO.P,REF\u002A\u002A,4*%
%TO.N,ws*%
X115720000Y-80220000D03*
%TO.P,REF\u002A\u002A,5*%
%TO.N,d4*%
X118260000Y-82760000D03*
%TO.P,REF\u002A\u002A,6*%
%TO.N,d3*%
X118260000Y-80220000D03*
%TO.P,REF\u002A\u002A,7*%
X120800000Y-82760000D03*
%TO.P,REF\u002A\u002A,8*%
%TO.N,d4*%
X120800000Y-80220000D03*
%TO.P,REF\u002A\u002A,9*%
%TO.N,ws*%
X123340000Y-82760000D03*
%TO.P,REF\u002A\u002A,10*%
%TO.N,clk*%
X123340000Y-80220000D03*
%TO.P,REF\u002A\u002A,11*%
%TO.N,5V*%
X125880000Y-82760000D03*
%TO.P,REF\u002A\u002A,12*%
%TO.N,gnd*%
X125880000Y-80220000D03*
%TO.P,REF\u002A\u002A,13*%
%TO.N,d1*%
X128420000Y-82760000D03*
%TO.P,REF\u002A\u002A,14*%
%TO.N,d2*%
X128420000Y-80220000D03*
%TO.P,REF\u002A\u002A,15*%
X130960000Y-82760000D03*
%TO.P,REF\u002A\u002A,16*%
%TO.N,d1*%
X130960000Y-80220000D03*
%TO.P,REF\u002A\u002A,17*%
%TO.N,clk*%
X133500000Y-82760000D03*
%TO.P,REF\u002A\u002A,18*%
%TO.N,ws*%
X133500000Y-80220000D03*
%TO.P,REF\u002A\u002A,19*%
%TO.N,d4*%
X136040000Y-82760000D03*
%TO.P,REF\u002A\u002A,20*%
%TO.N,d3*%
X136040000Y-80220000D03*
%TO.P,REF\u002A\u002A,21*%
X138580000Y-82760000D03*
%TO.P,REF\u002A\u002A,22*%
%TO.N,d4*%
X138580000Y-80220000D03*
%TO.P,REF\u002A\u002A,23*%
%TO.N,ws*%
X141120000Y-82760000D03*
%TO.P,REF\u002A\u002A,24*%
%TO.N,clk*%
X141120000Y-80220000D03*
%TO.P,REF\u002A\u002A,25*%
%TO.N,d1*%
X143660000Y-82760000D03*
%TO.P,REF\u002A\u002A,26*%
%TO.N,d2*%
X143660000Y-80220000D03*
%TO.P,REF\u002A\u002A,27*%
X146200000Y-82760000D03*
%TO.P,REF\u002A\u002A,28*%
%TO.N,d1*%
X146200000Y-80220000D03*
%TO.P,REF\u002A\u002A,29*%
%TO.N,N/C*%
X148740000Y-82760000D03*
%TO.P,REF\u002A\u002A,30*%
%TO.N,gnd*%
X148740000Y-80220000D03*
%TO.P,REF\u002A\u002A,31*%
%TO.N,clk*%
X151280000Y-82760000D03*
%TO.P,REF\u002A\u002A,32*%
%TO.N,ws*%
X151280000Y-80220000D03*
%TO.P,REF\u002A\u002A,33*%
%TO.N,d4*%
X153820000Y-82760000D03*
%TO.P,REF\u002A\u002A,34*%
%TO.N,d3*%
X153820000Y-80220000D03*
%TO.P,REF\u002A\u002A,35*%
X156360000Y-82760000D03*
%TO.P,REF\u002A\u002A,36*%
%TO.N,d4*%
X156360000Y-80220000D03*
%TO.P,REF\u002A\u002A,37*%
%TO.N,ws*%
X158900000Y-82760000D03*
%TO.P,REF\u002A\u002A,38*%
%TO.N,clk*%
X158900000Y-80220000D03*
%TO.P,REF\u002A\u002A,39*%
%TO.N,d1*%
X161440000Y-82760000D03*
%TO.P,REF\u002A\u002A,40*%
%TO.N,d2*%
X161440000Y-80220000D03*
%TD*%
D11*
%TO.P,REF\u002A\u002A,1*%
%TO.N,gnd*%
X182728494Y-119510000D03*
D10*
%TO.P,REF\u002A\u002A,2*%
%TO.N,pwr*%
X182728494Y-116970000D03*
%TO.P,REF\u002A\u002A,3*%
%TO.N,5V*%
X182728494Y-114430000D03*
%TD*%
D11*
%TO.P,REF\u002A\u002A,1*%
%TO.N,gnd*%
X183268494Y-84750000D03*
D10*
%TO.P,REF\u002A\u002A,2*%
%TO.N,pwr*%
X183268494Y-82210000D03*
%TO.P,REF\u002A\u002A,3*%
%TO.N,5V*%
X183268494Y-79670000D03*
%TD*%
D12*
%TO.P,REF\u002A\u002A,1*%
%TO.N,d4*%
X178660000Y-68390000D03*
D13*
%TO.P,REF\u002A\u002A,2*%
%TO.N,clk*%
X179930000Y-70930000D03*
%TO.P,REF\u002A\u002A,3*%
%TO.N,gnd*%
X181200000Y-68390000D03*
%TO.P,REF\u002A\u002A,4*%
%TO.N,d2*%
X182470000Y-70930000D03*
%TO.P,REF\u002A\u002A,5*%
%TO.N,pwr*%
X183740000Y-68390000D03*
%TO.P,REF\u002A\u002A,6*%
%TO.N,d1*%
X185010000Y-70930000D03*
%TO.P,REF\u002A\u002A,7*%
%TO.N,d3*%
X186280000Y-68390000D03*
%TO.P,REF\u002A\u002A,8*%
%TO.N,ws*%
X187550000Y-70930000D03*
%TD*%
D12*
%TO.P,REF\u002A\u002A,1*%
%TO.N,d4*%
X187215000Y-129765000D03*
D13*
%TO.P,REF\u002A\u002A,2*%
%TO.N,clk*%
X185945000Y-127225000D03*
%TO.P,REF\u002A\u002A,3*%
%TO.N,gnd*%
X184675000Y-129765000D03*
%TO.P,REF\u002A\u002A,4*%
%TO.N,d2*%
X183405000Y-127225000D03*
%TO.P,REF\u002A\u002A,5*%
%TO.N,pwr*%
X182135000Y-129765000D03*
%TO.P,REF\u002A\u002A,6*%
%TO.N,d1*%
X180865000Y-127225000D03*
%TO.P,REF\u002A\u002A,7*%
%TO.N,d3*%
X179595000Y-129765000D03*
%TO.P,REF\u002A\u002A,8*%
%TO.N,ws*%
X178325000Y-127225000D03*
%TD*%
D12*
%TO.P,REF\u002A\u002A,1*%
%TO.N,d4*%
X99215000Y-68415000D03*
D13*
%TO.P,REF\u002A\u002A,2*%
%TO.N,clk*%
X100485000Y-70955000D03*
%TO.P,REF\u002A\u002A,3*%
%TO.N,gnd*%
X101755000Y-68415000D03*
%TO.P,REF\u002A\u002A,4*%
%TO.N,d2*%
X103025000Y-70955000D03*
%TO.P,REF\u002A\u002A,5*%
%TO.N,pwr*%
X104295000Y-68415000D03*
%TO.P,REF\u002A\u002A,6*%
%TO.N,d1*%
X105565000Y-70955000D03*
%TO.P,REF\u002A\u002A,7*%
%TO.N,d3*%
X106835000Y-68415000D03*
%TO.P,REF\u002A\u002A,8*%
%TO.N,ws*%
X108105000Y-70955000D03*
%TD*%
D12*
%TO.P,REF\u002A\u002A,1*%
%TO.N,d4*%
X162815000Y-68415000D03*
D13*
%TO.P,REF\u002A\u002A,2*%
%TO.N,clk*%
X164085000Y-70955000D03*
%TO.P,REF\u002A\u002A,3*%
%TO.N,gnd*%
X165355000Y-68415000D03*
%TO.P,REF\u002A\u002A,4*%
%TO.N,d2*%
X166625000Y-70955000D03*
%TO.P,REF\u002A\u002A,5*%
%TO.N,pwr*%
X167895000Y-68415000D03*
%TO.P,REF\u002A\u002A,6*%
%TO.N,d1*%
X169165000Y-70955000D03*
%TO.P,REF\u002A\u002A,7*%
%TO.N,d3*%
X170435000Y-68415000D03*
%TO.P,REF\u002A\u002A,8*%
%TO.N,ws*%
X171705000Y-70955000D03*
%TD*%
D12*
%TO.P,REF\u002A\u002A,1*%
%TO.N,d4*%
X115060000Y-68390000D03*
D13*
%TO.P,REF\u002A\u002A,2*%
%TO.N,clk*%
X116330000Y-70930000D03*
%TO.P,REF\u002A\u002A,3*%
%TO.N,gnd*%
X117600000Y-68390000D03*
%TO.P,REF\u002A\u002A,4*%
%TO.N,d2*%
X118870000Y-70930000D03*
%TO.P,REF\u002A\u002A,5*%
%TO.N,pwr*%
X120140000Y-68390000D03*
%TO.P,REF\u002A\u002A,6*%
%TO.N,d1*%
X121410000Y-70930000D03*
%TO.P,REF\u002A\u002A,7*%
%TO.N,d3*%
X122680000Y-68390000D03*
%TO.P,REF\u002A\u002A,8*%
%TO.N,ws*%
X123950000Y-70930000D03*
%TD*%
D12*
%TO.P,REF\u002A\u002A,1*%
%TO.N,d4*%
X171370000Y-129790000D03*
D13*
%TO.P,REF\u002A\u002A,2*%
%TO.N,clk*%
X170100000Y-127250000D03*
%TO.P,REF\u002A\u002A,3*%
%TO.N,gnd*%
X168830000Y-129790000D03*
%TO.P,REF\u002A\u002A,4*%
%TO.N,d2*%
X167560000Y-127250000D03*
%TO.P,REF\u002A\u002A,5*%
%TO.N,pwr*%
X166290000Y-129790000D03*
%TO.P,REF\u002A\u002A,6*%
%TO.N,d1*%
X165020000Y-127250000D03*
%TO.P,REF\u002A\u002A,7*%
%TO.N,d3*%
X163750000Y-129790000D03*
%TO.P,REF\u002A\u002A,8*%
%TO.N,ws*%
X162480000Y-127250000D03*
%TD*%
D12*
%TO.P,REF\u002A\u002A,1*%
%TO.N,d4*%
X146815000Y-68390000D03*
D13*
%TO.P,REF\u002A\u002A,2*%
%TO.N,clk*%
X148085000Y-70930000D03*
%TO.P,REF\u002A\u002A,3*%
%TO.N,gnd*%
X149355000Y-68390000D03*
%TO.P,REF\u002A\u002A,4*%
%TO.N,d2*%
X150625000Y-70930000D03*
%TO.P,REF\u002A\u002A,5*%
%TO.N,pwr*%
X151895000Y-68390000D03*
%TO.P,REF\u002A\u002A,6*%
%TO.N,d1*%
X153165000Y-70930000D03*
%TO.P,REF\u002A\u002A,7*%
%TO.N,d3*%
X154435000Y-68390000D03*
%TO.P,REF\u002A\u002A,8*%
%TO.N,ws*%
X155705000Y-70930000D03*
%TD*%
D12*
%TO.P,REF\u002A\u002A,1*%
%TO.N,d4*%
X123615000Y-129765000D03*
D13*
%TO.P,REF\u002A\u002A,2*%
%TO.N,clk*%
X122345000Y-127225000D03*
%TO.P,REF\u002A\u002A,3*%
%TO.N,gnd*%
X121075000Y-129765000D03*
%TO.P,REF\u002A\u002A,4*%
%TO.N,d2*%
X119805000Y-127225000D03*
%TO.P,REF\u002A\u002A,5*%
%TO.N,pwr*%
X118535000Y-129765000D03*
%TO.P,REF\u002A\u002A,6*%
%TO.N,d1*%
X117265000Y-127225000D03*
%TO.P,REF\u002A\u002A,7*%
%TO.N,d3*%
X115995000Y-129765000D03*
%TO.P,REF\u002A\u002A,8*%
%TO.N,ws*%
X114725000Y-127225000D03*
%TD*%
D12*
%TO.P,REF\u002A\u002A,1*%
%TO.N,d4*%
X155460000Y-129765000D03*
D13*
%TO.P,REF\u002A\u002A,2*%
%TO.N,clk*%
X154190000Y-127225000D03*
%TO.P,REF\u002A\u002A,3*%
%TO.N,gnd*%
X152920000Y-129765000D03*
%TO.P,REF\u002A\u002A,4*%
%TO.N,d2*%
X151650000Y-127225000D03*
%TO.P,REF\u002A\u002A,5*%
%TO.N,pwr*%
X150380000Y-129765000D03*
%TO.P,REF\u002A\u002A,6*%
%TO.N,d1*%
X149110000Y-127225000D03*
%TO.P,REF\u002A\u002A,7*%
%TO.N,d3*%
X147840000Y-129765000D03*
%TO.P,REF\u002A\u002A,8*%
%TO.N,ws*%
X146570000Y-127225000D03*
%TD*%
D12*
%TO.P,REF\u002A\u002A,1*%
%TO.N,d4*%
X107770000Y-129790000D03*
D13*
%TO.P,REF\u002A\u002A,2*%
%TO.N,clk*%
X106500000Y-127250000D03*
%TO.P,REF\u002A\u002A,3*%
%TO.N,gnd*%
X105230000Y-129790000D03*
%TO.P,REF\u002A\u002A,4*%
%TO.N,d2*%
X103960000Y-127250000D03*
%TO.P,REF\u002A\u002A,5*%
%TO.N,pwr*%
X102690000Y-129790000D03*
%TO.P,REF\u002A\u002A,6*%
%TO.N,d1*%
X101420000Y-127250000D03*
%TO.P,REF\u002A\u002A,7*%
%TO.N,d3*%
X100150000Y-129790000D03*
%TO.P,REF\u002A\u002A,8*%
%TO.N,ws*%
X98880000Y-127250000D03*
%TD*%
D12*
%TO.P,REF\u002A\u002A,1*%
%TO.N,d4*%
X139615000Y-129790000D03*
D13*
%TO.P,REF\u002A\u002A,2*%
%TO.N,clk*%
X138345000Y-127250000D03*
%TO.P,REF\u002A\u002A,3*%
%TO.N,gnd*%
X137075000Y-129790000D03*
%TO.P,REF\u002A\u002A,4*%
%TO.N,d2*%
X135805000Y-127250000D03*
%TO.P,REF\u002A\u002A,5*%
%TO.N,pwr*%
X134535000Y-129790000D03*
%TO.P,REF\u002A\u002A,6*%
%TO.N,d1*%
X133265000Y-127250000D03*
%TO.P,REF\u002A\u002A,7*%
%TO.N,d3*%
X131995000Y-129790000D03*
%TO.P,REF\u002A\u002A,8*%
%TO.N,ws*%
X130725000Y-127250000D03*
%TD*%
D12*
%TO.P,REF\u002A\u002A,1*%
%TO.N,d4*%
X130970000Y-68415000D03*
D13*
%TO.P,REF\u002A\u002A,2*%
%TO.N,clk*%
X132240000Y-70955000D03*
%TO.P,REF\u002A\u002A,3*%
%TO.N,gnd*%
X133510000Y-68415000D03*
%TO.P,REF\u002A\u002A,4*%
%TO.N,d2*%
X134780000Y-70955000D03*
%TO.P,REF\u002A\u002A,5*%
%TO.N,pwr*%
X136050000Y-68415000D03*
%TO.P,REF\u002A\u002A,6*%
%TO.N,d1*%
X137320000Y-70955000D03*
%TO.P,REF\u002A\u002A,7*%
%TO.N,d3*%
X138590000Y-68415000D03*
%TO.P,REF\u002A\u002A,8*%
%TO.N,ws*%
X139860000Y-70955000D03*
%TD*%
D14*
%TO.N,d1*%
X109990000Y-75380000D02*
X109990000Y-83602744D01*
X146200000Y-79490000D02*
X146200000Y-80220000D01*
X121410000Y-70930000D02*
X113180000Y-79160000D01*
X161440000Y-81970000D02*
X169165000Y-74245000D01*
X165870000Y-112230000D02*
X180865000Y-127225000D01*
X170940000Y-85910000D02*
X146810000Y-85910000D01*
X146810000Y-85910000D02*
X143660000Y-82760000D01*
X127270000Y-111830000D02*
X109490000Y-111830000D01*
X111967258Y-85580000D02*
X125600000Y-85580000D01*
X149110000Y-125580000D02*
X149110000Y-127225000D01*
X127880000Y-121865000D02*
X133265000Y-127250000D01*
X153165000Y-72525000D02*
X146200000Y-79490000D01*
X127880000Y-117520000D02*
X127880000Y-121865000D01*
X101420000Y-119900000D02*
X101420000Y-127250000D01*
X111490000Y-121450000D02*
X117265000Y-127225000D01*
X111490000Y-116130000D02*
X111490000Y-121450000D01*
X153165000Y-70930000D02*
X153165000Y-72525000D01*
X130960000Y-80220000D02*
X130960000Y-78840000D01*
X113180000Y-79160000D02*
X113180000Y-80220000D01*
X130420000Y-114980000D02*
X127270000Y-111830000D01*
X105565000Y-70955000D02*
X109990000Y-75380000D01*
X112640000Y-114980000D02*
X111490000Y-116130000D01*
X185010000Y-71840000D02*
X170940000Y-85910000D01*
X160900000Y-117520000D02*
X160900000Y-123130000D01*
X109990000Y-83602744D02*
X111967258Y-85580000D01*
X137320000Y-72480000D02*
X137320000Y-70955000D01*
X143120000Y-119590000D02*
X149110000Y-125580000D01*
X145660000Y-114980000D02*
X148410000Y-112230000D01*
X125600000Y-85580000D02*
X128420000Y-82760000D01*
X161440000Y-82760000D02*
X161440000Y-81970000D01*
X185010000Y-70930000D02*
X185010000Y-71840000D01*
X160900000Y-123130000D02*
X165020000Y-127250000D01*
X169165000Y-74245000D02*
X169165000Y-70955000D01*
X148410000Y-112230000D02*
X165870000Y-112230000D01*
X143120000Y-117520000D02*
X143120000Y-119590000D01*
X109490000Y-111830000D02*
X101420000Y-119900000D01*
X130960000Y-78840000D02*
X137320000Y-72480000D01*
%TO.N,ws*%
X172350000Y-86310000D02*
X144670000Y-86310000D01*
X158900000Y-82760000D02*
X160050000Y-83910000D01*
X132960000Y-114980000D02*
X129410000Y-111430000D01*
X187550000Y-71110000D02*
X172350000Y-86310000D01*
X111090000Y-123590000D02*
X114725000Y-127225000D01*
X146570000Y-126030000D02*
X146570000Y-127225000D01*
X140580000Y-120040000D02*
X146570000Y-126030000D01*
X155705000Y-72525000D02*
X155705000Y-70930000D01*
X115180000Y-114980000D02*
X114030000Y-113830000D01*
X112132943Y-85180000D02*
X120920000Y-85180000D01*
X122800000Y-117520000D02*
X122800000Y-119325000D01*
X140580000Y-117520000D02*
X140580000Y-120040000D01*
X153090000Y-112630000D02*
X163730000Y-112630000D01*
X158340000Y-117540000D02*
X158340000Y-123110000D01*
X139860000Y-72510000D02*
X139860000Y-70955000D01*
X122800000Y-119325000D02*
X130725000Y-127250000D01*
X108105000Y-70955000D02*
X110390000Y-73240000D01*
X151280000Y-80220000D02*
X151280000Y-76950000D01*
X133500000Y-80220000D02*
X133500000Y-78870000D01*
X158360000Y-117520000D02*
X158340000Y-117540000D01*
X187550000Y-70930000D02*
X187550000Y-71110000D01*
X158340000Y-123110000D02*
X162480000Y-127250000D01*
X171705000Y-74121346D02*
X171705000Y-70955000D01*
X115720000Y-79160000D02*
X115720000Y-80220000D01*
X160050000Y-83910000D02*
X161916346Y-83910000D01*
X150740000Y-114980000D02*
X153090000Y-112630000D01*
X161916346Y-83910000D02*
X171705000Y-74121346D01*
X123950000Y-70930000D02*
X115720000Y-79160000D01*
X111090000Y-114610000D02*
X111090000Y-123590000D01*
X120920000Y-85180000D02*
X123340000Y-82760000D01*
X133500000Y-78870000D02*
X139860000Y-72510000D01*
X163730000Y-112630000D02*
X178325000Y-127225000D01*
X129410000Y-111430000D02*
X109130000Y-111430000D01*
X110390000Y-83437058D02*
X112132943Y-85180000D01*
X110390000Y-73240000D02*
X110390000Y-83437058D01*
X109130000Y-111430000D02*
X98880000Y-121680000D01*
X98880000Y-121680000D02*
X98880000Y-127250000D01*
X151280000Y-76950000D02*
X155705000Y-72525000D01*
X114030000Y-113830000D02*
X111870000Y-113830000D01*
X144670000Y-86310000D02*
X141120000Y-82760000D01*
X111870000Y-113830000D02*
X111090000Y-114610000D01*
%TO.N,d2*%
X168010000Y-111830000D02*
X183405000Y-127225000D01*
X145660000Y-119320000D02*
X151650000Y-125310000D01*
X103960000Y-118040000D02*
X103960000Y-127250000D01*
X169280000Y-85510000D02*
X148950000Y-85510000D01*
X151650000Y-125310000D02*
X151650000Y-127225000D01*
X128420000Y-78760000D02*
X134780000Y-72400000D01*
X125130000Y-112230000D02*
X109770000Y-112230000D01*
X134780000Y-72400000D02*
X134780000Y-70955000D01*
X160900000Y-114980000D02*
X160900000Y-115040000D01*
X160900000Y-115040000D02*
X163080000Y-117220000D01*
X163080000Y-117220000D02*
X163080000Y-122770000D01*
X118870000Y-70930000D02*
X111990000Y-77810000D01*
X148950000Y-85510000D02*
X146200000Y-82760000D01*
X143660000Y-79570000D02*
X143660000Y-80220000D01*
X161440000Y-80220000D02*
X161440000Y-78530000D01*
X163080000Y-122770000D02*
X167560000Y-127250000D01*
X109770000Y-112230000D02*
X103960000Y-118040000D01*
X109590000Y-83768430D02*
X111801573Y-85980000D01*
X182470000Y-72320000D02*
X169280000Y-85510000D01*
X146270000Y-111830000D02*
X168010000Y-111830000D01*
X150625000Y-72605000D02*
X143660000Y-79570000D01*
X145660000Y-117520000D02*
X145660000Y-119320000D01*
X150625000Y-70930000D02*
X150625000Y-72605000D01*
X127880000Y-114980000D02*
X125130000Y-112230000D01*
X130420000Y-121865000D02*
X135805000Y-127250000D01*
X112640000Y-117520000D02*
X112640000Y-120060000D01*
X143120000Y-114980000D02*
X146270000Y-111830000D01*
X111990000Y-77810000D02*
X111990000Y-81570000D01*
X111990000Y-81570000D02*
X113180000Y-82760000D01*
X182470000Y-70930000D02*
X182470000Y-72320000D01*
X103025000Y-70955000D02*
X109590000Y-77520000D01*
X128420000Y-80220000D02*
X128420000Y-78760000D01*
X130420000Y-117520000D02*
X130420000Y-121865000D01*
X109590000Y-77520000D02*
X109590000Y-83768430D01*
X166625000Y-73345000D02*
X166625000Y-70955000D01*
X111801573Y-85980000D02*
X127740000Y-85980000D01*
X127740000Y-85980000D02*
X130960000Y-82760000D01*
X112640000Y-120060000D02*
X119805000Y-127225000D01*
X161440000Y-78530000D02*
X166625000Y-73345000D01*
%TO.N,d4*%
X139610000Y-129785000D02*
X139615000Y-129790000D01*
X99215000Y-71169925D02*
X108790000Y-80744925D01*
X111470203Y-86780000D02*
X132020000Y-86780000D01*
X111190000Y-83105686D02*
X112464314Y-84380000D01*
X155770000Y-84710000D02*
X165840000Y-84710000D01*
X139610000Y-125500000D02*
X139610000Y-129785000D01*
X123615000Y-125735000D02*
X123615000Y-129765000D01*
X156360000Y-80220000D02*
X156360000Y-77560000D01*
X171450000Y-111030000D02*
X187215000Y-126795000D01*
X116640000Y-84380000D02*
X118260000Y-82760000D01*
X138040000Y-114980000D02*
X141990000Y-111030000D01*
X155820000Y-114980000D02*
X157370000Y-113430000D01*
X156360000Y-77560000D02*
X162815000Y-71105000D01*
X135500000Y-117520000D02*
X135500000Y-121390000D01*
X153280000Y-117520000D02*
X153280000Y-122400000D01*
X155460000Y-124580000D02*
X155460000Y-129765000D01*
X141990000Y-111030000D02*
X171450000Y-111030000D01*
X157370000Y-113430000D02*
X161645686Y-113430000D01*
X111190000Y-72260000D02*
X111190000Y-83105686D01*
X108790000Y-80744925D02*
X108790000Y-84099798D01*
X161645686Y-113430000D02*
X167140000Y-118924314D01*
X178660000Y-71890000D02*
X178660000Y-68390000D01*
X146815000Y-71245000D02*
X138580000Y-79480000D01*
X130970000Y-70050000D02*
X130970000Y-68415000D01*
X153280000Y-122400000D02*
X155460000Y-124580000D01*
X132020000Y-86780000D02*
X136040000Y-82760000D01*
X162815000Y-71105000D02*
X162815000Y-68415000D01*
X135500000Y-121390000D02*
X139610000Y-125500000D01*
X165840000Y-84710000D02*
X178660000Y-71890000D01*
X171370000Y-125480000D02*
X171370000Y-129790000D01*
X118310000Y-113030000D02*
X110460000Y-113030000D01*
X110460000Y-113030000D02*
X107770000Y-115720000D01*
X120800000Y-80220000D02*
X130970000Y-70050000D01*
X167140000Y-121250000D02*
X171370000Y-125480000D01*
X120260000Y-114980000D02*
X118310000Y-113030000D01*
X117720000Y-117520000D02*
X117720000Y-119840000D01*
X112464314Y-84380000D02*
X116640000Y-84380000D01*
X115060000Y-68390000D02*
X111190000Y-72260000D01*
X146815000Y-68390000D02*
X146815000Y-71245000D01*
X117720000Y-119840000D02*
X123615000Y-125735000D01*
X187215000Y-126795000D02*
X187215000Y-129765000D01*
X138580000Y-79480000D02*
X138580000Y-80220000D01*
X153820000Y-82760000D02*
X155770000Y-84710000D01*
X108790000Y-84099798D02*
X111470203Y-86780000D01*
X107770000Y-115720000D02*
X107770000Y-129790000D01*
X99215000Y-68415000D02*
X99215000Y-71169925D01*
X167140000Y-118924314D02*
X167140000Y-121250000D01*
%TO.N,clk*%
X109190000Y-79660000D02*
X109190000Y-83934112D01*
X109190000Y-83934112D02*
X111635888Y-86380000D01*
X100485000Y-70955000D02*
X109190000Y-79660000D01*
X158900000Y-80220000D02*
X158900000Y-78100000D01*
X123340000Y-80220000D02*
X132240000Y-71320000D01*
X165090000Y-117440000D02*
X165090000Y-122240000D01*
X122800000Y-114980000D02*
X120450000Y-112630000D01*
X150740000Y-117520000D02*
X150740000Y-122130000D01*
X140580000Y-114980000D02*
X144130000Y-111430000D01*
X120450000Y-112630000D02*
X110230000Y-112630000D01*
X115180000Y-117520000D02*
X115180000Y-120060000D01*
X153630000Y-85110000D02*
X167570000Y-85110000D01*
X150740000Y-122130000D02*
X154190000Y-125580000D01*
X132960000Y-121865000D02*
X138345000Y-127250000D01*
X111590000Y-82940000D02*
X111590000Y-75670000D01*
X111590000Y-75670000D02*
X116330000Y-70930000D01*
X110230000Y-112630000D02*
X106500000Y-116360000D01*
X141120000Y-79387500D02*
X141120000Y-80220000D01*
X164085000Y-72915000D02*
X164085000Y-70955000D01*
X132240000Y-71320000D02*
X132240000Y-70955000D01*
X167570000Y-85110000D02*
X179930000Y-72750000D01*
X170150000Y-111430000D02*
X185945000Y-127225000D01*
X151280000Y-82760000D02*
X153630000Y-85110000D01*
X148085000Y-72422500D02*
X141120000Y-79387500D01*
X112630000Y-83980000D02*
X111590000Y-82940000D01*
X111635888Y-86380000D02*
X129880000Y-86380000D01*
X154190000Y-125580000D02*
X154190000Y-127225000D01*
X129880000Y-86380000D02*
X133500000Y-82760000D01*
X115180000Y-120060000D02*
X122345000Y-127225000D01*
X144130000Y-111430000D02*
X170150000Y-111430000D01*
X165090000Y-122240000D02*
X170100000Y-127250000D01*
X115720000Y-82760000D02*
X114500000Y-83980000D01*
X148085000Y-70930000D02*
X148085000Y-72422500D01*
X106500000Y-116360000D02*
X106500000Y-127250000D01*
X179930000Y-72750000D02*
X179930000Y-70930000D01*
X159510000Y-113830000D02*
X161480000Y-113830000D01*
X132960000Y-117520000D02*
X132960000Y-121865000D01*
X158360000Y-114980000D02*
X159510000Y-113830000D01*
X114500000Y-83980000D02*
X112630000Y-83980000D01*
X161480000Y-113830000D02*
X165090000Y-117440000D01*
X158900000Y-78100000D02*
X164085000Y-72915000D01*
%TO.N,d3*%
X125640000Y-70289340D02*
X125640000Y-72180000D01*
X118780000Y-84780000D02*
X120800000Y-82760000D01*
X173110000Y-70029340D02*
X171495660Y-68415000D01*
X155230000Y-113030000D02*
X162000000Y-113030000D01*
X142530000Y-86710000D02*
X138580000Y-82760000D01*
X110790000Y-83271372D02*
X112298628Y-84780000D01*
X99840000Y-129790000D02*
X100150000Y-129790000D01*
X156360000Y-82760000D02*
X157910000Y-84310000D01*
X117720000Y-114980000D02*
X116170000Y-113430000D01*
X97830000Y-127780000D02*
X99840000Y-129790000D01*
X163610000Y-84310000D02*
X173110000Y-74810000D01*
X153820000Y-80220000D02*
X153820000Y-76800000D01*
X157350000Y-70590000D02*
X155150000Y-68390000D01*
X155820000Y-122920660D02*
X162689340Y-129790000D01*
X131550000Y-111030000D02*
X108964314Y-111030000D01*
X116170000Y-113430000D02*
X111030000Y-113430000D01*
X157350000Y-73270000D02*
X157350000Y-70590000D01*
X118260000Y-79560000D02*
X118260000Y-80220000D01*
X186280000Y-68390000D02*
X187340660Y-68390000D01*
X110790000Y-71950000D02*
X110790000Y-83271372D01*
X120260000Y-119470000D02*
X130580000Y-129790000D01*
X122680000Y-68390000D02*
X123740660Y-68390000D01*
X157910000Y-84310000D02*
X163610000Y-84310000D01*
X171495660Y-68415000D02*
X170435000Y-68415000D01*
X153280000Y-114980000D02*
X155230000Y-113030000D01*
X136040000Y-78940000D02*
X136040000Y-80220000D01*
X187340660Y-68390000D02*
X188900000Y-69949340D01*
X162689340Y-129790000D02*
X163750000Y-129790000D01*
X135500000Y-114980000D02*
X131550000Y-111030000D01*
X110690000Y-124920000D02*
X115535000Y-129765000D01*
X111030000Y-113430000D02*
X110690000Y-113770000D01*
X139650660Y-68415000D02*
X141650000Y-70414340D01*
X147035000Y-129765000D02*
X147840000Y-129765000D01*
X153820000Y-76800000D02*
X157350000Y-73270000D01*
X115535000Y-129765000D02*
X115995000Y-129765000D01*
X108964314Y-111030000D02*
X97830000Y-122164314D01*
X141650000Y-70414340D02*
X141650000Y-73330000D01*
X188900000Y-69949340D02*
X188900000Y-71580000D01*
X120260000Y-117520000D02*
X120260000Y-119470000D01*
X138040000Y-117520000D02*
X138040000Y-120770000D01*
X106835000Y-68415000D02*
X107255000Y-68415000D01*
X112298628Y-84780000D02*
X118780000Y-84780000D01*
X107255000Y-68415000D02*
X110790000Y-71950000D01*
X155150000Y-68390000D02*
X154435000Y-68390000D01*
X173770000Y-86710000D02*
X142530000Y-86710000D01*
X97830000Y-122164314D02*
X97830000Y-127780000D01*
X173110000Y-74810000D02*
X173110000Y-70029340D01*
X178735000Y-129765000D02*
X179595000Y-129765000D01*
X123740660Y-68390000D02*
X125640000Y-70289340D01*
X138590000Y-68415000D02*
X139650660Y-68415000D01*
X138040000Y-120770000D02*
X147035000Y-129765000D01*
X188900000Y-71580000D02*
X173770000Y-86710000D01*
X130580000Y-129790000D02*
X131995000Y-129790000D01*
X162000000Y-113030000D02*
X178735000Y-129765000D01*
X125640000Y-72180000D02*
X118260000Y-79560000D01*
X110690000Y-113770000D02*
X110690000Y-124920000D01*
X155820000Y-117520000D02*
X155820000Y-122920660D01*
X141650000Y-73330000D02*
X136040000Y-78940000D01*
%TD*%
M02*
