M48
; DRILL file {KiCad 8.0.0} date 2024-05-23T14:56:34-0500
; FORMAT={-:-/ absolute / metric / decimal}
; #@! TF.CreationDate,2024-05-23T14:56:34-05:00
; #@! TF.GenerationSoftware,Kicad,Pcbnew,8.0.0
; #@! TF.FileFunction,NonPlated,1,4,NPTH
FMAT,2
METRIC
; #@! TA.AperFunction,NonPlated,NPTH,ComponentDrill
T1C3.000
; #@! TA.AperFunction,NonPlated,NPTH,ComponentDrill
T2C3.250
%
G90
G05
T1
X92.59Y-116.6
X93.13Y-81.84
X193.03Y-116.625
X193.57Y-81.865
T2
X97.61Y-136.14
X97.945Y-62.065
X109.04Y-136.14
X109.375Y-62.065
X113.455Y-136.115
X113.79Y-62.04
X124.885Y-136.115
X125.22Y-62.04
X129.455Y-136.14
X129.7Y-62.065
X140.885Y-136.14
X141.13Y-62.065
X145.3Y-136.115
X145.545Y-62.04
X156.73Y-136.115
X156.975Y-62.04
X161.21Y-136.14
X161.545Y-62.065
X172.64Y-136.14
X172.975Y-62.065
X177.055Y-136.115
X177.39Y-62.04
X188.485Y-136.115
X188.82Y-62.04
M30
